<?xml version="1.0" encoding="UTF-8"?>
<svg width="68px" height="67px" viewBox="0 0 68 67" version="1.1" xmlns="http://www.w3.org/2000/svg" xmlns:xlink="http://www.w3.org/1999/xlink">
    <!-- Generator: sketchtool 54.1 (76490) - https://sketchapp.com -->
    <title>519674C7-9CB3-42D7-B9D9-F65788AD60E3</title>
    <desc>Created with sketchtool.</desc>
    <defs>
        <path d="M39.9999996,65.3866657 C44.8000235,65.3866657 49.2799786,64.1600113 53.4399993,61.7066658 C57.4933528,59.3599874 60.6933207,56.1600195 63.039999,52.106666 C65.4933445,47.9466453 66.7199989,43.4666902 66.7199989,38.6666663 C66.7199989,33.8666425 65.4933445,29.3866874 63.039999,25.2266667 C60.6933207,21.1733132 57.4933528,17.9733453 53.4399993,15.6266669 C49.2799786,13.1733214 44.8000235,11.946667 39.9999996,11.946667 C35.1999757,11.946667 30.7200206,13.1733214 26.5599999,15.6266669 C22.5066465,17.9733453 19.3066785,21.1733132 16.9600002,25.2266667 C14.5066547,29.3866874 13.2800003,33.8666425 13.2800003,38.6666663 C13.2800003,43.4666902 14.5066547,47.9466453 16.9600002,52.106666 C19.3066785,56.1600195 22.5066465,59.3599874 26.5599999,61.7066658 C30.7200206,64.1600113 35.1999757,65.3866657 39.9999996,65.3866657 Z M40.0000008,5.38666685 C46.0800313,5.38666685 51.7066418,6.90665169 56.8800011,9.94666695 C61.8933596,12.8266814 65.8399869,16.7733087 68.7200014,21.7866672 C71.7600167,26.9600265 73.2800015,32.586637 73.2800015,38.6666675 C73.2800015,44.7466981 71.7600167,50.3733086 68.7200014,55.5466679 C65.8399869,60.5600264 61.8933596,64.5066537 56.8800011,67.3866681 C51.7066418,70.4266834 46.0800313,71.9466682 40.0000008,71.9466682 C33.9199703,71.9466682 28.2933598,70.4266834 23.1200004,67.3866681 C18.1066419,64.4533201 14.1600147,60.4800264 11.2800002,55.4666679 C8.23998494,50.2933086 6.72000011,44.6933645 6.72000011,38.6666675 C6.72000011,32.6399706 8.23998494,27.0400265 11.2800002,21.8666672 C14.2133483,16.8533087 18.1866419,12.880015 23.2000004,9.94666695 C28.3733598,6.90665169 33.9733039,5.38666685 40.0000008,5.38666685 Z M43.2799999,21.9466666 L43.2799991,35.3866661 L56.7199985,35.3866661 L56.7199985,41.9466658 L43.2799999,41.9466666 L43.2799991,55.3866653 L36.7199993,55.3866653 L36.7199993,41.9466658 L23.2799999,41.9466666 L23.2799999,35.3866661 L36.7199993,35.3866661 L36.7199993,21.9466666 L43.2799999,21.9466666 Z" id="path-1"></path>
    </defs>
    <g id="Document-Verifcation" stroke="none" stroke-width="1" fill="none" fill-rule="evenodd">
        <g id="DocReview_376px-/-Upload-/-Additional-File-Modal" transform="translate(-154.000000, -199.000000)">
            <g id="04_Icons-/-24px-/-cloud_upload-/-outline-Copy" transform="translate(148.000000, 194.000000)">
                <mask id="mask-2" fill="white">
                    <use xlink:href="#path-1"></use>
                </mask>
                <use id="add_circle_outline---material" fill="#000000" xlink:href="#path-1"></use>
                <g id="00_Atoms-/-Color-/gray-Md" mask="url(#mask-2)" fill="#8B1863">
                    <rect id="Rectangle-2" x="0" y="0" width="80.8" height="80.8"></rect>
                </g>
            </g>
        </g>
    </g>
</svg>