<?xml version="1.0" encoding="UTF-8"?>
<svg width="42px" height="43px" viewBox="0 0 42 43" version="1.1" xmlns="http://www.w3.org/2000/svg" xmlns:xlink="http://www.w3.org/1999/xlink">
    <!-- Generator: sketchtool 54.1 (76490) - https://sketchapp.com -->
    <title>3655534A-7636-4ADB-B2EF-F782EF700B8F</title>
    <desc>Created with sketchtool.</desc>
    <defs>
        <path d="M24.4461376,17.1971831 C23.9701672,16.0084064 23.7083333,14.7108202 23.7083333,13.3521127 C23.7083333,7.63496521 28.3442182,3 34.0625,3 C39.7809512,3 44.4166667,7.63487959 44.4166667,13.3521127 C44.4166667,17.4870828 41.9917896,21.0558891 38.4861992,22.7145396 C38.8678593,23.205599 39.0916667,23.8344595 39.0916667,24.5083687 C39.0916667,25.3742598 38.438699,26.0704225 37.6395482,26.0704225 L36.1304079,26.0704225 C36.1313831,26.0720124 36.1323583,26.0736022 36.1333333,26.0751921 L36.0899219,26.0986007 C38.4428369,26.3590046 40.275,28.3922923 40.275,30.8629885 L40.275,30.910117 L39.6833333,34.8386458 L39.6833333,42.5319376 C39.6833333,43.5662571 38.8538653,44.4084507 37.8261186,44.4084507 L35.6238814,44.4084507 C34.5961347,44.4084507 33.7666667,43.5662571 33.7666667,42.5319376 L33.7666667,41.4507042 L9.50833333,41.4507042 L9.50833333,43.0626494 C9.50833333,44.129011 8.68040739,45 7.65111863,45 L5.44888137,45 C4.41959261,45 3.59166667,44.129011 3.59166667,43.0626494 L3.59166667,34.8378034 L3,30.9101271 L3,30.8629885 C3,28.4008037 4.81956144,26.373019 7.16077957,26.101355 L7.14166667,26.0908679 C7.14543103,26.0840496 7.14919428,26.0772345 7.15295641,26.0704225 L5.63407594,26.0704225 C4.82919228,26.0704225 4.18333333,25.4070154 4.18333333,24.5965368 C4.18333333,23.1270488 5.34889148,21.9295775 6.79509928,21.9295775 L9.55858108,21.9295775 C11.4233308,18.9361618 12.9090262,17.1971831 13.9896163,17.1971831 L24.4461376,17.1971831 Z M25.0103976,18.3816007 L13.9896163,18.3816007 C13.2483839,18.3816007 10.9288447,21.7610213 8.51169005,26.0704225 L34.6794739,26.0704225 C34.1855987,25.2778293 33.6795093,24.4914715 33.175,23.7393219 L33.283457,23.6753617 C29.7206886,23.4103714 26.659868,21.3427104 25.0103976,18.3816007 Z M34.6205192,23.6894477 C34.8565392,24.0485227 35.0920046,24.4132367 35.3256007,24.7808919 L37.6395482,24.7808919 C37.7908888,24.7808919 37.9083333,24.6556781 37.9083333,24.5083687 C37.9083333,23.9714605 37.6409959,23.4847566 37.2191967,23.2143123 C36.3932344,23.4783656 35.5221791,23.6415729 34.6205192,23.6894477 Z M34.95,41.4507042 L34.95,42.5319376 C34.95,42.9168995 35.2537919,43.2253521 35.6238814,43.2253521 L37.8261186,43.2253521 C38.1962081,43.2253521 38.5,42.9168995 38.5,42.5319376 L38.5,40.4451342 C38.0142347,41.0585591 37.2709669,41.4507042 36.438186,41.4507042 L34.95,41.4507042 Z M38.5,34.4083511 L38.5,33.1690141 L38.6943354,33.1690141 L39.0916667,30.63511 C39.0678461,28.7639246 37.5110298,27.2535211 35.5930907,27.2535211 L35.5930907,26.6619718 L35.5930907,27.2535211 L7.68190917,27.2535211 C5.76397328,27.2535211 4.20715897,28.7639196 4.18333333,30.6351007 L4.4879737,32.5774648 L4.775,32.5774648 L4.775,34.4075229 L5.37201769,38.2140628 L5.37201769,38.2593884 C5.37201769,39.0414794 6.01987221,39.6760563 6.8203765,39.6760563 L36.4546234,39.6760563 C37.2552002,39.6760563 37.9032402,39.0414081 37.9032402,38.2593884 L37.9032402,38.2140725 L38.5,34.4083511 Z M8.325,41.4507042 L6.83681397,41.4507042 C6.00395423,41.4507042 5.26069453,41.0584795 4.775,40.4449384 L4.775,43.0626494 C4.775,43.46683 5.08033398,43.7880453 5.44888137,43.7880453 L7.65111863,43.7880453 C8.01966602,43.7880453 8.325,43.46683 8.325,43.0626494 L8.325,41.4507042 Z M35.5776091,26.3748545 L35.5776091,26.3748545 L35.5776091,26.6856338 L35.5776091,26.3748545 Z M29.0333333,34.943662 L29.0333333,34.9167394 C29.0333333,34.2792621 28.510443,33.7605634 27.8631513,33.7605634 L15.4118487,33.7605634 C14.764557,33.7605634 14.2416667,34.2792621 14.2416667,34.9167394 L14.2416667,34.943662 L29.0333333,34.943662 Z M28.8844902,35.5352113 L14.3905098,35.5352113 C14.5906723,35.8879267 14.9726203,36.1267606 15.4118487,36.1267606 L27.8631513,36.1267606 C28.3023797,36.1267606 28.6843277,35.8879267 28.8844902,35.5352113 Z M8.83997222,23.1126761 L6.79509928,23.1126761 C6.00974295,23.1126761 5.36666667,23.7733599 5.36666667,24.5965368 C5.36666667,24.7606519 5.48998804,24.8873239 5.63407594,24.8873239 L7.81365229,24.8873239 C8.16642564,24.2631869 8.5085743,23.6708561 8.83997222,23.1126761 Z M4.775,31.3850675 C4.775,30.0372288 6.1981019,29.028169 7.87850269,29.028169 C9.62043334,29.028169 13.0583333,31.0450495 13.0583333,32.3827757 C13.0583333,33.031046 12.5536268,33.3903723 11.7815865,33.5739027 C11.2884765,33.6911254 10.6594116,33.7446607 9.86270047,33.7573745 C9.48918157,33.763335 9.15284049,33.7607714 8.58745418,33.7510924 C8.12746431,33.7432177 8.04009208,33.741966 7.87850269,33.741966 C6.1981019,33.741966 4.775,32.7329063 4.775,31.3850675 Z M38.5,31.3850675 C38.5,32.7329063 37.0768981,33.741966 35.3964973,33.741966 C35.2349079,33.741966 35.1475357,33.7432177 34.6875458,33.7510924 C34.1221595,33.7607714 33.7858184,33.763335 33.4122995,33.7573745 C32.6155884,33.7446607 31.9865235,33.6911254 31.4934135,33.5739027 C30.7213732,33.3903723 30.2166667,33.031046 30.2166667,32.3827757 C30.2166667,31.0450495 33.6545667,29.028169 35.3964973,29.028169 C37.0768981,29.028169 38.5,30.0372288 38.5,31.3850675 Z M10.3956492,31.140898 C9.44238235,30.5919019 8.39797428,30.2112676 7.86964787,30.2112676 C6.77977782,30.2112676 5.95833333,30.783045 5.95833333,31.3850745 C5.95833333,31.9871041 6.77977782,32.5588814 7.86964787,32.5588814 C8.04514304,32.5588814 8.13539274,32.5601507 8.61400699,32.568194 C9.17642526,32.5776457 9.50790447,32.580126 9.87013969,32.5744515 C10.5951692,32.5630936 11.1563217,32.516213 11.546207,32.4252274 C11.6928303,32.3910106 11.8040586,32.35264 11.875,32.3165508 C11.7611038,32.09928 11.1928748,31.6000284 10.3956492,31.140898 Z M31.728793,32.4252274 C32.1186783,32.516213 32.6798308,32.5630936 33.4048603,32.5744515 C33.7670955,32.580126 34.0985747,32.5776457 34.660993,32.568194 C35.1396073,32.5601507 35.229857,32.5588814 35.4053521,32.5588814 C36.4952222,32.5588814 37.3166667,31.9871041 37.3166667,31.3850745 C37.3166667,30.783045 36.4952222,30.2112676 35.4053521,30.2112676 C34.8770257,30.2112676 33.8326176,30.5919019 32.8793508,31.140898 C32.0821252,31.6000284 31.5138962,32.09928 31.4,32.3165508 C31.4709414,32.35264 31.5821697,32.3910106 31.728793,32.4252274 Z M27.8631513,32.5774648 C29.1619095,32.5774648 30.2166667,33.6237667 30.2166667,34.9167394 L30.2166667,34.9705846 C30.2166667,36.2635572 29.1619095,37.3098592 27.8631513,37.3098592 L15.4118487,37.3098592 C14.1130905,37.3098592 13.0583333,36.2635572 13.0583333,34.9705846 L13.0583333,34.9167394 C13.0583333,33.6237667 14.1130905,32.5774648 15.4118487,32.5774648 L27.8631513,32.5774648 Z M43.2333333,13.3521127 C43.2333333,8.28828219 39.1274094,4.18309859 34.0625,4.18309859 C28.9977554,4.18309859 24.8916667,8.28837283 24.8916667,13.3521127 C24.8916667,18.4158525 28.9977554,22.5211268 34.0625,22.5211268 C39.1274094,22.5211268 43.2333333,18.4159432 43.2333333,13.3521127 Z M33.5902094,10.0985915 C34.2862879,10.0985915 34.8231079,10.294615 35.2003986,10.6861356 C35.5776894,11.0779193 35.7664702,11.5873171 35.7664702,12.2138027 C35.7664702,12.3432571 35.7531987,12.571381 35.7269265,12.8984376 C35.7006542,13.2254941 35.6524434,13.5254494 35.5822938,13.7977773 L34.8615682,16.7712816 C34.8030652,17.0099303 34.749979,17.2822581 34.7031224,17.5887914 C34.6562657,17.8953247 34.6329728,18.1271323 34.6329728,18.2836879 C34.6329728,18.6788922 34.7085393,18.9477995 34.860214,19.090936 C35.0121595,19.2340726 35.2748817,19.3056409 35.6483806,19.3056409 C35.8236191,19.3056409 36.0218795,19.2698568 36.2434329,19.1982885 C36.4652571,19.1267202 36.6258698,19.0638348 36.725,19.0093693 L36.5321565,19.9289691 C35.9536259,20.194719 35.4918307,20.3973204 35.1473125,20.5370364 C34.8025235,20.6764893 34.4022107,20.7464789 33.9463741,20.7464789 C33.2451495,20.7464789 32.7002041,20.5470349 32.3115377,20.1486732 C31.9228714,19.7500484 31.7286736,19.2443342 31.7286736,18.6312677 C31.7286736,18.392619 31.7430285,18.1492342 31.7725509,17.9005871 C31.8015316,17.6519399 31.8483883,17.3709291 31.91285,17.0575548 L32.636284,14.0735257 C32.7010166,13.7875156 32.7551862,13.5167665 32.7990635,13.2612783 C32.8429408,13.00579 32.8648795,12.7726668 32.8648795,12.5613825 C32.8648795,12.1798604 32.7974384,11.9141105 32.6628271,11.764396 C32.5282158,11.6144183 32.2703689,11.5394295 31.8895571,11.5394295 C31.7018597,11.5394295 31.5100996,11.5736349 31.313735,11.6415196 C31.1170996,11.7099304 30.9489033,11.7743945 30.8083333,11.8357012 L31.0014477,10.9161013 C31.4751602,10.6911348 31.9285592,10.4987951 32.3613737,10.3388189 C32.7944591,10.1788428 33.2039807,10.0985915 33.5902094,10.0985915 Z M34.9546053,5.95774648 C35.4422105,5.95774648 35.8592008,6.13156311 36.2055763,6.47969442 C36.5516727,6.82807474 36.725,7.24717702 36.725,7.73700125 C36.725,8.22707451 36.5516727,8.64468266 36.2055763,8.98932767 C35.8592008,9.33447073 35.4422105,9.50704225 34.9546053,9.50704225 C34.466721,9.50704225 34.0483352,9.33447073 33.6988895,8.98932767 C33.3497229,8.64468266 33.175,8.22707451 33.175,7.73700125 C33.175,7.24717702 33.3497229,6.82807474 33.6988895,6.47969442 C34.0483352,6.13156311 34.466721,5.95774648 34.9546053,5.95774648 Z M33.3215463,11.2816901 C33.3076711,11.2816901 33.2935389,11.2819452 33.2794067,11.2822003 C33.5363552,11.6166002 33.6612321,12.0647624 33.6612321,12.6488781 C33.6612321,12.9080317 33.6355373,13.1929475 33.5849185,13.4949532 C33.5407233,13.7586981 33.4852224,14.0408081 33.4204714,14.3338863 L33.4186728,14.3415385 L33.4168742,14.3489355 L32.734676,17.2238564 C32.6814876,17.4909172 32.6421745,17.7319606 32.6182783,17.9403547 C32.594896,18.1413517 32.5833333,18.3405633 32.5833333,18.5331429 C32.5833333,18.9677863 32.7380163,19.1802616 32.8546709,19.3021862 C32.9615615,19.414418 33.1612104,19.5633803 33.6594335,19.5633803 L33.6763921,19.5633803 C33.4119921,19.231276 33.283004,18.7815834 33.283004,18.1961923 C33.283004,17.9890735 33.3076711,17.7276243 33.3606024,17.3728187 C33.4091657,17.0491318 33.4654374,16.7532478 33.5278759,16.493074 L34.2111019,13.6135619 L34.2126436,13.6066749 L34.2144422,13.599788 C34.2668597,13.391904 34.3036033,13.1551968 34.3239022,12.8965534 C34.3539652,12.518026 34.3583333,12.3677883 34.3583333,12.3119275 C34.3583333,11.8563682 34.2100741,11.6461886 34.0985584,11.527835 C34.0412589,11.4673828 33.866534,11.2816901 33.3215463,11.2816901 Z M35.006993,6.75 C34.7950837,6.75 34.6043653,6.79158004 34.3636364,6.99436271 C34.1118881,7.20642092 34,7.44118823 34,7.75591716 C34,8.06840716 34.1101928,8.29997601 34.3581267,8.50659683 C34.5997033,8.7087398 34.792117,8.75 35.006993,8.75 C35.2189023,8.75 35.4083492,8.7093795 35.6439924,8.51107468 C35.890231,8.30349432 36,8.07064609 36,7.75591716 C36,7.4389493 35.8885357,7.20290261 35.6384827,6.9902047 C35.4036872,6.79094035 35.2163594,6.75 35.006993,6.75 Z" id="path-1"></path>
    </defs>
    <g id="Document-Verifcation" stroke="none" stroke-width="1" fill="none" fill-rule="evenodd">
        <g id="DocReview_376px_Neutral" transform="translate(-19.000000, -698.000000)">
            <g id="05_Inputs-/-Summary-/-Verification-/-Incomplete-Copy-4" transform="translate(0.000000, 680.000000)">
                <g id="Left-Aligned-Copy" transform="translate(16.000000, 15.666667)">
                    <g id="Icon">
                        <mask id="mask-2" fill="white">
                            <use xlink:href="#path-1"></use>
                        </mask>
                        <use id="VehicleInfo" fill="#A51482" fill-rule="nonzero" xlink:href="#path-1"></use>
                        <g id="color" mask="url(#mask-2)" fill="#777770">
                            <g transform="translate(-29.000000, -33.000000)" id="Rectangle-2">
                                <rect x="0" y="0" width="101" height="101"></rect>
                            </g>
                        </g>
                    </g>
                </g>
            </g>
        </g>
    </g>
</svg>