<?xml version="1.0" encoding="UTF-8"?>
<svg width="83px" height="41px" viewBox="0 0 83 41" version="1.1" xmlns="http://www.w3.org/2000/svg" xmlns:xlink="http://www.w3.org/1999/xlink">
    <!-- Generator: sketchtool 53.2 (72643) - https://sketchapp.com -->
    <title>9EAA81BD-9D70-4955-A1AC-6A80D05E502D</title>
    <desc>Created with sketchtool.</desc>
    <defs>
        <path d="M7.02173283,37.9134101 C6.4773695,8.53478698 11.1629363,6.90439865 11.1629363,6.90439865 C19.6850834,5.99255577 61.7887596,6.9077415 61.7887596,6.9077415 C63.4218838,6.9077415 63.9795672,8.54753428 63.9795672,8.54753428 L77.0440476,24.3444327 L86.2945983,29.8180746 L87.3832907,31.5179703 L87.9309884,39.9705977 L85.7568523,43.1198889 L82.7511925,43.1198889 C82.9315355,42.2649396 83.0350613,41.5401991 83.0350613,40.7854498 C83.0350613,35.9796943 79.1376902,32.0051204 74.3316782,32.0051204 C69.5256661,32.0051204 65.6282942,36.0193639 65.6282942,40.8247775 C65.6282942,41.5795353 65.73182,42.2641702 65.912163,43.1191195 L32.1553445,43.1191195 C32.3356875,42.2641702 32.4425562,41.5394296 32.4425562,40.7846804 C32.4425562,35.9789248 28.5451843,32.004351 23.7357524,32.004351 C18.9299969,32.004351 15.0289487,35.8616258 15.0289487,40.6675523 C15.0289487,41.405613 15.0890602,42.1002764 15.262726,42.7849198 L8.41979724,41.7195675 L8.41979724,41.1752041 L5,40.6308408 L5,38.4533704 L7.02173283,37.9134101 Z M86.221672,35.4253366 L86.8461868,35.4253366 L86.3018235,32.0055394 L86.221672,32.0055394 L86.221672,35.4253366 Z M58.0083448,19.3847777 L58.0083448,23.4557898 L67.9702141,23.4557898 C69.9973844,23.4557898 71.54698,23.6027385 71.7707203,23.2687696 C72.989707,21.4453337 67.0050618,14.8428167 65.1415288,14.5320426 C63.7422333,14.2982653 62.2159778,14.4719312 60.8000107,14.475274 C59.8080986,14.4786083 59.0901121,14.495314 58.0981999,14.495314 C57.9011598,14.495314 58.0113713,14.7157285 58.0113713,14.9595259 L58.0083448,19.3847777 Z M34.0697641,22.9448721 C34.0697641,23.2287409 34.4170873,23.4558411 34.8479048,23.4558411 L52.9557311,23.4558411 C53.3865486,23.4558411 53.7338718,23.2287495 53.7338718,22.9448721 L53.7338718,14.5590163 C53.7338718,14.2784903 53.3865486,14.0513901 52.9557311,14.0513901 L34.8479048,14.0513901 C34.4170873,14.0513901 34.0697641,14.2784818 34.0697641,14.5623592 L34.0697641,22.9448721 Z M10.9861328,22.9448721 C10.9861328,23.2287409 11.3334559,23.4558411 11.7609306,23.4558411 L29.8721767,23.4558411 C30.3029943,23.4558411 30.6503174,23.2287495 30.6503174,22.9448721 L30.6503174,14.5590163 C30.6503174,14.2784903 30.3029943,14.0513901 29.8721767,14.0513901 L11.7609306,14.0513901 C11.3334559,14.0513901 10.9861328,14.2784818 10.9861328,14.5623592 L10.9861328,22.9448721 Z M74.4336,34.1200789 C77.9844,34.1200789 80.8672,36.9989789 80.8672,40.5536789 C80.8672,44.1083789 77.9883,46.9872789 74.4336,46.9872789 C70.8828,46.9872789 68,44.1083789 68,40.5536789 C68,37.0028789 70.8789,34.1200789 74.4336,34.1200789 Z M74.4336,43.1161789 C75.8477,43.1161789 76.9961,41.9677789 76.9961,40.5536789 C76.9961,39.1395789 75.8477,37.9911789 74.4336,37.9911789 C73.0156,37.9911789 71.8711,39.1395789 71.8711,40.5536789 C71.8711,41.9677789 73.0156,43.1161789 74.4336,43.1161789 Z M23.4336,34.1200789 C26.9883,34.1200789 29.8672,36.9989789 29.8672,40.5536789 C29.8672,44.1083789 26.9883,46.9872789 23.4336,46.9872789 C19.8789,46.9872789 17,44.1083789 17,40.5536789 C17,37.0028789 19.8789,34.1200789 23.4336,34.1200789 Z M23.4336,43.1161789 C24.8477,43.1161789 25.9961,41.9677789 25.9961,40.5536789 C25.9961,39.1395789 24.8477,37.9911789 23.4336,37.9911789 C22.0195,37.9911789 20.8711,39.1395789 20.8711,40.5536789 C20.8711,41.9677789 22.0195,43.1161789 23.4336,43.1161789 Z" id="path-1"></path>
    </defs>
    <g id="Vehicle-Summary" stroke="none" stroke-width="1" fill="none" fill-rule="evenodd">
        <g id="Vehicle-Icons" transform="translate(-695.000000, -181.000000)">
            <g id="04_Icons-/-Vehicles-/-Passenger-Van" transform="translate(690.000000, 175.000000)">
                <mask id="mask-2" fill="white">
                    <use xlink:href="#path-1"></use>
                </mask>
                <use id="Combined-Shape" fill="#4C4C4C" fill-rule="evenodd" xlink:href="#path-1"></use>
                <g id="00_Basics-/-Colors-/-Gray-/-700" mask="url(#mask-2)" fill="#777770" fill-rule="evenodd">
                    <g transform="translate(-5.000000, -26.000000)" id="Rectangle-2">
                        <rect x="0" y="0" width="101" height="101"></rect>
                    </g>
                </g>
            </g>
        </g>
    </g>
</svg>