<?xml version="1.0" encoding="utf-8"?>
<!-- Generator: Adobe Illustrator 23.0.2, SVG Export Plug-In . SVG Version: 6.00 Build 0)  -->
<svg version="1.1" id="Layer_1" xmlns="http://www.w3.org/2000/svg" xmlns:xlink="http://www.w3.org/1999/xlink" x="0px" y="0px"
	 viewBox="0 0 80 80" style="enable-background:new 0 0 80 80;" xml:space="preserve">
<style type="text/css">
	.st0{fill-rule:evenodd;clip-rule:evenodd;fill:#8B1863;}
</style>
<title>Confused_Icon</title>
<desc>Created with Sketch.</desc>
<g id="Recover-Quote">
	<g transform="translate(-164.000000, -88.000000)">
		<g id="Confused_Icon" transform="translate(148.000000, 88.000000)">
			<path id="Fill-1" class="st0" d="M45.9,0l-2.2,0.6c-2.7,0.7-5,2.5-6.3,5.3L37,5.3l-1-2.1l-1.1,2c-2.6,4.9-3.5,9-3.1,12.3
				c0.3,2.7,1.4,4.9,2.9,6.6c-1.5,2.6-1.8,5.4-1.3,8c0.5,2.8,1.9,5.3,3.6,7l0.1-0.1l-0.1,3.7c-0.3-0.1-0.7-0.2-1.1-0.3h-0.1
				c-1.3,0-2.3,0.6-3.1,1.6c-0.7,1-1.1,2.2-1.2,3.6c0,1.4,0.3,2.6,1,3.6c0.7,1,1.8,1.7,3,1.7c0.4,0,0.7-0.1,1.1-0.2l-0.5,16.7v0h0
				c0,1.7,0.6,3.3,1.7,4.6c1.1,1.3,2.6,2.4,4.4,3.2c3.6,1.7,8.2,2.6,12.9,2.8c4.7,0.1,9.5-0.5,13.3-2.2c3.8-1.6,6.8-4.4,7.3-8.2h0
				c0-0.1,0-0.1,0-0.2l-0.5-16.7c0.4,0.1,0.7,0.2,1.1,0.2c1.3,0,2.3-0.7,3-1.7c0.7-1,1.1-2.2,1-3.6c0-1.4-0.4-2.6-1.2-3.6
				c-0.7-1-1.8-1.6-3.1-1.6H76c-0.4,0.1-0.7,0.2-1.1,0.3l-0.1-4.6l0.1-0.1c3.1-3.4,5.6-10.2,5.6-15.9c0-2.8-0.6-5.5-2.5-7.1
				c-1.7-1.4-4.2-1.7-7.4-0.6c-0.8-2.4-2.3-4.1-4.3-5.1c-2.3-1.1-4.9-1.4-7.5-1.3c-2.6,0.1-5.1,0.5-7.1,0.9c-1,0.2-1.8,0.4-2.5,0.5
				c-0.3,0.1-0.6,0.1-0.8,0.2c-0.1,0-0.3,0-0.3,0c-2.2-0.1-3.4-0.7-3.9-1.7c-0.5-1-0.5-2.8,0.7-5.7L45.9,0L45.9,0z M42,3.7
				c-0.5,2.1-0.5,3.8,0.2,5.2c1,1.9,3.2,2.7,5.8,2.9c0.3,0,0.5,0,0.7-0.1c0.2,0,0.5-0.1,0.9-0.2c0.7-0.1,1.5-0.3,2.5-0.5
				c1.9-0.4,4.3-0.8,6.7-0.9c2.4-0.1,4.7,0.2,6.5,1.1c1.8,0.9,3,2.2,3.4,4.6l0.3,1.4l1.3-0.5c3.4-1.4,5.2-1,6.3-0.1
				c1.1,0.9,1.7,2.9,1.7,5.4c0,3.9-1.6,8.8-3.4,12c-0.1-1.1-0.3-2.3-0.6-3.7c-0.4-1.8-1-3.6-1.9-5.3c-0.9-1.6-2-3.1-3.7-3.8
				c-2-0.8-3.9-0.8-5.6-0.2c-1.7,0.5-3.3,1.5-5,2.5c-3.4,2-7,4.1-12.3,3.9c0,0-0.5-0.1-1-0.2c-0.6-0.1-1.3-0.3-2.2-0.6
				c-1.7-0.6-3.7-1.6-5.3-3.1c-1.6-1.5-2.8-3.5-3.1-6.2c-0.2-2.3,0.3-5.2,1.9-8.8l0.4,0.9l1.5,3.2l0.7-3.4C39.2,6.4,40.3,4.8,42,3.7
				L42,3.7z M65.7,23c0.7,0,1.3,0.2,2.1,0.5c1,0.4,1.9,1.4,2.6,2.7c0.7,1.4,1.3,3.1,1.6,4.7c0.2,0.7,0.3,1.4,0.4,2l1,36.3v0
				c-0.4,2.9-2.5,5-5.9,6.4c-3.4,1.4-7.9,2.1-12.3,2c-4.4-0.1-8.8-1-11.9-2.5c-1.6-0.7-2.8-1.7-3.6-2.6c-0.8-1-1.2-1.9-1.2-3.1
				L39.7,28c0.7,0.3,1.4,0.6,2,0.9c0.9,0.3,1.8,0.6,2.5,0.7c0.7,0.2,1.1,0.2,1.5,0.2c5.9,0.2,10.1-2.2,13.5-4.2
				c1.7-1,3.2-1.8,4.6-2.2C64.4,23.1,65,23,65.7,23L65.7,23z M36.4,25.9c0.3,0.3,0.7,0.5,1,0.8l-0.3,9.1c-0.7-1.1-1.3-2.5-1.5-4
				C35.3,29.8,35.4,27.8,36.4,25.9L36.4,25.9z M49.9,38.8L49.9,38.8c-0.1,0-0.1,0-0.2,0l-7.5,1.9h0c-0.3,0.1-0.6,0.2-0.8,0.5
				c-0.2,0.3-0.2,0.6-0.1,0.9c0.1,0.3,0.3,0.6,0.6,0.7c0.3,0.2,0.6,0.2,0.9,0.1l7.5-1.9c0.6-0.1,1-0.7,0.9-1.3
				C51,39.1,50.5,38.7,49.9,38.8L49.9,38.8z M61.9,38.8L61.9,38.8c-0.6,0.1-1,0.5-1,1.1c0,0.6,0.3,1.1,0.9,1.2l7.5,1.9
				c0.3,0.1,0.6,0.1,0.9-0.1c0.3-0.2,0.5-0.4,0.6-0.7c0.1-0.3,0-0.6-0.2-0.9c-0.2-0.3-0.5-0.5-0.8-0.5l-7.5-1.9
				C62.2,38.8,62,38.7,61.9,38.8L61.9,38.8z M46.4,42.5c-1.7,0-3.1,1.4-3.1,3.1s1.4,3.1,3.1,3.1c1.7,0,3.1-1.4,3.1-3.1
				S48.1,42.5,46.4,42.5z M65.5,42.5c-1.7,0-3.1,1.4-3.1,3.1s1.4,3.1,3.1,3.1c1.7,0,3.1-1.4,3.1-3.1S67.3,42.5,65.5,42.5z
				 M59.2,44.5L59.2,44.5c-0.4,0-0.7,0.2-0.9,0.5c-0.2,0.3-0.3,0.7-0.1,1c0,0,0.2,1,0.1,1.8c-0.1,0.4-0.2,0.7-0.5,0.9
				s-0.8,0.5-1.7,0.5c-1,0-1.4-0.2-1.7-0.5c-0.3-0.2-0.4-0.5-0.5-0.9c-0.2-0.8,0.1-1.8,0.1-1.8h0c0.1-0.3,0.1-0.6-0.1-0.9
				c-0.1-0.3-0.4-0.5-0.7-0.6c-0.3-0.1-0.6-0.1-0.9,0.1c-0.3,0.1-0.5,0.4-0.6,0.7c0,0-0.4,1.4-0.1,2.9c0.2,0.8,0.5,1.6,1.3,2.2
				c0.8,0.6,1.9,1,3.2,1s2.4-0.4,3.2-1c0.8-0.6,1.2-1.5,1.3-2.2c0.3-1.5-0.1-2.9-0.1-2.9h0c-0.1-0.5-0.6-0.9-1.1-0.9L59.2,44.5
				L59.2,44.5z M35.6,44.7c0.5,0.1,0.8,0.2,1.3,0.7L36.7,50c-0.4,0.4-0.7,0.6-1.1,0.6c-0.4,0-0.8-0.2-1.2-0.8
				c-0.4-0.5-0.6-1.3-0.6-2.2c0-0.9,0.3-1.7,0.7-2.2C34.8,44.9,35.2,44.7,35.6,44.7L35.6,44.7z M76.2,44.7c0.4,0,0.8,0.2,1.2,0.7
				c0.4,0.5,0.7,1.3,0.7,2.2c0,0.9-0.3,1.7-0.6,2.2c-0.4,0.5-0.8,0.8-1.2,0.8c-0.4,0-0.8-0.2-1.2-0.6L75,45.5
				C75.5,44.9,75.7,44.8,76.2,44.7L76.2,44.7z M62.8,55.2L62.8,55.2c-0.2,0-0.4,0.1-0.6,0.3l-4.9,4.1c-0.2,0.2-0.4,0.5-0.4,0.8
				c0,0.3,0.1,0.6,0.3,0.8c0.2,0.2,0.5,0.4,0.8,0.4c0.3,0,0.6-0.1,0.8-0.3l4.9-4.1h0c0.4-0.3,0.5-0.9,0.3-1.4
				C63.8,55.4,63.3,55.1,62.8,55.2L62.8,55.2z"/>
		</g>
	</g>
</g>
</svg>
