<?xml version="1.0" encoding="UTF-8"?>
<svg width="40px" height="8px" viewBox="0 0 40 8" version="1.1" xmlns="http://www.w3.org/2000/svg" xmlns:xlink="http://www.w3.org/1999/xlink">
    <!-- Generator: sketchtool 56.2 (101010) - https://sketch.com -->
    <title>2F9FBE75-E461-4FDA-98D6-161384715AF5</title>
    <desc>Created with sketchtool.</desc>
    <defs>
        <path d="M0.5125,17.0071244 L2.2284168,17.0071244 C2.54839784,17.0071244 2.86816795,17.0341041 3.1588297,17.0745737 C4.67098797,17.2767258 5.86337613,18.0180808 5.86337613,19.9856432 C5.86337613,21.9399113 4.67098797,22.6943651 3.1588297,22.8830274 C2.86816795,22.923497 2.54818691,22.9367913 2.2284168,22.9367913 L0.5125,22.9367913 L0.5125,17.0071244 Z M39.4225727,17.9099665 C39.6550177,17.9099665 39.8296679,17.7482839 39.8296679,17.5056622 C39.8296679,17.263236 39.6550177,17.087868 39.4225727,17.087868 C39.1897058,17.087868 39.0150557,17.2630405 39.0150557,17.5056622 C39.0150557,17.7482839 39.1897058,17.9099665 39.4225727,17.9099665 Z M39.4225746,16.9936345 C39.5691043,16.9935827 39.7096485,17.0475116 39.8132607,17.1435467 C39.9168728,17.2395818 39.9750567,17.3698481 39.9750009,17.5056622 C39.9751127,17.6415102 39.9169535,17.7718268 39.8133353,17.8679042 C39.7097171,17.9639815 39.5691408,18.0179373 39.4225746,18.0178854 C39.1174199,18.0178854 38.8700431,17.788599 38.8700431,17.50576 C38.8700431,17.2229209 39.1174199,16.9936345 39.4225746,16.9936345 L39.4225746,16.9936345 Z M39.4225723,17.5866013 L39.393253,17.5461317 L39.320693,17.5461317 L39.320693,17.7887534 L39.2040486,17.7887534 L39.2040486,17.2092766 L39.4512588,17.2092766 C39.5965896,17.2092766 39.6841256,17.263236 39.6841256,17.3844491 C39.6841256,17.4786825 39.6111438,17.5326419 39.5094755,17.5461317 L39.6841256,17.7887534 L39.553138,17.7887534 L39.4225723,17.5866013 Z M39.4225732,17.2902157 L39.4369164,17.2902157 C39.4949222,17.2902157 39.5531389,17.3037055 39.5531389,17.3711547 C39.5531389,17.4520938 39.4951331,17.4653882 39.4369164,17.4653882 L39.3209048,17.4653882 L39.3209048,17.2902157 L39.4225732,17.2902157 Z M35.3803075,19.527184 C35.8601736,19.4732246 36.2525037,19.2845623 36.2525037,18.7185753 C36.2525037,18.179568 35.8603845,18.0311797 35.3803075,17.9639259 L34.5076895,17.9639259 L34.5076895,19.5543592 L34.9147847,19.5543592 C35.0748806,19.5543592 35.2347657,19.5406738 35.3803075,19.527184 L35.3803075,19.527184 Z M35.380308,17.0206143 C36.5144795,17.0610838 37.5613259,17.2767258 37.5613259,18.6243419 C37.5613259,19.3252273 37.0814598,19.9047041 36.2818235,19.9989376 C36.6163588,20.0394071 36.8199064,20.349478 36.9361289,20.6190794 L37.9397346,22.9367913 L36.5435879,22.9367913 L35.7876142,21.0771477 C35.6713916,20.8075463 35.5697233,20.6456681 35.380519,20.5514347 C35.2788506,20.4976708 35.1189656,20.4704956 34.9149961,20.4704956 L34.5079009,20.4704956 L34.5079009,22.9367913 L33.2575069,22.9367913 L33.2575069,17.0071244 L34.6095692,17.0071244 C34.8565684,17.0071244 35.1330979,17.0071244 35.380308,17.0206143 Z M23.7333786,18.7860245 C23.8787095,19.1363695 23.9512694,19.5273795 23.9512694,19.9721534 C23.9512694,20.3899476 23.8787095,20.794252 23.7333786,21.1580868 C23.2826209,22.3031597 22.192112,23.0447102 20.6947189,23.0447102 C18.6881404,23.0447102 17.4084272,21.7778377 17.4084272,19.9719579 C17.4084272,18.1523928 18.7170378,16.9126955 20.6947189,16.9126955 C22.192112,16.9126955 23.2826209,17.6405607 23.7333786,18.7860245 L23.7333786,18.7860245 Z M23.7333777,17.5326419 L25.9437147,22.9367913 L26.4088157,22.9367913 L28.8661518,17.0071244 L27.5573303,17.0071244 L26.2489306,20.1336405 L24.8532058,17.0071244 L23.5154869,17.0071244 L23.7333777,17.5326419 L23.7333777,17.5326419 Z M29.1861344,17.0071244 L32.9082079,17.0071244 L32.9082079,17.9639259 L30.4508716,17.9639259 L30.4508716,19.4194607 L32.6898952,19.4194607 L32.6898952,20.3355972 L30.4510826,20.3355972 L30.4510826,22.0069695 L32.922973,22.0069695 L32.922973,22.9367913 L29.1863454,22.9367913 L29.1863454,17.0071244 L29.1861344,17.0071244 L29.1861344,17.0071244 Z M3.15882967,18.0583548 C2.94072789,17.9909056 2.70807194,17.9639259 2.47562691,17.9639259 L1.76310487,17.9639259 L1.76310487,22.0069695 L2.47562691,22.0069695 C2.70828287,22.0069695 2.94093882,21.9664999 3.15882967,21.8992462 C3.92956843,21.6429392 4.55476545,20.9827187 4.55476545,19.9854477 C4.55497633,18.9881767 3.92956843,18.3007811 3.15882967,18.0583548 L3.15882967,18.0583548 Z M6.35779648,17.0071244 L7.62274456,17.0071244 L7.62274456,22.9367913 L6.35779648,22.9367913 L6.35779648,17.0071244 Z M11.6795642,18.5838723 C11.2433606,18.3277608 10.7782597,18.0716492 10.2838394,18.0178853 C9.83308168,17.9639259 9.35321559,18.0851391 9.35321559,18.6781058 C9.35321559,19.7023565 12.1159787,19.2710725 12.1159787,21.2523202 C12.1159787,22.5459769 11.0109156,23.1794131 9.74596753,23.0447102 C9.06255385,22.9770654 8.67001284,22.7884031 8.13193004,22.4517435 L8.13193004,21.2386349 C8.55379033,21.4544724 9.17877636,21.8720711 9.67319663,21.9530102 C10.2112794,22.0339493 10.7928139,21.8853655 10.7928139,21.3465536 C10.7928139,20.2010898 8.04481589,20.6726479 8.04481589,18.7183798 C8.04481589,17.3977434 9.12077057,16.9125 10.2258336,16.9125 C10.7784706,16.9125 11.2581258,17.1011623 11.6797751,17.4515073 L11.6797751,18.5838723 L11.6795642,18.5838723 L11.6795642,18.5838723 Z M17.0884461,22.3438248 C16.768465,22.7215405 16.0124914,22.9367915 15.5035169,22.9772611 C13.5406009,23.0986697 12.2319903,22.0879088 12.2319903,20.0798767 C12.2319903,18.0583549 13.3807159,16.8724215 15.5035169,16.9803402 C15.9251663,16.9938301 16.60858,17.128533 17.0593377,17.478878 L17.0593377,18.6110476 C16.5212549,18.3011721 15.9688288,18.0855301 15.5035169,18.0720402 C14.2094604,18.0315707 13.5406009,18.7862201 13.5406009,19.9991332 C13.5406009,21.2122418 14.1657979,21.8857566 15.5035169,21.8319927 C16.0268346,21.8186983 16.8121276,21.4276883 17.0884461,21.2122418 L17.0884461,22.3438248 L17.0884461,22.3438248 Z" id="path-1"></path>
    </defs>
    <g id="Payment" stroke="none" stroke-width="1" fill="none" fill-rule="evenodd">
        <g id="Credit-Cards" transform="translate(-329.000000, -383.000000)">
            <g id="Discover-Card" transform="translate(329.000000, 367.000000)">
                <mask id="mask-2" fill="white">
                    <use xlink:href="#path-1"></use>
                </mask>
                <use id="Shape" fill="#000000" fill-rule="nonzero" xlink:href="#path-1"></use>
                <g id="00_Basics-/-Colors-/-Gray-/-700" mask="url(#mask-2)" fill="#FFFFFF">
                    <g transform="translate(-5.125000, -5.125000)" id="Rectangle-2">
                        <rect x="0" y="0" width="51.25" height="51.25"></rect>
                    </g>
                </g>
            </g>
        </g>
    </g>
</svg>