<?xml version="1.0" encoding="UTF-8"?>
<svg width="42px" height="31px" viewBox="0 0 42 31" version="1.1" xmlns="http://www.w3.org/2000/svg" xmlns:xlink="http://www.w3.org/1999/xlink">
    <!-- Generator: sketchtool 54.1 (76490) - https://sketchapp.com -->
    <title>DF4F2D6A-4CD5-4468-9419-34410B1837DA</title>
    <desc>Created with sketchtool.</desc>
    <defs>
        <path d="M5.23988424,10.2080798 C4.79128477,10.5330909 4.5,11.0592121 4.5,11.6525657 L4.5,36.3474343 C4.5,36.6684969 4.58528447,36.9698746 4.73462898,37.2303578 L21.4865457,23.771142 L5.23988424,10.2080798 Z M5.27417964,9.05854985 L5.32609031,9 L5.35850844,9.02706335 C5.65246374,8.9226852 5.96907376,8.86585366 6.29898052,8.86585366 L41.7010195,8.86585366 C42.0309037,8.86585366 42.3475063,8.92269445 42.6414628,9.02708735 L42.6739097,9 L42.725874,9.05861033 C43.7644867,9.46572617 44.5,10.4733471 44.5,11.6525657 L44.5,36.3474343 C44.5,37.887047 43.2462098,39.1341463 41.7010195,39.1341463 L6.29898052,39.1341463 C4.75360925,39.1341463 3.5,37.8871285 3.5,36.3474343 L3.5,11.6525657 C3.5,10.4732362 4.23546764,9.4656141 5.27417964,9.05854985 Z M6.36326252,9.86585366 L22.823825,23.6074851 C23.4982555,24.1703695 24.5017445,24.1703695 25.1761268,23.6075253 L41.6367375,9.86585366 L6.36326252,9.86585366 Z M42.7600647,10.2081224 L26.5134543,23.771142 L43.2653297,37.2303246 C43.4146958,36.9698395 43.5,36.6684691 43.5,36.3474343 L43.5,11.6525657 C43.5,11.0592804 43.2086646,10.5331538 42.7600647,10.2081224 Z M42.5385033,37.9291395 L25.7281069,24.4229386 C24.7156167,25.1923488 23.2844403,25.1923593 22.2718952,24.4229369 L5.46145375,37.929174 C5.71153526,38.0600516 5.9964855,38.1341463 6.29898052,38.1341463 L41.7010195,38.1341463 C42.0034766,38.1341463 42.2884178,38.0600366 42.5385033,37.9291395 Z" id="path-1"></path>
    </defs>
    <g id="Document-Verifcation" stroke="none" stroke-width="1" fill="none" fill-rule="evenodd">
        <g id="DocReview_376px_Neutral" transform="translate(-19.000000, -464.000000)">
            <g id="05_Inputs-/-Summary-/-Verification-/-Incomplete-Copy" transform="translate(0.000000, 440.000000)">
                <g id="Left-Aligned-Copy" transform="translate(16.000000, 15.666667)">
                    <g id="Icon">
                        <mask id="mask-2" fill="white">
                            <use xlink:href="#path-1"></use>
                        </mask>
                        <use id="Combined-Shape" fill="#A51482" fill-rule="nonzero" xlink:href="#path-1"></use>
                        <g id="00_Basics-/-Colors-/-Secondary-/-700" mask="url(#mask-2)" fill="#777770">
                            <rect id="Rectangle-2" x="0" y="0" width="48.48" height="48.48"></rect>
                        </g>
                    </g>
                </g>
            </g>
        </g>
    </g>
</svg>