<?xml version="1.0" encoding="UTF-8"?>
<svg width="20px" height="54px" viewBox="0 0 20 54" version="1.1" xmlns="http://www.w3.org/2000/svg" xmlns:xlink="http://www.w3.org/1999/xlink">
    <!-- Generator: sketchtool 53.2 (72643) - https://sketchapp.com -->
    <title>09495BF3-2083-4F78-9EC9-F9581E1D831F</title>
    <desc>Created with sketchtool.</desc>
    <defs>
        <path d="M47.6526414,14.0957047 C49.9937256,15.5601202 50.7021084,18.644762 49.2376286,20.9859748 C47.7732131,23.327059 44.6860635,24.0354417 42.3473586,22.570962 C40.0062744,21.1040386 39.2978916,18.0193968 40.7623714,15.6806919 C42.2267869,13.3396077 45.3139365,12.6312249 47.6526414,14.0957047 Z M32.5266528,32.6665392 L32.5259899,32.6661815 C31.2198267,32.7537988 30.0924295,31.7330112 30.0053519,30.3852805 C29.9182978,29.035185 30.9035811,27.8675034 32.2074565,27.7751323 L47.7598616,26.6666667 L40.5990182,54.2888707 C39.0227762,60.3689692 45.030857,58.4575163 48.9401366,56.6669087 C49.2655335,56.5153216 49.6504897,56.6219116 49.8590148,56.922715 C50.0675398,57.2235245 50.0423328,57.6356535 49.7994379,57.9056665 C47.1139016,60.9207948 43.711225,63.7559608 41.1814358,65.0799833 C34.263458,68.6968518 29.0159858,65.6247874 30.2304606,60.9374088 L36.6169686,36.3093534 C36.8553055,35.3855816 36.6490448,34.4026301 36.0647207,33.666038 C35.4781029,32.927075 34.5843907,32.5267941 33.6632248,32.5883749 L33.6655126,32.5907457 L32.5266528,32.6665392 Z" id="path-1"></path>
    </defs>
    <g id="Vehicle-Damage" stroke="none" stroke-width="1" fill="none" fill-rule="evenodd">
        <g id="VehDamage_376px-/-Info" transform="translate(-178.000000, -182.000000)">
            <g id="Group" transform="translate(8.000000, 145.000000)">
                <g id="04_Icons-/-24px-/-Information" transform="translate(140.000000, 24.000000)">
                    <mask id="mask-2" fill="white">
                        <use xlink:href="#path-1"></use>
                    </mask>
                    <use id="Combined-Shape" fill="#777770" fill-rule="evenodd" xlink:href="#path-1"></use>
                    <g id="00_Basics-/-Colors-/-Secondary-/-700" mask="url(#mask-2)" fill="#8B1863" fill-rule="evenodd">
                        <rect id="Rectangle-2" x="0" y="0" width="80.8" height="80.8"></rect>
                    </g>
                </g>
            </g>
        </g>
    </g>
</svg>