<?xml version="1.0" encoding="UTF-8"?>
<svg width="38px" height="48px" viewBox="0 0 38 48" version="1.1" xmlns="http://www.w3.org/2000/svg" xmlns:xlink="http://www.w3.org/1999/xlink">
    <!-- Generator: sketchtool 53 (72520) - https://sketchapp.com -->
    <title>F64E583F-5639-4153-BDC3-B3138FCA768F</title>
    <desc>Created with sketchtool.</desc>
    <g id="Vehicle-Summary" stroke="none" stroke-width="1" fill="none" fill-rule="evenodd">
        <g id="Vehicle-&amp;-User-Icons" transform="translate(-1936.000000, -449.000000)" fill="#4C4C4C" fill-rule="nonzero">
            <g id="noun_533041" transform="translate(1936.000000, 449.000000)">
                <path d="M12.0481036,12.3728814 L6.91396855,10.7118644 L6.91396855,0.542372881 L10.3367253,0.542372881 L12.0481036,12.3728814 Z M30.8732655,10.7118644 L25.7391304,12.3728814 L27.4505088,0.542372881 L30.8732655,0.542372881 L30.8732655,10.7118644 Z M18.893617,33.559322 C26.0814061,33.559322 26.0814061,31.2881356 26.0814061,30.0338983 C26.0814061,23.1525424 22.3506013,19.4915254 18.893617,19.4915254 C15.4024052,19.4915254 11.7058279,23.1864407 11.7058279,30.0338983 C11.7058279,31.5254237 11.7058279,33.559322 18.893617,33.559322 Z M0.0684551341,0.542372881 L3.49121184,0.542372881 C3.49121184,6.54237288 3.49121184,6.54237288 6.12673451,7.76271186 L12.253469,10.6779661 C14.6151711,11.7966102 17.1822387,13.0847458 17.1822387,16.1355932 L17.1822387,18.8474576 L13.759482,18.8474576 C13.759482,16.8135593 14.1359852,14.9830508 11.3635523,13.7627119 L5.09990749,10.9830508 C0.444958372,8.91525424 0.0684551341,7.93220339 0.0684551341,0.542372881 Z M37.7187789,0.542372881 C37.7187789,7.93220339 37.3422757,8.91525424 32.6873265,10.9830508 L26.4236818,13.7627119 C23.6512488,14.9830508 24.0277521,16.8135593 24.0277521,18.8474576 L20.6049954,18.8474576 L20.6049954,16.1355932 C20.6049954,13.0847458 23.1720629,11.7966102 25.533765,10.6779661 L31.6604995,7.76271186 C34.2960222,6.50847458 34.2960222,6.50847458 34.2960222,0.542372881 L37.7187789,0.542372881 Z M25.7391304,12.3728814 C25.7391304,12.3728814 22.3163737,11.0169492 18.893617,11.0169492 C15.4708603,11.0169492 12.0481036,12.3728814 12.0481036,12.3728814 L8.6253469,0.542372881 L29.1618871,0.542372881 L25.7391304,12.3728814 Z M33.5087882,25.0847458 C34.946346,25.7288136 36.0074006,27.220339 36.0074006,28.8813559 C36.0074006,30.5762712 34.9805735,32.0677966 33.5087882,32.7118644 C35.0490287,34 35.4255319,36.2711864 34.3302498,38 C33.440333,39.5254237 31.6604995,40.2711864 30.0175763,40 C30.9759482,41.9322034 30.2229417,44.3728814 28.2719704,45.4915254 C26.4921369,46.4745763 24.3015726,46.0338983 23.0351526,44.5423729 C22.692877,46.5084746 20.947271,48 18.893617,48 C16.839963,48 15.0943571,46.5084746 14.7520814,44.5423729 C13.4856614,46.0338983 11.2950971,46.4745763 9.51526364,45.4915254 C7.56429232,44.3728814 6.81128585,41.9322034 7.80388529,40 C6.16096207,40.2711864 4.38112858,39.5254237 3.45698427,38 C2.36170213,36.2711864 2.73820537,33.9661017 4.31267345,32.7118644 C2.84088807,32.0338983 1.77983349,30.5762712 1.77983349,28.8813559 C1.77983349,27.1864407 2.8066605,25.6949153 4.27844588,25.0508475 C2.73820537,23.7627119 2.36170213,21.4915254 3.45698427,19.7627119 C4.99722479,17.1864407 8.38575393,16.779661 12.0481036,19.1864407 C8.65957447,25.5932203 10.3367253,38.4067797 18.893617,38.4067797 C27.4505088,38.4067797 29.1961147,25.5254237 25.8075856,19.1525424 C29.6753006,17.1864407 32.7557817,17.1186441 34.3302498,19.7627119 C35.4255319,21.4915254 35.0148011,23.7966102 33.5087882,25.0847458 Z M13.759482,17.3559322 C15.1628122,17.1525424 22.6244218,17.1525424 24.0277521,17.3559322 C27.7243293,19.9322034 29.5041628,25.2881356 29.5041628,30.3728814 C29.5041628,44.8474576 8.28307123,44.8474576 8.28307123,30.3728814 C8.28307123,25.2881356 10.0286772,19.9322034 13.759482,17.3559322 Z M18.9278446,23.9661017 C20.160037,23.9661017 21.1526364,23.9661017 21.1526364,23.9661017 C21.1526364,23.9661017 20.160037,23.9661017 18.9278446,23.9661017 C17.6956522,23.9661017 16.7030527,23.9661017 16.7030527,23.9661017 C16.7030527,23.9661017 17.6956522,23.9661017 18.9278446,23.9661017 Z" id="Shape" transform="translate(18.893617, 24.271186) scale(-1, 1) rotate(-180.000000) translate(-18.893617, -24.271186) "></path>
            </g>
        </g>
    </g>
</svg>