<?xml version="1.0" encoding="UTF-8"?>
<svg width="38px" height="47px" viewBox="0 0 38 47" version="1.1" xmlns="http://www.w3.org/2000/svg" xmlns:xlink="http://www.w3.org/1999/xlink">
    <!-- Generator: sketchtool 53.1 (72631) - https://sketchapp.com -->
    <title>217EF039-B785-47F7-B9D5-ECD215AFD48A</title>
    <desc>Created with sketchtool.</desc>
    <defs>
        <path d="M40.3988095,10.7615385 C38.3253968,12.1715385 36.5535714,13.4369231 36.5535714,17.1607692 C36.5535714,21.9330769 39.4563492,25.9461538 39.4563492,31.6223077 C39.4563492,36.6476923 37.1944444,41.8176923 31.2757937,43.0830769 C29.9563492,46.3730769 26.1488095,48 22.1904762,48 C14.8769841,48 8.54365079,42.3961538 8.54365079,33.5384615 C8.54365079,27.5369231 11.4464286,22.3307692 11.4464286,17.4138462 C11.4464286,13.4007692 9.52380952,12.0630769 7.60119048,10.7615385 C5.64087302,9.38769231 5,7.03769231 5,3.71153846 C5,2.08461538 5.15079365,1 5.15079365,1 L42.8492063,1 C42.8492063,1 43,2.15692308 43,3.67538462 C43,8.88153846 41.265873,10.1830769 40.3988095,10.7615385 Z M31.9166667,32.4176923 C31.9166667,28.1876923 29.5039683,21.2461538 23.8492063,21.2461538 C18.3452381,21.2461538 16.0833333,27.8261538 16.0833333,30.9353846 C16.0833333,37.9130769 27.5059524,32.49 28.8253968,39.2146154 C30.8611111,37.6961538 31.9166667,35.2376923 31.9166667,32.4176923 Z M17.968254,12.4969231 C20.5694444,14.0153846 21.8511905,15.3530769 22.077381,17.5946154 C23.359127,17.3776923 24.640873,17.3776923 25.922619,17.6307692 C26.1865079,15.5338462 27.656746,14.0515385 30.031746,12.5692308 C26.2996032,10.1830769 21.625,10.1469231 17.968254,12.4969231 Z" id="path-1"></path>
    </defs>
    <g id="Driver-Summary" stroke="none" stroke-width="1" fill="none" fill-rule="evenodd">
        <g id="User-Icons" transform="translate(-485.000000, -269.000000)">
            <g id="04_Icons-/-48px-/-Drivers-/-Female-2" transform="translate(480.000000, 268.000000)">
                <mask id="mask-2" fill="white">
                    <use xlink:href="#path-1"></use>
                </mask>
                <use id="Shape" fill="#4C4C4C" fill-rule="nonzero" transform="translate(24.000000, 24.500000) scale(-1, 1) rotate(-180.000000) translate(-24.000000, -24.500000) " xlink:href="#path-1"></use>
            </g>
        </g>
    </g>
</svg>