<?xml version="1.0" encoding="UTF-8"?>
<svg width="38px" height="49px" viewBox="0 0 38 49" version="1.1" xmlns="http://www.w3.org/2000/svg" xmlns:xlink="http://www.w3.org/1999/xlink">
    <!-- Generator: sketchtool 53 (72520) - https://sketchapp.com -->
    <title>94CA1155-D8B7-41C1-B98F-6C68E191EAEF</title>
    <desc>Created with sketchtool.</desc>
    <g id="Vehicle-Summary" stroke="none" stroke-width="1" fill="none" fill-rule="evenodd">
        <g id="Vehicle-&amp;-User-Icons" transform="translate(-1935.000000, -181.000000)" fill="#4C4C4C">
            <g id="Group-3" transform="translate(1935.000000, 181.000000)">
                <path d="M31.2461583,34.2473367 C31.2461583,43.1614029 26.8949788,48.1828637 18.9559846,48.1828637 C11.131495,48.1828637 6.66581076,43.0446247 6.66581076,34.2473367 C6.66581076,29.2648019 8.49788636,22.2970384 3.34517375,19.4943626 C5.63526824,17.2755776 8.95590526,15.7574615 12.6582247,14.9400144 C14.7193097,14.4729018 15.4826746,20.3896618 18.8033116,20.3896618 C22.658304,20.3896618 23.6888465,14.5118278 25.8644363,15.0178665 C29.299578,15.8353136 32.3530374,17.3145036 34.5667954,19.4943626 C29.4904192,22.2581124 31.2461583,29.1869498 31.2461583,34.2473367 Z M30.1065637,13.7665325 C22.9330245,10.1224504 15.2391248,10.1224504 7.80540541,13.7665325 L7.80540541,0 L30.1065637,0 L30.1065637,13.7665325 Z M19.3190267,20.6497987 C14.7680345,20.6497987 11.1505792,26.2449684 11.1505792,29.1431857 C11.1505792,34.0943071 12.395295,39.0051754 19.7080004,39.0051754 L27.8764479,39.0051754 C27.8764479,32.1621622 27.1373979,20.6497987 19.3190267,20.6497987 Z M27.8764479,35.9013322 L27.8764479,35.8609674 C27.8764479,28.5952974 25.4870381,22.9442208 19.5135135,22.9442208 C13.539989,22.9442208 11.1505792,28.5952974 11.1505792,35.8609674 L11.1505792,35.9013322 C11.1505792,41.512044 14.3364589,44.7412306 19.47369,44.7412306 L19.5135135,44.7412306 L19.553337,44.7412306 C24.6905681,44.7412306 27.8764479,41.512044 27.8764479,35.9013322 Z M13.8482999,19.8915758 C15.3967916,19.4644157 23.6680035,19.4644157 25.2164952,19.5420812 C29.4842895,22.3768703 31.2216216,28.4736087 31.2216216,34.6091797 C31.2216216,41.987398 26.5006103,47.0356527 19.5135135,47.0356527 C11.9598954,47.0356527 7.80540541,40.8224162 7.80540541,34.6091797 C7.80540541,29.0949323 9.92041848,22.9593613 13.8482999,19.8915758 Z M0,0 L3.96465036,0 C3.96465036,7.14457543 4.00429687,7.83077759 7.01743115,9.40500607 L12.1318301,12.069085 C14.8277924,13.4818542 17.8409266,14.9349882 17.8409266,18.5678231 L17.8409266,21.7970098 L13.8762763,21.7970098 C13.8762763,19.3751198 14.2330948,17.2357837 11.101021,15.7422848 L5.82803604,13.2396652 C0.475758044,10.6966807 0,8.79953358 0,0 Z M37.9119691,0 C37.9119691,8.79953358 37.4362111,10.6966807 32.0839331,13.2396652 L26.8109481,15.7422848 C23.6788743,17.2357837 24.0356928,19.3751198 24.0356928,21.7970098 L20.0710425,21.7970098 L20.0710425,18.5678231 C20.0710425,14.9349882 23.0841767,13.4818542 25.780139,12.069085 L30.894538,9.40500607 C33.9076722,7.83077759 33.9473187,7.10421059 33.9473187,0 L37.9119691,0 Z M19.5135135,26.3858539 L22.3011583,26.3858539 L19.5135135,26.3858539 L16.7258687,26.3858539 L19.5135135,26.3858539 Z" id="Shape" fill-rule="nonzero" transform="translate(18.955985, 24.091432) scale(-1, 1) rotate(-180.000000) translate(-18.955985, -24.091432) "></path>
                <path d="M27.956732,19.5025877 L11.8998981,19.5025877 C12.9346718,19.5025877 11.1505792,18.5076528 11.1505792,14.6871026 C11.1505792,12.219664 19.1789961,11.1053369 19.1789961,16.3187959 L20.9630888,16.3187959 C20.9630888,11.2247291 28.9915058,12.1400692 28.9915058,14.6871026 C28.9915058,18.5076528 27.2074131,19.5025877 27.956732,19.5025877 Z" id="Path" stroke="#4C4C4C" transform="translate(20.071042, 16.060955) rotate(-180.000000) translate(-20.071042, -16.060955) "></path>
            </g>
        </g>
    </g>
</svg>