<?xml version="1.0" encoding="UTF-8"?>
<svg width="80px" height="80px" viewBox="0 0 80 80" version="1.1" xmlns="http://www.w3.org/2000/svg" xmlns:xlink="http://www.w3.org/1999/xlink">
    <!-- Generator: sketchtool 52.6 (67491) - http://www.bohemiancoding.com/sketch -->
    <title>B8DD39F2-D9C8-4A3A-A6C6-E2AD37F1A368</title>
    <desc>Created with sketchtool.</desc>
    <g id="Email-V2" stroke="none" stroke-width="1" fill="none" fill-rule="evenodd">
        <g id="Email_376-599px-/-Nutral" transform="translate(-149.000000, -104.000000)" fill="#8B1863">
            <g id="Group-7" transform="translate(149.000000, 104.000000)">
                <path d="M54.0206186,31.0841667 C62.7645361,31.0841667 67.9571134,22.4191667 67.9571134,14.0858333 C67.9571134,5.50166667 62.432,0.000833333333 54.0206186,0.000833333333 C45.6092371,0.000833333333 40.0841237,5.50216667 40.0841237,14.0825 C40.0841237,22.4158333 45.2774433,31.0841667 54.0206186,31.0841667 Z M54.0206186,3.33333333 C60.7023505,3.33333333 64.6581443,7.334 64.6581443,14.0816667 C64.6581443,20.833 60.6987216,27.7466667 54.0206186,27.7466667 C47.3388866,27.7466667 43.3830928,20.8293333 43.3830928,14.0816667 C43.3830928,7.33358333 47.339299,3.33333333 54.0206186,3.33333333 Z" id="Fill-1"></path>
                <path d="M79.4235052,39.0008333 C79.4235052,31.9175 74.1464742,26.0841667 67.2164948,25.5016667 L66.2274639,25.4170333 L65.6507876,26.2503667 C62.8479835,30.5830333 58.7242722,33.0017 53.9402722,33.0017 C49.1561072,33.0017 45.0322309,30.5863667 42.2297567,26.2503667 L41.6530804,25.4170333 L40.6640495,25.5016667 C33.737534,26.1689833 28.4570392,32.0023333 28.4570392,39.0008333 L28.4538227,39.16685 L0.000211134021,39.16685 L0.000211134021,80.0001825 L65.1548536,80.0001825 L65.1548536,53.58435 L79.4237196,53.58435 L79.4235052,39.0008333 Z M61.8556701,76.6666667 L3.29897072,76.6666667 L3.29897072,42.5 L61.8556701,42.5 L61.8556701,76.6666667 Z M76.1245443,50.2508333 L65.1546392,50.2508333 L65.1546392,39.1666667 L31.916701,39.1666667 L31.916701,39.00065 C31.916701,34.00065 35.3799588,29.8339833 40.1641237,28.91565 C43.5468866,33.6649833 48.4956701,36.3309833 54.0206186,36.3309833 C59.5455753,36.3309833 64.4940289,33.7463167 67.8771216,28.91565 C72.6612866,29.83365 76.1245443,34.0003167 76.1245443,39.00065 L76.1245443,50.2508333 Z" id="Fill-2"></path>
                <path d="M23.9175258,47.5 L8.24742268,47.5 L8.24742268,63.3333333 L23.9175258,63.3333333 L23.9175258,47.5 Z M20.6185567,60 L11.5463918,60 L11.5463918,50.8333333 L20.6185567,50.8333333 L20.6185567,60 Z" id="Fill-3"></path>
                <polygon id="Fill-4" points="8.08329897 68.1675 55.0936082 68.1675 55.0936082 71.5008333 8.08329897 71.5008333"></polygon>
                <polygon id="Fill-5" points="28.2894845 59.8341667 55.0936082 59.8341667 55.0936082 63.1675 28.2894845 63.1675"></polygon>
                <path d="M5.36082474,26.8325 L8.576,27.4998167 L9.56503093,22.8318167 L14.6777732,22.8318167 L13.8530309,26.8324833 L17.0682062,27.4998 L18.0572371,22.8318 L22.6771134,22.8318 L22.6771134,19.4984667 L18.7176907,19.4984667 L19.7905155,14.2478 L24.4103918,14.2478 L24.4103918,10.9144667 L20.4509691,10.9144667 L21.2757113,6.9138 L18.1442474,6.24973333 L17.1552165,10.9177333 L12.0424742,10.9177333 L12.8672165,6.91706667 L9.65204124,6.24975 L8.66301031,10.91775 L4.03991753,10.91775 L4.03991753,14.2510833 L7.99934021,14.2510833 L6.92651546,19.50175 L2.30985567,19.4985 L2.30985567,22.8318333 L6.26927835,22.8318333 L5.36082474,26.8325 Z M11.2983093,14.2508333 L16.4948454,14.2508333 L15.4220206,19.5015 L10.3092784,19.5015 L11.2983093,14.2508333 Z" id="Fill-6"></path>
            </g>
        </g>
    </g>
</svg>