<svg xmlns="http://www.w3.org/2000/svg" viewBox="0 0 192 192"><defs><style>.cls-1{fill:#a22381;}</style></defs><title>Phone</title><g id="Layer_10" data-name="Layer 10"><path class="cls-1" d="M153.71,160.9c-3.09-7.94-6.35-15.82-9.45-23.76a11.9,11.9,0,0,0-16-6.64c-6.31,2.74-12.77,5.16-19.21,7.59A10,10,0,0,1,97,135a36.75,36.75,0,0,1-5.32-7.56c-4.2-8.8-8.28-17.65-12-26.66-3.38-8.19-6.38-16.55-7.55-25.44-1-7.48,1.15-11.41,8.16-14.33,5.76-2.41,11.58-4.7,17.37-7,6.77-2.74,9.61-9,7-15.84Q100,26,95.05,14A11.63,11.63,0,0,0,79.46,7.46c-5,2-10,4-14.95,6a27.9,27.9,0,0,0-15,13.83c-3.76,7.45-4.66,15.47-4.93,25.79.39,3.69.76,9.54,1.65,15.3A195.46,195.46,0,0,0,57,107.47c6.74,17.94,14.75,35.24,26,50.89,5.55,7.75,11.8,14.85,19.79,20.19,9.9,6.61,20.3,8.54,31.51,3.38,4-1.86,8.21-3.35,12.33-5C153.63,174.14,156.45,167.92,153.71,160.9ZM83.42,10.27c3.16-.89,6.78,1.71,8.28,5.4,2.49,6.1,4.91,12.23,7.35,18.35.74,1.84,1.5,3.67,2.18,5.54,1.76,4.82,0,8.87-4.77,10.8-3.13,1.27-6.28,2.5-9.43,3.74-.09,0-.22,0-.53-.08A140.9,140.9,0,0,0,70.79,14.88C75.14,13.26,79.19,11.47,83.42,10.27Zm47.32,169a24.35,24.35,0,0,1-19.58-.34,48.08,48.08,0,0,1-14.91-10.62C87,159.1,80.07,148.22,74.08,136.73a247.83,247.83,0,0,1-22.69-61,111.68,111.68,0,0,1-3-25.88c.09-6.52.92-12.94,3.5-19C55,23.64,60.76,18.28,67.36,16.54a113.89,113.89,0,0,1,10.22,21.2c1.93,5.43,3.38,11,5.11,16.54.36,1.16.08,1.66-1,2.08a47.72,47.72,0,0,0-5.12,2.27c-6.38,3.29-8.91,8.2-8.18,16,.75,8,3.2,15.68,6.19,23.09q6,14.85,12.71,29.4a50.09,50.09,0,0,0,6.33,9.64c4.4,5.6,10.18,7.1,16.92,4.82,1.55-.52,3.09-1.06,4.6-1.7.92-.39,1.43-.3,2,.63a134.19,134.19,0,0,1,14.77,36.94C132.14,178.64,131.63,178.92,130.74,179.3Zm15.15-6.12c-2.86,1.18-5.73,2.32-8.6,3.46-.48.19-1,.31-1.64.51A140.6,140.6,0,0,0,120,138c.56-.28,1-.57,1.54-.77q4.29-1.76,8.6-3.46c4.13-1.62,8.54-.08,10.27,4q5.29,12.57,10.13,25.34C152.14,167.42,150.06,171.46,145.89,173.18Z"/></g></svg>