<?xml version="1.0" encoding="UTF-8"?>
<svg width="95px" height="83px" viewBox="0 0 95 83" version="1.1" xmlns="http://www.w3.org/2000/svg" xmlns:xlink="http://www.w3.org/1999/xlink">
    <!-- Generator: sketchtool 52.6 (67491) - http://www.bohemiancoding.com/sketch -->
    <title>2166D351-234D-4356-81A7-BE55FBD63E94</title>
    <desc>Created with sketchtool.</desc>
    <g id="Address2" stroke="none" stroke-width="1" fill="none" fill-rule="evenodd">
        <g id="Addres2_376-599px-/-Nutral" transform="translate(-134.000000, -104.000000)" fill="#8B1863">
            <g id="Group-4" transform="translate(24.000000, 104.000000)">
                <g id="Group-8" transform="translate(110.000000, 0.000000)">
                    <polygon id="Fill-1" points="25.0516667 44.3293617 48.4891667 44.3293617 48.4891667 46.9889362 25.0516667 46.9889362"></polygon>
                    <polygon id="Fill-2" points="25.0516667 49.6485106 36.77 49.6485106 36.77 52.3080851 25.0516667 52.3080851"></polygon>
                    <polygon id="Fill-3" points="39.375 49.6485106 48.49 49.6485106 48.49 52.3080851 39.375 52.3080851"></polygon>
                    <polygon id="Fill-4" points="61.51 62.947234 84.9475 62.947234 84.9475 65.6068085 61.51 65.6068085"></polygon>
                    <polygon id="Fill-5" points="73.2291667 68.266383 84.9475 68.266383 84.9475 70.9259574 73.2291667 70.9259574"></polygon>
                    <polygon id="Fill-6" points="61.51 68.266383 70.625 68.266383 70.625 70.9259574 61.51 70.9259574"></polygon>
                    <path d="M94.3233333,66.9361702 L88.33375,56.2978723 L58.9070833,56.2978723 L58.9070833,35.0212766 L66.7195833,35.0212766 L66.7195833,21.7234043 L67.8914167,22.5212766 L72.44875,16.0053617 L55.0004167,3.50493617 L37.5520833,16.0053617 L41.9791667,22.5212766 L43.28125,21.7234043 L43.28125,35.0212766 L51.09375,35.0212766 L51.09375,37.6808511 L21.6670833,37.6808511 L15.6775033,48.3191489 L21.6670833,58.9574468 L51.09375,58.9574468 L51.09375,82.893617 L58.90625,82.893617 L58.90625,77.5744681 L88.3329167,77.5744681 L94.3233333,66.9361702 Z M57.605,32.3617021 L52.3966667,32.3617021 L52.3966667,24.3829787 L57.605,24.3829787 L57.605,32.3617021 Z M42.7616667,18.7974468 L41.3293333,16.6697872 L55.001,6.82978723 L68.8026667,16.6697872 L67.3703333,18.7974468 L55.0003333,10.0212766 L42.7616667,18.7974468 Z M49.7929167,32.3617021 L45.8866667,32.3617021 L45.8866667,19.8612766 L55.0016667,13.3453617 L64.1166667,19.8612766 L64.1166667,32.3617021 L60.2104167,32.3617021 L60.2104167,21.7234043 L49.79375,21.7234043 L49.7929167,32.3617021 Z M23.2304167,56.2978723 L18.8033358,48.3191489 L23.2304167,40.3404255 L51.0954167,40.3404255 L51.0954167,56.2978723 L23.2304167,56.2978723 Z M56.30375,80.2340426 L53.6995833,80.2340426 L53.6995833,35.0212766 L56.30375,35.0212766 L56.30375,80.2340426 Z M58.9079167,74.9148936 L58.9079167,58.9574468 L86.7729167,58.9574468 L91.2,66.9361702 L86.7729167,74.9148936 L58.9079167,74.9148936 Z" id="Fill-7"></path>
                    <path d="M24.6061902,9.372223 L4.66325572,9.372223 L10.1241149,2.60660596 C10.5994805,2.01858858 10.6061652,1.05550142 10.1401856,0.455631989 C9.67417854,-0.144194183 8.91092662,-0.152629036 8.43552678,0.435358063 L0.85888455,9.8214027 C0.628561756,10.1069592 0.498666667,10.4972723 0.498666667,10.9044811 C0.498666667,11.3116941 0.627217967,11.7020288 0.857547959,11.9892464 L8.43418984,21.4241699 C8.66852686,21.716483 8.97516799,21.8617874 9.28050304,21.8617874 C9.59116868,21.8617874 9.90317126,21.7114048 10.1388486,21.4089439 C10.6061926,20.8108047 10.6008449,19.8476743 10.128136,19.25797 L4.62991123,12.4114648 L24.6074689,12.4114648 C28.3930476,12.4114648 31.4727939,16.2977259 31.4727939,21.0742749 C31.471457,25.8509969 28.3915735,29.737085 24.6060977,29.737085 C23.940579,29.737085 23.4009378,30.4180155 23.4009378,31.2577808 C23.4009378,32.0975461 23.940579,32.7784766 24.6060977,32.7784766 C29.7200398,32.7784766 33.8820167,27.5285378 33.8820167,21.0739289 C33.8820167,14.6210502 29.721411,9.37111133 24.6060977,9.37111133 L24.6061902,9.372223 Z" id="Fill-1"></path>
                </g>
            </g>
        </g>
    </g>
</svg>