<?xml version="1.0" encoding="UTF-8"?>
<svg width="82px" height="82px" viewBox="0 0 82 82" version="1.1" xmlns="http://www.w3.org/2000/svg" xmlns:xlink="http://www.w3.org/1999/xlink">
    <!-- Generator: Sketch 53.2 (72643) - https://sketchapp.com -->
    <title>+DriverIcon</title>
    <desc>Created with Sketch.</desc>
    <g id="Add-Driver" stroke="none" stroke-width="1" fill="none" fill-rule="evenodd">
        <g id="AddDriver_376-599px-/-Nutral" transform="translate(-154.000000, -111.000000)">
            <g id="Group-3" transform="translate(16.000000, 112.000000)">
                <g id="+DriverIcon" transform="translate(139.000000, 0.000000)">
                    <path d="M26.9306653,33.1527547 C26.9306653,33.8712453 27.5096762,34.4533836 28.2238063,34.4533836 C28.9384369,34.4533836 29.5174477,33.8712453 29.5174477,33.1527547 C29.5174477,32.4342642 28.9384369,31.8521258 28.2238063,31.8521258 C27.5096762,31.8521258 26.9306653,32.4342642 26.9306653,33.1527547 Z" id="Stroke-3" fill="#8B1863"></path>
                    <path d="M36.3141949,33.1527547 C36.3141949,33.8712453 36.8932058,34.4533836 37.6078363,34.4533836 C38.3219664,34.4533836 38.9009773,33.8712453 38.9009773,33.1527547 C38.9009773,32.4342642 38.3219664,31.8521258 37.6078363,31.8521258 C36.8932058,31.8521258 36.3141949,32.4342642 36.3141949,33.1527547 Z" id="Stroke-5" fill="#8B1863"></path>
                    <path d="M28.87403,41.389283 C31.2856579,43.8139371 35.1961083,43.8139371 37.6077362,41.389283" id="Stroke-7" stroke="#8B1863" stroke-width="2"></path>
                    <path d="M42.6195584,60.9043522 C40.3155255,63.6691321 36.9690727,65.411522 33.240783,65.411522 C29.5124934,65.411522 26.1660406,63.6691321 23.8625081,60.9043522" id="Stroke-9" stroke="#8B1863" stroke-width="2"></path>
                    <path d="M21.4130969,56.5146164 C20.9426818,55.1249308 20.6759464,53.6305912 20.658431,52.0703396 C14.290312,53.2260629 9.21733588,55.1546164 3.21203709,58.6439245 C1.4965234,59.6406541 0.430082426,61.4736101 0.430082426,63.4655597 L0.430082426,75.1566289 C0.430082426,77.5536101 2.3632882,79.4967547 4.74739182,79.4967547 L7.41924934,79.4967547 L59.0628172,79.4967547 L61.7341743,79.4967547 C64.1182779,79.4967547 66.0514837,77.5536101 66.0514837,75.1566289 L66.0514837,63.4655597 C66.0514837,61.4736101 64.9850427,59.6406541 63.269529,58.6439245 C57.2642302,55.1546164 52.1917545,53.2260629 45.8236356,52.0703396 C45.8056197,53.6305912 45.5388843,55.1249308 45.0684692,56.5146164" id="Stroke-11" stroke="#8B1863" stroke-width="2"></path>
                    <polyline id="Stroke-13" stroke="#8B1863" stroke-width="4" points="13.5220842 67.6633962 33.2409832 78.7144654 52.9593818 67.6633962"></polyline>
                    <path d="M45.3763909,38.2146918 L47.0248455,33.3865157" id="Stroke-15" stroke="#8B1863" stroke-width="2"></path>
                    <path d="M41.3601472,15.7515472 C39.0050692,14.2712956 36.2231145,13.4124277 33.2409832,13.4124277 C24.7695084,13.4124277 17.9024492,20.3165786 17.9024492,28.8333082 L21.0372152,38.2149434" id="Stroke-17" stroke="#8B1863" stroke-width="2"></path>
                    <path d="M46.2658257,19.4302893 L73.9952929,19.4302893" id="Stroke-19" stroke="#8B1863" stroke-width="2"></path>
                    <path d="M60.1306094,5.49061635 L60.1306094,33.3698616" id="Stroke-21" stroke="#8B1863" stroke-width="2"></path>
                    <path d="M43.1930645,28.3188428 C31.2570327,27.982239 29.5174978,21.7809811 29.5174978,21.7809811 C29.5174978,28.0833711 20.9669532,26.5221132 20.9669532,26.5221132 L20.9669532,36.8994717 C20.9669532,37.3437484 20.9919753,37.7824906 21.0375155,38.2146918 C21.6905917,44.4109182 26.9041919,49.2390943 33.240783,49.2390943 C39.3927112,49.2390943 44.4867059,44.6891572 45.376491,38.7535597 C45.4670709,38.1487799 45.5146129,37.5299119 45.5146129,36.8994717 L45.5146129,34.9251321 L45.5146129,31.7865157" id="Stroke-23" stroke="#8B1863" stroke-width="2" stroke-linejoin="round"></path>
                    <path d="M41.0102384,19.4066918 C41.0102384,8.80291824 49.5597822,0.206691824 60.1070886,0.206691824 C70.6538946,0.206691824 79.2034383,8.80291824 79.2034383,19.4066918 C79.2034383,30.0099623 70.6538946,38.6061887 60.1070886,38.6061887 C49.5597822,38.6061887 41.0102384,30.0099623 41.0102384,19.4066918 Z" id="Stroke-25" stroke="#8B1863" stroke-width="2"></path>
                    <path d="M9.91905505,79.5830943 C9.91905505,66.6331572 20.3607683,56.135044 33.2411334,56.135044 C46.1209979,56.135044 56.5627112,66.6331572 56.5627112,79.5830943" id="Stroke-27" stroke="#8B1863" stroke-width="4"></path>
                    <path d="M25.0813953,53.6470588 L25.0813953,46.1176471" id="Stroke-1" stroke="#8B1863" stroke-width="2" stroke-linecap="round"></path>
                    <path d="M41.8255814,46.1176471 L41.8255814,53.6470588" id="Stroke-2" stroke="#8B1863" stroke-width="2" stroke-linecap="round"></path>
                </g>
            </g>
        </g>
    </g>
</svg>