<?xml version="1.0" encoding="UTF-8"?>
<svg width="71px" height="80px" viewBox="0 0 71 80" version="1.1" xmlns="http://www.w3.org/2000/svg" xmlns:xlink="http://www.w3.org/1999/xlink">
    <!-- Generator: sketchtool 52.6 (67491) - http://www.bohemiancoding.com/sketch -->
    <title>EBC337CA-2D7B-45F5-AEAD-EA96AF514779</title>
    <desc>Created with sketchtool.</desc>
    <g id="Vehicle-Types" stroke="none" stroke-width="1" fill="none" fill-rule="evenodd">
        <g id="VehicleType_376-599px-/-Nutral" transform="translate(-156.000000, -102.000000)" fill="#8B1863">
            <g id="Group-3" transform="translate(16.000000, 102.000000)">
                <path d="M206.442462,0.00728865871 L206.443274,0.00816426576 C207.727584,-0.0747972916 208.959035,0.477984941 209.826599,1.50757501 C210.647521,2.4748997 211.061098,3.73940011 210.992691,5.06952683 C210.631989,11.9824003 209.565406,24.4304371 206.489924,30.1171953 C202.540589,37.4236498 195.123783,44.6309572 188.002641,50.4489681 L186.637529,62.0503193 C186.373232,64.2890431 185.051665,66.2376668 183.185821,67.1359159 L177.535509,69.8548969 C177.330265,69.9516293 177.115698,70 176.901132,70 C176.643028,70 176.384932,69.9309066 176.148593,69.7892529 C175.719492,69.5335579 175.41785,69.0706006 175.333888,68.5385499 L174.0776,60.6303146 C173.182014,61.2176789 172.401509,61.7186234 171.776462,62.1124786 C171.129649,62.5201577 170.398843,62.734363 169.658739,62.734363 C168.511274,62.734363 167.429088,62.236859 166.614383,61.3317113 L166.216345,60.8894855 L164.530892,62.7620463 C163.706794,63.6776218 162.612189,64.1820333 161.446096,64.1820333 C160.280003,64.1820333 159.185398,63.6776306 158.3613,62.7620463 L154.511554,58.484927 C152.810577,56.5951193 152.810577,53.520235 154.511554,51.6304273 L156.200111,49.7544171 L155.802073,49.3121913 C154.43693,47.7954453 154.147739,45.4392663 155.099289,43.5770535 C155.453782,42.8826706 155.904711,42.0154658 156.433354,41.0204578 L149.315316,39.6247048 C148.836396,39.5279989 148.419698,39.1963295 148.189584,38.7195571 C147.959471,38.2427492 147.937698,37.6761695 148.1305,37.1786655 L150.577798,30.9010936 C151.386293,28.8282045 153.140209,27.3598645 155.155237,27.0662 L165.597372,25.5495425 C170.833963,17.6407765 177.320632,9.4010488 183.897577,5.00992364 C189.015553,1.59655969 200.22001,0.41150956 206.442462,0.00728865871 Z M151.852316,36.5324852 L158.199195,37.7831882 C159.554993,35.3405983 161.200005,32.4971749 163.072058,29.4914547 L155.568401,30.5797723 C154.657212,30.711025 153.864264,31.3743636 153.500433,32.3106441 L151.852316,36.5324852 Z M162.276141,60.2570142 L163.961594,58.3810039 L158.448128,52.2554692 L156.75957,54.1280301 C156.299334,54.63942 156.299334,55.4685757 156.75957,55.9798948 L160.609316,60.2570142 C161.054004,60.75106 161.831461,60.75106 162.276141,60.2570142 Z M183.478045,61.5836915 L184.460722,53.2504773 C181.752231,55.3269042 179.192925,57.1579843 176.997505,58.6642938 L178.120132,65.7123114 L181.920123,63.8812314 C182.762818,63.4769485 183.359875,62.5959463 183.478045,61.5836915 Z M203.759684,28.2885121 L203.760098,28.2887951 C206.583702,23.0652242 207.535284,10.1611642 207.815152,4.8579041 C207.833804,4.50894373 207.728078,4.1807326 207.513511,3.92852239 C207.298976,3.67631218 207.00977,3.53811662 206.698806,3.53811662 C201.853885,3.84908979 190.239289,4.90627476 185.534318,8.04333604 C173.397337,16.1449124 161.284875,38.6257256 157.861109,45.3247387 C157.615448,45.8049959 157.693193,46.4164969 158.047693,46.810352 L159.568359,48.4998314 C159.568359,48.5032807 159.571463,48.5032807 159.571463,48.5032807 L167.339426,57.1335823 C167.342531,57.1335823 167.342531,57.1370405 167.342531,57.1370405 L168.866301,58.8265199 C169.214584,59.2134674 169.774337,59.3033012 170.20347,59.0338176 C176.232953,55.2297914 196.467465,41.769323 203.759684,28.2885121 Z M190,14 C192.13978,14 194.14947,14.9357324 195.65972,16.637072 C198.780093,20.1449796 198.780093,25.8547591 195.65972,29.362928 C194.14947,31.0642676 192.136758,32 190,32 C187.863242,32 185.85053,31.0608703 184.34028,29.362928 C181.219907,25.8550204 181.219907,20.1452409 184.34028,16.637072 C185.85053,14.9357324 187.86022,14 190,14 Z M193.471515,26.9000755 C195.384354,24.7495983 195.384354,21.2516212 193.471515,19.1010569 C192.545313,18.0563939 191.313527,17.4847364 190.003022,17.4847364 C188.692516,17.4847364 187.460653,18.0598347 186.534528,19.1010569 C184.621689,21.2515341 184.621689,24.7495112 186.534528,26.9000755 C187.460731,27.9447386 188.692516,28.516396 190.003022,28.516396 C191.313527,28.516396 192.54539,27.9412977 193.471515,26.9000755 Z M149.286317,60 L149.286033,60.0002626 C151.6122,60.0002626 153.799888,61.0090205 155.449181,62.8383353 C157.09233,64.6642361 158,67.0988581 158,69.6838659 C158,72.2688737 157.095323,74.7000818 155.449181,76.5293966 C152.630779,79.6614831 144.950909,80 141.778591,80 L141.56013,80 C140.7047,79.9862569 140.015463,79.2203222 140.003156,78.2697753 C139.9785,76.2967275 140.021587,66.281365 143.12624,62.8346588 C144.769311,61.0086704 146.96015,60 149.286317,60 Z M153.218689,74.053808 L153.218531,74.0537205 C154.270855,72.8843351 154.849321,71.3353087 154.843169,69.6803645 C154.843169,68.0288342 154.267752,66.4798078 153.215459,65.3104224 C152.166238,64.1444334 150.769247,63.501591 149.283087,63.501591 C147.796928,63.501591 146.403008,64.141037 145.350715,65.3104224 C143.959946,66.8597989 143.286097,72.2654598 143.16917,76.4746878 C147.307843,76.3311298 151.861712,75.5617803 153.218689,74.053808 Z" id="Rocket"></path>
            </g>
        </g>
    </g>
</svg>