<?xml version="1.0" encoding="UTF-8"?>
<svg width="88px" height="80px" viewBox="0 0 88 80" version="1.1" xmlns="http://www.w3.org/2000/svg" xmlns:xlink="http://www.w3.org/1999/xlink">
    <!-- Generator: sketchtool 53 (72520) - https://sketchapp.com -->
    <title>1B750F73-8F28-4037-8691-9DD701526B50</title>
    <desc>Created with sketchtool.</desc>
    <defs>
        <path d="M12,19.616 C13.4400072,19.616 14.7839938,19.2480037 16.032,18.512 C17.2480061,17.8079965 18.2079965,16.8480061 18.912,15.632 C19.6480037,14.3839938 20.016,13.0400072 20.016,11.6 C20.016,10.1599928 19.6480037,8.81600624 18.912,7.568 C18.2079965,6.35199392 17.2480061,5.39200352 16.032,4.688 C14.7839938,3.95199632 13.4400072,3.584 12,3.584 C10.5599928,3.584 9.21600624,3.95199632 7.968,4.688 C6.75199392,5.39200352 5.79200352,6.35199392 5.088,7.568 C4.35199632,8.81600624 3.984,10.1599928 3.984,11.6 C3.984,13.0400072 4.35199632,14.3839938 5.088,15.632 C5.79200352,16.8480061 6.75199392,17.8079965 7.968,18.512 C9.21600624,19.2480037 10.5599928,19.616 12,19.616 Z M12,1.616 C13.8240091,1.616 15.5119922,2.07199544 17.064,2.984 C18.5680075,3.84800432 19.7519957,5.03199248 20.616,6.536 C21.5280046,8.08800776 21.984,9.77599088 21.984,11.6 C21.984,13.4240091 21.5280046,15.1119922 20.616,16.664 C19.7519957,18.1680075 18.5680075,19.3519957 17.064,20.216 C15.5119922,21.1280046 13.8240091,21.584 12,21.584 C10.1759909,21.584 8.48800776,21.1280046 6.936,20.216 C5.43199248,19.3359956 4.24800432,18.1440075 3.384,16.64 C2.47199544,15.0879922 2.016,13.408009 2.016,11.6 C2.016,9.79199096 2.47199544,8.11200776 3.384,6.56 C4.2640044,5.05599248 5.45599248,3.8640044 6.96,2.984 C8.51200776,2.07199544 10.191991,1.616 12,1.616 Z M12.984,6.584 L12.984,10.616 L17.016,10.616 L17.016,12.584 L12.984,12.584 L12.984,16.616 L11.016,16.616 L11.016,12.584 L6.984,12.584 L6.984,10.616 L11.016,10.616 L11.016,6.584 L12.984,6.584 Z" id="path-1"></path>
    </defs>
    <g id="Add-Vehicle" stroke="none" stroke-width="1" fill="none" fill-rule="evenodd">
        <g id="AddVeh_768+-/-Year" transform="translate(-343.000000, -113.000000)">
            <g id="AddVehicle-Icon" transform="translate(344.000000, 112.000000)">
                <path d="M7.16886364,71.7872273 C4.6625,71.7872273 2.63113636,69.7558636 2.63113636,67.2495 L0.584772727,53.9285909 L0.584772727,77.0549545 C0.584772727,78.6631364 1.88886364,79.9672273 3.49704545,79.9672273 L8.56386364,79.9672273 C10.1720455,79.9672273 11.4756818,78.6631364 11.4756818,77.0549545 L11.4756818,71.7872273 L7.16886364,71.7872273 Z" id="Stroke-1" stroke="#8B1863" stroke-width="2"></path>
                <path d="M3.79995455,52.2737273 C3.79995455,50.0546364 6.23768182,48.2555455 9.24495455,48.2555455 C12.2526818,48.2555455 19.2322273,52.3250909 19.2322273,54.5446364 C19.2322273,56.7637273 12.2526818,56.2919091 9.24495455,56.2919091 C6.23768182,56.2919091 3.79995455,54.4928182 3.79995455,52.2737273 Z" id="Stroke-3" stroke="#8B1863" stroke-width="2"></path>
                <path d="M75.6735909,52.2737273 C75.6735909,50.0546364 73.2354091,48.2555455 70.2281364,48.2555455 C67.2208636,48.2555455 60.2413182,52.3250909 60.2413182,54.5446364 C60.2413182,56.7637273 67.2208636,56.2919091 70.2281364,56.2919091 C73.2354091,56.2919091 75.6735909,54.4928182 75.6735909,52.2737273 Z" id="Stroke-5" stroke="#8B1863" stroke-width="2"></path>
                <path d="M54.1384091,55.9884545 L25.8443182,55.9884545 C23.6329545,55.9884545 21.8402273,57.7811818 21.8402273,59.9925455 L21.8402273,60.1152727 C21.8402273,62.3266364 23.6329545,64.1189091 25.8443182,64.1189091 L54.1384091,64.1189091 C56.3497727,64.1189091 58.1425,62.3266364 58.1425,60.1152727 L58.1425,59.9925455 C58.1425,57.7811818 56.3497727,55.9884545 54.1384091,55.9884545 Z" id="Stroke-7" stroke="#8B1863" stroke-width="2"></path>
                <path d="M77.2929091,67.2495455 C77.2929091,69.7559091 75.2610909,71.7872727 72.7551818,71.7872727 L68.2165455,71.7872727 L68.2165455,77.055 C68.2165455,78.6631818 69.5201818,79.9672727 71.1283636,79.9672727 L76.1951818,79.9672727 C77.8033636,79.9672727 79.107,78.6631818 79.107,77.055 L79.107,55.4386364 L77.2929091,67.2495455 Z" id="Stroke-9" stroke="#8B1863" stroke-width="2"></path>
                <path d="M9.07559091,41.0450455 L70.8483182,41.0450455 C75.8605909,41.0450455 79.9237727,45.1082273 79.9237727,50.1205 L77.2928636,67.2495909 C77.2928636,69.7559545 75.2610455,71.7873182 72.7551364,71.7873182 L7.16877273,71.7873182 C4.66286364,71.7873182 2.63104545,69.7559545 2.63104545,67.2495909 L0.000136363636,50.1205 C0.000136363636,45.1082273 4.06331818,41.0450455 9.07559091,41.0450455 Z" id="Stroke-11" stroke="#8B1863" stroke-width="2"></path>
                <path d="M13.1436364,32.9384545 L13.1436364,32.3057273 L6.28954545,32.3057273 C3.78318182,32.3057273 1.75136364,34.338 1.75136364,36.8443636 C1.75136364,37.9102727 2.61545455,38.7743636 3.68136364,38.7743636 L9.71409091,38.7743636 C10.7286364,36.9811818 11.9045455,34.9575455 13.1436364,32.9384545 Z" id="Stroke-13" stroke="#8B1863" stroke-width="2"></path>
                <path d="M73.6929545,32.3059091 L66.8388636,32.3059091 L66.8388636,32.9386364 C68.0779545,34.9572727 69.2543182,36.9809091 70.2688636,38.7740909 L76.3015909,38.7740909 C77.3670455,38.7740909 78.2311364,37.9104545 78.2311364,36.8445455 C78.2311364,34.3377273 76.1993182,32.3059091 73.6929545,32.3059091 Z" id="Stroke-15" stroke="#8B1863" stroke-width="2"></path>
                <path d="M9.07559091,41.0450455 L70.8483182,41.0450455 C71.0874091,41.0450455 71.3219545,41.0627727 71.5565,41.0809545 C67.9137727,34.4691364 60.3178636,21.4195909 57.1055909,21.4195909 L22.8774091,21.4195909 C19.6655909,21.4195909 12.0710455,34.4650455 8.42786364,41.0777727 C8.64240909,41.0627727 8.85695455,41.0450455 9.07559091,41.0450455 Z" id="Stroke-17" stroke="#8B1863" stroke-width="2"></path>
                <g id="04_Icons-/-24px-/-Add" transform="translate(65.000000, 0.000000)">
                    <mask id="mask-2" fill="white">
                        <use xlink:href="#path-1"></use>
                    </mask>
                    <use id="add_circle_outline---material" fill="#000000" fill-rule="evenodd" xlink:href="#path-1"></use>
                    <g id="00_Basics-/-Colors-/-Secondary-/-700" mask="url(#mask-2)" fill="#8B1863" fill-rule="evenodd">
                        <rect id="Rectangle-2" x="0" y="0" width="24.24" height="24.24"></rect>
                    </g>
                </g>
            </g>
        </g>
    </g>
</svg>