<?xml version="1.0" encoding="UTF-8"?>
<svg width="96px" height="80px" viewBox="0 0 96 80" version="1.1" xmlns="http://www.w3.org/2000/svg" xmlns:xlink="http://www.w3.org/1999/xlink">
    <!-- Generator: sketchtool 52.6 (67491) - http://www.bohemiancoding.com/sketch -->
    <title>9223BA2F-BCBC-4C57-840D-310FAF618696</title>
    <desc>Created with sketchtool.</desc>
    <g id="KOs" stroke="none" stroke-width="1" fill="none" fill-rule="evenodd">
        <g id="Not_In_Area_376-/-Neutral" transform="translate(-140.000000, -104.000000)" fill="#8B1863">
            <g id="MapIcon" transform="translate(140.000000, 104.000000)">
                <path d="M95.5,76.8790244 L90.3984,38.0487805 C90.29684,37.1722537 89.59762,36.2919024 88.6992,35.998439 L80.0976,32.9724878 C79.29682,34.4359024 78.496,35.998439 77.6992,37.4618537 L85.3984,40.1943415 L89.7968,73.6587317 L71.4958,67.9041951 L70.195,48.1978537 C69.29656,48.5865756 68.2966,48.7847415 67.195,48.7847415 C66.49578,48.7847415 65.695,48.6856585 65.0934,48.4912976 L66.3942,68.0034927 L50.3942,73.6628098 L50.398107,40.0003707 L56.796507,37.4622244 L54.398107,32.9728585 L47.999707,35.6100293 L30.397707,28.4872976 C29.796147,28.2929366 29.096907,28.1938537 28.499307,28.3882146 L7.300307,35.9987512 C6.397967,36.2921951 5.800307,37.0734829 5.601107,38.0490927 L0.499507,76.8793366 C0.397947,77.7558634 0.698727,78.5370927 1.397947,79.1240195 C2.097167,79.7109073 2.999547,79.8061854 3.796347,79.6118244 L26.694347,72.3938732 L47.092347,79.6118244 C47.693907,79.8061854 48.291547,79.8061854 48.791547,79.6118244 L69.189547,72.3938732 L92.087547,79.6118244 C92.388327,79.7109073 92.587547,79.7109073 92.888327,79.7109073 C93.489887,79.7109073 94.087527,79.5165463 94.489927,79.1240195 C95.196957,78.5371317 95.599327,77.755922 95.497727,76.8793366 L95.5,76.8790244 Z M24.398,67.9041951 L6.101,73.6587317 L10.4994,40.1943415 L26.6014,34.5350244 L24.398,67.9041951 Z M45.398,73.6587317 L29.398,67.9994146 L31.5972,34.4403902 L45.3982,40.0005854 L45.398,73.6587317 Z" id="Shape" fill-rule="nonzero"></path>
                <path d="M65.398,42.6331707 C66.19878,44.1957073 68.4996,44.1957073 69.2964,42.6331707 C69.2964,42.6331707 78.398,25.2663415 80.4954,21.1697561 C82.597,17.0729756 82.6946,12.4883902 80.4954,8.19317073 C76.8977,1.0742439 67.9994,-1.75707317 60.6984,1.85170732 C53.3976,5.46068293 50.5964,14.3404878 54.1984,21.1697561 C57.8,27.9990244 65.3974,42.6331707 65.3974,42.6331707 L65.398,42.6331707 Z M67.398,8.09853659 C71.2964,8.09853659 74.398,11.1244878 74.398,14.9278049 C74.398,18.731122 71.2964,21.7570732 67.398,21.7570732 C63.4996,21.7570732 60.398,18.731122 60.398,14.9278049 C60.398,11.2197073 63.4996,8.09853659 67.398,8.09853659 Z" id="Shape" fill-rule="nonzero"></path>
                <path d="M0,5.16818782 L0.182333365,5.16808874 C2.37465082,1.78238743 5.48066668,0 9.68246034,0 C13.884254,0 19,3.38676649 19,7.84168226 C19,13.9010514 11.6920635,13.5450842 11.3270159,18 L6.76004758,18 C6.94263489,11.5844159 14.4330317,13.009771 14.4330317,7.84168226 C14.4330317,5.34617142 11.5097555,3.92084113 9.13495235,3.92084113 C6.21152381,3.92084113 4.7504698,5.52427887 3.10576191,7.48472421 L0,5.16818782 Z M11,21 L11,25 L7,25 L7,21 L11,21 Z" id="QuestionMark"></path>
            </g>
        </g>
    </g>
</svg>