<?xml version="1.0" encoding="UTF-8"?>
<svg width="24px" height="24px" viewBox="0 0 24 24" version="1.1" xmlns="http://www.w3.org/2000/svg" xmlns:xlink="http://www.w3.org/1999/xlink">
    <!-- Generator: sketchtool 55.2 (78181) - https://sketchapp.com -->
    <title>C4247FA3-6606-4332-8797-D3A1A89118FB</title>
    <desc>Created with sketchtool.</desc>
    <defs>
        <path d="M12.0036011,0 C8.7967357,0 5.78287274,1.24687198 3.51725437,3.51383993 C1.24988313,5.77977589 0,8.79383983 0,12 C0,15.2061597 1.24714628,18.2203197 3.515574,20.4861596 C5.78013614,22.752096 8.79481528,24 12.0019208,24 C15.2087862,24 18.2216889,22.751256 20.4899479,20.4844796 C25.1700174,15.8063997 25.1700174,8.19287984 20.4899479,3.51383993 C18.2253857,1.24790398 15.2087862,0 12.0036011,0 Z M12.0017263,2.03812796 L12.0036011,2.03812796 C14.6657867,2.03812796 17.1685773,3.07406394 19.0486708,4.95460791 C22.9327252,8.83972783 22.9327252,15.1594077 19.0486708,19.0433276 C17.1648084,20.9258396 14.6612257,21.9617273 12.0000003,21.9617273 C9.33877494,21.9617273 6.8369446,20.9267276 4.95493061,19.0452476 C3.07483705,17.1636957 2.03684824,14.6614077 2.03684824,12.0000478 C2.03684824,9.33868782 3.07301264,6.83620787 4.95685104,4.95484791 C6.83788081,3.07423194 9.34069536,2.03836796 12.0019208,2.03836796 L12.0017263,2.03812796 Z M12.0495496,6.30556788 C11.2618884,6.30556788 10.5707763,6.46775508 9.97909419,6.79118387 C9.38834824,7.11556786 8.93824923,7.52243986 8.62973337,8.01650385 C8.3212175,8.50963184 8.16556726,8.99711983 8.16556726,9.47711982 C8.16556726,9.70961981 8.2612139,9.92524781 8.45624721,10.1249278 C8.65128051,10.3246078 8.89040671,10.4249278 9.1726608,10.4249278 C9.65276641,10.4249278 9.97909419,10.1399278 10.1516201,9.56805582 C10.3316597,9.02150383 10.5548368,8.60805584 10.8183188,8.32773584 C11.0808886,8.04741585 11.4906587,7.90679985 12.046717,7.90679985 C12.5230778,7.90679985 12.9112912,8.04648705 13.2113572,8.32399184 C13.5123594,8.60243984 13.6633286,8.94367183 13.6633286,9.34773582 C13.6633286,9.55492302 13.6145667,9.74711981 13.5142342,9.92335181 C13.4176514,10.100539 13.2957478,10.2608398 13.1504102,10.4052238 C13.0069402,10.5486622 12.7734553,10.7633518 12.4489999,11.0464798 C12.081431,11.3699278 11.7860461,11.6483518 11.5694224,11.8846078 C11.3518746,12.1199206 11.1774642,12.3917998 11.0452431,12.7039918 C10.913963,13.0161838 10.8483254,13.3827357 10.8483254,13.8074397 C10.8483254,14.1468237 10.9383452,14.4018237 11.1174486,14.5733757 C11.2956134,14.7458757 11.5187929,14.8311837 11.7822748,14.8311837 C12.287706,14.8311837 12.5887082,14.5686717 12.6843453,14.0427357 C12.7406088,13.7952477 12.7818667,13.6217997 12.8099985,13.5233517 C12.8371917,13.4249133 12.8775134,13.3255389 12.9272115,13.2270957 C12.9769096,13.1286573 13.0556782,13.0199086 13.158824,12.9008398 C13.2619699,12.781771 13.4016855,12.6439678 13.572363,12.4873918 C14.1940518,11.9314558 14.6263389,11.5358398 14.8663917,11.3005198 C15.1045697,11.0661454 15.3118096,10.7867758 15.4871442,10.4623918 C15.6624956,10.1389438 15.7478175,9.76207181 15.7478175,9.33271182 C15.7478175,8.78709583 15.5968459,8.28177584 15.2902289,7.81677585 C14.9845457,7.35083986 14.5503861,6.98332787 13.9886866,6.71332787 C13.4288834,6.44332788 12.7809329,6.30739188 12.0476436,6.30739188 L12.0495496,6.30556788 Z M11.86951,15.5203677 C11.5441185,15.5203677 11.2721866,15.6281805 11.0490095,15.8466237 C10.8258348,16.0650621 10.7151921,16.3313037 10.7151921,16.6510077 C10.7151921,17.0110077 10.8305303,17.2903917 11.0621404,17.4900717 C11.2918782,17.6897589 11.5619304,17.7900717 11.8704462,17.7900717 C12.1667674,17.7900717 12.4311856,17.6878845 12.6581075,17.4863277 C12.8850318,17.2847661 12.9985024,17.0063277 12.9985024,16.6519437 C12.9985024,16.3331997 12.8916045,16.0650717 12.674047,15.8475597 C12.4546243,15.6291213 12.1892604,15.5213037 11.869486,15.5213037 L11.86951,15.5203677 Z" id="path-1"></path>
    </defs>
    <g id="Basic_Info" stroke="none" stroke-width="1" fill="none" fill-rule="evenodd">
        <g id="Basic_Info_376" transform="translate(-336.000000, -20.000000)">
            <g id="01_Header-/-LoggedOut-/-376-575px">
                <g id="04_Icons/-24px-/-help" transform="translate(336.000000, 20.000000)">
                    <mask id="mask-2" fill="white">
                        <use xlink:href="#path-1"></use>
                    </mask>
                    <use id="Mask" fill="#FF7F00" fill-rule="evenodd" xlink:href="#path-1"></use>
                    <g id="00_Basics-/-Colors-/-White" mask="url(#mask-2)" fill="#FF7F00" fill-rule="evenodd">
                        <rect id="Rectangle-2" x="0" y="0" width="24" height="24"></rect>
                    </g>
                </g>
            </g>
        </g>
    </g>
</svg>