<?xml version="1.0" encoding="UTF-8"?>
<svg width="112px" height="63px" viewBox="0 0 112 63" version="1.1" xmlns="http://www.w3.org/2000/svg" xmlns:xlink="http://www.w3.org/1999/xlink">
    <!-- Generator: Sketch 55.1 (78136) - https://sketchapp.com -->
    <title>Payer Icon</title>
    <desc>Created with Sketch.</desc>
    <g id="Address-Verification" stroke="none" stroke-width="1" fill="none" fill-rule="evenodd">
        <g id="AddressVerification_376px_PayerA" transform="translate(-132.000000, -119.000000)" stroke="#8B1863" stroke-width="2">
            <g id="Payer-Icon" transform="translate(133.000000, 120.000000)">
                <path d="M0,54.6058929 L34.605051,60.4905255 C37.3817959,60.9629643 40.2357245,60.6604541 42.8518776,59.6153622 L77.3038061,42.83725" id="Stroke-1" stroke-linecap="round"></path>
                <path d="M0,28.6478408 C0,28.6478408 19.483898,19.2849633 22.545102,19.2849633 C25.6063061,19.2849633 51.5873265,18.0967082 51.5873265,18.0967082 C51.5873265,18.0967082 54.1038878,26.6335959 48.4302653,28.6478408 C42.7572653,30.6620857 33.0781837,31.4538408 24.2475,37.8501265" id="Stroke-3" stroke-linecap="round"></path>
                <polyline id="Stroke-5" points="34.4939439 32.8530439 34.4939439 42.8371255 109.550709 42.8371255 109.550709 0.000186734694 34.4939439 0.000186734694 34.4939439 18.8809316"></polyline>
                <path d="M49.7752531,27.3002388 C51.6743449,34.4627592 56.9595592,40.2453102 63.8127224,42.8371878 L80.0032429,42.8371878 C88.6521714,39.5662184 94.8038347,31.2123306 94.8038347,21.4187184 C94.8038347,11.6238612 88.6521714,3.27059592 80.0032429,0.000248979592 L63.8127224,0.000248979592 C56.1379265,2.90210612 50.4294469,9.80693265 49.2411918,18.1695347" id="Stroke-7"></path>
                <path d="M105.056503,10.0199347 C101.597554,10.0199347 98.7940439,7.21580204 98.7940439,3.75685306" id="Stroke-9" stroke-linecap="round"></path>
                <path d="M98.7940439,39.0793388 C98.7940439,35.6203898 101.597554,32.8168796 105.056503,32.8168796" id="Stroke-11" stroke-linecap="round"></path>
                <path d="M38.9884612,10.0199347 C42.4474102,10.0199347 45.2509204,7.21580204 45.2509204,3.75685306" id="Stroke-13" stroke-linecap="round"></path>
                <path d="M45.2509204,39.0793388 C45.2509204,35.6203898 42.4474102,32.8168796 38.9884612,32.8168796" id="Stroke-15" stroke-linecap="round"></path>
                <path d="M78.1866255,15.5338367 C78.1866255,6.53633673 65.590748,7.66110204 65.590748,14.408449 C65.590748,22.5065102 78.4113296,19.9196122 78.4113296,27.004949 C78.4113296,34.9897245 64.80335,35.3270918 64.80335,26.4422551" id="Stroke-17"></path>
                <path d="M71.6074643,9.12335918 L71.6074643,4.84962449" id="Stroke-19"></path>
                <path d="M71.6074643,37.1979867 L71.6074643,32.924252" id="Stroke-21"></path>
            </g>
        </g>
    </g>
</svg>