<?xml version="1.0" encoding="UTF-8"?>
<svg width="86px" height="57px" viewBox="0 0 86 57" version="1.1" xmlns="http://www.w3.org/2000/svg" xmlns:xlink="http://www.w3.org/1999/xlink">
    <!-- Generator: sketchtool 52.6 (67491) - http://www.bohemiancoding.com/sketch -->
    <title>0432BAAF-98D2-4A5D-BC83-CD53C8C4F747</title>
    <desc>Created with sketchtool.</desc>
    <g id="Marital-Status" stroke="none" stroke-width="1" fill="none" fill-rule="evenodd">
        <g id="Marital-376-599px-/-Nutral" transform="translate(-146.000000, -110.000000)">
            <g id="Group" transform="translate(36.000000, 104.000000)">
                <g id="Icon_MaritalStatus" transform="translate(109.000000, 0.000000)">
                    <rect id="Rectangle" fill-rule="nonzero" x="0" y="0" width="87" height="72"></rect>
                    <path d="M41.5048628,9.13795431 C37.7255436,7.19677022 33.5158686,6 29.0017912,6 C13.5630912,6 1,18.786521 1,34.5018236 C1,50.2125672 13.5621954,63 29.0017912,63 C44.4413871,63 57,50.213479 57,34.4981764 C57,27.6025003 54.4839774,21.3587791 50.4632326,16.4221589 C48.7660864,17.2663082 47.1738417,18.2885734 45.7916686,19.5707816 C49.2385461,23.5813524 51.3975812,28.7638006 51.3975812,34.4982675 C51.3975812,47.0750688 41.35087,57.3011854 29.0018808,57.3011854 C16.6493083,57.3011854 6.59901468,47.0750688 6.59901468,34.4982675 C6.59901468,21.9287609 16.6493083,11.698997 29.0018808,11.698997 C31.7978496,11.698997 34.4503068,12.2866955 36.9208213,13.2412577 C38.3135651,11.7238898 39.8357561,10.3454841 41.5049524,9.1380455" id="Fill-1" fill="#8B1863"></path>
                    <path d="M87,34.4996809 C87,18.7864715 74.4386077,6 59,6 C43.5613923,6 31,18.7855597 31,34.4996809 C31,41.4019502 33.5228486,47.6563254 37.5503231,52.5925745 C39.2508542,51.7556095 40.8044789,50.687186 42.19364,49.4120947 C38.7575533,45.4053813 36.6020603,40.2270609 36.6020603,34.5003191 C36.6020603,21.9281104 46.6517116,11.7027626 58.9999104,11.7027626 C71.3516924,11.7027626 81.3977606,21.9281104 81.3977606,34.5003191 C81.3977606,47.0761748 71.3516924,57.3015226 58.9999104,57.3015226 C56.2496257,57.3015226 53.6427539,56.7245541 51.2074221,55.7985834 C49.8007934,57.3193931 48.2646363,58.701251 46.5850662,59.9121547 C50.343093,61.824746 54.521057,63 59.0031352,63 C74.4372641,62.996435 86.9995521,50.2107933 86.9995521,34.5003191" id="Fill-2" fill="#8B1863"></path>
                </g>
            </g>
        </g>
    </g>
</svg>