<?xml version="1.0" encoding="UTF-8"?>
<svg width="74px" height="52px" viewBox="0 0 74 52" version="1.1" xmlns="http://www.w3.org/2000/svg" xmlns:xlink="http://www.w3.org/1999/xlink">
    <!-- Generator: sketchtool 54.1 (76490) - https://sketchapp.com -->
    <title>5E6FC396-8CE4-4511-A88F-0038110CDA38</title>
    <desc>Created with sketchtool.</desc>
    <defs>
        <path d="M70.5565333,15 C72.175,15 73.7304807,15.6445267 74.8763067,16.79036 C76.0221327,17.9361933 76.6666667,19.4916666 76.6666667,21.1101332 L76.6666667,60.2231989 C76.6666667,61.8416655 76.02214,63.3971461 74.8763067,64.5429721 C73.7304733,65.6887981 72.175,66.3333321 70.5565333,66.3333321 L9.4434674,66.3333321 C7.82500073,66.3333321 6.26952007,65.6888054 5.12369407,64.5429721 C3.97786807,63.3971388 3.33333333,61.8416655 3.33333333,60.2231989 L3.33333333,21.1101332 C3.33333333,17.7356999 6.06896073,15 9.4434674,15 L70.5565333,15 Z M74.2232017,60.2231996 L74.2232017,21.1101332 C74.2232017,19.0848866 72.5817816,17.4434666 70.5565349,17.4434666 L9.44346747,17.4434666 C7.41822075,17.4434666 5.77680071,19.0848866 5.77680071,21.1101332 L5.77680071,60.2231996 C5.77680071,62.2484463 7.41822075,63.8898663 9.44346747,63.8898663 L70.5565349,63.8898663 C72.5817816,63.8898663 74.2232017,62.2484463 74.2232017,60.2231996 Z M35.6666657,21.1101332 L35.666739,21.1099279 C36.9643723,21.1099279 38.2076069,21.6255346 39.1242589,22.5422012 C40.0409108,23.4588679 40.5565321,24.7020878 40.5565321,25.9997212 L40.5565321,55.3447875 L40.5565321,55.7973935 L40.5565321,55.8718708 C40.2815322,58.3583108 38.1703389,60.2374994 35.6666657,60.2231774 L13.6666666,60.2231774 C11.1629934,60.2374774 9.05180018,58.3583108 8.77680019,55.8718708 C8.77393286,55.8260375 8.77393286,55.7802041 8.77680019,55.7372381 C8.76820552,55.6026055 8.76820552,55.4679655 8.77680019,55.3333328 L8.77680019,25.9999998 C8.77680019,23.2986932 10.9653601,21.1101332 13.6666666,21.1101332 L35.6666657,21.1101332 Z M38.0385595,55.8950676 L38.0386035,55.8951043 C38.1102208,55.8234869 38.1102208,55.7490096 38.1102208,55.6745323 C37.9440475,53.1566322 37.0732142,50.7331854 35.5951076,48.6878454 C34.1169276,46.6396453 32.091681,45.0498519 29.751321,44.1016519 C29.6166884,44.1761366 29.4820484,44.2362919 29.3474157,44.3107692 L28.748715,44.6287353 L28.1872604,44.8607693 C27.9065111,44.9696253 27.6229164,45.0670193 27.3307271,45.1529586 L27.1359391,45.1529586 C25.5146125,45.611292 23.7958258,45.611292 22.1744992,45.1529586 L22.1744992,45.1500913 L21.9310105,45.1500913 C21.6617159,45.0784813 21.3924432,44.9782199 21.1231706,44.8693639 L20.5244699,44.6258753 L19.9486859,44.3336859 C19.8140459,44.2477466 19.6679513,44.1990532 19.5333186,44.1131139 C17.2015387,45.0698939 15.187732,46.6625473 13.7182054,48.7078874 C12.2486788,50.7560141 11.3836021,53.1737408 11.2231855,55.6888543 C11.3463855,56.6083809 11.9794721,57.381791 12.8588854,57.6797076 L13.2140901,57.7771016 C13.3659121,57.7914236 13.5148741,57.7914236 13.6666961,57.7771016 L35.6666956,57.7771016 C35.8442942,57.768507 36.0219002,57.739863 36.1909115,57.6911623 L36.1966389,57.6940296 L36.3427335,57.6940296 L36.6234609,57.6195523 L36.7810102,57.545075 L37.0015822,57.436219 L37.1591315,57.327363 L37.3424648,57.1927303 L37.4770975,57.0466356 L37.6346468,56.874757 L37.7435028,56.7028856 L37.8666808,56.5195523 C37.9526202,56.4593896 37.8666808,56.3992343 37.9526202,56.3247569 C38.0385595,56.2502723 38.0385595,56.1901169 38.0385595,56.1156396 L38.0385595,55.8950676 Z M17.333627,35.7768005 L17.3337003,35.7768371 C17.3365603,38.1543772 18.4881136,40.3801906 20.4245535,41.7551906 C21.0432668,42.1963493 21.7279141,42.5343646 22.4555201,42.757804 C24.64408,43.439584 27.0274133,43.0671973 28.9094399,41.7551906 C30.9948198,40.2741506 32.1607391,37.8135239 31.9831331,35.2582971 C31.8026598,32.7059304 30.3045332,30.431497 28.0328866,29.2569903 C25.75838,28.0825203 23.0341934,28.1770469 20.8484935,29.5090736 C18.6656536,30.8439603 17.3307597,33.2187137 17.333627,35.7768005 Z M38.1104265,48.097533 L38.1102505,26.0000439 C38.1102505,25.3526572 37.8524398,24.7310106 37.3941065,24.2726772 C36.9357731,23.8143439 36.3141338,23.5565333 35.6667398,23.5565333 L13.6667401,23.5565333 C12.3175535,23.5565333 11.2232735,24.6508132 11.2232735,25.9999999 L11.2232735,48.097533 C12.7530068,45.6540663 14.9186134,43.6774397 17.4910001,42.3769464 C14.8555468,39.5235464 14.1566068,35.3813865 15.7149401,31.8235465 C17.2703401,28.2628465 20.7882134,25.9625999 24.6726066,25.9625999 C28.5570733,25.9625999 32.0747999,28.2628465 33.6302732,31.8235465 C35.1886065,35.3816065 34.4896665,39.5238397 31.8542132,42.3769464 C34.4323198,43.6659997 36.5979265,45.645413 38.1104265,48.097533 Z M68.8898682,23.110133 C69.5630755,23.110133 70.1102082,23.6572657 70.1102082,24.333333 C70.1102082,25.0094003 69.5630462,25.5565329 68.8898682,25.5565329 L45.6666675,25.5565329 C44.9906001,25.5565329 44.4434675,25.0094003 44.4434675,24.333333 C44.4434675,23.6572657 44.9906221,23.110133 45.6666675,23.110133 L68.8898682,23.110133 Z M68.8898682,31.3333337 C69.5630755,31.3333337 70.1102082,31.8804883 70.1102082,32.5565337 C70.1102082,33.2297411 69.5630462,33.7768737 68.8898682,33.7768737 L45.6666675,33.7768737 C44.9906001,33.7768737 44.4434675,33.2297117 44.4434675,32.5565337 C44.4434675,31.8804663 44.9906221,31.3333337 45.6666675,31.3333337 L68.8898682,31.3333337 Z M68.8898682,39.5565335 C69.5630755,39.5565335 70.1102082,40.1036955 70.1102082,40.7768735 C70.1102082,41.4529409 69.5630462,42.0000736 68.8898682,42.0000736 L45.6666675,42.0000736 C44.9906001,42.0000736 44.4434675,41.4529189 44.4434675,40.7768735 C44.4434675,40.1036662 44.9906221,39.5565335 45.6666675,39.5565335 L68.8898682,39.5565335 Z" id="path-1"></path>
    </defs>
    <g id="Document-Verifcation" stroke="none" stroke-width="1" fill="none" fill-rule="evenodd">
        <g id="DocReview_376px_Upload-/-DriverLic" transform="translate(-151.000000, -143.000000)">
            <g id="04_Icons-/-24px-/-cloud_upload-/-outline" transform="translate(148.000000, 128.000000)">
                <mask id="mask-2" fill="white">
                    <use xlink:href="#path-1"></use>
                </mask>
                <use id="Combined-Shape" fill="#8B1863" xlink:href="#path-1"></use>
                <g id="00_Basics-/-Colors-/-Secondary-/-700" mask="url(#mask-2)" fill="#8B1863">
                    <g transform="translate(-48.333333, -55.000000)" id="Rectangle-2">
                        <rect x="0" y="0" width="168.333338" height="168.333338"></rect>
                    </g>
                </g>
            </g>
        </g>
    </g>
</svg>