<?xml version="1.0" encoding="UTF-8"?>
<svg width="44px" height="32px" viewBox="0 0 44 32" version="1.1" xmlns="http://www.w3.org/2000/svg" xmlns:xlink="http://www.w3.org/1999/xlink">
    <!-- Generator: sketchtool 54.1 (76490) - https://sketchapp.com -->
    <title>43ABD267-65EC-4392-BB2E-9CAB56181E40</title>
    <desc>Created with sketchtool.</desc>
    <defs>
        <path d="M42.33392,9 C43.305,9 44.2382884,9.386716 44.925784,10.074216 C45.6132796,10.761716 46,11.695 46,12.66608 L46,36.13392 C46,37.105 45.613284,38.0382884 44.925784,38.725784 C44.238284,39.4132796 43.305,39.8 42.33392,39.8 L5.66608044,39.8 C4.69500044,39.8 3.76171204,39.413284 3.07421644,38.725784 C2.38672084,38.038284 2,37.105 2,36.13392 L2,12.66608 C2,10.64142 3.64137644,9 5.66608044,9 L42.33392,9 Z M44.53392,36.13392 L44.53392,12.66608 C44.53392,11.450932 43.549068,10.46608 42.33392,10.46608 L5.66608044,10.46608 C4.45093244,10.46608 3.46608044,11.450932 3.46608044,12.66608 L3.46608044,36.13392 C3.46608044,37.349068 4.45093244,38.33392 5.66608044,38.33392 L42.33392,38.33392 C43.549068,38.33392 44.53392,37.349068 44.53392,36.13392 Z M21.4,12.66608 L21.400044,12.6659568 C22.178624,12.6659568 22.9245648,12.9753208 23.474556,13.5253208 C24.0245472,14.0753208 24.33392,14.8212528 24.33392,15.5998328 L24.33392,33.2068728 L24.33392,33.4784364 L24.33392,33.5231228 C24.16892,35.0149868 22.902204,36.1425 21.4,36.1339068 L8.2,36.1339068 C6.697796,36.1424868 5.43108,35.0149868 5.26608,33.5231228 C5.2643596,33.4956228 5.2643596,33.4681228 5.26608,33.4423432 C5.2609232,33.3615636 5.2609232,33.2807796 5.26608,33.2 L5.26608,15.6 C5.26608,13.979216 6.579216,12.66608 8.2,12.66608 L21.4,12.66608 Z M22.823136,33.53704 L22.8231624,33.537062 C22.8661328,33.4940916 22.8661328,33.4494052 22.8661328,33.4047188 C22.7664288,31.8939788 22.2439288,30.4399108 21.3570648,29.2127068 C20.4701568,27.9837868 19.2550088,27.0299108 17.8507928,26.4609908 C17.7700132,26.5056816 17.6892292,26.5417748 17.6084496,26.5864612 L17.2492292,26.7772408 L16.9123564,26.9164612 C16.7439068,26.9817748 16.57375,27.0402112 16.3984364,27.0917748 L16.2815636,27.0917748 C15.3087676,27.3667748 14.2774956,27.3667748 13.3046996,27.0917748 L13.3046996,27.0900544 L13.1586064,27.0900544 C12.9970296,27.0470884 12.835466,26.9869316 12.6739024,26.921618 L12.314682,26.7755248 L11.9692116,26.6002112 C11.8884276,26.5486476 11.8007708,26.5194316 11.7199912,26.467868 C10.3209232,27.041936 9.1126392,27.997528 8.2309232,29.224732 C7.3492072,30.453608 6.8301612,31.904244 6.7339112,33.413312 C6.8078312,33.965028 7.1876832,34.429074 7.7153312,34.607824 L7.928454,34.6662604 C8.0195472,34.6748536 8.1089244,34.6748536 8.2000176,34.6662604 L21.4000176,34.6662604 C21.5065768,34.6611036 21.6131404,34.6439172 21.7145472,34.6146968 L21.7179836,34.6164172 L21.8056404,34.6164172 L21.9740768,34.5717308 L22.0686064,34.5270444 L22.2009496,34.4617308 L22.2954792,34.3964172 L22.4054792,34.3156376 L22.4862588,34.2279808 L22.5807884,34.1248536 L22.646102,34.0217308 L22.7200088,33.9117308 C22.7715724,33.8756332 22.7200088,33.83954 22.7715724,33.7948536 C22.823136,33.7501628 22.823136,33.7140696 22.823136,33.6693832 L22.823136,33.53704 Z M10.400176,21.46608 L10.40022,21.466102 C10.401936,22.892626 11.092868,24.228114 12.254732,25.053114 C12.62596,25.3178092 13.0367484,25.5206184 13.473312,25.654682 C14.786448,26.06375 16.216448,25.840318 17.345664,25.053114 C18.596892,24.16449 19.2964436,22.688114 19.18988,21.154978 C19.081596,19.623558 18.18272,18.258898 16.819732,17.554194 C15.455028,16.849512 13.820516,16.906228 12.509096,17.705444 C11.199392,18.506376 10.3984556,19.931228 10.400176,21.46608 Z M22.866256,28.85852 L22.8661504,15.6000264 C22.8661504,15.2115944 22.711464,14.8386064 22.436464,14.5636064 C22.161464,14.2886064 21.7884804,14.13392 21.400044,14.13392 L8.200044,14.13392 C7.390532,14.13392 6.733964,14.790488 6.733964,15.6 L6.733964,28.85852 C7.651804,27.39244 8.951168,26.206464 10.4946,25.426168 C8.913328,23.714128 8.493964,21.228832 9.428964,19.094128 C10.362204,16.957708 12.472928,15.57756 14.803564,15.57756 C17.134244,15.57756 19.24488,16.957708 20.178164,19.094128 C21.113164,21.228964 20.6938,23.714304 19.112528,25.426168 C20.659392,26.1996 21.958756,27.387248 22.866256,28.85852 Z M41.33392,13.86608 C41.7378444,13.86608 42.066124,14.1943596 42.066124,14.6 C42.066124,15.0056404 41.7378268,15.33392 41.33392,15.33392 L27.4,15.33392 C26.9943596,15.33392 26.66608,15.0056404 26.66608,14.6 C26.66608,14.1943596 26.9943728,13.86608 27.4,13.86608 L41.33392,13.86608 Z M41.33392,18.8 C41.7378444,18.8 42.066124,19.1282928 42.066124,19.53392 C42.066124,19.9378444 41.7378268,20.266124 41.33392,20.266124 L27.4,20.266124 C26.9943596,20.266124 26.66608,19.9378268 26.66608,19.53392 C26.66608,19.1282796 26.9943728,18.8 27.4,18.8 L41.33392,18.8 Z M41.33392,23.73392 C41.7378444,23.73392 42.066124,24.0622172 42.066124,24.466124 C42.066124,24.8717644 41.7378268,25.200044 41.33392,25.200044 L27.4,25.200044 C26.9943596,25.200044 26.66608,24.8717512 26.66608,24.466124 C26.66608,24.0621996 26.9943728,23.73392 27.4,23.73392 L41.33392,23.73392 Z" id="path-1"></path>
    </defs>
    <g id="Document-Verifcation" stroke="none" stroke-width="1" fill="none" fill-rule="evenodd">
        <g id="DocReview_376px_Neutral" transform="translate(-18.000000, -384.000000)">
            <g id="05_Inputs-/-Summary-/-Verification-/-Incomplete" transform="translate(0.000000, 360.000000)">
                <g id="Left-Aligned-Copy" transform="translate(16.000000, 15.666667)">
                    <g id="Icon">
                        <mask id="mask-2" fill="white">
                            <use xlink:href="#path-1"></use>
                        </mask>
                        <use id="Combined-Shape" fill="#8B1863" xlink:href="#path-1"></use>
                        <g id="00_Basics-/-Colors-/-Secondary-/-700" mask="url(#mask-2)" fill="#777770">
                            <g transform="translate(-29.000000, -33.000000)" id="Rectangle-2">
                                <rect x="0" y="0" width="101" height="101"></rect>
                            </g>
                        </g>
                    </g>
                </g>
            </g>
        </g>
    </g>
</svg>