<?xml version="1.0" encoding="UTF-8"?>
<svg width="106px" height="34px" viewBox="0 0 106 34" version="1.1" xmlns="http://www.w3.org/2000/svg" xmlns:xlink="http://www.w3.org/1999/xlink">
    <!-- Generator: sketchtool 59.1 (101010) - https://sketch.com -->
    <title>60B8DA8F-0198-402F-97B4-E618402EEE21</title>
    <desc>Created with sketchtool.</desc>
    <defs>
        <linearGradient x1="59.0097903%" y1="28.8105426%" x2="34.4719091%" y2="75.3434595%" id="linearGradient-1">
            <stop stop-color="#FFA101" offset="0%"></stop>
            <stop stop-color="#FF7F00" offset="100%"></stop>
        </linearGradient>
        <linearGradient x1="53.7487789%" y1="41.9804643%" x2="50%" y2="55.3097198%" id="linearGradient-2">
            <stop stop-color="#FFA101" offset="0%"></stop>
            <stop stop-color="#FF7F00" offset="100%"></stop>
        </linearGradient>
        <linearGradient x1="53.7487789%" y1="33.520656%" x2="50%" y2="60.9109432%" id="linearGradient-3">
            <stop stop-color="#FFA101" offset="0%"></stop>
            <stop stop-color="#FF7F00" offset="100%"></stop>
        </linearGradient>
        <linearGradient x1="53.7487789%" y1="42.0796295%" x2="50%" y2="55.2440627%" id="linearGradient-4">
            <stop stop-color="#FFA101" offset="0%"></stop>
            <stop stop-color="#FF7F00" offset="100%"></stop>
        </linearGradient>
    </defs>
    <g id="Components" stroke="none" stroke-width="1" fill="none" fill-rule="evenodd">
        <g id="Elements" transform="translate(-195.000000, -3185.000000)" fill-rule="nonzero">
            <g id="00_Atoms-/-Card-Copy-10-01_Header-/-LeadGen-/-≥1200px" transform="translate(91.000000, 3169.000000)">
                <g id="Group-2" transform="translate(104.000000, 13.000000)">
                    <g id="Verti-Logo-01_Header-/-Logo-/-Verti-/-Dark" transform="translate(0.000000, 3.000000)">
                        <g id="Verti-Small-Neuron-Logo" transform="translate(0.000000, 0.000000)">
                            <path d="M43.2864518,17.4685425 C41.8825097,21.4574899 39.5490077,26.6949628 37.2112785,29.9981073 L36.2002016,29.9981073 C34.6429028,29.9981073 33.825866,29.4336466 32.7750283,27.8225968 C29.9334559,23.3503409 26.3522866,13.8834895 25.885715,8.00139069 L28.688664,8.00139069 C30.2092481,8.00727503 31.5134431,9.08756549 31.802296,10.5804737 C32.5414421,14.6092247 33.5927304,18.7990785 35.8115421,23.2699182 C37.7959951,19.2006769 39.6247526,13.439813 40.4042603,8.00139069 L42.6231579,8.00139069 C44.41297,8.00139069 45.0755988,8.80752713 45.0755988,10.5804737 C45.0755988,11.2255717 44.5687085,13.8433425 43.2864518,17.4685425 Z" id="Path" fill="#4D5D66"></path>
                            <path d="M54.7340227,21.2157283 L51.3080769,21.2157283 C51.6967364,23.9559785 54.1106826,25.6870615 57.1869142,25.6870615 C59.3661798,25.6870615 61.9346842,25.2441575 63.6090121,23.6327858 L63.803181,23.6327858 L63.803181,25.3248806 C63.803181,28.1034968 61.9730073,30.2403409 56.2141818,30.2403409 C50.9970291,30.2403409 45.8970559,25.9691202 45.8970559,19.3216757 C45.8970559,12.0710182 50.1807433,7.5189834 56.1733696,7.5189834 C60.533081,7.5189834 64.5811223,10.7416838 64.5811223,15.9379798 C64.5811223,19.9272704 61.6616377,21.2157283 54.7340227,21.2157283 Z M55.7073988,12.030485 C53.1772174,12.030485 51.4249559,14.165634 51.3080769,16.6633931 L51.2684879,17.3885061 L53.605466,17.3885061 C58.5492717,17.3885061 59.6778283,16.8241741 59.6778283,15.2933968 C59.6778283,13.1182296 58.1200789,12.030485 55.7073988,12.030485 Z" id="Shape" fill="#4D5D66"></path>
                            <path d="M78.8693215,13.2787316 C77.9147187,12.8499124 76.8794449,12.6302095 75.8329579,12.6343632 C73.4975676,12.6343632 72.2115773,13.9639551 72.2115773,17.2677433 L72.2115773,29.7565818 L70.7728955,29.7565818 C68.4359389,29.7565818 66.9589126,28.5479243 66.9589126,26.2920126 L66.9589126,16.3007615 C66.9589126,11.9500838 69.1758575,7.80039838 74.7040794,7.80039838 C77.9346117,7.80039838 79.0631684,9.69479433 79.0631684,11.3451757 L79.0631684,13.2786672 L78.8693215,13.2787316 Z" id="Path" fill="#4D5D66"></path>
                            <path d="M82.6901279,4.57688259 C83.3923457,3.73130729 84.3273344,3.08773279 85.1452081,3.08773279 L86.3501534,3.08773279 L86.3501534,8.00149798 L93.6297571,8.00149798 L93.6297571,10.217649 C93.6297571,11.345283 92.6554583,12.7955304 90.5161251,12.7955304 L86.3501534,12.7955304 L86.3501534,21.2962154 C86.3501534,24.1171672 87.5579097,25.2033453 89.6592417,25.2033453 C91.3329259,25.2033453 92.6167275,24.9618198 93.4348802,24.438536 L93.6297571,24.438536 L93.6297571,26.3731004 C93.6297571,28.5881785 92.0722223,29.9982146 89.0374251,29.9982146 C83.7445704,29.9982146 81.1741348,27.016396 81.1741348,21.9413563 L81.1741348,8.88769231 C81.1741348,6.75224291 81.5628158,5.94702915 82.6901279,4.57688259 Z" id="Path" fill="#4D5D66"></path>
                            <path d="M102.672651,29.9570162 C98.6242883,29.9570162 96.4051547,27.5810927 96.4051547,23.1902036 L96.4051547,8.00149798 L97.8847773,8.00149798 C100.220168,8.00149798 101.621449,9.29027773 101.621449,12.0299057 L101.621449,22.6659972 C101.621449,24.8417866 102.517557,25.5259587 104.813015,25.5259587 L105.787571,25.5259587 L105.787571,26.69507 C105.787571,29.0316619 104.890219,29.9570162 102.672651,29.9570162 Z" id="Path" fill="#4D5D66"></path>
                            <path d="M102.167435,3.33844211 C102.167539,4.62999029 101.389596,5.7944174 100.19638,6.2887196 C99.0031655,6.7830218 97.6296801,6.50984735 96.7164176,5.59658486 C95.8031551,4.68332238 95.5299806,3.30983695 96.0242828,2.11662194 C96.518585,0.923406926 97.6830121,0.145463467 98.9745603,0.145567611 C99.8213633,0.145567611 100.633483,0.48195878 101.232264,1.0807389 C101.831044,1.67951902 102.167435,2.49163914 102.167435,3.33844211 Z" id="Path" fill="#FF9000"></path>
                            <path d="M26.1955611,28.9584061 C25.543935,29.6086311 24.5536984,29.7785723 23.722564,29.3828138 L23.722564,29.3828138 L23.7008061,29.3742308 L15.3543146,25.2718591 C14.1115182,24.7315381 13.0439223,24.4587704 12.1847215,24.4630405 C11.4415842,24.467053 10.8579619,24.6762636 10.4492182,25.0855437 C10.1224149,25.4231655 9.92006304,25.8618342 9.87535911,26.3295846 C9.87160405,26.3733579 9.47322429,30.7214822 9.47069231,30.7506644 C9.36526852,31.8463612 8.59891105,32.7653827 7.53999172,33.0659746 C6.48107238,33.3665665 5.34616058,32.9872521 4.6807844,32.1103598 C4.01540822,31.2334674 3.9556499,30.0383385 4.53023401,29.0994462 L4.53083482,29.0994462 C4.55587571,29.0535486 4.61638583,28.9665599 4.61711538,28.9656158 L6.26436397,26.5342462 L6.58251417,26.0487919 C7.58299109,24.5772158 7.91056113,23.3690304 7.55741377,22.4560785 C7.11869393,21.319647 6.51968664,20.8883943 5.18245587,20.7490709 C5.18245587,20.7490709 2.01648907,20.4113729 1.39799838,20.3449834 C1.08159144,20.3323835 0.781212516,20.2024192 0.555405668,19.9804206 C0.180971943,19.606311 0.0817917541,19.0373681 0.307553993,18.5586302 C0.533316231,18.0798922 1.03538829,17.7944866 1.56223401,17.8454004 L1.56277045,17.8454004 L1.58794008,17.8479324 C1.58980688,17.8479324 1.63514656,17.8543696 1.71668502,17.8654632 C4.7207336,18.267598 6.4996668,18.5020854 6.5966332,18.5077717 C7.92461579,18.5835166 8.91878421,17.8848607 9.51839231,17.2849308 C9.8299665,16.970665 10.1047732,16.6219699 10.3375105,16.2455729 C10.8075119,15.3260834 11.1009416,14.3266204 11.2025907,13.2989874 L11.2056162,13.2045745 C11.2611696,11.9166316 10.9564733,10.6227664 10.2742109,9.24869312 L10.2191939,9.12767287 L9.08194696,6.95216235 C9.02666473,6.84285167 8.9774244,6.73058887 8.93444818,6.61588057 C8.82684505,6.24735311 8.93513177,5.84961642 9.21470445,5.5865004 C9.63789921,5.16452826 10.3227376,5.16452826 10.7459324,5.5865004 C10.8617957,5.70342805 10.9491691,5.84547224 11.0012765,6.001617 L11.8701117,8.42146397 C12.3969789,9.89031498 13.8431494,10.1015854 14.6587057,10.0971652 C16.0418573,10.0468716 17.3770624,9.57740065 18.4873227,8.75098664 L19.7396891,7.83136154 C20.0695008,7.6029894 20.4980645,7.57412632 20.85552,7.7562121 C21.2129754,7.93829787 21.4416038,8.30193085 21.4507889,8.70298605 C21.4599739,9.10404124 21.2482326,9.47775968 20.8994879,9.67601903 C20.8661,9.69318502 20.7722664,9.74148583 20.734866,9.75646316 C20.5996838,9.81944089 18.2570409,10.9127429 18.1501826,10.9609794 C17.7728477,11.1229165 17.4259033,11.3480375 17.1242785,11.6266551 C16.9532889,11.7755376 16.8396917,11.9794843 16.8031243,12.2032393 C16.7665178,12.6792308 17.3028907,13.2272551 17.852181,13.5216518 L18.9232316,14.0501927 C19.0557361,14.1080524 19.177355,14.1881737 19.2828162,14.2870834 C19.688088,14.6912605 19.7064942,15.3418125 19.3247233,15.7682575 C18.9429524,16.1947025 18.294335,16.2481079 17.8479538,15.8898506 C17.4902789,15.591098 16.9516101,15.1412632 16.9255178,15.1211789 L16.8135741,15.033847 C16.3031433,14.6347377 15.5320255,14.0317822 14.805153,14.0360737 C14.4083529,14.049858 14.0340727,14.2238414 13.7677478,14.5183093 C13.5060479,14.7942656 13.2876192,15.1082392 13.1198818,15.4495644 C13.1076939,15.4736611 11.8869344,17.8828437 13.1423692,20.1496344 C13.7067012,21.16923 14.9976267,22.5558344 17.940736,23.3701247 L25.2183227,25.3179283 L25.2201895,25.320868 C25.9714954,25.5206004 26.5587748,26.1066246 26.7601142,26.8575015 C26.9614536,27.6083783 26.7461506,28.4096062 26.1955611,28.9584275 L26.1955611,28.9584061 Z" id="Path" fill="#FF9000"></path>
                            <path d="M17.6648142,23.2875348 L17.6648142,23.2875348 C14.912698,22.464683 13.6844498,21.1329453 13.1378202,20.1453215 C11.8819134,17.8777154 13.1030162,15.4690263 13.1153972,15.4449296 C13.2830475,15.1036006 13.5014134,14.7896237 13.76307,14.5136745 C14.0293227,14.2191173 14.4036522,14.0451343 14.8004753,14.0315032 C15.527498,14.0268255 16.298766,14.6303389 16.8090466,15.0295769 L16.921119,15.1165012 C16.9465676,15.1366498 17.4851291,15.5864202 17.8428899,15.8852158 C18.2894145,16.2441607 18.9387501,16.1909228 19.3208463,15.7640409 C19.7029424,15.3371589 19.6841788,14.6859148 19.2781385,14.2817405 C19.1725262,14.1831126 19.0508622,14.1032248 18.9183822,14.045515 L17.8468381,13.5169526 C17.2980842,13.2219121 16.7618401,12.6750251 16.7983178,12.1985401 C16.8350862,11.9748889 16.9484852,11.7709847 17.1190858,11.6217628 C17.4207128,11.3430791 17.7677665,11.1180163 18.1452474,10.9563016 C18.2523846,10.9075073 20.5950275,9.81457004 20.7298664,9.75159231 C20.7677389,9.73672227 20.8616368,9.68861457 20.8948316,9.67174899 C21.2384878,9.47097716 21.4454539,9.09891322 21.4347975,8.70104975 C21.4241411,8.30318629 21.1975553,7.9427346 20.8436446,7.76064639 C20.4897339,7.57855818 20.0647266,7.60376306 19.7348182,7.82640486 L18.4823231,8.7461587 C17.3719445,9.57229836 16.0369176,10.0418672 14.6538563,10.0927449 C6.69501579,22.9478413 17.9363158,23.3652968 17.6648142,23.2875348 Z" id="Path" fill="url(#linearGradient-1)" style="mix-blend-mode: multiply;"></path>
                            <path d="M6.35598745,16.1001744 L6.35598745,16.1001744 C5.46374275,16.1043149 4.7186809,15.4209049 4.64595065,14.5316197 C4.57322041,13.6423345 5.19733866,12.846946 6.07840241,12.7060753 C6.95946617,12.5652046 7.80047478,13.1263381 8.00865244,13.993967 C8.21683011,14.861596 7.72200154,15.7432484 6.8729413,16.0175012 C6.70590772,16.0715087 6.53153355,16.0993889 6.35598745,16.1001744 L6.35598745,16.1001744 Z" id="Path" fill="#FF9000"></path>
                            <path d="M4.92681134,32.3914543 C5.65840856,33.122965 6.74634119,33.3668067 7.72017645,33.0175398 C8.69401172,32.6682729 9.37898632,31.7885764 9.47891053,30.7588397 C9.48127085,30.7295502 9.88003684,26.3812757 9.8837919,26.3377814 C9.92816226,25.8699292 10.130174,25.4310341 10.4567069,25.0930538 C10.8654721,24.6849753 11.4497595,24.475636 12.1924462,24.4712372 C13.0519903,24.4664093 14.119715,24.7398421 15.3617174,25.2805709 L22.6054656,28.839832 L17.0101462,26.0905696 C7.8060417,19.3404081 9.28620081,26.1359522 9.08282672,28.4281271 C8.53495263,34.5975632 4.86527126,29.2963615 4.53903158,29.1077931 L4.53903158,29.1077931 L4.53870972,29.107364 C3.89011262,30.1594424 4.0508443,31.5195432 4.92681134,32.3914543 Z" id="Path" fill="url(#linearGradient-2)" style="mix-blend-mode: multiply;"></path>
                            <path d="M23.7166202,29.380947 L23.7168134,29.3813332 C24.672704,29.8371132 25.8179314,29.5379435 26.4287764,28.6728823 C27.0396214,27.8078212 26.9384011,26.6284982 26.189081,25.8801789 C26.0697039,25.7609147 25.9365279,25.6563145 25.7923749,25.5685947 C26.7102405,30.0114753 21.6464874,28.3660291 21.6407368,28.3638834 L23.6947336,29.3727717 L23.7166202,29.380947 Z" id="Path" fill="url(#linearGradient-3)" style="mix-blend-mode: multiply;"></path>
                            <path d="M1.81895142,19.8807077 C0.72567085,19.9076154 0.280106073,18.6531891 0.275213765,18.6391344 C0.094877169,19.1027162 0.20505985,19.6290436 0.556199595,19.9813648 C0.782191519,20.2029104 1.08229241,20.3328083 1.3984919,20.345949 C2.01702551,20.4115445 5.18318543,20.7490923 5.18318543,20.7490923 C6.52020162,20.8893599 7.11955223,21.3201834 7.55801457,22.4563789 C7.58097409,22.5148721 7.60017854,22.574953 7.61743036,22.6351842 L7.61743036,22.6351842 C7.42478502,19.6938773 2.91845466,19.8539502 1.81895142,19.8807077 Z" id="Path" fill="url(#linearGradient-4)" style="mix-blend-mode: multiply;"></path>
                        </g>
                    </g>
                </g>
            </g>
        </g>
    </g>
</svg>