<?xml version="1.0" encoding="UTF-8"?>
<svg width="70px" height="80px" viewBox="0 0 70 80" version="1.1" xmlns="http://www.w3.org/2000/svg" xmlns:xlink="http://www.w3.org/1999/xlink">
    <!-- Generator: sketchtool 58 (101010) - https://sketch.com -->
    <title>B8B544A2-C42A-493A-8953-0374FE1FE0AD</title>
    <desc>Created with sketchtool.</desc>
    <g id="Previous-Coverage" stroke="none" stroke-width="1" fill="none" fill-rule="evenodd">
        <g id="PrevioiusCoverage_376px-/-Neutral" transform="translate(-153.000000, -119.000000)" fill="#8B1863">
            <g id="Group-4" transform="translate(153.000000, 119.000000)">
                <path d="M34.9551936,80 C23.1170226,74.4450638 1.69451143,57.4905649 1.22177884,44.432887 L0,10.6196218 C0,10.6196218 16.3490108,0 34.9518511,0 C53.5546913,0 70,10.6196218 70,10.6196218 L68.6850279,44.432887 C68.2156076,57.4897313 46.8860804,74.4446495 34.9516123,80 L34.9551936,80 Z M34.9551936,76.2956363 C45.1021974,71.1308405 65.116068,55.7364744 65.492502,44.3327817 L66.7142808,12.4706151 C57.6925997,7.01240852 45.0092429,3.31101599 34.9553528,3.31101599 C27.3451,3.31101599 19.6385501,5.16158846 12.593744,7.98903077 C9.96372023,8.96268179 6.01562054,10.6197951 3.29192598,12.3736379 L4.42043197,44.3364958 C4.88985226,55.7360618 24.8107366,71.1343895 34.9577403,76.2993528 L34.9551936,76.2956363 Z" id="Fill-1"></path>
                <path d="M31.1898536,48.34375 C31.210687,45.3229016 31.4711011,43.2291725 31.9711036,42.0625 C32.4711061,40.8958275 33.783593,39.3541762 35.9086036,37.4375 C37.9711139,34.9999878 39.4398492,33.1250066 40.3148536,31.8125 C41.189858,30.5 41.6273536,28.9166759 41.6273536,27.0625 C41.6273536,24.8541556 41.0388178,23.1562559 39.8617286,21.96875 C38.6846394,20.7812441 37.0023645,20.1875 34.8148536,20.1875 C32.9190108,20.1875 31.3044436,20.7031198 29.9711036,21.734375 C28.6377636,22.7656302 27.9711036,24.28124 27.9711036,26.28125 L22.0961036,26.28125 L22.0023536,26.09375 C21.9398533,22.7395666 23.1221331,20.0520934 25.5492286,18.03125 C27.9763241,16.0104066 31.0648349,15 34.8148536,15 C38.9190408,15 42.1065089,16.0468645 44.3773536,18.140625 C46.6481983,20.2343855 47.7836036,23.1562312 47.7836036,26.90625 C47.7836036,29.5937634 47.0492359,32.0520722 45.5804786,34.28125 C44.1117213,36.5104278 42.1690324,38.791655 39.7523536,41.125 C38.627348,42.2500056 37.9450631,43.2604122 37.7054786,44.15625 C37.4658941,45.0520878 37.3461036,46.4479072 37.3461036,48.34375 L31.1898536,48.34375 Z M37.5648536,61.15625 L31.1273536,61.15625 L31.1273536,54.65625 L37.5648536,54.65625 L37.5648536,61.15625 Z" id="?" fill-rule="nonzero"></path>
            </g>
        </g>
    </g>
</svg>