<?xml version="1.0" encoding="UTF-8"?>
<svg width="75px" height="80px" viewBox="0 0 75 80" version="1.1" xmlns="http://www.w3.org/2000/svg" xmlns:xlink="http://www.w3.org/1999/xlink">
    <!-- Generator: sketchtool 64 (101010) - https://sketch.com -->
    <title>C7DEE492-27D1-47F3-ABD1-0BB5CB0619B6</title>
    <desc>Created with sketchtool.</desc>
    <g id="General-Agency-—&gt;-Bindable" stroke="none" stroke-width="1" fill="none" fill-rule="evenodd">
        <g id="GenAgency_Fork_376px" transform="translate(-152.000000, -169.000000)" fill="#8B1863" fill-rule="nonzero">
            <g id="Modal" transform="translate(9.000000, 145.000000)">
                <g id="Opportunity-Icon" transform="translate(143.000000, 24.000000)">
                    <path d="M38.5714286,13 C26.4422857,13 16.5714286,22.8705143 16.5714286,35 C16.5714286,39.0580571 17.70536,43.0446857 19.8571429,46.5268571 C22.8124571,51.3170286 24.3749714,56.8617143 24.3749714,62.5714286 L24.3749714,71.5848 C24.3749714,72.3749829 25.01336,73.0133714 25.8035429,73.0133714 L28.0267429,73.0133714 L28.9687086,78.5491429 C29.0847771,79.23664 29.6829943,79.7411429 30.3749943,79.7411429 L46.7635657,79.7411429 C47.46,79.7411429 48.0537371,79.2411429 48.1698514,78.5491429 L49.1118171,73.0133714 L51.3350171,73.0133714 C52.1252,73.0133714 52.7635886,72.3749829 52.7635886,71.5848 L52.7635886,64 L52.7680526,64 L52.7680526,62.5714286 C52.7680526,56.8660571 54.3305669,51.3169143 57.2858811,46.5268571 C59.4376526,43.0446857 60.5715954,39.0580571 60.5715954,35 C60.5715954,22.8708571 50.7010811,13 38.5715954,13 L38.5714286,13 Z M45.5580571,76.8834286 L31.5809143,76.8834286 L30.9246629,73.0129143 L46.2149486,73.0129143 L45.5580571,76.8834286 Z M49.9062857,70.1557714 L27.232,70.1557714 L27.232,63.9995429 L49.9062857,63.9995429 L49.9062857,70.1557714 Z M54.8526857,45.0266286 C51.8660571,49.8659429 50.1786286,55.4105143 49.9419429,61.1432 L27.2013714,61.1432 C26.9602971,55.4110857 25.2728,49.8664 22.2861714,45.0266286 C20.4156571,41.9954286 19.4290286,38.5266286 19.4290286,34.9998857 C19.4290286,24.4418286 28.0182857,15.8570286 38.5718857,15.8570286 C49.1254857,15.8570286 57.7147429,24.4418286 57.7147429,34.9998857 C57.7147429,38.5266286 56.7281371,41.9954286 54.8531429,45.0266286 L54.8526857,45.0266286 Z" id="Shape"></path>
                    <path d="M36.5805714,8.17828571 C37.3707543,8.17828571 38.0091429,7.53989714 38.0091429,6.74971429 L38.0091429,1.6336 C38.0091429,0.843417143 37.3707543,0.205028571 36.5805714,0.205028571 C35.7903886,0.205028571 35.152,0.843417143 35.152,1.6336 L35.152,6.74971429 C35.152,7.53542857 35.7903886,8.17828571 36.5805714,8.17828571 Z" id="Path"></path>
                    <path d="M23.696,10.0491429 C23.92368,10.5982514 24.4549257,10.9286057 25.0173714,10.9286057 C25.2004114,10.9286057 25.38344,10.8928914 25.5620114,10.8214629 C26.2896914,10.5178971 26.6379086,9.68307429 26.3343314,8.95540571 L24.37456,4.22774857 C24.0709943,3.50006857 23.2361714,3.15632 22.5085029,3.45542857 C21.7808229,3.75899429 21.4326057,4.59381714 21.7361829,5.32148571 L23.696,10.0491429 Z" id="Path"></path>
                    <path d="M16.4022857,17.4822857 C16.96032,16.9242514 16.96032,16.0180571 16.4022857,15.46 L12.7817143,11.8394286 C12.22368,11.2813943 11.3174857,11.2813943 10.7594286,11.8394286 C10.2013943,12.3974629 10.2013943,13.3036571 10.7594286,13.8617143 L14.38,17.4822857 C14.6567886,17.7590743 15.0228571,17.9019314 15.3889257,17.9019314 C15.7549943,17.9019314 16.1210629,17.7590743 16.40232,17.4822857 L16.4022857,17.4822857 Z" id="Path"></path>
                    <path d="M3.888,25.9554286 L8.61565714,27.9152 C8.79422857,27.9866286 8.98172571,28.0223429 9.16029714,28.0223429 C9.7228,28.0223429 10.2540457,27.6919886 10.4816686,27.14288 C10.7852343,26.4152 10.4370251,25.5803657 9.70934857,25.2768229 L4.98169143,23.3170514 C4.24955429,23.0179429 3.41917714,23.3616937 3.11563429,24.0893714 C2.81206857,24.8170514 3.15581371,25.6518857 3.88795429,25.9554286 L3.888,25.9554286 Z" id="Path"></path>
                    <path d="M8.70971429,38.3302857 C8.70971429,37.5401029 8.07132571,36.9017143 7.28114286,36.9017143 L2.16502857,36.9017143 C1.37484571,36.9017143 0.736457143,37.5401029 0.736457143,38.3302857 C0.736457143,39.1204686 1.37484571,39.7588571 2.16502857,39.7588571 L7.28114286,39.7588571 C8.07132571,39.7588571 8.70971429,39.116 8.70971429,38.3302857 Z" id="Path"></path>
                    <path d="M9.49142857,48.5714286 L4.76377143,50.5267429 C4.03609143,50.8303086 3.68787429,51.6651314 3.99145143,52.3928 C4.21913143,52.9419086 4.75037714,53.2722629 5.31282286,53.2722629 C5.49586286,53.2722629 5.67889143,53.2365486 5.85746286,53.16512 L10.58512,51.2098057 C11.3128,50.90624 11.6610171,50.0714171 11.35744,49.3437486 C11.0538629,48.61608 10.2190514,48.2678514 9.49138286,48.5714286 L9.49142857,48.5714286 Z" id="Path"></path>
                    <path d="M47.768,9.95085714 C47.9465714,10.0222857 48.1340686,10.058 48.31264,10.058 C48.8751429,10.058 49.4063886,9.72764571 49.6340114,9.17853714 L51.5937829,4.45088 C51.8973486,3.7232 51.5491406,2.88836571 50.8214629,2.58482286 C50.0937851,2.28128 49.2589486,2.62946514 48.9554057,3.35714286 L46.9956343,8.0848 C46.6920686,8.81248 47.0358126,9.64731429 47.7679543,9.95085714 L47.768,9.95085714 Z" id="Path"></path>
                    <path d="M61.0445714,10.2274286 L57.424,13.848 C56.8659657,14.4060343 56.8659657,15.3122286 57.424,15.8702857 C57.7052457,16.1470743 58.0713257,16.2854629 58.4373943,16.2854629 C58.8034629,16.2854629 59.1695429,16.1470743 59.44632,15.8658171 L63.0668914,12.2452457 C63.6249257,11.6872114 63.6249257,10.7810171 63.0668914,10.22296 C62.5088571,9.66939429 61.6026629,9.66939429 61.0446057,10.2274251 L61.0445714,10.2274286 Z" id="Path"></path>
                    <path d="M65.9508571,25.8034286 L70.6785143,23.8436571 C71.4061943,23.5400914 71.7544114,22.7052686 71.4508343,21.9776 C71.1472571,21.2499314 70.3124457,20.9017029 69.5847771,21.20528 L64.85712,23.1650514 C64.12944,23.4686171 63.7812229,24.30344 64.0848,25.0311086 C64.31248,25.5802171 64.8437257,25.9105714 65.4061714,25.9105714 C65.5847429,25.9150354 65.77224,25.8793211 65.9508114,25.8034286 L65.9508571,25.8034286 Z" id="Path"></path>
                    <path d="M73.2765714,34.616 L68.1604571,34.616 C67.3702743,34.616 66.7318857,35.2543886 66.7318857,36.0445714 C66.7318857,36.8347543 67.3702743,37.4731429 68.1604571,37.4731429 L73.2765714,37.4731429 C74.0667543,37.4731429 74.7051429,36.8347543 74.7051429,36.0445714 C74.7051429,35.2588571 74.0622857,34.616 73.2765714,34.616 Z" id="Path"></path>
                    <path d="M71.5531429,48.4194286 L66.8254857,46.4596571 C66.0978057,46.1605486 65.2585143,46.5042994 64.9594286,47.2319771 C64.6558629,47.9596571 65.0040709,48.7944914 65.7317486,49.0980343 L70.4594057,51.0578057 C70.6379771,51.1292343 70.8254743,51.1649486 71.0040457,51.1649486 C71.5665486,51.1649486 72.0977943,50.8345943 72.3254171,50.2854857 C72.6289829,49.5578057 72.2807749,48.7229714 71.5530971,48.4194286 L71.5531429,48.4194286 Z" id="Path"></path>
                    <path d="M42.3794286,35.688 L39.8526857,35.688 L39.8526857,28.4112 L41.4688,28.4112 C43.4018286,28.4112 45.2634286,28.9960229 46.8437714,30.1032 C47.4910971,30.55856 48.3795429,30.4023086 48.8348571,29.7549829 C49.2857486,29.1076571 49.1294971,28.2192114 48.48664,27.7683543 C46.4241257,26.3219543 43.9955543,25.5585257 41.4732686,25.5585257 L39.8571543,25.5585257 L39.8571543,22.7325829 C39.8571543,21.9424 39.2187657,21.3040114 38.4285829,21.3040114 C37.6384,21.3040114 37.0000114,21.9424 37.0000114,22.7325829 L37.0000114,25.5585257 L34.4553257,25.5585257 C30.9285829,25.5585257 28.0579543,28.42904 28.0579543,31.9558971 C28.0579543,35.0273257 30.1651543,37.6121257 33.0088114,38.3577257 C33.2141714,38.4693326 33.4329143,38.5496914 33.6829143,38.5496914 L34.0846971,38.5496914 C34.2811314,38.5675486 34.4775543,38.5809406 34.6784457,38.5809406 L36.9998171,38.5809406 L36.9998171,45.8577406 L35.6738743,45.8577406 C33.7363886,45.8577406 31.8792457,45.2729177 30.2989029,44.1657406 C29.6515771,43.7148491 28.7631314,43.8711006 28.3078171,44.5184149 C27.8569257,45.1657406 28.0131771,46.0541863 28.6604914,46.5095006 C30.7230057,47.9514434 33.14712,48.714872 35.6738629,48.714872 L36.9998057,48.714872 L36.9998057,51.4291577 C36.9998057,52.2193406 37.6381943,52.8577291 38.4283771,52.8577291 C39.21856,52.8577291 39.8569486,52.2193406 39.8569486,51.4291577 L39.8569486,48.714872 L42.7944343,48.714872 C46.2721486,48.714872 49.0979771,45.884472 49.0979771,42.4113291 C49.093512,38.7015006 46.0801486,35.6881291 42.3792343,35.6881291 L42.3794286,35.688 Z M30.9108571,31.9514286 C30.9108571,30.0005714 32.5001143,28.4112 34.4510857,28.4112 L36.9957714,28.4112 L36.9957714,35.688 L34.3752,35.688 C32.4421714,35.5317486 30.9109714,33.9245714 30.9109714,31.9514286 L30.9108571,31.9514286 Z M42.7908571,45.8485714 L39.8533714,45.8485714 L39.8533714,38.5717714 L41.7641143,38.5717714 C41.8176857,38.5717714 41.862328,38.5494503 41.91144,38.5405211 L42.3757257,38.5405211 C44.5052114,38.5405211 46.2328782,40.2726354 46.2328782,42.397664 C46.2373326,44.3039497 44.69264,45.8485714 42.7909257,45.8485714 L42.7908571,45.8485714 Z" id="Shape"></path>
                </g>
            </g>
        </g>
    </g>
</svg>