<?xml version="1.0" encoding="UTF-8"?>
<svg width="768px" height="131px" viewBox="0 0 768 131" version="1.1" xmlns="http://www.w3.org/2000/svg" xmlns:xlink="http://www.w3.org/1999/xlink">
    <!-- Generator: sketchtool 53.1 (72631) - https://sketchapp.com -->
    <title>6CA13D12-475F-448B-96BC-DCCBFB893FC4</title>
    <desc>Created with sketchtool.</desc>
    <g id="Name/DoB/Sex" stroke="none" stroke-width="1" fill="none" fill-rule="evenodd">
        <g id="Basic_768-991px-/-Nutral" transform="translate(0.000000, -830.000000)" fill="#A51482">
            <g id="00_Basics-/-Skylines/-Philadelphia" transform="translate(0.000000, 830.000000)">
                <g id="PA_PhillySkyline_Wide-01">
                    <g id="Phillidelphia_Skyline">
                        <g id="Group">
                            <path d="M227.9,62.1 L216.8,62.1 L221.8,57.1 L222.7,57.1 L227.9,62.1 Z M219.2,61.1 L225.7,61.1 L222.6,58 L222.4,58 L219.2,61.1 Z" id="Shape" fill-rule="nonzero"></path>
                            <path d="M222.4,57.3 C221.5,57.3 220.8,56.6 220.8,55.7 C220.8,54.8 221.5,54.1 222.4,54.1 C223.3,54.1 224,54.8 224,55.7 C223.9,56.6 223.3,57.3 222.4,57.3 Z M222.4,55.3 C222.1,55.3 221.8,55.5 221.8,55.9 C221.8,56.3 222,56.5 222.4,56.5 C222.7,56.5 223,56.3 223,55.9 C223,55.5 222.7,55.3 222.4,55.3 Z" id="Shape" fill-rule="nonzero"></path>
                            <rect id="Rectangle" x="221.9" y="45.5" width="1" height="7.5"></rect>
                            <polygon id="Path" points="219.9 130.2 209.3 130.2 209.3 71.1 207.9 68.2 220.1 68.2 220.1 65.9 212.1 65.9 217.2 61.9 217.8 62.7 214.9 64.9 221 64.9 221 69.2 209.5 69.2 210.3 70.9 210.3 129.3 218.9 129.3 218.9 71.9 219.9 71.9"></polygon>
                            <polygon id="Path" points="235.5 130.2 224.9 130.2 224.9 71.9 225.8 71.9 225.8 129.3 234.5 129.3 234.5 70.9 235.3 69.2 223.8 69.2 223.8 64.9 229.8 64.9 227.1 62.7 227.6 61.9 232.6 65.9 224.7 65.9 224.7 68.2 236.9 68.2 235.5 71.1"></polygon>
                            <rect id="Rectangle" x="212" y="69.9" width="21" height="1"></rect>
                            <path d="M223.8,130.2 L221,130.2 L221,71.8 L223.8,71.8 L223.8,130.2 Z M222,129.3 L222.9,129.3 L222.9,72.8 L222,72.8 L222,129.3 Z" id="Shape" fill-rule="nonzero"></path>
                            <rect id="Rectangle" x="212.6" y="66.2" width="1" height="2.5"></rect>
                            <rect id="Rectangle" x="231.2" y="66.2" width="1" height="2.5"></rect>
                            <rect id="Rectangle" x="207.5" y="129.4" width="29.8" height="1"></rect>
                            <rect id="Rectangle" x="255.3" y="32.8" width="1" height="9.4"></rect>
                            <polygon id="Path" points="251.1 127.1 250.1 127.1 250.1 59.9 255.7 54.6 256.3 55.4 251.1 60.3"></polygon>
                            <polygon id="Path" points="248.9 127.1 247.8 127.1 247.8 57.3 255.7 50.5 256.2 51.1 248.9 57.7"></polygon>
                            <polygon id="Path" points="250 56.4 249.1 56.4 249.1 52.1 255.8 46.1 256.5 46.8 250 52.6"></polygon>
                            <polygon id="Path" points="251.3 51.1 250.4 51.1 250.4 47.1 255.6 42.5 256.2 43.3 251.3 47.4"></polygon>
                            <polygon id="Path" points="261.4 127.1 260.4 127.1 260.4 60.3 255.2 55.4 255.9 54.6 261.4 59.9"></polygon>
                            <polygon id="Path" points="263.6 127.1 262.6 127.1 262.6 57.7 255.2 51.1 255.8 50.5 263.6 57.3"></polygon>
                            <polygon id="Path" points="262.5 56.4 261.5 56.4 261.5 52.6 255 46.8 255.7 46.1 262.5 52.1"></polygon>
                            <polygon id="Path" points="261.1 51.1 260.1 51.1 260.1 47.4 255.3 43.3 255.9 42.5 261.1 47.1"></polygon>
                            <polygon id="Path" points="245.6 127.4 244.7 127.4 244.7 60.3 248 58.4 248.5 59.3 245.6 60.9"></polygon>
                            <polygon id="Path" points="266.8 127.4 266 127.4 266 60.9 263 59.3 263.5 58.4 266.8 60.3"></polygon>
                            <path d="M267.5,130.3 L244,130.3 L244,126.6 L267.5,126.6 L267.5,130.3 L267.5,130.3 Z M244.9,129.4 L266.5,129.4 L266.5,127.6 L244.9,127.6 L244.9,129.4 Z" id="Shape" fill-rule="nonzero"></path>
                            <polygon id="Path" points="276.3 110.4 275.3 110.4 275.3 66.3 279.3 61.3 280 61.9 276.3 66.7"></polygon>
                            <polygon id="Path" points="283.6 110.4 282.7 110.4 282.7 66.7 278.9 61.9 279.7 61.3 283.6 66.3"></polygon>
                            <polygon id="Path" points="274.3 73.8 273.4 73.8 273.4 61.6 279 56.2 279.7 57 274.3 62.1"></polygon>
                            <polygon id="Path" points="275.7 74.4 271 74.4 271 65.1 273.3 63 274 63.7 271.9 65.6 271.9 73.4 275.7 73.4"></polygon>
                            <polygon id="Path" points="270.9 110.4 270 110.4 270 74.4 275.8 74.4 275.8 75.3 270.9 75.3"></polygon>
                            <polygon id="Path" points="285.6 73.8 284.6 73.8 284.6 62.1 279.4 57 280 56.2 285.6 61.6"></polygon>
                            <polygon id="Path" points="288.1 74.4 283.3 74.4 283.3 73.4 287.1 73.4 287.1 65.6 285.1 63.7 285.7 63 288.1 65.1"></polygon>
                            <polygon id="Path" points="289.1 110.4 288.1 110.4 288.1 75.3 283.2 75.3 283.2 74.4 289.1 74.4"></polygon>
                            <rect id="Rectangle" x="279" y="51.2" width="1" height="5.4"></rect>
                            <path d="M296.9,117.6 L267.6,117.6 L267.6,110.7 L296.9,110.7 L296.9,117.6 L296.9,117.6 Z M268.6,116.8 L296,116.8 L296,111.8 L268.6,111.8 L268.6,116.8 Z" id="Shape" fill-rule="nonzero"></path>
                            <path d="M273.2,130.3 L268.6,130.3 L268.6,118.1 L273.2,118.1 L273.2,130.3 Z M269.5,129.4 L272.2,129.4 L272.2,119 L269.5,119 L269.5,129.4 Z" id="Shape" fill-rule="nonzero"></path>
                            <path d="M300,130.3 L273.8,130.3 L273.8,117.8 L300,117.8 L300,130.3 Z M274.8,129.4 L299,129.4 L299,118.8 L274.7,118.8 L274.8,129.4 L274.8,129.4 Z" id="Shape" fill-rule="nonzero"></path>
                            <polygon id="Path" points="310.1 115.7 307.4 115.7 307.4 110.5 302.4 110.5 302.4 109.5 308.4 109.5 308.4 114.7 309.1 114.7 309.1 90.9 329.4 90.9 329.4 91.8 310.1 91.8"></polygon>
                            <polygon id="Path" points="319 121.2 318 121.2 318 116.1 336.4 116.1 336.4 96.7 332.3 96.7 332.3 111.7 331.3 111.7 331.3 95.7 337.3 95.7 337.3 117 319 117"></polygon>
                            <polygon id="Path" points="296.8 109 295.9 109 295.9 87.6 312.3 87.6 312.3 75.4 332.5 75.4 332.5 93.7 331.6 93.7 331.6 76.4 313.2 76.4 313.2 88.6 296.8 88.6"></polygon>
                            <rect id="Rectangle" x="314.1" y="81.3" width="15.2" height="1"></rect>
                            <rect id="Rectangle" x="314.1" y="83" width="15.2" height="1"></rect>
                            <rect id="Rectangle" x="314.1" y="84.6" width="15.2" height="1"></rect>
                            <path d="M319.7,39.5 L309.9,39.5 L309.9,27.5 L319.7,27.5 L319.7,39.5 Z M310.9,38.6 L318.7,38.6 L318.7,28.6 L310.9,28.6 L310.9,38.6 Z" id="Shape" fill-rule="nonzero"></path>
                            <path d="M306,87.9 L305.1,87.9 L305.1,29 L306.2,29 L307.2,23.9 L308.1,24 L306,87.9 Z M306,30 L306,59.6 L307,29.6 L306.9,29.9 L306,29.9 L306,30 Z" id="Shape" fill-rule="nonzero"></path>
                            <path d="M323.6,75.8 L321.6,23.9 L322.5,23.8 L323.5,28.9 L324.6,28.9 L324.4,75.7 L323.6,75.7 L323.6,75.8 Z M322.8,29.8 L323.7,53 L323.8,29.9 L323,29.9 L322.8,29.8 Z" id="Shape" fill-rule="nonzero"></path>
                            <rect id="Rectangle" x="307.6" y="22.3" width="14.4" height="1"></rect>
                            <path d="M320.5,22 L309.3,22 L309.3,11.6 L320.5,11.6 L320.5,22 Z M310.2,21 L319.5,21 L319.5,12.6 L310.2,12.6 L310.2,21 Z" id="Shape" fill-rule="nonzero"></path>
                            <polygon id="Path" points="195.2 76.2 190.2 70.4 185.1 76.2 184.5 75.6 190.2 68.9 196 75.6"></polygon>
                            <path d="M192,75.5 L188.4,75.5 L188.4,73 L192,73 L192,75.5 Z M189.4,74.6 L191.1,74.6 L191.1,74 L189.4,74 L189.4,74.6 Z" id="Shape" fill-rule="nonzero"></path>
                            <polygon id="Path" points="182.5 100.1 181.6 100.1 181.6 81 184.1 81 184.1 77.1 185.1 77.1 185.1 82 182.5 82"></polygon>
                            <polygon id="Path" points="198.8 112.8 197.9 112.8 197.9 82 195.2 82 195.2 77.1 196.2 77.1 196.2 81 198.8 81"></polygon>
                            <rect id="Rectangle" x="189.7" y="77.6" width="1" height="23.2"></rect>
                            <rect id="Rectangle" x="188.2" y="79.6" width="1" height="21.1"></rect>
                            <rect id="Rectangle" x="186.6" y="81.3" width="1" height="19.4"></rect>
                            <rect id="Rectangle" x="191.3" y="79.6" width="1" height="29"></rect>
                            <rect id="Rectangle" x="192.9" y="81.3" width="1" height="31.4"></rect>
                            <polygon id="Path" points="207.8 120.3 202.4 120.3 202.4 114.4 191.3 114.4 191.3 110.5 189.6 110.5 189.6 103.1 178.2 103.1 178.2 114.1 173.4 114.1 173.4 113.1 177.3 113.1 177.3 102.1 190.6 102.1 190.6 109.6 192.2 109.6 192.2 113.5 203.4 113.5 203.4 119.4 207.8 119.4"></polygon>
                            <path d="M357.4,70.1 L349.8,70.1 L349.8,69.5 C349.9,67.2 351.6,65.4 353.6,65.4 C355.6,65.4 357.2,67.2 357.4,69.5 L357.4,70.1 L357.4,70.1 Z M350.8,69.1 L356.3,69.1 C356,67.5 354.8,66.3 353.6,66.3 C352.2,66.3 351.1,67.6 350.8,69.1 Z" id="Shape" fill-rule="nonzero"></path>
                            <rect id="Rectangle" x="351.4" y="70.7" width="1" height="4.9"></rect>
                            <rect id="Rectangle" x="353" y="70.7" width="1" height="4.9"></rect>
                            <rect id="Rectangle" x="354.8" y="70.7" width="1" height="4.9"></rect>
                            <rect id="Rectangle" x="352.1" y="63.9" width="2.9" height="1"></rect>
                            <rect id="Rectangle" x="353" y="55.8" width="1" height="7.2"></rect>
                            <rect id="Rectangle" x="349.4" y="75.4" width="8" height="1"></rect>
                            <rect id="Rectangle" x="346.5" y="77.4" width="14.1" height="1"></rect>
                            <path d="M353.6,84.7 C351.9,84.7 350.6,83.4 350.6,81.7 C350.6,80 351.9,78.7 353.6,78.7 C355.3,78.7 356.6,80 356.6,81.7 C356.6,83.3 355.3,84.7 353.6,84.7 Z M353.6,79.6 C352.5,79.6 351.5,80.5 351.5,81.7 C351.5,82.8 352.4,83.8 353.6,83.8 C354.8,83.8 355.7,82.9 355.7,81.7 C355.6,80.5 354.7,79.6 353.6,79.6 Z" id="Shape" fill-rule="nonzero"></path>
                            <rect id="Rectangle" x="348" y="78" width="1" height="8.2"></rect>
                            <rect id="Rectangle" x="358.2" y="78" width="1" height="8.2"></rect>
                            <path d="M361.7,88 L345.2,88 L345.2,85.9 L361.7,85.9 L361.7,88 Z M346.2,87.1 L360.8,87.1 L360.8,86.9 L346.2,86.9 L346.2,87.1 Z" id="Shape" fill-rule="nonzero"></path>
                            <path d="M361.1,93.7 L346.2,93.7 L346.2,88.2 L361.1,88.2 L361.1,93.7 Z M347,92.7 L360,92.7 L360,89.1 L347,89.1 L347,92.7 Z" id="Shape" fill-rule="nonzero"></path>
                            <path d="M368.8,119.3 L338.3,119.3 L338.3,94.4 L368.8,94.4 L368.8,119.3 Z M339.2,118.4 L367.8,118.4 L367.8,95.3 L339.2,95.3 L339.2,118.4 Z" id="Shape" fill-rule="nonzero"></path>
                            <polyline id="Path" points="342 97.2 342 102.7 342.9 102.7 342.9 97.2"></polyline>
                            <polyline id="Path" points="344.4 97.2 344.4 102.7 345.4 102.7 345.4 97.2"></polyline>
                            <polyline id="Path" points="346.9 97.2 346.9 102.7 347.9 102.7 347.9 97.2"></polyline>
                            <polyline id="Path" points="349.3 97.2 349.3 102.7 350.3 102.7 350.3 97.2"></polyline>
                            <polyline id="Path" points="351.8 97.2 351.8 102.7 352.8 102.7 352.8 97.2"></polyline>
                            <polyline id="Path" points="354.3 97.2 354.3 102.7 355.3 102.7 355.3 97.2"></polyline>
                            <polyline id="Path" points="356.8 97.2 356.8 102.7 357.7 102.7 357.7 97.2"></polyline>
                            <polyline id="Path" points="359.3 97.2 359.3 102.7 360.2 102.7 360.2 97.2"></polyline>
                            <polyline id="Path" points="361.7 97.2 361.7 102.7 362.8 102.7 362.8 97.2"></polyline>
                            <polyline id="Path" points="364.2 97.2 364.2 102.7 365.2 102.7 365.2 97.2"></polyline>
                            <polyline id="Path" points="342 104.9 342 110.3 342.9 110.3 342.9 104.9"></polyline>
                            <polyline id="Path" points="344.4 104.9 344.4 110.3 345.4 110.3 345.4 104.9"></polyline>
                            <polyline id="Path" points="346.9 104.9 346.9 110.3 347.9 110.3 347.9 104.9"></polyline>
                            <polyline id="Path" points="349.3 104.9 349.3 110.3 350.3 110.3 350.3 104.9"></polyline>
                            <polyline id="Path" points="351.8 104.9 351.8 110.3 352.8 110.3 352.8 104.9"></polyline>
                            <polyline id="Path" points="354.3 104.9 354.3 110.3 355.3 110.3 355.3 104.9"></polyline>
                            <polyline id="Path" points="356.8 104.9 356.8 110.3 357.7 110.3 357.7 104.9"></polyline>
                            <polyline id="Path" points="359.3 104.9 359.3 110.3 360.2 110.3 360.2 104.9"></polyline>
                            <polyline id="Path" points="361.7 104.9 361.7 110.3 362.8 110.3 362.8 104.9"></polyline>
                            <polyline id="Path" points="364.2 104.9 364.2 110.3 365.2 110.3 365.2 104.9"></polyline>
                            <rect id="Rectangle" x="302.1" y="123.7" width="65.2" height="1"></rect>
                            <rect id="Rectangle" x="305.6" y="125.2" width="1" height="4.7"></rect>
                            <rect id="Rectangle" x="308.9" y="125.2" width="1" height="4.7"></rect>
                            <rect id="Rectangle" x="331.1" y="125.2" width="1" height="4.7"></rect>
                            <rect id="Rectangle" x="334.4" y="125.2" width="1" height="4.7"></rect>
                            <rect id="Rectangle" x="356.6" y="125.2" width="1" height="4.7"></rect>
                            <rect id="Rectangle" x="359.8" y="125.2" width="1" height="4.7"></rect>
                            <rect id="Rectangle" x="142.9" y="123.7" width="65.2" height="1"></rect>
                            <rect id="Rectangle" x="146.5" y="125.2" width="1" height="4.7"></rect>
                            <rect id="Rectangle" x="149.6" y="125.2" width="1" height="4.7"></rect>
                            <rect id="Rectangle" x="171.9" y="125.2" width="1" height="4.7"></rect>
                            <rect id="Rectangle" x="175.1" y="125.2" width="1" height="4.7"></rect>
                            <rect id="Rectangle" x="197.4" y="125.2" width="1" height="4.7"></rect>
                            <rect id="Rectangle" x="200.6" y="125.2" width="1" height="4.7"></rect>
                            <rect id="Rectangle" x="236.7" y="105.7" width="7.3" height="1"></rect>
                            <rect id="Rectangle" x="240.7" y="99.4" width="1" height="4.5"></rect>
                            <rect id="Rectangle" x="290.5" y="103.3" width="5.8" height="1"></rect>
                            <path d="M373.6,127.1 L372.7,127.1 L372.7,116.5 C372.7,116.2 372.9,116.1 373.1,116.1 L388.3,116.1 C388.6,116.1 388.7,116.3 388.7,116.5 L388.7,119.3 L406.6,119.3 C406.9,119.3 407,119.5 407,119.7 L407,125.5 L414.5,125.5 L414.5,116.1 C414.5,115.8 414.7,115.7 414.9,115.7 L432.4,115.7 C432.7,115.7 432.8,115.9 432.8,116.1 L432.8,124.9 L431.9,124.9 L431.9,116.5 L415.4,116.5 L415.4,125.9 C415.4,126.2 415.2,126.3 415,126.3 L406.6,126.3 C406.3,126.3 406.2,126.1 406.2,125.9 L406.2,120.1 L388.3,120.1 C388,120.1 387.9,119.9 387.9,119.7 L387.9,117 L373.5,117 L373.6,127.1 L373.6,127.1 Z" id="Path"></path>
                            <path d="M383.4,115 L382,80.3 C382,80.3 382,80.2 382,80.1 L383.8,75 C383.9,74.8 384.1,74.7 384.4,74.7 L416.5,78.4 C416.7,78.4 416.9,78.6 416.9,78.8 L416.9,80.8 L417.8,81.5 C417.9,81.6 418,81.7 418,81.8 L417.7,114.6 L416.8,114.6 L417.1,82.1 L416.2,81.4 C416.1,81.3 416,81.2 416,81.1 L416,79.3 L384.7,75.7 L383.1,80.4 L384.6,114.9 L383.4,115 Z" id="Path"></path>
                            <path d="M412.8,126.1 L409.3,81.2 L382.7,80.5 L382.7,79.6 L409.6,80.3 C409.8,80.3 410,80.5 410,80.7 L413.5,126.1 L412.8,126.1 Z" id="Path"></path>
                            <rect id="Rectangle" x="0" y="129.4" width="1440" height="1.1"></rect>
                            <rect id="Rectangle" x="419.2" y="111.2" width="1" height="5"></rect>
                            <rect id="Rectangle" x="374" y="78.3" width="1" height="3.5"></rect>
                            <rect id="Rectangle" x="373.6" y="82.4" width="1.9" height="1"></rect>
                            <path d="M378.3,91.8 L370.7,91.8 L370.7,91.4 C370.7,91.3 370.7,91.2 370.7,91.1 C370.7,87 372.4,83.6 374.5,83.6 C376.6,83.6 378.3,86.8 378.3,91.1 C378.3,91.2 378.3,91.3 378.3,91.4 L378.3,91.8 L378.3,91.8 Z M371.6,90.8 L377.3,90.8 C377.3,87 375.7,84.4 374.4,84.4 C373.1,84.4 371.7,87 371.6,90.8 Z" id="Shape" fill-rule="nonzero"></path>
                            <path d="M374.5,96.5 C373.5,96.5 372.6,95.7 372.6,94.6 C372.6,93.6 373.4,92.7 374.5,92.7 C375.5,92.7 376.4,93.5 376.4,94.6 C376.3,95.7 375.5,96.5 374.5,96.5 Z M374.5,93.8 C374.1,93.8 373.6,94.1 373.6,94.7 C373.6,95.1 373.9,95.6 374.5,95.6 C375.1,95.6 375.4,95.3 375.4,94.7 C375.4,94.3 375,93.8 374.5,93.8 Z" id="Shape" fill-rule="nonzero"></path>
                            <rect id="Rectangle" x="374" y="98.6" width="1" height="2.9"></rect>
                            <rect id="Rectangle" x="374" y="103.6" width="1" height="2.2"></rect>
                            <path d="M374.5,113.6 C373.6,113.6 372.9,112.9 372.9,112 L372.9,109 C372.9,108.1 373.6,107.4 374.5,107.4 C375.4,107.4 376.1,108.1 376.1,109 L376.1,112 C376.1,112.8 375.4,113.6 374.5,113.6 Z M374.5,108.4 C374.2,108.4 373.8,108.7 373.8,109.1 L373.8,112.1 C373.8,112.4 374.1,112.8 374.5,112.8 C374.9,112.8 375.2,112.5 375.2,112.1 L375.2,109.1 C375.2,108.6 374.8,108.4 374.5,108.4 Z" id="Shape" fill-rule="nonzero"></path>
                            <rect id="Rectangle" x="370.4" y="92.6" width="1" height="21.1"></rect>
                            <rect id="Rectangle" x="377.7" y="92.6" width="1" height="21.1"></rect>
                            <rect id="Rectangle" x="369.9" y="91.9" width="9.1" height="1"></rect>
                            <rect id="Rectangle" x="372.5" y="102.1" width="4" height="1"></rect>
                            <rect id="Rectangle" x="369.7" y="114.2" width="9.5" height="1"></rect>
                            <path d="M169.9,113 L154.6,113 C154.4,113 154.2,112.9 154.2,112.7 C154.2,112.5 154.2,112.3 154.4,112.1 L162,108.3 C162.1,108.3 162.3,108.3 162.4,108.3 L170,112.1 C170.2,112.2 170.3,112.4 170.2,112.7 C170.4,112.8 170.2,113 169.9,113 Z M156.6,112.1 L167.9,112.1 L162.3,109.3 L156.6,112.1 Z" id="Shape" fill-rule="nonzero"></path>
                            <rect id="Rectangle" x="154.4" y="113.6" width="15.8" height="1"></rect>
                            <rect id="Rectangle" x="155.5" y="115.1" width="1" height="6.1"></rect>
                            <rect id="Rectangle" x="158.6" y="115.1" width="1" height="6.1"></rect>
                            <rect id="Rectangle" x="161.8" y="115.1" width="1" height="6.1"></rect>
                            <rect id="Rectangle" x="165" y="115.1" width="1" height="6.1"></rect>
                            <rect id="Rectangle" x="168.1" y="115.1" width="1" height="6.1"></rect>
                            <rect id="Rectangle" x="153.5" y="121.9" width="17.7" height="1"></rect>
                            <path d="M185.7,122.7 L177.8,122.7 C177.5,122.7 177.4,122.5 177.4,122.3 L177.4,118.5 C177.4,118.2 177.6,118.1 177.8,118.1 L185.7,118.1 C186,118.1 186.1,118.3 186.1,118.5 L186.1,122.3 C186.1,122.5 185.9,122.7 185.7,122.7 Z M178.2,121.8 L185.1,121.8 L185.1,119 L178.2,119 L178.2,121.8 Z" id="Shape" fill-rule="nonzero"></path>
                            <path d="M437.6,126.6 L435.7,126.6 C435.4,126.6 435.3,126.4 435.3,126.2 L435.3,119.2 C435.3,118.9 435.5,118.8 435.7,118.8 L437.6,118.8 C437.9,118.8 438,119 438,119.2 L438,126.2 C438.1,126.5 438,126.6 437.6,126.6 Z M436.2,125.7 L437.1,125.7 L437.1,119.7 L436.2,119.7 L436.2,125.7 Z" id="Shape" fill-rule="nonzero"></path>
                            <path d="M449.7,130.3 L440.4,130.3 C440.1,130.3 440,130.1 440,129.9 L440,126.7 C440,126.4 440.2,126.3 440.4,126.3 L449.7,126.3 C450,126.3 450.1,126.5 450.1,126.7 L450.1,129.8 C450.3,130.1 450,130.3 449.7,130.3 Z M441,129.3 L449.3,129.3 L449.3,127 L441,127 L441,129.3 Z" id="Shape" fill-rule="nonzero"></path>
                            <g transform="translate(383.000000, 0.000000)">
                                <path d="M16.9,22.9 C13.4,22.9 10.6,20.1 10.6,16.6 C10.6,13.1 13.4,10.3 16.9,10.3 C20.4,10.3 23.2,13.1 23.2,16.6 C23.2,20.1 20.4,22.9 16.9,22.9 Z M16.9,11.4 C14,11.4 11.6,13.7 11.6,16.7 C11.6,19.7 13.9,22 16.9,22 C19.8,22 22.2,19.7 22.2,16.7 C22.2,13.7 19.8,11.4 16.9,11.4 Z" id="Shape" fill-rule="nonzero"></path>
                                <rect id="Rectangle" x="16.5" y="0" width="1" height="8"></rect>
                                <rect id="Rectangle" x="16.5" y="25.5" width="1" height="8"></rect>
                                <rect id="Rectangle" x="0.3" y="16.2" width="8" height="1"></rect>
                                <rect id="Rectangle" x="25.6" y="16.2" width="8" height="1"></rect>
                                <rect id="Rectangle" transform="translate(7.872905, 7.730735) rotate(-45.000000) translate(-7.872905, -7.730735) " x="7.42290932" y="3.73077336" width="1" height="7.99992328"></rect>
                                <rect id="Rectangle" transform="translate(25.932215, 25.710925) rotate(-45.000000) translate(-25.932215, -25.710925) " x="25.4822193" y="21.7109634" width="1" height="7.99992328"></rect>
                                <rect id="Rectangle" transform="translate(7.923715, 25.732935) rotate(-45.000000) translate(-7.923715, -25.732935) " x="3.92375336" y="25.2829393" width="7.99992328" height="1"></rect>
                                <rect id="Rectangle" transform="translate(26.018125, 7.764725) rotate(-45.000000) translate(-26.018125, -7.764725) " x="22.0181634" y="7.31472932" width="7.99992328" height="1"></rect>
                            </g>
                            <path d="M239.3,30.7 L225.6,30.7 L225.6,30.7 C223.8,30.5 222.4,28.8 222.4,27 C222.4,25.1 223.7,23.5 225.6,23.3 C225.9,20.6 228.1,18.6 230.9,18.6 C232.9,18.6 234.7,19.7 235.6,21.4 C235.9,21.3 236.3,21.3 236.5,21.3 C238.2,21.3 239.6,22.8 239.6,24.4 L239.6,24.4 C241.3,24.5 242.6,25.9 242.6,27.5 C242.5,29.2 241.1,30.7 239.3,30.7 Z M226.2,29.7 L239.4,29.7 C240.6,29.7 241.6,28.7 241.6,27.5 C241.6,26.3 240.6,25.3 239.4,25.3 C239.3,25.3 239.2,25.3 239.1,25.3 L238.4,25.4 L238.5,24.7 C238.5,24.6 238.5,24.4 238.5,24.3 C238.5,23.1 237.5,22.1 236.3,22.1 C236,22.1 235.6,22.2 235.4,22.3 L235,22.5 L234.8,22.1 C234.1,20.5 232.6,19.4 230.8,19.4 C228.5,19.4 226.6,21.3 226.4,23.6 L226.4,24 L226,24 C224.4,24 223.2,25.2 223.2,26.9 C223.3,28.3 224.5,29.7 226.2,29.7 L226.2,29.7 Z" id="Shape" fill-rule="nonzero"></path>
                            <path d="M664.2,52.9 L650.5,52.9 L650.5,52.9 C648.7,52.7 647.3,51 647.3,49.2 C647.3,47.3 648.6,45.7 650.5,45.5 C650.8,42.8 653,40.8 655.8,40.8 C657.8,40.8 659.6,41.9 660.5,43.6 C660.8,43.5 661.2,43.5 661.4,43.5 C663.1,43.5 664.5,45 664.5,46.6 L664.5,46.6 C666.2,46.7 667.5,48.1 667.5,49.7 C667.5,51.3 666,52.9 664.2,52.9 Z M651,51.9 L664.2,51.9 C665.4,51.9 666.4,50.9 666.4,49.7 C666.4,48.5 665.4,47.5 664.2,47.5 C664.1,47.5 664,47.5 663.9,47.5 L663.2,47.6 L663.3,46.9 C663.3,46.8 663.3,46.6 663.3,46.5 C663.3,45.3 662.3,44.3 661.1,44.3 C660.8,44.3 660.4,44.4 660.2,44.5 L659.8,44.7 L659.6,44.3 C658.9,42.7 657.4,41.6 655.6,41.6 C653.3,41.6 651.4,43.5 651.2,45.8 L651.2,46.2 L650.8,46.2 C649.2,46.2 648,47.4 648,49.1 C648.2,50.6 649.4,51.9 651,51.9 L651,51.9 Z" id="Shape" fill-rule="nonzero"></path>
                            <path d="M216.5,20.6 L198.8,20.6 C197,20.6 195.6,19.1 195.6,17.4 C195.6,15.7 197.1,14.2 198.8,14.2 L199.5,14.2 C200.1,12.3 201.7,11.1 203.7,11.1 C204.4,11.1 204.9,11.2 205.6,11.5 C206.4,10.4 207.6,9.7 209,9.7 C211.1,9.7 212.9,11.3 213,13.4 C213.1,13.4 213.3,13.4 213.4,13.4 C215.4,13.4 217,15 217.1,16.9 C217.9,17.1 218.4,17.9 218.4,18.8 C218.6,19.7 217.7,20.6 216.5,20.6 Z M198.9,15.1 C197.7,15.1 196.7,16.1 196.7,17.3 C196.7,18.5 197.7,19.5 198.9,19.5 L216.7,19.5 C217.3,19.5 217.7,19.1 217.7,18.5 C217.7,17.9 217.3,17.5 216.8,17.5 L216.4,17.5 L216.4,17 L216.4,16.9 C216.4,15.4 215.2,14.3 213.7,14.3 C213.5,14.3 213.3,14.3 212.9,14.4 L212.2,14.5 L212.2,13.8 C212.2,12 210.7,10.6 209.1,10.6 C207.9,10.6 206.9,11.3 206.3,12.3 L206.1,12.7 L205.7,12.5 C205.1,12.2 204.6,11.9 203.9,11.9 C202.3,11.9 200.9,13.1 200.4,14.7 L200.3,15 L198.9,15 L198.9,15.1 L198.9,15.1 Z" id="Shape" fill-rule="nonzero"></path>
                        </g>
                    </g>
                    <g id="Group" transform="translate(503.000000, 112.000000)">
                        <path d="M2.9,7.8 L2.9,6.6 C2.9,6.5 2.9,6.5 3,6.3 L4.3,4.8 C4.3,4.7 4.4,4.7 4.6,4.7 L7.5,4.7 C7.7,4.7 7.9,4.8 7.9,5.1 L7.9,7.9 C7.9,8.1 7.8,8.3 7.5,8.3 L3.3,8.3 C3.1,8.2 2.9,8 2.9,7.8 Z M7.1,5.5 L4.7,5.5 L3.7,6.8 L3.7,7.5 L7.2,7.5 L7.1,5.5 L7.1,5.5 L7.1,5.5 Z" id="Shape" fill-rule="nonzero"></path>
                        <path d="M10.2,8.2 L21,8.2 C21.2,8.2 21.4,8.1 21.4,7.8 C21.4,7.5 21.3,7.4 21,7.4 L10.2,7.4 C10,7.4 9.8,7.5 9.8,7.8 C9.8,8 10,8.2 10.2,8.2 Z" id="Path"></path>
                        <path d="M16.4,13.4 C16.4,13.8 16.7,14.1 17.1,14.1 C17.5,14.1 17.8,13.8 17.8,13.4 C17.8,13 17.5,12.7 17.1,12.7 C16.7,12.7 16.4,13 16.4,13.4 Z" id="Path"></path>
                        <path d="M3.6,13.4 C3.6,13.8 3.9,14.1 4.3,14.1 C4.7,14.1 5,13.8 5,13.4 C5,13 4.7,12.7 4.3,12.7 C3.9,12.8 3.6,13 3.6,13.4 Z" id="Path"></path>
                        <path d="M14.6,13.4 C14.6,12 15.7,11 17,11 C18.3,11 19.4,12.1 19.4,13.4 C19.4,14.8 18.3,15.8 17,15.8 C15.7,15.8 14.6,14.7 14.6,13.4 Z M15.3,13.4 C15.3,14.4 16,15.1 17,15.1 C18,15.1 18.7,14.4 18.7,13.4 C18.7,12.4 18,11.7 17,11.7 C16,11.7 15.3,12.5 15.3,13.4 Z" id="Shape" fill-rule="nonzero"></path>
                        <path d="M1.8,13.4 C1.8,12 2.9,11 4.2,11 C5.6,11 6.6,12.1 6.6,13.4 C6.6,14.8 5.5,15.8 4.2,15.8 C2.9,15.9 1.8,14.7 1.8,13.4 Z M2.5,13.4 C2.5,14.4 3.2,15.1 4.2,15.1 C5.2,15.1 5.9,14.4 5.9,13.4 C5.9,12.4 5.2,11.7 4.2,11.7 C3.3,11.7 2.5,12.5 2.5,13.4 Z" id="Shape" fill-rule="nonzero"></path>
                        <path d="M0.6,6.7 L2.9,3.8 C3.1,3.4 3.6,3.2 4,3.2 L8.3,3.2 L8.3,0.9 C8.3,0.4 8.8,0 9.3,0 L22,0 C22.5,0 22.9,0.4 22.9,0.9 L22.9,12.2 C22.9,12.7 22.5,13.1 22,13.1 L19.5,13.1 C19.5,12.8 19.4,12.6 19.3,12.4 L22,12.4 C22.1,12.4 22.2,12.3 22.2,12.2 L22.2,1 C22.2,0.9 22.1,0.8 22,0.8 L9.3,0.8 C9.2,0.8 9.1,0.9 9.1,1 L9.1,4 L8.4,4 L4,4 C3.8,4 3.6,4.1 3.5,4.3 L1.1,7.2 C1,7.4 0.9,7.7 0.9,8 L0.9,12.4 C0.9,12.5 1,12.6 1.1,12.6 L2.1,12.6 C2,12.8 2,13 1.9,13.3 L1.1,13.3 C0.6,13.3 0.2,12.9 0.2,12.4 L0.2,7.9 C0.1,7.4 0.3,7 0.6,6.7 Z" id="Path"></path>
                        <path d="M8.6,12.4 L9.1,12.4 L9.4,12.4 L14.7,12.4 C14.6,12.6 14.6,12.8 14.5,13.1 L9.3,13.1 L9.1,13.1 L6.6,13.1 C6.6,12.8 6.5,12.6 6.4,12.4 L8.3,12.4 L8.6,12.4 Z" id="Path"></path>
                    </g>
                    <g id="Group" transform="translate(574.000000, 117.000000)">
                        <path d="M21.5,9.1 C21.5,9.5 21.8,9.8 22.2,9.8 C22.6,9.8 22.9,9.5 22.9,9.1 C22.9,8.7 22.6,8.4 22.2,8.4 C21.8,8.4 21.5,8.7 21.5,9.1 Z" id="Path"></path>
                        <path d="M4.9,9.1 C4.9,9.5 5.2,9.8 5.6,9.8 C6,9.8 6.3,9.5 6.3,9.1 C6.3,8.7 6,8.4 5.6,8.4 C5.2,8.4 4.9,8.7 4.9,9.1 Z" id="Path"></path>
                        <path d="M19.4,9.1 C19.4,7.6 20.7,6.4 22.2,6.4 C23.7,6.4 25,7.6 25,9.1 C25,10.6 23.7,11.8 22.2,11.8 C20.7,11.8 19.4,10.6 19.4,9.1 Z M20.1,9.1 C20.1,10.2 21,11.1 22.1,11.1 C23.2,11.1 24.1,10.2 24.1,9.1 C24.1,8 23.2,7.1 22.1,7.1 C21,7.2 20.1,8 20.1,9.1 Z" id="Shape" fill-rule="nonzero"></path>
                        <path d="M8.4,9.2 L19.4,9.2 C19.4,9.5 19.4,9.7 19.5,9.9 L8.2,9.9 C8.3,9.7 8.3,9.4 8.4,9.2 Z" id="Path"></path>
                        <path d="M2.9,9.1 C2.9,7.6 4.2,6.4 5.7,6.4 C7.2,6.4 8.5,7.6 8.5,9.1 C8.5,10.6 7.2,11.8 5.7,11.8 C4.1,11.8 2.9,10.6 2.9,9.1 Z M3.6,9.1 C3.6,10.2 4.5,11.1 5.6,11.1 C6.7,11.1 7.6,10.2 7.6,9.1 C7.6,8 6.7,7.1 5.6,7.1 C4.5,7.1 3.6,8 3.6,9.1 Z" id="Shape" fill-rule="nonzero"></path>
                        <path d="M0.1,7.2 L0.1,8.5 C0.1,8.9 0.1,9.5 0.7,9.8 C0.9,9.9 1.1,10 1.3,10 L3,10 C3,9.7 2.9,9.5 2.9,9.3 L1.3,9.3 C1.2,9.3 1.1,9.3 1,9.3 C0.8,9.3 0.8,8.8 0.8,8.7 L0.8,7.3 C0.8,7.2 1.1,6.9 1.2,6.8 L1.2,6.8 C1.4,6.6 1.5,6.4 1.6,6.2 L1.7,5.7 C1.9,5.3 2,5.1 2.2,5 C2.3,5 2.5,4.9 2.6,4.9 L7.1,4.4 L7.1,4.4 L7.8,4.3 L25.7,4.3 C25.9,4.3 26.1,4.4 26.2,4.6 C26.2,4.7 26.3,4.8 26.4,4.9 C26.6,5.3 27.2,6.4 27.2,7.1 L27.2,8.8 C27.2,9.4 27.2,9.4 26.7,9.4 L24.9,9.4 C24.9,9.7 24.9,9.9 24.8,10.1 L26.7,10.1 C27.7,10.1 28,9.6 28,8.8 L28,7 C28,6.1 27.3,4.7 27.2,4.5 C27.1,4.3 26.1,2 24.9,1.1 C24.4,0.9 23.2,0 14,0 C12.5,0 10.3,1.5 8.7,2.6 C8.1,3.1 7.2,3.6 7,3.6 L2.5,4.2 C2.3,4.2 2,4.3 1.8,4.4 C1.5,4.6 1.2,4.9 1.1,5.5 L1,5.9 C1,6 1,6.1 0.8,6.2 L0.8,6.2 C0.5,6.4 0.1,6.7 0.1,7.2 Z M22.4,3.4 L21.5,0.9 C23.4,1.1 24.1,1.4 24.4,1.6 C24.9,2 25.4,2.7 25.8,3.4 C25.8,3.4 22.4,3.4 22.4,3.4 Z M15.7,3.4 L16.3,0.6 C18.1,0.6 19.5,0.7 20.6,0.8 L21.6,3.4 L15.7,3.4 L15.7,3.4 Z M8.6,3.4 C8.8,3.3 9,3.2 9.1,3.1 C10.6,2.1 12.6,0.6 14,0.6 C14.6,0.6 15.1,0.6 15.6,0.6 L15,3.4 L8.6,3.4 Z" id="Shape" fill-rule="nonzero"></path>
                    </g>
                    <g id="Group" transform="translate(617.000000, 117.000000)">
                        <path d="M8.4,4.2 L8.6,4.2 L13.5,0.8 C13.7,0.7 13.7,0.4 13.6,0.3 C13.5,0.1 13.2,0.1 13.1,0.2 L8.2,3.5 C8,3.6 8,3.9 8,4.1 C8.2,4.2 8.3,4.2 8.4,4.2 Z" id="Path"></path>
                        <path d="M22,9.1 C22,9.5 22.3,9.8 22.7,9.8 C23.1,9.8 23.4,9.5 23.4,9.1 C23.4,8.7 23.1,8.4 22.7,8.4 C22.4,8.4 22,8.8 22,9.1 Z" id="Path"></path>
                        <path d="M5.5,9.1 C5.5,9.5 5.8,9.8 6.2,9.8 C6.6,9.8 6.9,9.5 6.9,9.1 C6.9,8.7 6.6,8.4 6.2,8.4 C5.8,8.4 5.5,8.8 5.5,9.1 Z" id="Path"></path>
                        <path d="M20,9.1 C20,7.6 21.3,6.4 22.8,6.4 C24.3,6.4 25.6,7.6 25.6,9.1 C25.6,10.6 24.3,11.8 22.8,11.8 C21.3,11.9 20,10.6 20,9.1 Z M20.7,9.1 C20.7,10.2 21.6,11.1 22.7,11.1 C23.8,11.1 24.7,10.2 24.7,9.1 C24.7,8 23.8,7.1 22.7,7.1 C21.7,7.2 20.7,8 20.7,9.1 Z" id="Shape" fill-rule="nonzero"></path>
                        <path d="M3.4,9.1 C3.4,7.6 4.7,6.4 6.2,6.4 C7.7,6.4 9,7.6 9,9.1 C9,10.6 7.7,11.8 6.2,11.8 C4.7,11.8 3.4,10.6 3.4,9.1 Z M4.2,9.1 C4.2,10.2 5.1,11.1 6.2,11.1 C7.3,11.1 8.2,10.2 8.2,9.1 C8.2,8 7.3,7.1 6.2,7.1 C5.1,7.1 4.2,8 4.2,9.1 Z" id="Shape" fill-rule="nonzero"></path>
                        <path d="M3.4,9.1 C3.4,7.6 4.7,6.4 6.2,6.4 C7.7,6.4 9,7.6 9,9.1 C9,10.6 7.7,11.8 6.2,11.8 C4.7,11.8 3.4,10.6 3.4,9.1 Z M4.2,9.1 C4.2,10.2 5.1,11.1 6.2,11.1 C7.3,11.1 8.2,10.2 8.2,9.1 C8.2,8 7.3,7.1 6.2,7.1 C5.1,7.1 4.2,8 4.2,9.1 Z" id="Shape" fill-rule="nonzero"></path>
                        <path d="M9,9.2 L20,9.2 C20,9.5 20,9.7 20.1,9.9 L8.8,9.9 C8.9,9.7 9,9.5 9,9.2 Z" id="Path"></path>
                        <path d="M0.2,7.2 C0.2,6.8 0.4,6.5 0.7,6.3 C1.8,5.6 3.8,4.6 4.6,4.2 C4.8,4.1 5.1,4.1 5.3,4 L7.9,3.5 C8.1,3.5 8.2,3.5 8.3,3.5 C8.6,3.5 8.7,3.5 8.9,3.6 C8.9,3.6 9,3.7 9.1,3.8 C9.4,4 9.6,4.2 9.9,4.2 L19.6,4.2 C19.7,4.2 19.8,4.2 19.9,4.2 L21.4,3.6 C21.7,3.5 22,3.4 22.3,3.5 C23.3,3.6 25.1,3.8 26,4.1 C26.3,4.2 26.6,4.5 26.7,4.9 L27.2,6.7 C27.2,6.8 27.2,6.9 27.3,7 L27.8,7.9 C28,8 28,8.3 27.9,8.6 C27.7,9 27.4,9.3 27.2,9.5 C26.9,9.7 26.7,9.8 26.3,9.8 L25.4,9.8 C25.4,9.5 25.5,9.4 25.5,9.1 L26.2,9.1 C26.4,9.1 26.5,9.1 26.7,9 C26.9,8.9 27.1,8.6 27.2,8.4 C27.2,8.3 27.2,8.1 27.1,8 L26.6,7.1 C26.6,7 26.5,6.8 26.4,6.7 L26,5 C26,4.9 25.9,4.8 25.8,4.7 C24.9,4.4 23,4.2 22.2,4.1 L22.1,4.1 C21.9,4.1 21.8,4.1 21.6,4.2 L20.1,4.8 C19.9,4.8 19.8,4.9 19.6,4.9 L9.9,4.9 C9.4,4.9 9,4.6 8.6,4.4 C8.6,4.4 8.5,4.3 8.4,4.3 C8.4,4.3 8.2,4.3 8,4.3 L5.4,4.8 C5.2,4.9 5,4.9 4.8,5 C4.1,5.4 2.1,6.4 1,7.1 C0.9,7.1 0.8,7.2 0.8,7.4 L0.8,8.4 C0.8,8.5 0.8,8.7 1,8.7 L1.6,9.2 C1.7,9.2 1.8,9.3 2,9.3 L3.4,9.3 C3.4,9.6 3.4,9.8 3.5,10 L2,10 C1.7,10 1.3,9.9 1.1,9.6 L0.6,9.1 C0.3,8.9 0.1,8.6 0.2,8.2 L0.2,7.2 Z" id="Path"></path>
                        <path d="M20,4.2 C19.9,4.2 19.8,4.2 19.7,4.2 L19.2,4.2 C19.2,4.2 19.2,4.2 19.2,4.1 L19.6,2.5 C19.6,2.3 19.9,2.2 20.1,2.2 C20.3,2.2 20.4,2.5 20.4,2.7 L20,4.2 Z" id="Path"></path>
                    </g>
                    <g id="Group" transform="translate(535.000000, 104.000000)">
                        <g transform="translate(16.708076, 0.000000)">
                            <polygon id="Path" points="8.7 26.4 8.2 26.4 8.2 3.2 11.3 0.1 15 0.1 15 0.7 11.5 0.7 8.7 3.5"></polygon>
                            <path d="M15.3,4 L11.4,4 L11.4,1.6 L15.3,1.6 C15.3,1.6 15.3,4 15.3,4 Z M12,3.4 L14.7,3.4 L14.7,2.2 L12,2.2 L12,3.4 Z" id="Shape" fill-rule="nonzero"></path>
                            <polygon id="Path" points="7.4 26.4 6.8 26.4 6.8 8.2 4 5.4 0.5 5.4 0.5 4.8 4.3 4.8 7.4 7.9"></polygon>
                            <path d="M4,8.7 L0.2,8.7 L0.2,6.4 L4,6.4 C4,6.4 4,8.7 4,8.7 Z M0.8,8.1 L3.5,8.1 L3.5,6.9 L0.8,6.9 L0.8,8.1 Z" id="Shape" fill-rule="nonzero"></path>
                        </g>
                        <g transform="translate(0.000000, 3.523167)">
                            <rect id="Rectangle" x="8" y="3.3" width="1" height="19.6"></rect>
                            <path d="M8.6,3.4 L8,3.4 C8,1.9 6.7,0.7 5.3,0.7 C3.8,0.7 2.6,2 2.6,3.4 L2,3.4 C2,1.6 3.5,0.1 5.3,0.1 C7.1,0.1 8.6,1.5 8.6,3.4 Z" id="Path"></path>
                            <path d="M2.3,7.8 C1.2,7.8 0.2,6.9 0.2,5.7 C0.2,4.6 1.1,3.6 2.3,3.6 C3.4,3.6 4.4,4.5 4.4,5.7 C4.4,6.8 3.5,7.8 2.3,7.8 Z M2.3,4.2 C1.5,4.2 0.8,4.9 0.8,5.7 C0.8,6.5 1.5,7.2 2.3,7.2 C3.1,7.2 3.8,6.5 3.8,5.7 C3.8,4.9 3.1,4.2 2.3,4.2 Z" id="Shape" fill-rule="nonzero"></path>
                            <rect id="Rectangle" x="9.2" y="6.4" width="1" height="16.5"></rect>
                            <path d="M15.8,6.5 L15.2,6.5 C15.2,5 13.9,3.8 12.5,3.8 C11.1,3.8 9.8,5 9.8,6.5 L9.2,6.5 C9.2,4.7 10.7,3.2 12.5,3.2 C14.3,3.1 15.8,4.6 15.8,6.5 Z" id="Path"></path>
                            <path d="M15.5,10.9 C14.4,10.9 13.4,10 13.4,8.8 C13.4,7.7 14.3,6.7 15.5,6.7 C16.7,6.7 17.6,7.6 17.6,8.8 C17.6,10 16.7,10.9 15.5,10.9 Z M15.5,7.2 C14.7,7.2 14,7.9 14,8.7 C14,9.5 14.7,10.2 15.5,10.2 C16.3,10.2 17,9.5 17,8.7 C17,7.9 16.3,7.2 15.5,7.2 Z" id="Shape" fill-rule="nonzero"></path>
                        </g>
                    </g>
                </g>
            </g>
        </g>
    </g>
</svg>