<?xml version="1.0" encoding="UTF-8"?>
<svg width="40px" height="40px" viewBox="0 0 40 40" version="1.1" xmlns="http://www.w3.org/2000/svg" xmlns:xlink="http://www.w3.org/1999/xlink">
    <!-- Generator: sketchtool 54.1 (76490) - https://sketchapp.com -->
    <title>7C9B6D05-05A2-4D5E-8D80-4A3057A83AFB</title>
    <desc>Created with sketchtool.</desc>
    <defs>
        <path d="M24,21.5 C24,25.0847552 21.0847552,28 17.5,28 C13.9152448,28 11,25.0847552 11,21.5 C11,17.9152448 13.9152448,15 17.5,15 C21.0847552,15 24,17.9152448 24,21.5 Z M12.3,21.5 C12.3,24.3664896 14.6335104,26.7 17.5,26.7 C20.3664896,26.7 22.7,24.3664896 22.7,21.5 C22.7,18.6335104 20.3664896,16.3 17.5,16.3 C14.6335104,16.3 12.3,18.6335104 12.3,21.5 Z M0.667085798,34.6666667 L0.666659563,34.6666667 C0.298330688,34.6666667 0,34.3683328 0,34 L0,6 C0,4.161664 1.4949814,2.66666667 3.33329739,2.66666667 L3.99995695,2.66666667 L3.99995695,0.666666667 C3.99995695,0.298333867 4.29828764,0 4.66661651,0 L7.33325476,0 C7.70158364,0 7.99991433,0.298333867 7.99991433,0.666666667 L7.99991433,2.66666667 L15.3333828,2.66666667 L15.3333828,0.666666667 C15.3333828,0.298333867 15.6317135,0 16.0000424,0 L18.6666807,0 C19.0350095,0 19.3333402,0.298333867 19.3333402,0.666666667 L19.3333402,2.66666667 L26.6668087,2.66666667 L26.6668087,0.666666667 C26.6668087,0.298333867 26.9651394,0 27.3334683,0 L30.0001066,0 C30.3684354,0 30.6667661,0.298333867 30.6667661,0.666666667 L30.6667661,2.66666667 L31.3334257,2.66666667 C32.9433925,2.66666667 34.2900406,3.81333333 34.6000362,5.33333333 L36.6667022,5.33333333 C37.0350311,5.33333333 37.3333617,5.6316672 37.3333617,6 L37.3333617,8 L39.3333404,8 C39.7016693,8 40,8.29833387 40,8.66666667 L40,39.3333333 C40,39.7016661 39.7016693,40 39.3333404,40 L6.0003623,40 C5.63203343,40 5.33370274,39.7016661 5.33370274,39.3333333 L5.33370274,37.3333333 L3.33372405,37.3333333 C2.96539517,37.3333333 2.66706449,37.0349995 2.66706449,36.6666667 L2.66706449,34.6666667 L0.667085798,34.6666667 Z M1.33374536,10.0002133 L1.33374536,33.33376 L33.3334044,33.33376 L33.3334044,10.0002133 L1.33374536,10.0002133 Z M38.6666809,9.33354667 L37.3331484,9.33376 L37.3331484,36.66688 C37.3331484,37.0352128 37.0348177,37.3335467 36.6664889,37.3335467 L6.66702186,37.3335467 L6.66702186,38.66688 L38.6666809,38.66688 L38.6666809,9.33354667 Z M36.0000426,8.66688 L36.0000426,6.66688 L34.6665102,6.66688 L34.6665102,34 C34.6665102,34.3683328 34.3681795,34.6666667 33.9998506,34.6666667 L4.00038361,34.6666667 L4.00038361,36 L36.0000426,36 L36.0000426,8.66688 Z M28.0001279,1.33333333 L28.0001279,4 L29.333447,4 L29.333447,1.33333333 L28.0001279,1.33333333 Z M16.6671286,1.33333333 L16.6671286,4 L18.0004478,4 L18.0004478,1.33333333 L16.6671286,1.33333333 Z M5.3341294,1.33333333 L5.3341294,4 L6.66744853,4 L6.66744853,1.33333333 L5.3341294,1.33333333 Z M1.3341716,6.00021333 L1.33459826,8.66688 L33.3342577,8.66688 L33.3342577,6.00021333 C33.3342577,4.896896 32.4375846,4.00021333 31.334279,4.00021333 L30.6676194,4.00021333 L30.6676194,4.66688 C30.6676194,5.0352128 30.3692888,5.33354667 30.0009599,5.33354667 L27.3343216,5.33354667 C26.9659928,5.33354667 26.6676621,5.0352128 26.6676621,4.66688 L26.6676621,4.00021333 L19.3341935,4.00021333 L19.3341935,4.66688 C19.3341935,5.0352128 19.0358629,5.33354667 18.667534,5.33354667 L16.0008957,5.33354667 C15.6325669,5.33354667 15.3342362,5.0352128 15.3342362,4.66688 L15.3342362,4.00021333 L8.00076765,4.00021333 L8.00076765,4.66688 C8.00076765,5.0352128 7.70243696,5.33354667 7.33410809,5.33354667 L4.66746984,5.33354667 C4.29914096,5.33354667 4.00081027,5.0352128 4.00081027,4.66688 L4.00081027,4.00021333 L3.33415071,4.00021333 C2.23084471,4.00021333 1.3341716,4.896896 1.3341716,6.00021333 Z M3.66666667,16 C3.29833387,16 3,15.7016661 3,15.3333333 L3,12.6666667 C3,12.2983339 3.29833387,12 3.66666667,12 L6.33333333,12 C6.70166613,12 7,12.2983339 7,12.6666667 L7,15.3333333 C7,15.7016661 6.70166613,16 6.33333333,16 L3.66666667,16 Z M4.33333333,13.3333333 L4.33333333,14.6666667 L5.66666667,14.6666667 L5.66666667,13.3333333 L4.33333333,13.3333333 Z M3.66666667,21 C3.29833387,21 3,20.7016661 3,20.3333333 L3,17.6666667 C3,17.2983339 3.29833387,17 3.66666667,17 L6.33333333,17 C6.70166613,17 7,17.2983339 7,17.6666667 L7,20.3333333 C7,20.7016661 6.70166613,21 6.33333333,21 L3.66666667,21 Z M4.33333333,18.3333333 L4.33333333,19.6666667 L5.66666667,19.6666667 L5.66666667,18.3333333 L4.33333333,18.3333333 Z M3.66666667,27 C3.29833387,27 3,26.7016661 3,26.3333333 L3,23.6666667 C3,23.2983339 3.29833387,23 3.66666667,23 L6.33333333,23 C6.70166613,23 7,23.2983339 7,23.6666667 L7,26.3333333 C7,26.7016661 6.70166613,27 6.33333333,27 L3.66666667,27 Z M4.33333333,24.3333333 L4.33333333,25.6666667 L5.66666667,25.6666667 L5.66666667,24.3333333 L4.33333333,24.3333333 Z M3.66666667,32 C3.29833387,32 3,31.7016661 3,31.3333333 L3,28.6666667 C3,28.2983339 3.29833387,28 3.66666667,28 L6.33333333,28 C6.70166613,28 7,28.2983339 7,28.6666667 L7,31.3333333 C7,31.7016661 6.70166613,32 6.33333333,32 L3.66666667,32 Z M4.33333333,29.3333333 L4.33333333,30.6666667 L5.66666667,30.6666667 L5.66666667,29.3333333 L4.33333333,29.3333333 Z M13.3333333,28 C13.7016661,28 14,28.2983339 14,28.6666667 L14,31.3333333 C14,31.7016661 13.7016661,32 13.3333333,32 L10.6666667,32 C10.2983339,32 10,31.7016661 10,31.3333333 L10,28.6666667 C10,28.2983339 10.2983339,28 10.6666667,28 L13.3333333,28 Z M12.6666667,30.6666667 L12.6666667,29.3333333 L11.3333333,29.3333333 L11.3333333,30.6666667 L12.6666667,30.6666667 Z M27.6666667,16 C27.2983339,16 27,15.7016661 27,15.3333333 L27,12.6666667 C27,12.2983339 27.2983339,12 27.6666667,12 L30.3333333,12 C30.7016661,12 31,12.2983339 31,12.6666667 L31,15.3333333 C31,15.7016661 30.7016661,16 30.3333333,16 L27.6666667,16 Z M28.3333333,13.3333333 L28.3333333,14.6666667 L29.6666667,14.6666667 L29.6666667,13.3333333 L28.3333333,13.3333333 Z M27.6666667,21 C27.2983339,21 27,20.7016661 27,20.3333333 L27,17.6666667 C27,17.2983339 27.2983339,17 27.6666667,17 L30.3333333,17 C30.7016661,17 31,17.2983339 31,17.6666667 L31,20.3333333 C31,20.7016661 30.7016661,21 30.3333333,21 L27.6666667,21 Z M28.3333333,18.3333333 L28.3333333,19.6666667 L29.6666667,19.6666667 L29.6666667,18.3333333 L28.3333333,18.3333333 Z M27.6666667,27 C27.2983339,27 27,26.7016661 27,26.3333333 L27,23.6666667 C27,23.2983339 27.2983339,23 27.6666667,23 L30.3333333,23 C30.7016661,23 31,23.2983339 31,23.6666667 L31,26.3333333 C31,26.7016661 30.7016661,27 30.3333333,27 L27.6666667,27 Z M28.3333333,24.3333333 L28.3333333,25.6666667 L29.6666667,25.6666667 L29.6666667,24.3333333 L28.3333333,24.3333333 Z M27.6666667,32 C27.2983339,32 27,31.7016661 27,31.3333333 L27,28.6666667 C27,28.2983339 27.2983339,28 27.6666667,28 L30.3333333,28 C30.7016661,28 31,28.2983339 31,28.6666667 L31,31.3333333 C31,31.7016661 30.7016661,32 30.3333333,32 L27.6666667,32 Z M28.3333333,29.3333333 L28.3333333,30.6666667 L29.6666667,30.6666667 L29.6666667,29.3333333 L28.3333333,29.3333333 Z M24.3333333,28 C24.7016661,28 25,28.2983339 25,28.6666667 L25,31.3333333 C25,31.7016661 24.7016661,32 24.3333333,32 L21.6666667,32 C21.2983339,32 21,31.7016661 21,31.3333333 L21,28.6666667 C21,28.2983339 21.2983339,28 21.6666667,28 L24.3333333,28 Z M23.6666667,30.6666667 L23.6666667,29.3333333 L22.3333333,29.3333333 L22.3333333,30.6666667 L23.6666667,30.6666667 Z M10.6666667,16 C10.2983339,16 10,15.7016661 10,15.3333333 L10,12.6666667 C10,12.2983339 10.2983339,12 10.6666667,12 L13.3333333,12 C13.7016661,12 14,12.2983339 14,12.6666667 L14,15.3333333 C14,15.7016661 13.7016661,16 13.3333333,16 L10.6666667,16 Z M11.3333333,13.3333333 L11.3333333,14.6666667 L12.6666667,14.6666667 L12.6666667,13.3333333 L11.3333333,13.3333333 Z M21.6666667,16 C21.2983339,16 21,15.7016661 21,15.3333333 L21,12.6666667 C21,12.2983339 21.2983339,12 21.6666667,12 L24.3333333,12 C24.7016661,12 25,12.2983339 25,12.6666667 L25,15.3333333 C25,15.7016661 24.7016661,16 24.3333333,16 L21.6666667,16 Z M22.3333333,13.3333333 L22.3333333,14.6666667 L23.6666667,14.6666667 L23.6666667,13.3333333 L22.3333333,13.3333333 Z M17,31 L18,31 L18,32 L17,32 L17,31 Z M17,12 L18,12 L18,13 L17,13 L17,12 Z M25,21 L26,21 L26,22 L25,22 L25,21 Z M8,21 L9,21 L9,22 L8,22 L8,21 Z M18.1344652,25.499996 L16.8827892,25.507852 L16.8796652,24.890652 L15.6296652,24.898464 L15.6218532,23.648464 L18.7593732,23.628152 L18.7515612,22.362512 L16.2656412,22.3797 C15.5937612,22.3797 15.0125292,21.82658 15.0078412,21.1375 L15.0000292,19.90782 C14.9953492,19.21878 15.5531492,18.654708 16.2422292,18.65002 L16.8797452,18.645332 L16.8766212,18.007812 L18.1266212,18 L18.1297452,18.63592 L19.3719452,18.628108 L19.3797612,19.878108 L16.2516412,19.89842 L16.2594532,21.1281 L18.7438132,21.110912 L18.7516252,21.110912 C19.4375452,21.110912 19.9969372,21.667192 20.0016252,22.353112 L20.0094372,23.620312 C20.0110012,23.953112 19.8828772,24.268732 19.6485012,24.506232 C19.4141412,24.743732 19.1016372,24.876548 18.7672612,24.878108 L18.1313412,24.882796 L18.1344652,25.499996 Z" id="path-1"></path>
    </defs>
    <g id="Payment-Frequency" stroke="none" stroke-width="1" fill="none" fill-rule="evenodd">
        <g id="PaymentFreq_768-991px-/-Neutral" transform="translate(-236.000000, -320.000000)">
            <g id="Payment-Style-/-Monthly-Copy-2" transform="translate(220.000000, 308.000000)">
                <g id="Payment-Style-Btn">
                    <g id="Icon" transform="translate(16.000000, 12.000000)">
                        <mask id="mask-2" fill="white">
                            <use xlink:href="#path-1"></use>
                        </mask>
                        <use id="Combined-Shape" fill="#FF7F00" xlink:href="#path-1"></use>
                        <g id="00_Basics-/-Colors-/-Secondary-/-700" mask="url(#mask-2)" fill="#FF7F00">
                            <g transform="translate(-30.000000, -30.000000)" id="Rectangle-2">
                                <rect x="0" y="0" width="101" height="101"></rect>
                            </g>
                        </g>
                    </g>
                </g>
            </g>
        </g>
    </g>
</svg>