<?xml version="1.0" encoding="UTF-8"?>
<svg width="80px" height="80px" viewBox="0 0 80 80" version="1.1" xmlns="http://www.w3.org/2000/svg" xmlns:xlink="http://www.w3.org/1999/xlink">
    <title>Payment Fail Icon</title>
    <g id="Payment" stroke="none" stroke-width="1" fill="none" fill-rule="evenodd">
        <g id="PayConfirm_376px_PayFail" transform="translate(-148.000000, -120.000000)" fill-rule="nonzero">
            <g id="Payment-Fail-Icon" transform="translate(148.000000, 120.000000)">
                <path d="M64.3094386,0 C65.6578022,0 66.9481423,0.561161735 67.9029924,1.55599215 C68.8547187,2.5540059 69.391612,3.90585865 69.391612,5.31517454 L69.391612,5.31517454 L69.3920003,9.83774963 C68.1758761,9.45493065 66.9038425,9.196169 65.5908663,9.07634717 L65.5919585,5.26206061 C65.5919585,4.5865697 65.0633766,4.04048485 64.4125693,4.04048485 L64.4125693,4.04048485 L59.8202414,4.04048485 L59.8201171,9.45955927 C58.4491761,9.77335266 57.1381431,10.241604 55.9064805,10.8449609 L55.9062257,4.03983838 L32.9113428,4.03983838 C32.2727143,4.05874747 31.7624591,4.59853737 31.7624591,5.26141414 L31.7624591,5.26141414 L31.7624591,37.8028283 L34.7506675,32.9543434 C36.9716237,29.5484444 41.4111895,28.5793939 44.7752413,30.7668687 C48.139293,32.9543434 49.2148071,37.5096566 47.2043388,41.0513131 L47.2043388,41.0513131 L42.4010583,48.9925657 C42.0894095,49.5133737 41.8113715,50.0531717 41.5638781,50.6087273 L41.5638781,50.6087273 L55.9092809,50.6087273 L55.9087036,43.1561279 C57.1398203,43.7590082 58.4502131,44.2269119 59.8204501,44.5405169 L59.8202414,50.6093737 L64.4034177,50.6093737 C65.0542093,50.6093737 65.5858574,50.063297 65.5858574,49.3909495 L65.5858574,49.3909495 L65.5828022,49.3909495 L65.5838492,44.9242919 C66.8993104,44.8047525 68.1737098,44.5457513 69.3920003,44.1622504 L69.391612,49.9054198 C69.391612,52.8387329 67.1159654,55.217331 64.3094386,55.217331 L64.3094386,55.217331 L56.3962172,55.217331 L56.4907807,55.5042875 C57.2076797,57.6469113 56.7562208,60.0286927 55.3102402,61.7249161 C53.8643378,63.4211558 51.6526498,64.1640627 49.5325655,63.6666638 C48.891964,65.8348358 47.211078,67.4895943 45.1031764,68.0284744 C42.9952747,68.5673545 40.7714041,67.9073447 39.2461586,66.2939694 L39.2461586,66.2939694 L39.2461586,66.2971577 L38.770272,65.7902006 C37.4219084,69.2110525 35.1523531,72.1476306 32.2360268,74.2456062 L32.2360268,74.2456062 L31.7204843,74.6218428 C30.0915306,75.7855528 28.7126324,77.2873484 27.6663347,79.0345866 C27.0928937,79.997494 25.8818186,80.287642 24.9635944,79.6882134 C24.0453858,79.0888501 23.7647331,77.8262121 24.3382367,76.8664799 C25.671372,74.6441097 27.4254317,72.7342769 29.4936618,71.2580296 L29.4936618,71.2580296 L30.0092043,70.881793 C34.0572626,67.9898631 36.4122679,63.140024 36.2566899,58.0162555 C36.1468123,54.2540531 37.1077536,50.5395189 39.01433,47.3414999 L39.01433,47.3414999 L43.7609353,39.3002533 C44.7737308,37.6167632 44.2917373,35.3944746 42.6810574,34.335896 C41.0703776,33.2741341 38.9411564,33.7810993 37.9283609,35.4645894 L37.9283609,35.4645894 L31.5710757,45.9450805 C30.0855017,48.4351767 28.1209018,50.5778004 25.8086293,52.2390072 C24.9148484,52.883084 23.6915595,52.6502931 23.0753543,51.7161091 C22.4591336,50.7819251 22.6818565,49.5033379 23.5756374,48.8592774 C25.3938119,47.5616228 26.9465463,45.8972327 28.1423151,43.9618517 C27.3064796,43.2859171 26.3485838,42.7980845 25.3236057,42.5270692 C24.283376,42.2273467 23.6702165,41.1018366 23.9569683,40.0114248 C24.2437279,38.9241718 25.3205601,38.2832947 26.3607664,38.583009 C26.84276,38.7169209 27.3125318,38.8827151 27.7762124,39.0740249 L27.7762124,39.0740249 L27.7762124,25.4657112 C25.576707,26.0300579 23.4291338,26.7952806 21.3578581,27.7518295 C19.2835367,28.6892784 17.2609913,29.7414087 15.2964695,30.902017 C12.1025206,32.7862199 9.8878572,36.0639037 9.25944605,39.842191 L9.25944605,39.842191 L3.87833052,72.2778418 C3.6952792,73.3874433 2.68560743,74.1335417 1.62095779,73.9422319 C1.11150658,73.8498011 0.656978576,73.5500869 0.358028581,73.1068943 C0.05907312,72.6668606 -0.0598969671,72.1184714 0.0285674288,71.5828154 L0.0285674288,71.5828154 L5.40968295,39.1789979 C6.22123133,34.1893373 9.1375576,29.8467083 13.3533609,27.3533472 C15.4429886,26.1002592 17.5966531,24.9683825 19.8021717,23.9576354 C22.364656,22.7651123 25.0369399,21.8468612 27.7763061,21.2219334 L27.7763061,21.2219334 L27.7763061,5.31509455 C27.7763061,2.37859806 30.0519527,0 32.8584795,0 L32.8584795,0 Z M42.5723068,54.6497293 L40.3906948,54.6497293 C40.2593092,55.5336081 40.204311,56.4237091 40.2256992,57.3170424 C40.2532011,58.418699 40.1859795,59.5171232 40.0301512,60.6061737 L40.0301512,60.6061737 L42.1017087,62.7873455 C42.9236362,63.655402 44.2496864,63.7343192 45.1602299,62.9672614 C46.0554801,62.2222917 46.2785221,60.9060089 45.6766019,59.8959079 L45.6766019,59.8959079 L45.6766019,59.8927515 L42.6273042,54.7696808 C42.5723068,54.731798 42.5723068,54.6497293 42.5723068,54.6497293 L42.5723068,54.6497293 Z M52.3496272,54.6655111 L47.1462508,54.6655111 L49.0009065,57.7842182 C49.0650697,57.8978586 49.1200695,58.0114909 49.1811783,58.1251313 C49.7494408,59.0436929 50.8891729,59.3782869 51.8393799,58.9079596 C52.7865832,58.4345051 53.244893,57.304404 52.9026863,56.2753939 L52.9026863,56.2753939 L52.3496272,54.6655111 Z" id="Payment-failure-icon" fill="#8B1863"></path>
                <path d="M63.9091914,11 C72.8074086,11 80,18.152 80,27 C80,35.848 72.8074086,43 63.9091914,43 C55.0109743,43 47.8183828,35.848 47.8183828,27 C47.8183828,18.152 55.0109743,11 63.9091914,11 Z M63.9091914,14.2 C56.8131448,14.2 51.0365446,19.944 51.0365446,27 C51.0365446,34.056 56.8131448,39.8 63.9091914,39.8 C71.005238,39.8 76.7818383,34.056 76.7818383,27 C76.7818383,19.944 71.005238,14.2 63.9091914,14.2 Z M69.6857917,19 L71.9545957,21.256 L66.1779954,27 L71.9545957,32.744 L69.6857917,35 L63.9091914,29.256 L58.1325911,35 L55.8637871,32.744 L61.6403874,27 L55.8637871,21.256 L58.1325911,19 L63.9091914,24.744 L69.6857917,19 Z" id="X" fill="#E40B0B"></path>
            </g>
        </g>
    </g>
</svg>