<?xml version="1.0" encoding="UTF-8"?>
<svg width="26px" height="26px" viewBox="0 0 26 26" version="1.1" xmlns="http://www.w3.org/2000/svg" xmlns:xlink="http://www.w3.org/1999/xlink">
    <!-- Generator: sketchtool 53.1 (72631) - https://sketchapp.com -->
    <title>3C1EC72E-CC87-466F-9A31-E80007860D76</title>
    <desc>Created with sketchtool.</desc>
    <defs>
        <path d="M15.1739657,7.30099222 L14.6373751,4.97545079 C14.2734743,3.37427347 12.8523714,2.25 11.1630521,2.25 L6.83704312,2.25 C5.14772383,2.25 3.72666825,3.37424268 3.34724641,4.97545079 L2.81065582,7.30099222 C2.05263288,7.5470204 1.5,8.25560064 1.5,9.0869563 L1.5,11.828114 C1.5,12.2287317 1.79974799,12.5673842 2.21052779,12.6287334 L2.43132825,12.6443725 C6.78954828,13.2296538 11.2106101,13.2296538 15.5686718,12.6443725 L15.7894722,12.6136949 C16.200252,12.567378 16.5,12.2287224 16.5,11.8130754 L16.5,9.08700865 C16.5,8.2557146 15.9473673,7.54711895 15.1739341,7.30104457 L15.1739657,7.30099222 Z M6.93927586,3.91666675 L11.060664,3.91666675 C11.8880103,3.91666675 12.5802735,4.49820324 12.760635,5.34749303 L13.1666665,7.25000024 L4.83333349,7.24938556 L5.23936498,5.34750717 C5.41975657,4.51418952 6.11195963,3.91668089 6.93933604,3.91668089 L6.93927586,3.91666675 Z M3.99983955,10.5833337 C3.53818491,10.5833337 3.16666675,10.211744 3.16666675,9.75000036 C3.16666675,9.28825675 3.53818491,8.91666698 3.99983955,8.91666698 C4.4614942,8.91666698 4.83301236,9.28825675 4.83301236,9.75000036 C4.84603037,10.211744 4.4614942,10.5833337 3.99983955,10.5833337 Z M10.6660743,11.1785673 C10.6660743,11.3121323 10.5625054,11.4166664 10.4288445,11.4166664 L7.57056306,11.4160851 C7.43748567,11.4160851 7.33333325,11.3121368 7.33333325,11.177986 L7.33333325,10.8214321 C7.33333325,10.6878671 7.43690207,10.583333 7.57056306,10.583333 L10.4294369,10.583333 C10.5625143,10.583333 10.6666667,10.6872813 10.6666667,10.8214321 L10.6660743,11.1785673 Z M13.9999999,10.5833337 C13.5382563,10.5833337 13.1666665,10.211744 13.1666665,9.75000036 C13.1666665,9.28825675 13.5382563,8.91666698 13.9999999,8.91666698 C14.4617435,8.91666698 14.8333333,9.28825675 14.8333333,9.75000036 C14.8333333,10.211744 14.4617435,10.5833337 13.9999999,10.5833337 Z M2.33333337,14.8425927 L2.35052839,14.8425927 L2.35052839,13.0833335 C3.1778823,13.1947335 4.00594562,13.2873261 4.83333331,13.3611113 L4.83333331,14.8425927 C4.83333331,15.249852 4.52916057,15.5833334 4.15769417,15.5833334 L3.00897251,15.5833334 C2.63750611,15.5833334 2.33333337,15.249852 2.33333337,14.8425927 Z M13.1666665,14.8481258 L13.1838615,14.8481258 L13.1838615,13.3590363 C14.0112154,13.3037487 14.8392788,13.1939014 15.6666664,13.0833335 L15.6666664,14.8481258 C15.6666664,15.252343 15.3624937,15.5833334 14.9910273,15.5833334 L13.8423056,15.5833334 C13.4708392,15.5833334 13.1666665,15.252343 13.1666665,14.8481258 Z" id="path-1"></path>
    </defs>
    <g id="Components" stroke="none" stroke-width="1" fill="none" fill-rule="evenodd">
        <g id="Navigation" transform="translate(-323.000000, -384.000000)">
            <g id="06_Navigation-/-Progress-/-QQ-/-Basic-Info" transform="translate(80.000000, 373.000000)">
                <g id="Progress-Stepper">
                    <g id="Steps" transform="translate(76.000000, 12.000000)">
                        <g id="Vehicle" transform="translate(168.000000, 0.000000)">
                            <g>
                                <circle id="Vehicle-Oval" stroke="#8B1863" fill-opacity="1" fill="#FFFFFF" cx="12" cy="12" r="12"></circle>
                                <g id="Vehicle-Icon" transform="translate(3.000000, 3.000000)">
                                    <mask id="mask-2" fill="white">
                                        <use xlink:href="#path-1"></use>
                                    </mask>
                                    <use fill="#777770" xlink:href="#path-1"></use>
                                    <g id="Color" mask="url(#mask-2)" fill="#8B1863">
                                        <rect id="Rectangle-2" x="0" y="0" width="18.18" height="18.18"></rect>
                                    </g>
                                </g>
                            </g>
                        </g>
                    </g>
                </g>
            </g>
        </g>
    </g>
</svg>