<?xml version="1.0" encoding="UTF-8"?>
<svg width="63px" height="80px" viewBox="0 0 63 80" version="1.1" xmlns="http://www.w3.org/2000/svg" xmlns:xlink="http://www.w3.org/1999/xlink">
    <!-- Generator: Sketch 55.1 (78136) - https://sketchapp.com -->
    <title>Refresh Icon</title>
    <desc>Created with Sketch.</desc>
    <g id="Sign-Forms" stroke="none" stroke-width="1" fill="none" fill-rule="evenodd">
        <g id="SignForms_376px_Modal-/-DocNotAvail" transform="translate(-156.000000, -157.000000)" fill="#8B1863">
            <g id="Group" transform="translate(8.000000, 125.000000)">
                <g id="Refresh-Icon" transform="translate(148.000000, 32.000000)">
                    <path d="M33.265,10.2275 C33.248725,10.1721583 33.2357,10.116825 33.2129167,10.0614833 C33.1901333,10.0028917 33.157575,9.95080833 33.125025,9.898725 C33.1022417,9.85640833 33.0827083,9.81409167 33.0599167,9.775025 C32.998075,9.680625 32.92645,9.59924167 32.8515833,9.51786667 L24.4790833,1.14536667 C23.8247833,0.491066667 22.7635833,0.491066667 22.1125833,1.14536667 C21.4582833,1.79966667 21.4582833,2.86086667 22.1125833,3.51186667 L27.8645,9.26378333 C12.5745,11.1485333 0.693666667,24.2087833 0.693666667,39.9996167 C0.693666667,52.8346167 8.76983333,64.4921167 20.791175,69.0037833 C20.9864917,69.0754 21.1850583,69.1112083 21.3771083,69.1112083 C22.0541917,69.1112083 22.6921917,68.6945417 22.9461083,68.0239583 C23.271625,67.1580417 22.832175,66.1945417 21.966275,65.8690417 C11.2471083,61.845625 4.04294167,51.4515417 4.04294167,39.999875 C4.04294167,26.2632083 14.1246083,14.8407083 27.2721083,12.727375 L22.1126083,17.886875 C21.4583083,18.541175 21.4583083,19.599125 22.1126083,20.253375 C22.438125,20.5788917 22.871075,20.7416583 23.297525,20.7416583 C23.723975,20.7416583 24.1536083,20.5789 24.4824417,20.253375 L32.8549417,11.880875 C32.9363167,11.7994917 33.0046833,11.7181167 33.063275,11.6237167 C33.0925667,11.58465 33.1088417,11.5390833 33.128375,11.5000167 C33.160925,11.444675 33.190225,11.3925917 33.2162667,11.3372583 C33.2358,11.2819167 33.252075,11.2265833 33.26835,11.1712417 C33.281375,11.1224083 33.3041583,11.0768417 33.3106667,11.0247583 C33.3529833,10.8099167 33.3529833,10.5885583 33.3106667,10.3672083 C33.29765,10.3216333 33.2781167,10.2760583 33.2650917,10.2272333 L33.265,10.2275 Z" id="Fill-1"></path>
                    <path d="M62.64,40 C62.64,27.165 54.5638333,15.5075 42.5425,10.9958333 C41.6765833,10.6735667 40.7130833,11.1097667 40.3875833,11.9756667 C40.0620667,12.8415833 40.5015167,13.8050833 41.3674167,14.1305833 C52.0899167,18.154 59.29075,28.5514167 59.29075,40.0030833 C59.29075,53.73975 49.2090833,65.16225 36.0615833,67.2755833 L41.2210833,62.1160833 C41.8753833,61.4617833 41.8753833,60.4038333 41.2210833,59.7495833 C40.5667833,59.0952833 39.5055833,59.0952833 38.8545833,59.7495833 L30.4820833,68.1220833 C30.4007,68.1969583 30.3323417,68.2848417 30.27375,68.3792417 C30.24445,68.4183083 30.228175,68.463875 30.2086417,68.5029417 C30.1760917,68.5582833 30.1467917,68.6103667 30.12075,68.6657 C30.0979667,68.7210417 30.0849417,68.776375 30.0686667,68.8317167 C30.05565,68.88055 30.0328583,68.9261167 30.02635,68.9782 C29.9840333,69.1930417 29.9840333,69.4144 30.02635,69.63575 C30.0361167,69.6845833 30.05565,69.7334083 30.0686667,69.7822333 C30.0849417,69.837575 30.0979667,69.8929083 30.12075,69.94825 C30.1435417,70.0068417 30.1760917,70.058925 30.2086417,70.1110083 C30.2314333,70.153325 30.2509583,70.1956417 30.27375,70.2347083 C30.3356,70.3291083 30.4072167,70.4104917 30.4820833,70.4918667 L38.8545833,78.8643683 C39.1801,79.189885 39.61305,79.3526517 40.0395,79.3526517 C40.46595,79.3526517 40.8955833,79.1898933 41.2244167,78.8643683 C41.8787167,78.2100683 41.8787167,77.1521183 41.2244167,76.4978683 L35.4725,70.74595 C50.7591667,68.85145 62.6408333,55.7917833 62.6408333,40.0001167 L62.64,40 Z" id="Fill-2"></path>
                </g>
            </g>
        </g>
    </g>
</svg>