<?xml version="1.0" encoding="UTF-8"?>
<svg width="72px" height="72px" viewBox="0 0 72 72" version="1.1" xmlns="http://www.w3.org/2000/svg" xmlns:xlink="http://www.w3.org/1999/xlink">
    <!-- Generator: sketchtool 54.1 (76490) - https://sketchapp.com -->
    <title>9480C8CB-CEC9-4E11-A577-C1976FB53117</title>
    <desc>Created with sketchtool.</desc>
    <g id="Advanced-Quick-Quote" stroke="none" stroke-width="1" fill="none" fill-rule="evenodd">
        <g id="AdvancedQuote_376px-/-Modal" transform="translate(-152.000000, -40.000000)" fill="#8B1863">
            <g id="Review-Icon" transform="translate(152.000000, 40.000000)">
                <path d="M23.934,54.246 C23.55509,54.246 23.19181,54.09366 22.9223,53.82803 L18.1723,49.07803 C17.61371,48.51944 17.61371,47.61713 18.1723,47.05853 L24.145,41.08583 C24.43797,40.79286 24.84031,40.65614 25.2544,40.67177 C25.66846,40.69912 26.04737,40.90615 26.2974,41.23427 C26.94584,42.08974 27.6451,42.89837 28.3794,43.62877 C29.10987,44.35924 29.9146,45.05847 30.7739,45.71077 C31.10202,45.96077 31.30906,46.33968 31.3364,46.74987 C31.36374,47.16003 31.21531,47.56628 30.92234,47.85927 L24.94964,53.83197 C24.6762,54.09369 24.31292,54.24603 23.93404,54.24603 L23.934,54.246 Z M21.2035,48.0663 L23.934,50.7968 L27.7738,46.957 C27.28161,46.53122 26.80505,46.09372 26.3558,45.6445 C25.90655,45.19528 25.46908,44.72262 25.0433,44.2265 L21.2035,48.0663 Z" id="Fill-1"></path>
                <path d="M8.168,71.711 C6.1485,71.711 4.1289,70.94147 2.5938,69.4063 C-0.4804,66.3321 -0.4804,61.3282 2.5938,58.2543 L15.9808,44.8673 C16.25033,44.59777 16.61361,44.44933 16.9925,44.44933 C17.37141,44.44933 17.73469,44.60167 18.0042,44.8673 L27.137,54.0001 C27.69559,54.55869 27.69559,55.461 27.137,56.0196 L13.75,69.4066 C12.207,70.9457 10.1875,71.7113 8.168,71.7113 L8.168,71.711 Z M16.9922,47.895 L4.6132,60.274 C2.6523,62.2349 2.6523,65.4263 4.6132,67.3873 C6.5741,69.3443 9.7655,69.3443 11.7265,67.3873 L24.1055,55.0083 L16.9922,47.895 Z" id="Fill-2"></path>
                <path d="M45.145,53.414 C38.3403,53.414 31.536,50.8281 26.352,45.6523 L26.352,45.6484 C16,35.2814 16,18.4254 26.352,8.07439 C31.3715,3.05489 38.047,0.28919 45.145,0.28919 C52.2427,0.28919 58.915,3.05479 63.926,8.07829 C68.9455,13.08999 71.7112,19.76229 71.7112,26.85929 C71.7112,33.95629 68.9456,40.63229 63.9221,45.65229 C58.7502,50.82809 51.9491,53.41399 45.1451,53.41399 L45.145,53.414 Z M28.372,43.6288 C37.6259,52.8671 52.669,52.8632 61.907,43.6288 C66.3875,39.1483 68.8562,33.1878 68.8562,26.8558 C68.8562,20.5199 66.3874,14.5708 61.907,10.0938 C57.4304,5.6094 51.481,3.1446 45.145,3.1446 C38.8091,3.1446 32.852,5.6134 28.372,10.0938 C19.1337,19.3321 19.1376,34.3748 28.372,43.6288 Z" id="Fill-3"></path>
                <path d="M31.402,14.551 C31.03481,14.551 30.67153,14.41038 30.3903,14.13303 C29.83171,13.57444 29.83171,12.67213 30.3903,12.11353 C34.3317,8.17213 39.5739,6.00023 45.1443,6.00023 C45.93336,6.00023 46.574,6.64085 46.574,7.42993 C46.574,8.21899 45.93338,8.85963 45.1443,8.85963 C40.3357,8.85963 35.8162,10.73463 32.4103,14.13693 C32.13296,14.41427 31.76577,14.55099 31.4025,14.55099 L31.402,14.551 Z" id="Fill-4"></path>
                <path d="M45.152,37.121 C35.2301,37.121 27.422,28.1718 27.097,27.789 C26.63606,27.25384 26.63606,26.4609 27.097,25.9296 C27.42512,25.54679 35.2298,16.5976 45.152,16.5976 C55.0582,16.5976 62.863,25.5468 63.191,25.9296 C63.65194,26.46476 63.65194,27.2577 63.191,27.789 C62.86678,28.16791 55.0582,37.121 45.152,37.121 Z M30.148,26.855 C32.3355,29.0308 38.3082,34.2612 45.152,34.2612 C52.0036,34.2612 57.957,29.0307 60.14,26.855 C57.9525,24.6792 51.9838,19.4488 45.152,19.4488 C38.2887,19.4488 32.332,24.6793 30.148,26.855 Z" id="Fill-5"></path>
                <path d="M45.145,32.18 C42.2114,32.18 39.8247,29.7933 39.8247,26.8597 C39.8247,23.9261 42.2114,21.5394 45.145,21.5394 C48.0786,21.5394 50.4653,23.9261 50.4653,26.8597 C50.4653,29.7933 48.0786,32.18 45.145,32.18 Z M45.145,24.3909 C43.7856,24.3909 42.6802,25.4964 42.6802,26.8557 C42.6802,28.215 43.7857,29.3205 45.145,29.3205 C46.5043,29.3205 47.6098,28.215 47.6098,26.8557 C47.6098,25.4964 46.5043,24.3909 45.145,24.3909 Z" id="Fill-6"></path>
            </g>
        </g>
    </g>
</svg>