<?xml version="1.0" encoding="UTF-8"?>
<svg width="61px" height="64px" viewBox="0 0 61 64" version="1.1" xmlns="http://www.w3.org/2000/svg" xmlns:xlink="http://www.w3.org/1999/xlink">
    <title>A4E71FEE-F942-4D53-A855-6176824C28B0</title>
    <defs>
        <path d="M41.0878207,32.9142857 C41.6930874,32.9375619 42.1794404,33.4142067 42.2032291,34.0074049 L42.2032291,34.0074049 L42.2032291,38.8048215 C44.7830003,40.0041757 46.4297191,42.5504989 46.4323622,45.3481519 L46.4323622,45.3481519 L46.4328358,55.7091102 C46.4274225,59.7142077 43.1179398,62.95735 39.0315147,62.9625304 L39.0315147,62.9625304 L24.229549,62.9625304 C22.9369906,63.6671162 21.4779736,64.0245895 20.000416,63.9986859 C16.4426663,63.9986859 13.6567164,62.1776385 13.6567164,59.8540639 L13.6567164,59.8540639 L13.6567164,55.7094418 C13.6567164,54.1448304 14.9254563,52.8133789 16.8285662,52.1062069 L16.8285662,52.1062069 L16.8285662,45.3481519 C16.8312052,42.5504989 18.4779281,40.0041757 21.0576992,38.8048215 L21.0576992,38.8048215 L21.0576992,34.0074049 C21.0814501,33.4142332 21.5678139,32.937599 22.1731077,32.9142857 L22.1731077,32.9142857 Z M6.37313433,42.0571429 C9.947392,42.0571429 12.7462687,43.9050328 12.7462687,46.2628571 L12.7462687,46.2628571 L12.7462687,58.88 C12.7462687,61.2378244 9.947392,63.0857143 6.37313433,63.0857143 C2.79887666,63.0857143 1.28697053e-12,61.2378244 1.28697053e-12,58.88 L1.28697053e-12,58.88 L1.28697053e-12,46.2628571 C1.28697053e-12,43.9050328 2.79887666,42.0571429 6.37313433,42.0571429 Z M54.6268657,32.9142857 C58.2011233,32.9142857 61,34.7506981 61,37.0938776 L61,37.0938776 L61,57.9918367 C61,60.3350162 58.2011233,62.1714286 54.6268657,62.1714286 C51.052608,62.1714286 48.2537313,60.3350162 48.2537313,57.9918367 L48.2537313,57.9918367 L48.2537313,37.0938776 C48.2537313,34.7506981 51.052608,32.9142857 54.6268657,32.9142857 Z M24.2294137,58.8181736 C22.9368553,59.5227594 21.4778382,59.8802327 20.0002806,59.8543291 C18.5227231,59.8802579 17.063706,59.5227594 15.7711476,58.8181736 L15.7711476,58.8181736 L15.7711476,59.8543291 C15.7711476,60.833521 17.5791189,61.9266402 20.0002806,61.9266402 C22.4214424,61.9266402 24.2294137,60.833521 24.2294137,59.8543291 L24.2294137,59.8543291 Z M10.6218905,57.8285714 C9.32333469,58.5435429 7.85754778,58.9062854 6.37313433,58.88 C4.88872088,58.9063109 3.42293397,58.5435429 2.12437811,57.8285714 L2.12437811,57.8285714 L2.12437811,58.88 C2.12437811,59.8736252 3.94073839,60.9828571 6.37313433,60.9828571 C8.80553027,60.9828571 10.6218905,59.8736252 10.6218905,58.88 L10.6218905,58.88 Z M39.0316365,40.1674035 L24.2296708,40.1674035 C21.311569,40.1699897 18.9458976,42.4883919 18.9432545,45.3481811 L18.9432545,45.3481811 L18.9432545,51.6246641 C19.2947801,51.5858081 19.6463462,51.5676752 20.0005378,51.565085 C23.5582875,51.565085 26.3442373,53.3861325 26.3442373,55.7097071 L26.3442373,55.7097071 L26.3442373,59.8543291 C26.3415916,60.2092414 26.2728699,60.5589149 26.1433501,60.8904846 L26.1433501,60.8904846 L39.0317177,60.8904846 C41.9498195,60.8878984 44.3154909,58.5694963 44.318134,55.7097071 L44.318134,55.7097071 L44.318134,45.3481811 C44.3154138,42.4883919 41.9497383,40.1699937 39.0316365,40.1674035 L39.0316365,40.1674035 Z M58.8756219,56.9469388 C56.2201832,58.3418525 53.0335481,58.3418525 50.3781095,56.9469388 L50.3781095,56.9469388 L50.3781095,57.9918367 C50.3781095,58.9792904 52.1944697,60.0816327 54.6268657,60.0816327 C57.0592616,60.0816327 58.8756219,58.9792904 58.8756219,57.9918367 L58.8756219,57.9918367 Z M32.958181,42.0571429 L32.958181,44.1142693 L35.1432346,44.1142693 L35.1432346,46.1713957 L30.2268989,46.1713957 C29.3228111,46.1713957 28.5880737,46.8631168 28.5880737,47.7142734 C28.5880737,48.56543 29.3228111,49.2571511 30.2268989,49.2571511 L30.2268989,49.2571511 L33.5044794,49.2571511 C35.6158355,49.2571511 37.3283582,50.8694116 37.3283582,52.8571552 C37.3283582,54.8448988 35.6157656,56.4571593 33.5044794,56.4571593 L33.5044794,56.4571593 L32.9582159,56.4571593 L32.9582159,58.5142857 L30.7731623,58.5142857 L30.7731623,56.4571593 L28.5881086,56.4571593 L28.5881086,54.4000329 L33.5044444,54.4000329 C34.4085322,54.4000329 35.1432696,53.7083118 35.1432696,52.8571552 C35.1432696,52.0059986 34.4085322,51.3142775 33.5044444,51.3142775 L33.5044444,51.3142775 L30.2268639,51.3142775 C28.1155078,51.3142775 26.4029851,49.702017 26.4029851,47.7142734 C26.4029851,45.7265297 28.1155777,44.1142693 30.2268639,44.1142693 L30.2268639,44.1142693 L30.7731273,44.1142693 L30.7731273,42.0571429 L32.958181,42.0571429 Z M20.0002806,53.637396 C17.5791189,53.637396 15.7711476,54.7305152 15.7711476,55.7097071 C15.7711476,56.6888989 17.5791189,57.7820181 20.0002806,57.7820181 C22.4214424,57.7820181 24.2294137,56.6888989 24.2294137,55.7097071 C24.2294137,54.7305152 22.4214424,53.637396 20.0002806,53.637396 Z M10.6218905,53.6228571 C9.32333469,54.3378286 7.85754778,54.7005711 6.37313433,54.6742857 C4.88872088,54.7005967 3.42293397,54.3378286 2.12437811,53.6228571 L2.12437811,53.6228571 L2.12437811,54.6742857 C2.12437811,55.6679109 3.94073839,56.7771429 6.37313433,56.7771429 C8.80553027,56.7771429 10.6218905,55.6679109 10.6218905,54.6742857 L10.6218905,54.6742857 Z M58.8756219,52.7673469 C56.2201832,54.1622606 53.0335481,54.1622606 50.3781095,52.7673469 L50.3781095,52.7673469 L50.3781095,53.8122449 C50.3781095,54.7996985 52.1944697,55.9020408 54.6268657,55.9020408 C57.0592616,55.9020408 58.8756219,54.7996985 58.8756219,53.8122449 L58.8756219,53.8122449 Z M10.6218905,49.4171429 C9.32333469,50.1321143 7.85754778,50.4948568 6.37313433,50.4685714 C4.88872088,50.4948824 3.42293397,50.1321143 2.12437811,49.4171429 L2.12437811,49.4171429 L2.12437811,50.4685714 C2.12437811,51.4621967 3.94073839,52.5714286 6.37313433,52.5714286 C8.80553027,52.5714286 10.6218905,51.4621967 10.6218905,50.4685714 L10.6218905,50.4685714 Z M58.8756219,48.5877551 C56.2201832,49.9826688 53.0335481,49.9826688 50.3781095,48.5877551 L50.3781095,48.5877551 L50.3781095,49.6326531 C50.3781095,50.6201067 52.1944697,51.722449 54.6268657,51.722449 C57.0592616,51.722449 58.8756219,50.6201067 58.8756219,49.6326531 L58.8756219,49.6326531 Z M6.37313433,44.16 C3.94073839,44.16 2.12437811,45.2692319 2.12437811,46.2628571 C2.12437811,47.2564824 3.94073839,48.3657143 6.37313433,48.3657143 C8.80553027,48.3657143 10.6218905,47.2564824 10.6218905,46.2628571 C10.6218905,45.2692319 8.80553027,44.16 6.37313433,44.16 Z M58.8756219,44.4081633 C56.2201832,45.803077 53.0335481,45.803077 50.3781095,44.4081633 L50.3781095,44.4081633 L50.3781095,45.4530612 C50.3781095,46.4405149 52.1944697,47.5428571 54.6268657,47.5428571 C57.0592616,47.5428571 58.8756219,46.4405149 58.8756219,45.4530612 L58.8756219,45.4530612 Z M58.8756219,40.2285714 C56.2201832,41.6234851 53.0335481,41.6234851 50.3781095,40.2285714 L50.3781095,40.2285714 L50.3781095,41.2734694 C50.3781095,42.260923 52.1944697,43.3632653 54.6268657,43.3632653 C57.0592616,43.3632653 58.8756219,42.260923 58.8756219,41.2734694 L58.8756219,41.2734694 Z M54.6268657,35.0040816 C52.1944697,35.0040816 50.3781095,36.1064239 50.3781095,37.0938776 C50.3781095,38.0813312 52.1944697,39.1836735 54.6268657,39.1836735 C57.0592616,39.1836735 58.8756219,38.0813312 58.8756219,37.0938776 C58.8756219,36.1064239 57.0592616,35.0040816 54.6268657,35.0040816 Z M40.0886626,34.9865967 L23.1721304,34.9865967 L23.1721304,38.1779557 C23.521017,38.126148 23.8752221,38.0976535 24.2294137,38.0950633 L24.2294137,38.0950633 L39.0313793,38.0950633 C39.3855439,38.0976562 39.7397625,38.126148 40.0886626,38.1779557 L40.0886626,38.1779557 L40.0886626,34.9865967 Z M8.19402985,27.4285714 L8.19402985,36.5714286 L6.37313433,36.5714286 L6.37313433,27.4285714 L8.19402985,27.4285714 Z M12.7462687,29.2571429 L12.7462687,34.7428571 L10.9253731,34.7428571 L10.9253731,29.2571429 L12.7462687,29.2571429 Z M13.3442299,0.013362541 C13.5605131,-0.0208986973 13.7820767,0.0107249856 13.9772589,0.108220098 L13.9772589,0.108220098 L32.7567828,9.39430411 C34.1969019,10.1083329 34.7877425,11.8527621 34.0782098,13.2941086 L34.0782098,13.2941086 L34.0755716,13.2941086 L33.6931141,14.0687809 C33.5849758,14.2848513 33.4478162,14.4851167 33.2869221,14.6669326 C34.9960803,16.0898634 35.8058308,18.3243654 35.4075525,20.5114452 C35.0066004,22.6985251 33.4636301,24.5008996 31.3614335,25.2334115 C30.7205042,25.4573879 30.0452733,25.5706975 29.3647755,25.5733324 C28.8952874,25.5706948 28.4257858,25.5153601 27.9694782,25.4046907 C27.921996,25.6392038 27.8455058,25.8658177 27.7426411,26.0818882 L27.7426411,26.0818882 L27.7426411,26.0792526 L27.4261266,26.7221956 C27.0832443,27.4152453 26.4791827,27.9422235 25.7485828,28.1899176 C25.0152819,28.437605 24.2160786,28.3822703 23.5224138,28.0397186 L23.5224138,28.0397186 L16.8865476,24.7586974 L8.33272166,24.5478953 C6.82661898,24.5109966 5.34691782,24.1473917 3.99645588,23.480731 L3.99645588,23.480731 L3.99645588,23.4833658 L0.910447761,21.9550677 L1.84415715,20.0657415 L4.93279867,21.5966705 C6.00898179,22.1262929 7.18800259,22.4187817 8.3880906,22.450402 L8.3880906,22.450402 L17.174196,22.661204 C17.3271764,22.6664724 17.4775233,22.7007296 17.6173164,22.7666051 L17.6173164,22.7666051 L17.6173164,22.7692399 L24.4621327,26.1525962 C24.6520414,26.2474572 24.8735982,26.2632656 25.0740608,26.1947566 C25.2771568,26.1262477 25.4433311,25.9813238 25.5382821,25.7889644 L25.5382821,25.7889644 L25.8547966,25.1460214 C25.949751,24.9562996 25.9655777,24.7349608 25.8943611,24.5346954 C25.8732588,24.4846291 25.8468822,24.4372003 25.8152308,24.3950399 C25.6437829,24.2685587 25.4776153,24.1315339 25.3193547,23.9866101 L25.3193547,23.9866101 L25.3219928,23.9866101 L20.7272486,21.7152093 C17.9841227,20.3633779 16.6468548,19.7020193 15.995365,19.2909519 L15.995365,19.2909519 L15.9584379,19.3620984 C14.6238439,18.6954917 13.637345,17.4912553 13.2469804,16.0525397 C12.4240764,13.0092998 13.9987151,9.83404734 16.9185489,8.64040171 C18.3006116,8.07912856 19.8568164,8.1318392 21.1967448,8.78796316 L21.1967448,8.78796316 L21.1941073,8.78796316 L30.6338363,13.454615 C30.8105578,13.4836011 30.9872792,13.5099504 31.1613605,13.560016 C31.2220233,13.560016 31.2826874,13.5521108 31.3407154,13.5389358 C31.5438113,13.4704268 31.7099857,13.3255029 31.8049367,13.1331435 L31.8049367,13.1331435 L32.1873942,12.3584712 C32.3825765,11.9631752 32.2190491,11.4809747 31.8234042,11.283347 L31.8234042,11.283347 L13.3443582,2.14769131 L2.60143341,3.87363745 L2.26909148,1.79199233 Z M45.0671642,11.8857143 C45.6462368,11.8857143 46.1152609,12.3567155 46.1152609,12.9382292 C46.1152609,15.0248694 48.7695447,17.6903423 50.8474257,17.6903423 C51.4264983,17.6903423 51.8955224,18.1613435 51.8955224,18.7428571 C51.8955224,19.3243708 51.4264983,19.795372 50.8474257,19.795372 C48.7695447,19.795372 46.1152609,22.4608449 46.1152609,24.5474851 C46.1152609,25.1289987 45.6462368,25.6 45.0671642,25.6 C44.4880916,25.6 44.0190675,25.1289987 44.0190675,24.5474851 C44.0190675,22.4608449 41.3673997,19.795372 39.2869026,19.795372 C38.7078301,19.795372 38.238806,19.3243708 38.238806,18.7428571 C38.238806,18.1613435 38.7078301,17.6903423 39.2869026,17.6903423 C41.3647836,17.6903423 44.0190675,15.0248694 44.0190675,12.9382292 C44.0190675,12.3567155 44.4880916,11.8857143 45.0671642,11.8857143 Z M29.5151292,15.4283382 C29.0719751,15.4283382 28.6315152,15.5047531 28.2147694,15.6523146 C27.2045563,16.0027519 26.3736914,16.7378946 25.9041965,17.6970609 C25.1339605,19.2386143 25.4293741,21.0963033 26.6426966,22.321586 C26.8774474,22.458604 27.0910905,22.6298832 27.2757257,22.827511 C27.3970579,22.9118318 27.5210236,22.9908843 27.6502695,23.0620308 C28.5919466,23.5284329 29.6812968,23.5943044 30.6703751,23.2438468 C31.6805882,22.893342 32.5114531,22.1581993 32.980948,21.1964022 C33.5744152,20.195143 33.6693662,18.9751218 33.2367997,17.8921051 C32.8068802,16.8117192 31.8969389,15.9895979 30.7759205,15.6681264 C30.5332492,15.6391403 30.2932248,15.581168 30.0637543,15.4915788 C29.8817593,15.4573237 29.6997643,15.4362435 29.5151292,15.4283382 Z M45.0671642,16.1720938 C44.4016144,17.2008976 43.5290613,18.0771423 42.5045762,18.7428571 C43.5316774,19.4112125 44.4042439,20.2874438 45.0671642,21.3162476 C45.7300979,20.2874438 46.602651,19.411199 47.6297522,18.7454842 C46.605267,18.0771289 45.7300845,17.2008976 45.0671642,16.1720938 Z M20.2570798,10.6667749 C19.4499763,10.2794252 18.5162669,10.2530767 17.6880286,10.5956283 C15.7810413,11.3887163 14.749734,13.4677981 15.274618,15.4624915 C15.5040615,16.3320754 16.0922552,17.0593526 16.8914586,17.4651449 L16.8914586,17.4651449 L16.8940967,17.4651449 L23.4960325,20.7326107 C23.2217064,19.3887391 23.4010815,17.9921838 24.0130096,16.7616394 L24.0130096,16.7616394 C24.6249464,15.5258131 25.6377929,14.5323721 26.8854172,13.9447639 L26.8854172,13.9447639 Z M41.880597,-1.93019906e-12 L41.880597,9.14285714 L40.0597015,9.14285714 L40.0597015,-1.93019906e-12 L41.880597,-1.93019906e-12 Z M37.3283582,1.82857143 L37.3283582,7.31428571 L35.5074627,7.31428571 L35.5074627,1.82857143 L37.3283582,1.82857143 Z" id="path-1"></path>
    </defs>
    <g id="RC2-—-Payment-Frequency" stroke="none" stroke-width="1" fill="none" fill-rule="evenodd">
        <g id="PaymentFrequency_992-1199px-/-Additional-Plans" transform="translate(-269.000000, -136.000000)">
            <g id="09_Misc-/-Payments-/-Discounts-promo" transform="translate(253.000000, 128.000000)">
                <g id="Savings-header" transform="translate(16.000000, 8.000000)">
                    <g id="Savings-Icon-2" transform="translate(0.000000, 0.000000)">
                        <mask id="mask-2" fill="white">
                            <use xlink:href="#path-1"></use>
                        </mask>
                        <use id="Savings-Icon" fill="#9B1477" fill-rule="nonzero" xlink:href="#path-1"></use>
                        <g id="00_Basics-/-Colors-/-Accent-/-Green" mask="url(#mask-2)" fill="#4CAF50">
                            <g transform="translate(-2.000000, 0.000000)" id="Rectangle-2">
                                <rect x="0" y="0" width="64" height="64"></rect>
                            </g>
                        </g>
                    </g>
                </g>
            </g>
        </g>
    </g>
</svg>