<?xml version="1.0" encoding="UTF-8"?>
<svg width="74px" height="74px" viewBox="0 0 74 74" version="1.1" xmlns="http://www.w3.org/2000/svg" xmlns:xlink="http://www.w3.org/1999/xlink">
    <!-- Generator: sketchtool 53.2 (72643) - https://sketchapp.com -->
    <title>01CB578D-0E7D-4942-842C-D06A0FA5188D</title>
    <desc>Created with sketchtool.</desc>
    <g id="Recover-Quote" stroke="none" stroke-width="1" fill="none" fill-rule="evenodd">
        <g id="RecoverQuote_376px-/-Neutral" transform="translate(-148.000000, -91.000000)" fill="#8B1863">
            <g id="Search-Icon-Copy" transform="translate(188.000000, 131.000000) rotate(-45.000000) translate(-188.000000, -131.000000) translate(162.000000, 86.000000)">
                <path d="M51.359,25.359 C51.359,11.375 39.984,0 26,0 C12.016,0 0.641,11.375 0.641,25.359 C0.641,38.121 10.1254,48.679 22.407,50.433 L22.407,53.3861 L22.2195,53.3861 C21.282,53.3861 20.5242,54.14782 20.5242,55.0814 L20.5242,84.3864 C20.5242,87.480199 23.0398,89.995799 26.1336,89.995799 L26.35235,89.995799 C29.44615,89.995799 31.96175,87.480199 31.96175,84.3864 L31.95785,55.0854 C31.95785,54.1479 31.19613,53.3901 30.26255,53.3901 L30.18833,53.3901 L30.18833,50.3432 C42.18033,48.3393 51.36033,37.9132 51.36033,25.3592 L51.359,25.359 Z M28.562,84.39 C28.562,85.612697 27.56981,86.604797 26.3472,86.604797 L26.12845,86.604797 C24.90575,86.604797 23.91365,85.612607 23.91365,84.39 L23.91365,80.4916 L28.56205,80.4916 L28.562,84.39 Z M29.12841,78.2259 L23.35111,78.2259 L23.3472,61.1439 L29.1245,61.1439 L29.12841,78.2259 Z M28.562,56.7809 L28.562,58.8786 L23.9136,58.8786 L23.9136,56.7809 L28.562,56.7809 Z M24.6675,53.3864 L24.6675,50.6481 C25.11281,50.67153 25.55031,50.7145 25.9995,50.7145 C26.64794,50.7145 27.2847,50.66372 27.9214,50.61685 L27.9214,53.38245 L24.6675,53.39026 L24.6675,53.3864 Z M25.9995,47.3239 C13.8865,47.3239 4.0345,37.4723 4.0345,25.3589 C4.0345,13.2499 13.89,3.3939 25.9995,3.3939 C38.109,3.3939 47.9645,13.2455 47.9645,25.3589 C47.9645,37.4723 38.1129,47.3239 25.9995,47.3239 Z" id="Fill-1"></path>
                <path d="M26,6.152 C15.41,6.152 6.797,14.7653 6.797,25.355 C6.797,35.945 15.4103,44.562 26,44.562 C36.5897,44.562 45.203,35.9448 45.203,25.355 C45.20691,14.769 36.5897,6.152 26,6.152 Z M26,42.3 C16.6562,42.3 9.059,34.6984 9.059,25.359 C9.059,16.0152 16.6606,8.418 26,8.418 C35.3438,8.418 42.941,16.0196 42.941,25.359 C42.941,34.7028 35.3433,42.3 26,42.3 Z" id="Fill-2"></path>
            </g>
        </g>
    </g>
</svg>