<?xml version="1.0" encoding="UTF-8"?>
<svg width="103px" height="80px" viewBox="0 0 103 80" version="1.1" xmlns="http://www.w3.org/2000/svg" xmlns:xlink="http://www.w3.org/1999/xlink">
    <!-- Generator: sketchtool 53.2 (72643) - https://sketchapp.com -->
    <title>FEBD8B36-F3E7-422C-B2BA-4EAD3DDFF612</title>
    <desc>Created with sketchtool.</desc>
    <g id="SNI" stroke="none" stroke-width="1" fill="none" fill-rule="evenodd">
        <g id="SNI_376px-/-Neutral" transform="translate(-137.000000, -120.000000)" fill="#8B1863">
            <path d="M212.626957,120.044311 L202.948736,129.413035 C202.407898,128.887021 201.815817,128.421902 201.172419,128.017692 L200.967475,127.906958 C199.157053,126.788477 197.056311,126.190525 194.910098,126.179327 C193.452666,126.184855 192.006602,126.456176 190.651628,126.976662 C190.11079,127.192602 189.592717,127.44731 189.103107,127.751857 L188.64766,127.995494 L188.419936,128.150538 C183.928132,125.160496 177.887661,125.680996 174.005063,129.390838 L164.326843,120 L137,146.577842 L146.610013,155.990793 L149.752527,159.202247 C150.640656,160.060491 152.075381,160.060491 152.963394,159.202247 C153.845825,158.33846 153.845825,156.943059 152.963394,156.079386 L177.124695,132.58032 C179.174136,130.647863 182.248442,130.166202 184.821683,131.362162 L173.913682,141.971186 C171.249351,144.568019 171.249351,148.765192 173.913682,151.362024 L175.507821,152.934582 C176.788772,154.185952 178.530825,154.889152 180.346931,154.889152 C182.163036,154.889152 183.905104,154.185952 185.186041,152.934582 L196.4584,141.971186 L220.141664,165.005316 C222.418901,167.220137 222.783258,169.612142 222.213986,170.165812 L220.597111,171.73837 C220.061957,171.976465 219.44711,171.976465 218.912029,171.73837 C217.528605,171.328632 216.287486,170.564522 215.313921,169.52355 L207.411873,161.971048 C206.518059,161.101733 205.071967,161.101733 204.178124,161.971048 C203.284281,162.840363 203.28431,164.24682 204.178124,165.116164 L212.148526,172.868105 C214.425763,175.082926 214.790121,177.474931 214.220848,178.006488 L212.626709,179.579046 C212.091555,179.811599 211.476708,179.811599 210.941627,179.579046 C209.552519,179.169308 208.305716,178.405198 207.320784,177.364226 L199.350382,169.612284 C198.462252,168.75404 197.027527,168.75404 196.139514,169.612284 C195.706832,170.027565 195.467725,170.592347 195.467725,171.184842 C195.467725,171.777337 195.706832,172.342091 196.139514,172.7574 L204.087034,180.487087 C206.364271,182.701907 206.751365,185.093913 206.182092,185.647582 L204.565218,187.22014 C203.995916,187.751697 201.559265,187.419467 199.259292,185.182506 L191.28889,177.452819 C190.40076,176.594574 188.966036,176.594574 188.078023,177.452819 C187.947087,177.591236 187.838916,177.74628 187.759209,177.917924 L187.258217,177.762879 C187.850299,175.531474 187.212673,173.156053 185.573135,171.494903 L183.95626,169.944458 C183.15922,169.180348 182.179943,168.615566 181.109751,168.305562 C181.79862,165.974508 181.126832,163.460598 179.356315,161.749694 L177.73944,160.199249 C175.342694,157.884779 171.568092,157.624529 168.858143,159.579099 C168.522249,158.859286 168.061103,158.19484 167.491801,157.630057 L165.920544,155.991161 C163.250529,153.399857 158.935074,153.399857 156.26506,155.991161 L153.03131,159.114022 C150.36698,161.710855 150.36698,165.908028 153.03131,168.50486 L154.648185,170.077418 C155.86651,171.245737 157.494695,171.92681 159.202659,171.982234 C159.248204,173.648913 159.948456,175.232527 161.161155,176.411874 L162.77803,177.962319 C163.996355,179.136167 165.618856,179.822768 167.332504,179.889248 C167.389431,181.550399 168.089683,183.134013 169.291,184.318889 L170.907875,185.891447 C172.120502,187.070837 173.748701,187.751895 175.462349,187.796263 C175.507894,189.462942 176.208146,191.046556 177.420845,192.225903 L179.03772,193.798461 C180.318671,195.03876 182.055041,195.730918 183.865462,195.72539 C184.878829,195.72539 185.875115,195.498366 186.780325,195.060944 L188.214992,196.456288 C190.21896,198.565931 192.985749,199.839399 195.934861,200 C197.415029,199.983387 198.821305,199.390921 199.851709,198.361104 L201.468584,196.788546 C202.715373,195.476267 203.256269,193.671213 202.926015,191.915942 C203.233446,191.971309 203.54656,192.010063 203.859675,192.026676 C205.362578,192.070972 206.82001,191.528345 207.913084,190.520598 L209.507222,188.94804 C210.75971,187.652374 211.300592,185.847292 210.964654,184.097548 C211.272085,184.152915 211.585199,184.191684 211.898314,184.208297 C213.350047,184.219367 214.744824,183.67674 215.792425,182.702219 L217.4093,181.129661 C218.656089,179.817382 219.196986,178.012328 218.866732,176.257057 C219.174162,176.312424 219.487277,176.351178 219.800391,176.367791 C221.303295,176.417629 222.766556,175.874988 223.8538,174.861713 L225.447939,173.289155 C228.157887,170.653484 227.246992,165.648061 223.375617,161.882796 L222.236998,160.775386 L199.852306,138.848311 C200.284989,138.433031 200.524095,137.868248 200.524095,137.275753 C200.524095,136.683259 200.284989,136.118505 199.852306,135.703196 C198.964177,134.844951 197.529452,134.844951 196.641439,135.703196 L182.135476,149.811565 C181.247347,150.669809 179.812622,150.669809 178.924609,149.811565 L177.307734,148.239007 C176.425303,147.37522 176.425303,145.97982 177.307734,145.116146 L190.196968,132.580193 C192.895548,130.060897 197.153872,130.060897 199.852452,132.580193 L209.507937,141.971031 L213.515873,145.891227 L223.991163,156.0794 L222.374289,157.629845 C221.947305,158.045125 221.7025,158.604366 221.7025,159.196874 C221.696801,159.783798 221.935922,160.348581 222.362891,160.763904 C223.251021,161.633219 224.69143,161.638761 225.585127,160.774974 L227.202002,159.202417 L230.32178,155.990963 L240,146.578012 L212.626957,120.044311 Z M144,146.608266 L164.64294,126 L171,132.346381 L156.713544,146.60884 L150.28906,153 L144,146.608266 Z M156.645098,165.767996 C156.229606,165.361916 156,164.809648 156,164.230281 C156,163.650914 156.229606,163.098673 156.645098,162.692566 L159.728397,159.638899 C160.138416,159.2274 160.696044,159 161.281032,159 C161.866021,159 162.423621,159.2274 162.833668,159.638899 L164.364471,161.176613 C165.211843,162.021261 165.211843,163.385744 164.364471,164.230281 L161.324838,167.370579 C160.471994,168.209807 159.094271,168.209807 158.241539,167.370579 L156.645098,165.767996 Z M164.652374,173.665761 C163.782542,172.790954 163.782542,171.377751 164.652374,170.503059 L167.839951,167.407685 L171.588672,163.661711 C172.009559,163.235519 172.581967,163 173.182461,163 C173.782954,163 174.355333,163.235519 174.776249,163.661711 L176.347626,165.254331 C177.217458,166.129139 177.217458,167.542341 176.347626,168.417034 L174.507026,170.278823 L169.411471,175.348105 C168.536023,176.217298 167.121783,176.217298 166.246449,175.348105 L164.652374,173.665761 Z M172.653492,180.785604 C172.232594,180.370669 172,179.806357 172,179.214356 C172,178.622355 172.232594,178.058071 172.653492,177.643108 L177.659806,172.641853 C178.07516,172.226918 178.645572,171.994559 179.232643,172.000097 C179.819672,171.994559 180.390098,172.226932 180.805481,172.641853 L182.356202,174.213101 C183.214599,175.076169 183.214599,176.470407 182.356202,177.333362 L180.473305,179.214356 L177.349888,182.356853 C176.485947,183.214382 175.090299,183.214382 174.226471,182.356853 L172.653492,180.785604 Z M182.182869,190.334165 L180.633991,188.785357 C179.78867,187.934616 179.78867,186.560289 180.633991,185.70966 L183.731747,182.633962 C184.582528,181.788679 185.956916,181.788679 186.807585,182.633962 L188.356463,184.160991 C188.770949,184.57 189,185.126253 189,185.709799 C189,186.293345 188.770949,186.849571 188.356463,187.258607 L185.280626,190.334305 C184.877057,190.754217 184.320779,190.994174 183.742637,190.999619 C183.159093,191.010522 182.597369,190.786941 182.182869,190.377932 L182.182869,190.334165 Z M196.767136,188.748969 C198.968333,191.078604 199.320524,193.594609 198.77026,194.176981 L197.229352,195.8078 C196.712067,196.064067 196.117751,196.064067 195.600537,195.8078 C194.252305,195.382636 193.041654,194.578915 192.100598,193.478165 L191,192.313347 L192.540908,190.659269 C193.707536,189.412911 194.389914,187.753078 194.455985,186 L196.657182,188.329635 L196.767136,188.748969 Z M227.71094,153 L221.353881,146.653652 L217.310544,142.639518 L207,132.346348 L213.35706,126 L234,146.608156 L227.71094,153 Z" id="Fill-1"></path>
        </g>
    </g>
</svg>