<?xml version="1.0" encoding="UTF-8"?>
<svg width="90px" height="33px" viewBox="0 0 90 33" version="1.1" xmlns="http://www.w3.org/2000/svg" xmlns:xlink="http://www.w3.org/1999/xlink">
    <!-- Generator: sketchtool 53.2 (72643) - https://sketchapp.com -->
    <title>6D8B5CF0-30BB-4E5D-838C-A30D4E8EE8CE</title>
    <desc>Created with sketchtool.</desc>
    <defs>
        <path d="M18.188,30.1676973 L18.22707,30.1676973 C22.71537,30.1676973 26.36767,33.8221202 26.38727,38.3498424 C26.4068,42.8932743 22.77007,46.5870723 18.26227,46.602782 L18.2232,46.602782 C13.7349,46.602782 10.0826,42.9444316 10.063,38.4167094 C10.04347,33.8850598 13.6802,30.1873344 18.188,30.1676973 Z M18.24269,42.0476685 L18.26222,42.0476685 C20.27002,42.0280011 21.87942,40.3718645 21.85992,38.3460157 C21.84039,36.3280217 20.20372,34.7112299 18.20372,34.7230121 L18.18419,34.7230121 C16.17639,34.7426795 14.57089,36.3988162 14.58649,38.4285924 C14.60602,40.4426589 16.24669,42.0633782 18.24269,42.0476685 Z M74.816,30.4859198 L74.85116,30.4859198 C79.34336,30.4859198 82.99176,34.1403427 83.01136,38.6719923 C83.03089,43.2154242 79.39416,46.9092222 74.88636,46.9249319 L74.8512,46.9249319 C70.3629,46.9249319 66.7106,43.2665815 66.691,38.7388593 C66.67147,34.2072097 70.3121,30.5094843 74.816,30.4859198 Z M74.87459,42.365891 L74.89022,42.365891 C76.89802,42.3462236 78.51132,40.6861595 78.48792,38.6642382 C78.46448,36.6462442 76.83172,35.0294524 74.82772,35.0412347 L74.81209,35.0412347 C72.80429,35.060902 71.19489,36.7170387 71.21439,38.7428875 C71.23783,40.7648088 72.87459,42.3816007 74.87459,42.365891 Z M31.941,38.0507535 L64.88616,38.0547212 C64.87054,38.2868424 64.85491,39.4551319 64.85491,39.6911503 C64.85491,39.9114388 64.74553,40.3520158 64.226,40.3520158 L32.941,40.3520158 C32.39022,40.3520158 31.941,39.9311061 31.941,39.4157871 L31.941,38.0507535 Z M1.461,32.5671554 C1.73444,32.5671554 2.00787,32.1147759 2.00787,31.5601221 L2.00787,23.4881464 C2.00787,22.4378107 3.01957,21.4505153 4.01957,21.4505153 L30.96057,21.4505153 L32.62467,14.9913034 C32.72623,14.448452 33.26139,14.0039375 33.81217,14.0039375 L57.79217,14 C58.34295,14 59.14377,14.2792906 59.57737,14.6254583 L67.08907,19.8572981 C67.51876,20.1995283 68.31957,20.5299661 68.86637,20.5850408 L85.70637,22.3512764 C86.253252,22.4102885 87.112572,22.638442 87.616572,22.8587305 L88.065792,23.0554142 C88.557982,23.2717652 88.956412,23.8814936 88.975952,24.4283026 L88.983765,24.4283026 C89.534545,24.4283026 89.983765,24.8806821 89.983765,25.4353358 L89.983765,32.2328103 C90.534545,32.2328103 90.983765,32.6851897 90.983765,33.2398435 L90.983765,36.4143144 C90.983765,37.0673151 90.479855,37.4134827 89.983765,37.5511543 L84.81576,37.5511543 C84.81576,37.5511543 84.74545,37.2049866 84.69076,36.8981536 C83.8392,32.2131328 79.74546,28.6412866 74.85486,28.6412866 C69.70646,28.660964 65.49936,32.5631776 64.92516,37.5512147 L31.94116,37.5472872 L31.94116,37.5394223 L28.17946,37.5472872 C27.74977,32.3901693 23.44506,28.3187339 18.22636,28.3187339 C12.96856,28.3423387 8.69516,32.405879 8.26546,37.5433598 C7.88265,37.519755 7.49202,37.5826945 7.20296,37.5433598 L1.95296,37.5433598 C1.40608,37.4686178 1.01155,37.0673755 1.01155,36.512762 L1.01155,33.2595411 C1.00765,32.7048873 1.18343,32.5672057 1.46077,32.5672057 L1.461,32.5671554 Z M34.441,21.3991566 C34.35897,21.9459455 34.74178,22.3943875 35.29256,22.3943875 L45.99956,22.3943875 L45.99956,15.356937 L36.56596,15.356937 C36.01518,15.356937 35.49956,15.805379 35.41756,16.3521678 L34.441,21.3991566 Z M58.738,15.9942078 C58.31222,15.6441026 57.5114,15.3569471 56.9646,15.3569471 L47.9607,15.3569471 L47.9607,22.3943975 L53.949,22.3943975 C54.49978,22.3943975 55.2029,22.7680975 55.5154,23.2244145 L56.46852,24.6169401 C56.78102,25.073257 57.48802,25.446957 58.03492,25.446957 L64.96462,25.446957 C65.5154,25.446957 65.96462,24.9945775 65.96462,24.4399238 L65.96462,22.3354257 C65.96462,21.7807719 65.61696,21.0411865 65.19118,20.6911418 L58.738,15.9942078 Z" id="path-1"></path>
    </defs>
    <g id="Vehicle-Summary" stroke="none" stroke-width="1" fill="none" fill-rule="evenodd">
        <g id="Vehicle-Icons" transform="translate(-30.000000, -459.000000)">
            <g id="04_Icons-/-Vehicles-/-Pickup" transform="translate(29.000000, 445.000000)">
                <mask id="mask-2" fill="white">
                    <use xlink:href="#path-1"></use>
                </mask>
                <use id="Combined-Shape" fill="#4C4C4C" fill-rule="evenodd" xlink:href="#path-1"></use>
                <g id="00_Basics-/-Colors-/-Gray-/-700" mask="url(#mask-2)" fill="#777770" fill-rule="evenodd">
                    <g transform="translate(-5.000000, -26.000000)" id="Rectangle-2">
                        <rect x="0" y="0" width="101" height="101"></rect>
                    </g>
                </g>
            </g>
        </g>
    </g>
</svg>