<?xml version="1.0" encoding="UTF-8"?>
<svg width="77px" height="41px" viewBox="0 0 77 41" version="1.1" xmlns="http://www.w3.org/2000/svg" xmlns:xlink="http://www.w3.org/1999/xlink">
    <!-- Generator: sketchtool 53.1 (72631) - https://sketchapp.com -->
    <title>5AE39D19-E99C-4066-A4C3-A59EC53A0C1A</title>
    <desc>Created with sketchtool.</desc>
    <defs>
        <path d="M69.7024898,42.3326914 C71.6766816,42.3326914 73.2749286,40.7377077 73.2749286,38.7602526 C73.2749286,36.7860633 71.676598,35.1878163 69.7024898,35.1878163 C67.728298,35.1878163 66.1235245,36.7894102 66.1235245,38.7602526 C66.1235245,40.7344444 67.7283816,42.3326914 69.7024898,42.3326914 Z M61.4593143,38.7602526 C61.4593143,34.2072469 65.1494816,30.5170796 69.7024898,30.5170796 C74.2522347,30.5170796 77.9489286,34.2072469 77.9489286,38.7602526 C77.9489286,43.3099975 74.255498,47.0001652 69.7024898,47.0001652 C65.1494816,47.0001652 61.4593143,43.3133444 61.4593143,38.7602526 Z M29.9642857,42.3326914 C31.9384776,42.3326914 33.5399878,40.7377077 33.5399878,38.7602526 C33.5399878,36.7860633 31.9383939,35.1878163 29.9642857,35.1878163 C27.9901776,35.1878163 26.3918469,36.7894102 26.3918469,38.7602526 C26.3918469,40.7344444 27.9901776,42.3326914 29.9642857,42.3326914 Z M21.7243735,38.7602526 C21.7243735,34.2072469 25.4111939,30.5170796 29.9642857,30.5170796 C34.5173776,30.5170796 38.2074612,34.2072469 38.2074612,38.7602526 C38.2074612,43.3099975 34.5172939,47.0001652 29.9642857,47.0001652 C25.4145408,47.0001652 21.7243735,43.3133444 21.7243735,38.7602526 Z M81.8878571,31.1840408 L84.9970712,31.186869 L84.9937996,36.0209363 C84.9937996,37.1452567 84.0786629,38.0604771 82.9509955,38.0604771 L80.5911527,38.0604771 C80.2572955,32.3309363 75.5509139,27.7811914 69.7395404,27.7811914 C63.9279159,27.7811914 59.2278516,32.3280914 58.8879282,38.0479261 L40.8487649,38.0413912 C40.5023567,32.3245688 35.8052629,27.7813504 29.9971527,27.7813504 C24.1987486,27.7813504 19.4953457,32.3213055 19.1488873,38.0313504 L14.4226751,38.0280788 L14.4194118,31.9159829 C14.2788655,31.9486657 14.1448624,32.0042333 13.9945096,32.0042333 L9.993912,32.0042333 C8.9250671,32.0042333 8.06222629,31.0988027 8.06222629,29.9810088 L8.06222629,17.5379271 C8.06222629,16.4200496 8.92515078,15.5147027 9.993912,15.5147027 L13.9945096,15.5147027 C14.1415908,15.5147027 14.2756022,15.5702702 14.4128769,15.6029531 L14.4128769,10.3439082 C14.4128769,10.3439082 14.3507912,8.5789 15.2921178,7.64083673 C16.3478259,6.58182347 18.3481239,6.34649184 18.3481239,6.34649184 L50.6996341,6.34649184 C50.6996341,6.34649184 53.5562882,6.37268163 54.8735178,7.7519551 C56.1907473,9.13122857 56.9490382,10.7328224 56.9490382,10.7328224 L62.6950627,20.5385163 L78.2892871,20.5385163 C78.2892871,20.5385163 81.8715157,21.1530143 81.8715157,24.3038224 L81.8878571,31.1840408 Z M34.9294694,20.570898 L34.9294694,10.3242449 L18.7930408,10.3242449 L18.7930408,20.570898 L34.9294694,20.570898 Z M38.6130265,20.570898 L57.7370163,20.5416122 L51.8635571,10.3635714 L38.6130265,10.3635714 L38.6130265,20.570898 Z" id="path-1"></path>
    </defs>
    <g id="Vehicle-Summary" stroke="none" stroke-width="1" fill="none" fill-rule="evenodd">
        <g id="Vehicle-Icons" transform="translate(-37.000000, -357.000000)">
            <g id="04_Icons-/-Vehicles-/-SportUtility" transform="translate(29.000000, 351.000000)">
                <mask id="mask-2" fill="white">
                    <use xlink:href="#path-1"></use>
                </mask>
                <use id="Combined-Shape" fill="#4C4C4C" fill-rule="evenodd" xlink:href="#path-1"></use>
                <g id="00_Basics-/-Colors-/-Gray-/-700" mask="url(#mask-2)" fill="#777770" fill-rule="evenodd">
                    <g transform="translate(-5.000000, -26.000000)" id="Rectangle-2">
                        <rect x="0" y="0" width="101" height="101"></rect>
                    </g>
                </g>
            </g>
        </g>
    </g>
</svg>