<?xml version="1.0" encoding="UTF-8"?>
<svg width="40px" height="49px" viewBox="0 0 40 49" version="1.1" xmlns="http://www.w3.org/2000/svg" xmlns:xlink="http://www.w3.org/1999/xlink">
    <!-- Generator: sketchtool 53 (72520) - https://sketchapp.com -->
    <title>6EA5C444-F424-409C-9CBA-F371A8B5D02C</title>
    <desc>Created with sketchtool.</desc>
    <g id="Vehicle-Summary" stroke="none" stroke-width="1" fill="none" fill-rule="evenodd">
        <g id="Vehicle-&amp;-User-Icons" transform="translate(-1753.000000, -582.000000)" fill="#4C4C4C" fill-rule="nonzero">
            <g id="noun_532991" transform="translate(1753.000000, 582.000000)">
                <path d="M15.3985507,16.0130719 L4.52898551,10.0081699 L0,0 L14.4927536,0 L15.3985507,16.0130719 Z M24.4565217,16.8137255 C22.6449275,13.8112745 17.2101449,13.8112745 15.3985507,16.8137255 L12.6811594,13.4109477 C17.2101449,9.60784314 22.6449275,9.60784314 27.173913,13.4109477 L24.4565217,16.8137255 Z M24.4565217,16.0130719 L25.3623188,0 L39.8550725,0 L35.326087,10.0081699 L24.4565217,16.0130719 Z M8.69565217,34.6683007 C8.69565217,12.6903595 31.1594203,12.6903595 31.1594203,34.6683007 C31.1594203,52.6429739 8.69565217,52.6429739 8.69565217,34.6683007 Z M12.3188406,34.6683007 C12.3188406,47.3586601 27.5362319,47.3586601 27.5362319,34.6683007 C27.5362319,18.375 12.3188406,18.4550654 12.3188406,34.6683007 Z M0,0 L3.62318841,0 C3.62318841,7.08578431 3.62318841,7.04575163 7.7173913,9.20751634 L13.0434783,12.0498366 C15.3985507,13.2908497 18.115942,14.8120915 18.115942,18.4150327 L18.115942,21.6176471 L14.4927536,21.6176471 C14.4927536,19.2156863 14.8550725,17.0539216 12.1014493,15.6928105 L6.63043478,12.9705882 C0.434782609,9.8880719 0,8.72712418 0,0 Z M39.8550725,0 C39.8550725,8.72712418 39.4202899,9.8880719 33.2246377,12.9705882 L27.7536232,15.6928105 C25,17.0539216 25.3623188,19.2156863 25.3623188,21.6176471 L21.7391304,21.6176471 L21.7391304,18.4150327 C21.7391304,14.8120915 24.4565217,13.2908497 26.8115942,12.0498366 L32.1376812,9.20751634 C36.2318841,7.04575163 36.2318841,7.04575163 36.2318841,0 L39.8550725,0 Z M19.9637681,27.6625817 C21.2681159,27.6625817 22.3188406,27.6625817 22.3188406,27.6625817 C22.3188406,27.6625817 21.2681159,27.6625817 19.9637681,27.6625817 C18.6594203,27.6625817 17.6086957,27.6625817 17.6086957,27.6625817 C17.6086957,27.6625817 18.6594203,27.6625817 19.9637681,27.6625817 Z" id="Shape" transform="translate(19.927536, 24.074653) scale(-1, 1) rotate(-180.000000) translate(-19.927536, -24.074653) "></path>
            </g>
        </g>
    </g>
</svg>