<svg xmlns="http://www.w3.org/2000/svg" viewBox="0 0 192 192"><defs><style>.cls-1,.cls-2{fill:none;stroke:#a51482;stroke-miterlimit:10;}.cls-1{stroke-width:4px;}.cls-2{stroke-width:2px;}.cls-3{fill:#a51482;}</style></defs><title>Vehicle_Info_Icon</title><g id="eMail_icon" data-name="eMail icon"><path class="cls-1" d="M36.64,99.47H26.38A3.38,3.38,0,0,1,23,96.09h0a7.94,7.94,0,0,1,8-7.94H44"/><path class="cls-1" d="M143,99.47h10.57a3.38,3.38,0,0,0,3.38-3.38h0a8,8,0,0,0-4.82-7.31"/><path class="cls-1" d="M35,103c6.49-11.73,19.47-33.9,25-33.9h45.44"/><path class="cls-1" d="M144,103.45a15.89,15.89,0,0,1,15.89,15.89l-4.61,30a7.93,7.93,0,0,1-7.94,7.94H32.49a7.94,7.94,0,0,1-8-7.94l-4.61-30a15.9,15.9,0,0,1,15.89-15.89H144"/><path class="cls-1" d="M26.59,123.11c0-3.88,4.27-7,9.53-7s17.49,7.12,17.49,11-12.22,3.06-17.49,3.06S26.59,127,26.59,123.11Z"/><path class="cls-1" d="M152.45,123.11c0-3.88-4.27-7-9.54-7s-17.49,7.12-17.49,11,12.23,3.06,17.49,3.06S152.45,127,152.45,123.11Z"/><rect class="cls-1" x="58.18" y="129.62" width="63.57" height="14.24" rx="7.01" ry="7.01"/><line class="cls-2" x1="58.18" y1="136.74" x2="121.75" y2="136.74"/><path class="cls-1" d="M137.89,90.75c2.67,4.41,5.13,8.75,7,12.19"/><path class="cls-1" d="M21,126.35v40.16a5.1,5.1,0,0,0,5.1,5.1h8.87a5.1,5.1,0,0,0,5.1-5.1v-9.23"/><path class="cls-1" d="M158.46,129.36v37.15a5.1,5.1,0,0,1-5.1,5.1h-8.87a5.1,5.1,0,0,1-5.1-5.1v-9.23"/><circle class="cls-1" cx="139.25" cy="52.75" r="38.25"/><path class="cls-3" d="M141.14,27.41a1.81,1.81,0,0,1,1.49.75,3.36,3.36,0,0,1,.86,2.39,3.31,3.31,0,0,1-.84,2.37,1.84,1.84,0,0,1-1.51.74,1.89,1.89,0,0,1-1.53-.76,3.26,3.26,0,0,1-.84-2.35,3.31,3.31,0,0,1,.86-2.38,1.84,1.84,0,0,1,1.51-.76m-4.26,17.34c2.12,0,2.8.73,3,1a4.12,4.12,0,0,1,1,3.08c0,.22,0,.81-.13,2.29a16.49,16.49,0,0,1-.43,2.76v0l-2.66,11.29c-.24,1-.46,2.18-.65,3.45a23.54,23.54,0,0,0-.3,3.23,8.4,8.4,0,0,0,1.53,5.36h-.07a3.91,3.91,0,0,1-3.13-1,4,4,0,0,1-1.05-3,20.6,20.6,0,0,1,.13-2.33c.1-.81.25-1.76.46-2.8l2.65-11.28v-.06c.26-1.14.47-2.25.64-3.28a20.24,20.24,0,0,0,.3-3.32,8.58,8.58,0,0,0-1.48-5.36h.16m4.26-21.34a5.82,5.82,0,0,0-4.49,2.1,7.25,7.25,0,0,0-1.88,5,7.19,7.19,0,0,0,1.88,5,5.89,5.89,0,0,0,9,0,7.26,7.26,0,0,0,1.86-5,7.32,7.32,0,0,0-1.86-5,5.79,5.79,0,0,0-4.49-2.1Zm-4.26,17.34a12.73,12.73,0,0,0-4.54.91q-2.4.92-5,2.2l-.71,3.49c.52-.23,1.14-.48,1.86-.74a6.33,6.33,0,0,1,2.13-.39,3.72,3.72,0,0,1,2.86.86,4.72,4.72,0,0,1,.74,3,16.49,16.49,0,0,1-.24,2.66q-.24,1.45-.6,3.09L130.69,67.2c-.24,1.19-.41,2.26-.52,3.2a24.06,24.06,0,0,0-.16,2.78,8,8,0,0,0,2.15,5.76,7.89,7.89,0,0,0,6,2.28,11.5,11.5,0,0,0,4.44-.8c1.27-.53,3-1.3,5.11-2.31l.71-3.5a10.38,10.38,0,0,1-1.77.72,7.18,7.18,0,0,1-2.2.41,4.1,4.1,0,0,1-2.91-.82,4.24,4.24,0,0,1-.84-3.06,20,20,0,0,1,.26-2.64c.17-1.17.37-2.2.58-3.11l2.66-11.3a21.12,21.12,0,0,0,.54-3.42c.1-1.24.14-2.11.14-2.6A8.14,8.14,0,0,0,142.82,43a7.72,7.72,0,0,0-5.94-2.23Z"/></g></svg>