<?xml version="1.0" encoding="UTF-8"?>
<svg width="42px" height="44px" viewBox="0 0 42 44" version="1.1" xmlns="http://www.w3.org/2000/svg" xmlns:xlink="http://www.w3.org/1999/xlink">
    <!-- Generator: Sketch 62 (91390) - https://sketch.com -->
    <title>04_Icons / 48px / Verti Neuron / Filled</title>
    <desc>Created with Sketch.</desc>
    <defs>
        <polygon id="path-1" points="0 0 48 0 48 48 0 48"></polygon>
        <path d="M12.6816177,19.0015069 C12.9551078,19.0006078 13.2297484,18.9563203 13.4928856,18.8706209 C14.1756046,18.6494706 14.7303497,18.1778366 15.0570425,17.5371046 C15.3837353,16.8986732 15.4409641,16.1713791 15.2195261,15.4883725 C14.8586111,14.3705425 13.8250425,13.6231176 12.6499837,13.6296885 C12.3753431,13.6308824 12.1018529,13.6754575 11.8381405,13.7605817 C11.1554216,13.979719 10.6006765,14.4545163 10.2728333,15.0926601 C9.94700327,15.732817 9.88919935,16.4603987 10.1094869,17.1428301 C10.4709771,18.260085 11.5054085,19.0075098 12.6816177,19.0015069 M43.8247026,39.1859673 C42.8037876,40.2065948 41.2471078,40.4723203 39.9435,39.851719 L39.9078399,39.8387778 L26.8064804,33.3978105 C24.8558137,32.5500196 23.1800752,32.1215229 21.831317,32.1295752 C20.6643105,32.1356144 19.7475,32.4643203 19.106768,33.1062026 C18.3932778,33.8191176 18.2388464,34.709183 18.2054869,35.0583072 C18.1997353,35.1287647 17.5745327,41.9536536 17.5705065,41.9988039 C17.4781928,42.9656536 17.0479706,43.8746993 16.3609379,44.5614444 C14.7251732,46.1989346 12.0615915,46.1989346 10.4246765,44.5614444 C9.04946079,43.1859412 8.79897713,41.0676144 9.81529085,39.4079804 L9.81586602,39.4079804 C9.85526471,39.3357974 9.95102942,39.1980458 9.95189216,39.1960327 L12.5372516,35.3801111 L13.0370686,34.617732 C14.6069771,32.308451 15.122036,30.4118497 14.5672909,28.9785425 C13.8779575,27.1952484 12.9381405,26.516268 10.8385065,26.2991438 C10.8385065,26.2991438 5.86909478,25.7691307 4.89850654,25.6635882 C4.37970916,25.6342549 3.9201536,25.4361111 3.57563072,25.0933137 C2.80807517,24.3228824 2.80807517,23.0747778 3.57591831,22.3063595 C3.99348693,21.8890784 4.56778759,21.6848954 5.15617974,21.7401111 L5.15704249,21.7401111 L5.19644118,21.7441373 C5.199317,21.7441373 5.26977451,21.7542026 5.3988987,21.7723203 C10.1143758,22.4029869 12.9067941,22.7710915 13.0583497,22.7811569 C15.1441797,22.8996405 16.704598,21.8036667 17.6455654,20.8609739 C18.1206503,20.3853137 18.5534608,19.8363203 18.9313431,19.2289477 C19.1803889,18.7691046 20.0290425,17.052817 20.2893039,14.6043464 L20.2941928,14.4565294 C20.3810425,12.4339673 19.902219,10.4022026 18.8312647,8.24562745 L18.7447026,8.05582353 L16.9605458,4.64079085 C16.8946895,4.5237451 16.7477353,4.17778431 16.7293301,4.11279085 C16.5472909,3.58133987 16.7201275,2.9460719 17.1696177,2.49715686 C17.8322059,1.83428105 18.9106373,1.83428105 19.5735131,2.49715686 C19.7521013,2.67545752 19.886402,2.89545752 19.9729641,3.14852941 L21.3366765,6.94748366 C22.1643366,9.25273856 24.4339314,9.58403268 25.7136699,9.5774183 C27.6893562,9.56764052 29.936232,8.77650327 31.7255654,7.46455556 L33.6911863,6.02032026 C34.3710294,5.56162745 35.2769118,5.64502614 35.8586895,6.22824183 C36.5278922,6.89686928 36.5278922,7.98536601 35.8586895,8.65543137 C35.7626373,8.75004575 35.6530686,8.83344444 35.5112909,8.91684314 C35.4601013,8.94301307 35.3119967,9.01835948 35.2527549,9.0430915 C35.0405196,9.14144444 31.3635,10.8580196 31.1949771,10.9342288 C30.5085196,11.2511438 29.9508987,11.6117712 29.5853824,11.9793007 C29.2773824,12.2855752 29.1031078,12.5987516 29.0812516,12.8843203 C29.0231601,13.6308824 29.8646242,14.4916144 30.7276569,14.953183 L32.4085719,15.783719 C32.5868726,15.8679804 32.7976699,15.9801373 32.9736699,16.1552745 C33.6342451,16.8155621 33.6342451,17.892268 32.972232,18.5528431 C32.3637092,19.1593529 31.395134,19.2116928 30.7216177,18.6716144 C30.159683,18.2019935 29.3141928,17.4948301 29.2719183,17.4637712 L29.0976438,17.3268824 C28.295866,16.7005294 27.0854346,15.7535229 25.944598,15.761 C25.3628203,15.7638758 24.8155523,16.0192484 24.3157353,16.5182026 C23.9585588,16.8762418 23.6157614,17.3671438 23.2988464,17.9796928 C23.279866,18.0167908 21.3628464,21.7993529 23.3339314,25.3578889 C24.219683,26.9579935 26.2465588,29.1344118 30.8665588,30.4127124 L42.2898791,33.470281 L42.2927549,33.4743072 C42.875683,33.6301765 43.4028203,33.9338627 43.8247026,34.3554575 C45.1562059,35.6869608 45.1562059,37.8533137 43.8247026,39.1859673" id="path-3"></path>
    </defs>
    <g id="RC1-—-Advanced-Quick-Quote-—-EDITABLE" stroke="none" stroke-width="1" fill="none" fill-rule="evenodd">
        <g id="AdvancedQuote_376px-/-Overview" transform="translate(-19.000000, -534.000000)">
            <g id="Verti-Perks" transform="translate(0.000000, 512.000000)">
                <g id="05_Inputs-/-Summary-/-Driver-/-Included-Copy">
                    <g id="Left-Aligned" transform="translate(16.000000, 19.291667)">
                        <g id="04_Icons-/-48px-/-Verti-Neuron-/-Filled" transform="translate(0.000000, 0.708333)">
                            <g id="VertiNeuron_Filled">
                                <mask id="mask-2" fill="white">
                                    <use xlink:href="#path-1"></use>
                                </mask>
                                <g id="Clip-2"></g>
                                <mask id="mask-4" fill="white">
                                    <use xlink:href="#path-3"></use>
                                </mask>
                                <use id="Fill-1" fill="#A51482" xlink:href="#path-3"></use>
                                <g id="00_Basics-/-Colors-/-Gray-/-700" mask="url(#mask-4)" fill="#777770">
                                    <rect id="Rectangle-2" x="0" y="0" width="48" height="48"></rect>
                                </g>
                            </g>
                        </g>
                    </g>
                </g>
            </g>
        </g>
    </g>
</svg>