<?xml version="1.0" encoding="utf-8"?>
<!-- Generator: Adobe Illustrator 22.1.0, SVG Export Plug-In . SVG Version: 6.00 Build 0)  -->
<svg version="1.1" id="Layer_1" xmlns="http://www.w3.org/2000/svg" xmlns:xlink="http://www.w3.org/1999/xlink" x="0px" y="0px"
	 viewBox="0 0 364 125" style="enable-background:new 0 0 364 125;" xml:space="preserve">
<style type="text/css">
	.st0{fill:none;}
	.st1{fill:#76777A;}
	.st2{fill:#FFB333;}
	.st3{fill:url(#SVGID_2_);}
	.st4{fill:url(#SVGID_3_);}
	.st5{fill:url(#SVGID_5_);}
	.st6{fill:url(#SVGID_6_);}
	.st7{fill:url(#SVGID_7_);}
	.st8{fill:url(#SVGID_8_);}
	.st9{fill:url(#SVGID_9_);}
</style>
<g>
	<rect x="0.5" y="-0.5" class="st0" width="363" height="125"/>
	<g>
		<path class="st1" d="M160.8,64.4c-4.1,11.7-11,27.2-17.9,36.9h-3c-4.6,0-7-1.7-10.1-6.4c-8.4-13.2-18.9-41-20.3-58.3h8.2
			c5.3,0,8.6,4.2,9.2,7.6c2.2,11.9,5.3,24.2,11.8,37.3c5.8-12,11.2-28.9,13.5-44.9h6.5c5.3,0,7.2,2.4,7.2,7.6
			C166,46,164.5,53.7,160.8,64.4"/>
		<path class="st1" d="M194.4,75.4h-10.1c1.1,8.1,8.2,13.2,17.3,13.2c6.4,0,14-1.3,18.9-6h0.6v5c0,8.2-5.4,14.5-22.3,14.5
			c-15.4,0-30.4-12.6-30.4-32.1c0-21.3,12.6-34.7,30.2-34.7c12.8,0,24.7,9.5,24.7,24.8C223.4,71.6,214.8,75.4,194.4,75.4
			 M197.3,48.4c-7.4,0-12.6,6.3-12.9,13.6l-0.1,2.1h6.9c14.5,0,17.9-1.7,17.9-6.2C209,51.6,204.4,48.4,197.3,48.4"/>
		<path class="st1" d="M265.5,52c-2.3-0.9-4.9-1.9-8.9-1.9c-6.9,0-10.7,3.9-10.7,13.6v36.8h-4.2c-6.9,0-11.2-3.6-11.2-10.2V60.9
			c0-12.8,6.5-25,22.8-25c9.5,0,12.8,5.6,12.8,10.4V52H265.5z"/>
		<path class="st1" d="M276.7,26.4c2.1-2.5,4.8-4.4,7.2-4.4h3.5v14.5h21.4V43c0,3.3-2.9,7.6-9.2,7.6h-12.3v25
			c0,8.3,3.6,11.5,9.7,11.5c4.9,0,8.7-0.7,11.1-2.3h0.6v5.7c0,6.5-4.6,10.7-13.5,10.7c-15.6,0-23.1-8.8-23.1-23.7V39.1
			C272.3,32.8,273.4,30.5,276.7,26.4"/>
		<path class="st1" d="M335.5,101.1c-11.9,0-18.4-7-18.4-19.9V37.9h4.4c6.9,0,11,3.8,11,11.9v29.9c0,6.4,2.6,8.4,9.4,8.4h2.9v3.4
			C344.7,98.4,342,101.1,335.5,101.1"/>
		<g id="Neuron">
			<path class="st2" d="M37.7,48.4L37.7,48.4c-2.9,0-5.4-1.8-6.3-4.6c-0.5-1.7-0.4-3.5,0.4-5.1c0.8-1.6,2.2-2.7,3.9-3.3
				c0.6-0.2,1.3-0.3,2-0.3c2.9,0,5.4,1.8,6.3,4.6c0.5,1.7,0.4,3.5-0.4,5.1c-0.8,1.6-2.2,2.7-3.9,3.3C39.1,48.3,38.4,48.4,37.7,48.4"
				/>
			<g>
				<g>
					<path class="st2" d="M114.5,86.2c-0.4-0.4-0.9-0.8-1.4-1.1c-0.8-0.5-1.6-0.9-2.4-1.1l-28.2-7.5C71.1,73.3,66.1,67.9,63.9,64
						c-4.9-8.8-0.1-18.1-0.1-18.2c0.8-1.5,1.6-2.7,2.5-3.6c1.2-1.3,2.6-1.9,4-1.9c2.8,0,5.8,2.4,7.8,3.9l0.4,0.3
						c0.1,0.1,2.2,1.8,3.6,3c1.7,1.3,4.1,1.2,5.6-0.3c1.6-1.6,1.6-4.3,0-5.9c-0.4-0.4-1-0.7-1.4-0.9l-4.1-2
						c-2.2-1.1-4.2-3.3-4.1-5.1c0-0.7,0.4-1.4,1.2-2.2c0.9-0.9,2.3-1.8,4-2.6c0.4-0.2,9.5-4.5,10-4.7c0.1,0,0.5-0.2,0.6-0.3
						c0.4-0.2,0.7-0.4,0.9-0.6c1.6-1.7,1.6-4.4,0-6c-1.4-1.4-3.6-1.6-5.3-0.5L84.7,20c-4.4,3.2-9.9,5.2-14.8,5.2
						c-3.2,0-8.8-0.8-10.8-6.5l-3.4-9.4c-0.2-0.6-0.6-1.2-1-1.6c-1.6-1.6-4.3-1.6-5.9,0c-1.1,1.1-1.5,2.7-1.1,4
						c0.1,0.2,0.4,1,0.6,1.3l4.3,8.4l0.2,0.5c2.6,5.3,3.8,10.3,3.6,15.3v0.4c-0.6,6-2.7,10.3-3.3,11.4c-1,1.5-2,2.8-3.2,4
						c-2.3,2.3-6.2,5-11.3,4.7c-0.4,0-7.3-0.9-18.9-2.5c-0.3-0.1-0.5-0.1-0.5-0.1h-0.1c-1.5-0.1-2.9,0.4-3.9,1.4
						c-1.9,1.9-1.9,5,0,6.9c0.9,0.8,2,1.3,3.3,1.4c2.3,0.3,14.6,1.6,14.6,1.6c5.2,0.5,7.5,2.2,9.2,6.6c1.3,3.5,0.1,8.2-3.8,13.9
						l-1.2,1.9l-6.4,9.4c0,0-0.2,0.3-0.3,0.5c-2.5,4.1-1.9,9.3,1.5,12.7c4,4,10.6,4,14.6,0c1.7-1.7,2.8-3.9,3-6.3
						c0-0.1,1.6-16.9,1.6-17.1c0.1-0.8,0.4-3,2.2-4.8c1.6-1.6,3.8-2.4,6.7-2.4c3.4,0,7.5,1,12.3,3.1l24.4,12l8,3.9h0.1
						c1.1,0.5,2.4,0.8,3.6,0.8h0.1c1.1,0,2.1-0.2,3.1-0.6h0.1c0.7-0.3,1.3-0.7,1.9-1.1c0.2-0.2,0.4-0.3,0.6-0.5
						c0.1-0.1,0.1-0.1,0.2-0.2C117.8,94.8,117.8,89.6,114.5,86.2z"/>
				</g>
				<path class="st2" d="M114.5,98.2L114.5,98.2c0,0-0.1,0.1-0.2,0.1C114.4,98.3,114.5,98.2,114.5,98.2z"/>
				<g>
					
						<linearGradient id="SVGID_2_" gradientUnits="userSpaceOnUse" x1="113.8704" y1="27.45" x2="114.286" y2="27.45" gradientTransform="matrix(1 0 0 -1 0 126)">
						<stop  offset="0" style="stop-color:#FFFFFF"/>
						<stop  offset="1" style="stop-color:#FFA100"/>
					</linearGradient>
					<path class="st3" d="M114.3,98.3c-0.2,0.2-0.4,0.3-0.6,0.5C114,98.7,114.2,98.5,114.3,98.3z"/>
				</g>
				<g>
					
						<linearGradient id="SVGID_3_" gradientUnits="userSpaceOnUse" x1="111.9" y1="26.0778" x2="111.9" y2="26.0778" gradientTransform="matrix(1 0 0 -1 0 126)">
						<stop  offset="0" style="stop-color:#FFFFFF"/>
						<stop  offset="1" style="stop-color:#FFA100"/>
					</linearGradient>
					<path class="st4" d="M111.9,99.9C111.9,99.9,111.9,100,111.9,99.9C111.9,100,111.9,99.9,111.9,99.9z"/>
				</g>
			</g>
		</g>
		<path class="st2" d="M334,22.8c0,5.2-4.2,9.4-9.4,9.4c-5.2,0-9.4-4.2-9.4-9.4s4.2-9.4,9.4-9.4C329.8,13.4,334,17.6,334,22.8"/>
		<g>
			<radialGradient id="SVGID_5_" cx="324" cy="13.125" r="20.041" gradientUnits="userSpaceOnUse">
				<stop  offset="0.2858" style="stop-color:#FFA100"/>
				<stop  offset="0.4559" style="stop-color:#FF9E00"/>
				<stop  offset="0.5863" style="stop-color:#FF9400"/>
				<stop  offset="0.7031" style="stop-color:#FF8400"/>
				<stop  offset="0.73" style="stop-color:#FF7F00"/>
			</radialGradient>
			<path class="st5" d="M326.4,13.6C326.4,13.6,326.4,13.6,326.4,13.6c1,1.5,1.6,3.3,1.6,5.2c0,5.2-4.2,9.4-9.4,9.4
				c-0.6,0-1.2-0.1-1.8-0.2c0,0,0,0-0.1,0c1.5,2.3,3.9,3.8,6.8,4.2c0.4,0,0.7,0.1,1.1,0.1c5.2,0,9.4-4.2,9.4-9.4
				C334,18.2,330.7,14.4,326.4,13.6z"/>
		</g>
	</g>
</g>
<g>
	<g>
		<g>
			<g>
				<g>
					
						<linearGradient id="SVGID_6_" gradientUnits="userSpaceOnUse" x1="58.8" y1="79.9625" x2="96.175" y2="79.9625" gradientTransform="matrix(1 0 0 -1 0 126)">
						<stop  offset="0" style="stop-color:#FF8D00"/>
						<stop  offset="0.3313" style="stop-color:#FFA100"/>
						<stop  offset="0.9779" style="stop-color:#FF7F00"/>
					</linearGradient>
					<path id="SVGID_1_" class="st6" d="M89.5,16.4L84.6,20c-4.4,3.2-9.9,5.2-14.8,5.2c-8.1,13-11,22.7-11,30v0.1
						c0,18.8,20,20.9,22.5,21h0.1c0.1,0,0.1,0,0.1,0C70.8,73.1,66.1,67.9,64,64.1c-4.9-8.8-0.1-18.1-0.1-18.2
						c0.8-1.5,1.6-2.7,2.5-3.6c1.2-1.2,2.6-1.9,4-1.9c2.8,0,5.8,2.3,7.8,3.9l0.4,0.3c0.1,0.1,2.2,1.8,3.6,3c1.7,1.3,4.1,1.2,5.6-0.3
						c1.6-1.6,1.6-4.3,0-5.9c-0.4-0.4-0.9-0.7-1.4-0.9l-4.1-2c-2.1-1.1-4.2-3.3-4.1-5.1c0.1-0.7,0.5-1.5,1.2-2.2
						c0.9-0.9,2.3-1.8,4-2.6c0.4-0.2,9.5-4.4,10-4.7c0.1-0.1,0.5-0.2,0.6-0.3c0.3-0.2,0.6-0.4,0.9-0.6c1.7-1.6,1.7-4.3,0-6
						c-0.8-0.8-1.9-1.2-3-1.2C91,15.7,90.2,15.9,89.5,16.4"/>
				</g>
			</g>
		</g>
	</g>
</g>
<g>
	<g>
		<g>
			<g>
				<g>
					
						<linearGradient id="SVGID_7_" gradientUnits="userSpaceOnUse" x1="61.7305" y1="8.4307" x2="48.0208" y2="46.0651" gradientTransform="matrix(1 0 0 -1 0 126)">
						<stop  offset="0" style="stop-color:#FF8D00"/>
						<stop  offset="0.3313" style="stop-color:#FFA100"/>
						<stop  offset="0.9779" style="stop-color:#FF7F00"/>
					</linearGradient>
					<path id="SVGID_4_" class="st7" d="M48.3,96.1C46.2,120,32,99.5,30.7,98.7l0,0c-1,1.7-1.5,3.5-1.5,5.4l0,0c0,2.7,1,5.3,3,7.3
						s4.6,3,7.2,3h0.1c2.6,0,5.2-1,7.2-3c1.7-1.7,2.8-3.9,3-6.3c0-0.1,1.6-16.9,1.6-17.1c0.1-0.9,0.5-3.1,2.2-4.8
						c1.6-1.6,3.8-2.4,6.7-2.4c3.3,0,7.5,1,12.3,3.1l6.4,3.1C67.7,78.8,60.5,75.7,56,75.7C46.3,75.8,48.8,90.1,48.3,96.1"/>
				</g>
			</g>
		</g>
	</g>
</g>
<g>
	
		<linearGradient id="SVGID_8_" gradientUnits="userSpaceOnUse" x1="100.3232" y1="33.1" x2="114.9688" y2="33.1" gradientTransform="matrix(1 0 0 -1 0 126)">
		<stop  offset="0" style="stop-color:#FF8D00"/>
		<stop  offset="0.3313" style="stop-color:#FFA100"/>
		<stop  offset="0.9779" style="stop-color:#FF7F00"/>
	</linearGradient>
	<path class="st8" d="M96.9,95.9l8,3.9h0.1c1.1,0.5,2.4,0.8,3.6,0.8h0.1c1.1,0,2.1-0.2,3.1-0.6h0.1c0.7-0.3,1.3-0.7,1.9-1.1
		c0.2-0.2,0.4-0.3,0.6-0.5c0.1-0.1,0.1-0.1,0.2-0.2c3.3-3.3,3.2-8.6,0-11.9c-0.4-0.4-0.9-0.8-1.4-1.1
		C116.3,102.2,96.9,95.9,96.9,95.9z"/>
</g>
<g>
	<g>
		<g>
			<g>
				<g>
					
						<linearGradient id="SVGID_9_" gradientUnits="userSpaceOnUse" x1="13.8626" y1="60.05" x2="42.6" y2="60.05" gradientTransform="matrix(1 0 0 -1 0 126)">
						<stop  offset="0" style="stop-color:#FF8D00"/>
						<stop  offset="0.3313" style="stop-color:#FFA100"/>
						<stop  offset="0.9779" style="stop-color:#FF7F00"/>
					</linearGradient>
					<path id="SVGID_10_" class="st9" d="M15.3,63.4c0.8,0.8,2,1.3,3.3,1.4c2.4,0.3,14.6,1.6,14.6,1.6c5.2,0.5,7.5,2.2,9.2,6.6
						c0.1,0.2,0.2,0.5,0.2,0.7C41.9,62.3,24.4,62.9,20.2,63s-6-4.8-6-4.8C13.5,60,13.9,62,15.3,63.4"/>
				</g>
			</g>
		</g>
	</g>
</g>
</svg>
