<?xml version="1.0" encoding="UTF-8"?>
<svg width="90px" height="80px" viewBox="0 0 90 80" version="1.1" xmlns="http://www.w3.org/2000/svg" xmlns:xlink="http://www.w3.org/1999/xlink">
    <!-- Generator: sketchtool 61 (101010) - https://sketch.com -->
    <title>67097F51-55FA-4629-A0B7-3270DF931248</title>
    <desc>Created with sketchtool.</desc>
    <g id="KOs" stroke="none" stroke-width="1" fill="none" fill-rule="evenodd">
        <g id="ADPF_Fail_768-/-InternalCall" transform="translate(-339.000000, -104.000000)" fill="#8B1863" fill-rule="nonzero">
            <g id="np_warning_1204680_8B1863" transform="translate(339.000000, 104.000000)">
                <path d="M88.339901,71.4168889 L49.3164356,3.21866667 C48.3939802,1.5312 46.5526337,0.461680487 44.5546337,0.461680487 C42.5566337,0.458216889 40.8684653,1.53111111 39.7928317,3.21866667 L0.769366337,71.4168889 C-0.153089109,73.1043556 -0.153089109,75.0939556 0.769366337,76.7815111 C1.69182178,78.4689778 3.53316832,79.5384889 5.53116832,79.5384889 L83.7313663,79.5384889 C85.7293663,79.5384889 87.4175347,78.4656 88.4931683,76.7815111 C89.4156238,75.0975111 89.4156238,73.1044444 88.3400079,71.4168889 L88.339901,71.4168889 Z M85.4230099,75.0974222 C85.2698495,75.4029778 84.806902,76.1703111 83.7313663,76.1703111 L5.37790099,76.1703111 C4.30235644,76.1703111 3.84282178,75.4029511 3.68625743,75.0974222 C3.53309703,74.7918667 3.22679406,74.0245333 3.68625743,73.1043556 L42.8629901,4.90257778 C43.3224624,3.9824 44.2448911,3.82968889 44.5546337,3.82968889 C44.8609455,3.82968889 45.7833564,3.98247111 46.2462772,4.90257778 L85.4230099,73.1008 C85.8824733,74.0244444 85.5761703,74.7882667 85.4230099,75.0973333 L85.4230099,75.0974222 Z" id="Shape"></path>
                <path d="M38.5636634,24.6737778 L40.0987426,54.4062222 C40.251903,56.8576 42.2499208,58.6978667 44.5541881,58.6978667 C46.8584554,58.6978667 48.8564554,56.8576 49.0096337,54.4062222 L50.5447129,24.6737778 C50.6978733,21.4550222 48.2404455,18.5418667 44.7073663,18.3890667 C41.021198,18.2362844 38.2539208,21.1495111 38.5637525,24.6737778 L38.5636634,24.6737778 Z M45.6297327,54.1004444 C45.6297327,54.7150311 45.1702693,55.1733333 44.5541881,55.1733333 C43.9381069,55.1733333 43.4786436,54.7150044 43.4786436,54.1004444 L41.9435644,24.5208889 C41.7904129,22.9896 43.0191089,21.7639111 44.5541881,21.7639111 C46.0892673,21.7639111 47.3179901,22.9896 47.1648119,24.5208889 L45.6297327,54.1004444 Z" id="Shape"></path>
                <path d="M44.5544554,61.9164444 C41.7906535,61.9164444 39.3297327,64.2150222 39.3297327,67.1282667 C39.3297327,70.0379556 41.7906535,72.1838222 44.5544554,72.1838222 C47.3182574,72.1838222 49.7791782,69.8852444 49.7791782,66.972 C49.7791782,64.0623111 47.3182574,61.9164444 44.5544554,61.9164444 Z M44.5544554,68.6594667 C43.632,68.6594667 42.8628119,67.8921067 42.8628119,66.972 C42.8628119,66.0518933 43.6320713,65.2845333 44.5544554,65.2845333 C45.4768396,65.2845333 46.246099,66.0518933 46.246099,66.972 C46.246099,67.8921067 45.4768396,68.6594667 44.5544554,68.6594667 Z" id="Shape"></path>
            </g>
        </g>
    </g>
</svg>