<?xml version="1.0" encoding="UTF-8"?>
<svg width="177px" height="88px" viewBox="0 0 177 88" version="1.1" xmlns="http://www.w3.org/2000/svg" xmlns:xlink="http://www.w3.org/1999/xlink">
    <!-- Generator: sketchtool 53.1 (72631) - https://sketchapp.com -->
    <title>79C65A6B-B45E-46EA-8747-809FC414E142</title>
    <desc>Created with sketchtool.</desc>
    <g id="Errors" stroke="none" stroke-width="1" fill="none" fill-rule="evenodd">
        <g id="Error-/-Timeout_376px" transform="translate(-100.000000, -172.000000)" fill="#006580">
            <g id="Group" transform="translate(24.000000, 68.000000)">
                <g id="Blink-Icon" transform="translate(76.000000, 104.000000)">
                    <path d="M57.0266568,16.1826108 C58.4563846,15.3724495 59.8173095,14.4435318 61.0958821,13.4028664 L64.3540778,17.5375283 L64.3540778,17.5445193 C65.2132871,18.3546806 66.5262083,18.4175453 67.4540797,17.6841949 C68.3820214,16.9508444 68.6501064,15.6448455 68.0864505,14.5970998 L64.5190816,9.95251118 C66.84923,7.17276679 68.1483907,3.65280618 68.2034682,0 L63.4124283,0 C63.4124283,9.10036853 50.0775109,16.7830621 34.2741354,16.7830621 C18.4783265,16.790053 5.17103931,9.10036853 5.17103931,0 L0.38,0 C0.448736041,3.87630142 1.89908353,7.59883812 4.4766755,10.4624379 L1.2872832,14.5970998 C0.68927864,15.6517113 0.950465718,16.9926112 1.89904833,17.7399793 C2.85449312,18.4803028 4.19488275,18.396501 5.04726448,17.5444299 L7.96866033,13.7938222 C9.30215207,14.8274787 10.7249996,15.7494949 12.2098049,16.5456744 L10.4570202,21.0924615 C10.1958155,21.7000825 10.1820726,22.3915231 10.4364005,23.0061171 C10.6838446,23.6137381 11.1650074,24.1026384 11.7698922,24.3400976 C12.3816573,24.5845478 13.062155,24.5635929 13.6532617,24.2842238 C14.2444035,24.0118457 14.6980628,23.4949996 14.9111406,22.8664237 L16.5883301,18.5361587 C18.3342451,19.2066444 20.1145158,19.7583916 21.9292583,20.1914181 L21.3037502,25.2760242 C21.2212747,25.9185819 21.3999863,26.5681127 21.7917757,27.0779322 C22.1767024,27.5877874 22.7541013,27.9230303 23.3864721,27.9998411 L23.695786,27.9998411 C24.9055557,28.0138051 25.9365434,27.1058601 26.0947373,25.8836094 L26.6927419,21.0155255 L26.6927419,21.0225164 C28.5761113,21.2809306 30.4663435,21.4415789 32.3636143,21.5044258 L32.3636143,25.5412862 C32.3636143,26.8892486 33.435919,27.9788147 34.7625656,27.9788147 C36.0823144,27.9788147 37.1546542,26.8892664 37.1546542,25.5412862 L37.1546542,21.5813082 C39.0448864,21.4835245 40.9351185,21.2879751 42.8047626,20.9946421 L43.4027672,25.862726 C43.5608731,27.0779858 44.5850509,27.9859308 45.7948558,27.9789577 L46.11105,27.9789577 C46.7434384,27.8951381 47.3139394,27.5668861 47.7057464,27.0570488 C48.0975534,26.5402205 48.2693847,25.8976628 48.1937719,25.2551408 L47.5476405,20.0030027 L47.5407778,19.9960117 C49.3278936,19.5280663 51.0806959,18.9414003 52.7854594,18.2499597 L54.5588498,22.8455581 C54.7719276,23.474134 55.2256044,23.9839893 55.8167287,24.2633583 C56.4147333,24.5427274 57.0883682,24.5636823 57.7000982,24.3192321 C58.304983,24.074782 58.7930085,23.5928726 59.0404702,22.9782607 C59.2879143,22.3636488 59.2741713,21.6722081 59.0129666,21.0715781 L57.0266568,16.1826108 Z" id="Eye-L"></path>
                    <path d="M176.140311,14.5970159 L172.570114,9.95245398 C174.902109,7.17272557 176.209168,3.65278519 176.264289,0 L171.469451,0 C171.469451,9.10031623 158.123961,16.7829656 142.308056,16.7829656 C126.499724,16.7899565 113.174838,9.10031623 113.174838,0 L108.38,0 C108.448787,3.87627914 109.907174,7.59879445 112.479924,10.4623778 L109.294871,14.5970159 C108.517521,15.6516213 108.70326,17.1323314 109.714496,17.9563983 C110.718846,18.7805367 112.190899,18.640844 113.03022,17.6351212 L115.974537,13.9126059 L115.981405,13.9195968 C117.322839,14.9113557 118.739929,15.7844304 120.218868,16.5457402 L118.471561,21.0925012 C118.203281,21.7001187 118.196396,22.3915553 118.444054,23.0061458 C118.691694,23.6137633 119.180124,24.1026608 119.785488,24.3401187 C120.390853,24.5845674 121.07189,24.5636126 121.663483,24.2842452 C122.261962,24.0118686 122.715998,23.4950254 122.929245,22.8664532 L124.607746,18.5362131 L124.600861,18.5362131 C126.348167,19.206695 128.136717,19.758439 129.94603,20.191463 L129.320026,25.2760398 L129.326912,25.2760398 C129.244354,25.9185939 129.416339,26.568121 129.808456,27.0779375 C130.200574,27.5877898 130.778413,27.9230307 131.411303,27.9998411 L131.720862,27.9998411 C132.931591,28.013805 133.956528,27.1058653 134.114847,25.8836215 L134.713326,21.0155656 L134.713326,21.0225386 C136.598189,21.2809513 138.496787,21.4415987 140.395563,21.5044452 L140.395563,25.5412824 C140.395563,26.8892371 141.468717,27.9787969 142.789548,27.9787969 C144.110378,27.9787969 145.183533,26.8892549 145.183533,25.5412824 L145.183533,21.5813272 C147.082132,21.4835441 148.966994,21.2879958 150.838121,20.9946645 L151.436599,25.8627204 C151.594813,27.0779732 152.626689,27.985913 153.837453,27.9789399 L154.147012,27.9789399 C154.779884,27.8951387 155.357741,27.5668707 155.749858,27.0570363 C156.13509,26.540211 156.313944,25.897657 156.231403,25.2551387 L155.584759,20.0030307 L155.584759,19.9960577 C157.366424,19.528115 159.120616,18.9414523 160.833599,18.2500157 L162.608395,22.8455878 L162.601509,22.8455878 C162.814756,23.47416 163.275661,23.9840123 163.867271,24.2633798 C164.458882,24.5427472 165.139919,24.563702 165.745266,24.3192533 C166.357516,24.0748045 166.839043,23.5928979 167.086701,22.9782895 C167.334358,22.3636812 167.327473,21.6722445 167.059193,21.0716179 L165.167462,16.203562 C166.598323,15.3933875 167.960327,14.4714839 169.239914,13.4308066 L172.500693,17.5654448 C173.374337,18.2708453 174.612556,18.2638544 175.486218,17.551463 C176.352994,16.8460624 176.62816,15.6168993 176.13973,14.5972305 L176.140311,14.5970159 Z" id="Eye-R"></path>
                    <path d="M87.9994742,83.3310469 C72.979161,83.3310469 61.7718057,78.4076138 61.7718057,74 L57,74 C57,81.9778788 70.3294041,88 88,88 C105.66972,88 119,81.9780502 119,74 L114.228194,74 C114.228194,78.4076138 103.02119,83.3310469 88.0005258,83.3310469 L87.9994742,83.3310469 Z" id="Mouth"></path>
                </g>
            </g>
        </g>
    </g>
</svg>