<?xml version="1.0" encoding="UTF-8"?>
<svg width="90px" height="27px" viewBox="0 0 90 27" version="1.1" xmlns="http://www.w3.org/2000/svg" xmlns:xlink="http://www.w3.org/1999/xlink">
    <!-- Generator: sketchtool 53.2 (72643) - https://sketchapp.com -->
    <title>6F69EE12-D58B-4EFD-A677-B580FDEAB115</title>
    <desc>Created with sketchtool.</desc>
    <defs>
        <path d="M3.02784,29.2856318 C4.41454,28.0512318 6.32474,27.7504318 10.02784,26.6645318 C13.73484,25.5786318 17.92624,23.5200318 23.42984,21.7231318 C28.93344,19.9262318 33.27754,20.0004318 35.26184,20.0004318 C37.24614,20.0004318 41.88684,20.0004318 44.91804,21.1996318 C47.94924,22.3988318 56.52304,28.0512318 56.52304,28.0512318 C67.60504,27.7895118 76.61304,28.7934218 80.78104,29.5473318 C89.335736,31.0981318 91.008036,34.1645318 91.008036,37.3637318 C91.008036,40.5590318 90.707256,41.9301318 90.383036,42.6801318 C90.058816,43.4301318 86.090036,43.7543318 84.24244,43.8559318 C84.04713,43.8676518 83.73072,43.8754618 83.32838,43.8832718 C84.05885,42.6918718 84.47678,41.2894718 84.47678,39.7934718 C84.47678,35.4575718 80.94948,31.9340818 76.61348,31.9340818 C72.27758,31.9340818 68.75018,35.4613718 68.75018,39.7934718 C68.75018,41.3246718 69.19159,42.7543718 69.94938,43.9653718 C69.05485,43.9653718 68.33998,43.9692818 67.90248,43.9692818 L28.10548,43.9692818 C27.78517,43.9692818 27.11329,43.9497518 26.21098,43.9106918 C26.94926,42.7114918 27.37508,41.3051918 27.37508,39.7934918 C27.37508,35.4575918 23.84778,31.9340918 19.51568,31.9340918 C15.17978,31.9340918 11.65238,35.4613918 11.65238,39.7934918 C11.65238,41.0512918 11.94926,42.2426918 12.4766,43.2973918 C11.79301,43.2700418 11.2969,43.2544218 11.0704,43.2544218 C9.5352,43.2544218 4.3321,41.4927218 3.0977,39.7935218 C1.8633,38.0943218 1,35.5787218 1,33.7466218 C1.00781,31.9068218 1.64453,30.5239218 3.0273,29.2857218 L3.02784,29.2856318 Z M31.14484,27.6997318 C40.61364,27.9887918 49.51584,28.0005118 49.51584,28.0005118 C46.44554,25.2310118 43.57444,21.9536118 35.30084,21.9536118 C25.90634,21.9536118 22.72284,24.0864118 19.72684,25.3598118 C19.72684,25.3559018 21.41044,27.3989118 31.14484,27.6996118 L31.14484,27.6997318 Z M19.48444,33.2656318 C23.08604,33.2656318 26.00784,36.1875318 26.00784,39.7890318 C26.00784,43.3906318 23.08594,46.3124318 19.48444,46.3124318 C15.88284,46.3124318 12.96104,43.3905318 12.96104,39.7890318 C12.96104,36.1835318 15.88294,33.2656318 19.48444,33.2656318 Z M19.48444,43.0156318 C21.26564,43.0156318 22.71104,41.5703318 22.71104,39.7890318 C22.71104,38.0077318 21.26574,36.5624318 19.48444,36.5624318 C17.69924,36.5624318 16.25784,38.0077318 16.25784,39.7890318 C16.25784,41.5703318 17.70314,43.0156318 19.48444,43.0156318 Z M76.48444,33.2656318 C80.08994,33.2656318 83.00784,36.1875318 83.00784,39.7890318 C83.00784,43.3906318 80.08594,46.3124318 76.48444,46.3124318 C72.88294,46.3124318 69.96104,43.3905318 69.96104,39.7890318 C69.96104,36.1835318 72.87904,33.2656318 76.48444,33.2656318 Z M76.48444,43.0156318 C78.26564,43.0156318 79.71104,41.5703318 79.71104,39.7890318 C79.71104,38.0077318 78.26574,36.5624318 76.48444,36.5624318 C74.70314,36.5624318 73.25784,38.0077318 73.25784,39.7890318 C73.25393,41.5702318 74.69924,43.0156318 76.48444,43.0156318 Z" id="path-1"></path>
    </defs>
    <g id="Vehicle-Summary" stroke="none" stroke-width="1" fill="none" fill-rule="evenodd">
        <g id="Vehicle-Icons" transform="translate(-691.000000, -377.000000)">
            <g id="04_Icons-/-Vehicles-/-Coupe" transform="translate(690.000000, 357.000000)">
                <mask id="mask-2" fill="white">
                    <use xlink:href="#path-1"></use>
                </mask>
                <use id="Combined-Shape" fill="#4C4C4C" fill-rule="evenodd" xlink:href="#path-1"></use>
                <g id="00_Basics-/-Colors-/-Gray-/-700" mask="url(#mask-2)" fill="#777770" fill-rule="evenodd">
                    <g transform="translate(-5.000000, -26.000000)" id="Rectangle-2">
                        <rect x="0" y="0" width="101" height="101"></rect>
                    </g>
                </g>
            </g>
        </g>
    </g>
</svg>