<?xml version="1.0" encoding="UTF-8"?>
<svg width="68px" height="68px" viewBox="0 0 68 68" version="1.1" xmlns="http://www.w3.org/2000/svg" xmlns:xlink="http://www.w3.org/1999/xlink">
    <!-- Generator: sketchtool 54.1 (76490) - https://sketchapp.com -->
    <title>4E50E43B-9FD9-4949-A2EF-AAA1AC5FD785</title>
    <desc>Created with sketchtool.</desc>
    <defs>
        <path d="M19,54.187635 L19,39 L18.5824119,39 C16.5935047,39 15,37.3341994 15,35.3005684 L15,32.6994316 C15,30.6658006 16.5935047,29 18.5824119,29 L19.0558294,29 C19.7769951,20.5817875 26.6504761,14 35,14 L35,16 C27.7637194,16 21.7759239,21.6801673 21.0641725,29 L23,29 L23,39 L22.5755891,39 C23.056133,39.8732464 23.64118,40.6849809 24.3143036,41.4232374 C24.1088932,40.5633019 24,39.6647801 24,38.7404548 L24,29.3155972 L24.7775261,29.1381714 C24.8340232,29.1252791 24.9792748,29.0779286 25.1827844,28.9850498 C25.5407796,28.821666 25.9018531,28.5909618 26.2393576,28.2828975 C27.2270656,27.3813463 27.8270344,26.0122613 27.8270344,24 L29.8096968,24.1854041 C29.8099354,24.1841394 29.8068364,24.205045 29.8026249,24.2456338 C29.7331445,24.9152658 29.8705672,25.7342523 30.3856889,26.5128628 C31.5255094,28.2357104 34.1981401,29.273946 39.0601495,29.1132832 L46,29.2424598 L46,38.7404548 C46,42.2347394 44.4437916,45.3602618 42,47.4264249 L42,52.1532814 C44.3745709,52.4720103 46.7122202,52.952422 49,53.5882419 L49,30 L51,30 L51,54.1877061 C54.5827371,55.3406566 58.0302916,56.8804266 61.2909013,58.7819311 C62.9661367,59.7589055 64,61.5496629 64,63.4901528 L64,68.5842091 C64,71.5728268 61.5952478,74 58.625,74 L11.375,74 C8.40445013,74 6,71.572964 6,68.5842091 L6,63.4901528 C6,61.5498148 7.0337221,59.7590462 8.70869609,58.7819108 C11.9696756,56.8803284 15.417284,55.3405609 19,54.187635 Z M21,53.5881813 C23.2877711,52.9523769 25.6254004,52.4719873 28,52.1532728 L28,47.4264249 C27.3558224,46.8817893 26.7733174,46.2635455 26.2647313,45.5843423 C24.0847906,44.2591557 22.2641898,42.4435605 21,40.2761383 L21,53.5881813 Z M34.6768313,45.9966054 C34.7843045,45.9988648 34.8920325,46 35,46 L35,48 C39.9645415,48 44,43.8598031 44,38.7404548 L44,31.2053548 L39.0748424,31.1125553 C33.8988473,31.2850291 30.6254584,30.1205934 28.9624228,27.9590897 C28.6026391,28.6573536 28.1390201,29.2568187 27.5876768,29.7600689 C27.0412128,30.2588653 26.4909956,30.6011325 26,30.8216153 L26,38.7404548 C26,40.7281148 26.6083419,42.5681685 27.6432079,44.0755984 C29.4949885,45.1319392 31.6283949,45.7961788 33.8949474,45.9601536 C32.5310135,45.7799946 31.2066632,44.9889151 30.1903516,43.5869152 L31.8096484,42.4130848 C33.3434576,44.5289717 35.6565424,44.5289717 37.1903516,42.4130848 L38.8096484,43.5869152 C37.6872219,45.1353004 36.1890727,45.9385305 34.6768313,45.9966054 Z M28,54.1719332 C27.0828719,54.3000346 26.1715819,54.4532376 25.2669308,54.6311528 L35,69.6140635 L44.7330495,54.6311832 C43.8283999,54.4532609 42.9171153,54.3000511 42,54.171944 L42,57 C42,57.5522847 41.5522847,58 41,58 C40.4477153,58 40,57.5522847 40,57 L40,48.772486 C38.5003387,49.5572077 36.8011207,50 35,50 C33.1988793,50 31.4996613,49.5572077 30,48.772486 L30,57 C30,57.5522847 29.5522847,58 29,58 C28.4477153,58 28,57.5522847 28,57 L28,54.1719332 Z M22.8510034,55.1688235 C18.239309,56.3159289 13.8242096,58.1140946 9.71633442,60.5095291 C8.65449501,61.128978 8,62.2627925 8,63.4901528 L8,68.5842091 C8,70.4725587 9.51322705,72 11.375,72 L33.0866648,72 L18.5734877,60.1502086 L22.8510034,55.1688235 Z M36.9133352,72 L58.625,72 C60.4865022,72 62,70.4723909 62,68.5842091 L62,63.4901528 C62,62.2627343 61.3454638,61.1290104 60.2833563,60.5096039 C56.1759112,58.1142465 51.7607712,56.316043 47.1490553,55.1688919 L51.4265123,60.1502086 L36.9133352,72 Z M33.8752656,71.5215525 L33.831912,71.4497368 L33.8201657,71.4691946 L33.840573,71.5006092 L33.8752656,71.5215525 Z M36.168088,71.4497368 L36.1247344,71.5215525 L36.159427,71.5006092 L36.1798343,71.4691946 L36.168088,71.4497368 Z M28.7176912,27.6163951 C27.9129848,26.4000751 27.7000291,25.1309409 27.8133047,24.0392237 C27.8233954,23.9419724 27.8345986,23.866396 27.844372,23.8145959 L29.8270344,24 C29.8270344,25.5624717 29.5189541,26.8789806 28.9624228,27.9590897 C28.876567,27.8475 28.7950032,27.7332529 28.7176912,27.6163951 Z M24.2028598,56.6644878 L21.4265123,59.8976861 L31.8111982,68.3766264 L24.2028598,56.6644878 Z M48.5734877,59.8976861 L45.7971402,56.6644878 L38.1888018,68.3766264 L48.5734877,59.8976861 Z M30,35.4997651 C30,34.6714174 30.6714174,34 31.4997651,34 C32.3285826,34 33,34.6714174 33,35.4997651 C33,36.3281128 32.3285826,37 31.4997651,37 C30.6714174,37 30,36.3281128 30,35.4997651 Z M37,35.4997651 C37,34.6714174 37.6718872,34 38.5002349,34 C39.3285826,34 40,34.6714174 40,35.4997651 C40,36.3281128 39.3285826,37 38.5002349,37 C37.6718872,37 37,36.3281128 37,35.4997651 Z M42.3748359,28.5570596 C39.4110363,28.5570596 37,26.1967894 37,23.2743389 L37,11.2827208 C37,8.36027025 39.4110363,6 42.3748359,6 L68.6251641,6 C71.5889637,6 74,8.36027025 74,11.2827208 L74,23.2743389 C74,26.1967894 71.5889637,28.5570596 68.6251641,28.5570596 L61.9583031,28.5570596 L53.5434421,37.5277123 L53.5434421,28.5570596 L42.3748359,28.5570596 Z M61.0921825,26.5570596 L68.6251641,26.5570596 C70.4938082,26.5570596 72,25.0825817 72,23.2743389 L72,11.2827208 C72,9.47447791 70.4938082,8 68.6251641,8 L42.3748359,8 C40.5061918,8 39,9.47447791 39,11.2827208 L39,23.2743389 C39,25.0825817 40.5061918,26.5570596 42.3748359,26.5570596 L55.5434421,26.5570596 L55.5434421,32.4722877 L61.0921825,26.5570596 Z M21,31 L18.5824119,31 C17.7184126,31 17,31.7510063 17,32.6994316 L17,35.3005684 C17,36.2489937 17.7184126,37 18.5824119,37 L21,37 L21,31 Z" id="path-1"></path>
    </defs>
    <g id="Advanced-Quick-Quote" stroke="none" stroke-width="1" fill="none" fill-rule="evenodd">
        <g id="AdvancedQuote_376px-/-Enchelada" transform="translate(-154.000000, -999.000000)">
            <g id="Help-module" transform="translate(24.000000, 968.000000)">
                <g id="04_Icons-/-80px-/-Phone" transform="translate(124.000000, 25.000000)">
                    <mask id="mask-2" fill="white">
                        <use xlink:href="#path-1"></use>
                    </mask>
                    <use id="Female-Agent" fill="#A51482" fill-rule="nonzero" xlink:href="#path-1"></use>
                    <g id="00_Atoms-/-Color-/gray-Md" mask="url(#mask-2)" fill="#8B1863">
                        <g transform="translate(-11.000000, -11.000000)" id="Rectangle-2">
                            <rect x="0" y="0" width="102.01" height="102.01"></rect>
                        </g>
                    </g>
                </g>
            </g>
        </g>
    </g>
</svg>