<?xml version="1.0" encoding="UTF-8"?>
<svg width="91px" height="31px" viewBox="0 0 91 31" version="1.1" xmlns="http://www.w3.org/2000/svg" xmlns:xlink="http://www.w3.org/1999/xlink">
    <!-- Generator: sketchtool 53.1 (72631) - https://sketchapp.com -->
    <title>940E2075-2100-48FE-91AC-71F6F4F838C3</title>
    <desc>Created with sketchtool.</desc>
    <defs>
        <path d="M46.2944611,13.0045455 L46.298425,13.0001954 C46.6001169,12.9957657 46.8929381,13.0667534 47.1591475,13.2042877 L50.699671,14.9966976 C50.8327757,15.0632556 50.9525687,15.1431139 51.0679208,15.2362838 L62.0887258,23.5595578 L79.0950961,25.2721208 L91.5094171,30.6450344 L91.5094171,37.8014986 L84.4106517,39.5939084 L80.368785,39.5939084 C80.6704769,38.7509158 80.8612576,37.8546882 80.8612576,36.9096665 C80.8612576,32.4905998 77.2586058,28.8525109 72.8752033,28.8525109 C68.4918008,28.8525109 64.889149,32.4862838 64.889149,36.9096665 C64.889149,37.8547677 65.0799297,38.7509272 65.3816216,39.5939084 L23.5784117,39.5939084 C23.8801036,38.7509158 24.0708843,37.8546882 24.0708843,36.9096665 C24.0708843,32.4905998 20.4682324,28.8525109 16.08483,28.8525109 C11.7014275,28.8525109 8.09877565,32.4862838 8.09877565,36.9096665 C8.09877565,37.8547677 8.2895564,38.7509272 8.59124825,39.5939084 L2.77469022,39.5939084 L1,30.6406047 L15.1714063,25.2765504 L31.1430606,23.4797109 L34.7190211,25.2721208 L56.8671692,23.7680912 L48.916552,18.1067973 L45.5668433,16.4119529 C43.8808808,15.6000813 44.4266339,13.0444803 46.2944611,13.0045455 Z M16.084387,30.6356072 C19.4917944,30.6356072 22.2958636,33.4662541 22.2958636,36.9046689 C22.2958636,40.3475134 19.4917944,43.1737307 16.084387,43.1737307 C12.6769796,43.1737307 9.87291047,40.3475134 9.87291047,36.9046689 C9.87291047,33.4618245 12.6769796,30.6356072 16.084387,30.6356072 Z M16.084387,34.2159973 C14.5935327,34.2159973 13.4222932,35.3962097 13.4222932,36.9002393 C13.4222932,38.4086986 14.5935327,39.5889109 16.084387,39.5889109 C17.5752413,39.5889109 18.7464808,38.4042689 18.7464808,36.9002393 C18.7464808,35.3962097 17.5751278,34.2159973 16.084387,34.2159973 Z M72.8745105,30.6356072 C76.2819179,30.6356072 79.085987,33.4662541 79.085987,36.9046689 C79.085987,40.3475134 76.2819179,43.1737307 72.8745105,43.1737307 C69.4671031,43.1737307 66.6630339,40.3475134 66.6630339,36.9046689 C66.6630339,33.4618245 69.4671031,30.6356072 72.8745105,30.6356072 Z M72.8745105,34.2159973 C71.3836561,34.2159973 70.2124166,35.3962097 70.2124166,36.9002393 C70.2124166,38.4086986 71.3836561,39.5889109 72.8745105,39.5889109 C74.3653648,39.5889109 75.5366043,38.4042689 75.5366043,36.9002393 C75.5366043,35.3962097 74.3652512,34.2159973 72.8745105,34.2159973 Z" id="path-1"></path>
    </defs>
    <g id="Vehicle-Summary" stroke="none" stroke-width="1" fill="none" fill-rule="evenodd">
        <g id="Vehicle-Icons" transform="translate(-691.000000, -279.000000)">
            <g id="04_Icons-/-Vehicles-/-Convertible" transform="translate(690.000000, 266.000000)">
                <mask id="mask-2" fill="white">
                    <use xlink:href="#path-1"></use>
                </mask>
                <use id="Combined-Shape" fill="#4C4C4C" fill-rule="evenodd" xlink:href="#path-1"></use>
                <g id="00_Basics-/-Colors-/-Gray-/-700" mask="url(#mask-2)" fill="#777770" fill-rule="evenodd">
                    <g transform="translate(-5.000000, -26.000000)" id="Rectangle-2">
                        <rect x="0" y="0" width="101" height="101"></rect>
                    </g>
                </g>
            </g>
        </g>
    </g>
</svg>