<?xml version="1.0" encoding="UTF-8"?>
<svg width="148px" height="75px" viewBox="0 0 148 75" version="1.1" xmlns="http://www.w3.org/2000/svg" xmlns:xlink="http://www.w3.org/1999/xlink">
    <!-- Generator: sketchtool 53.2 (72643) - https://sketchapp.com -->
    <title>FCD0CADA-5334-4954-9953-2BA9B161A29F</title>
    <desc>Created with sketchtool.</desc>
    <g id="Vehicle-Damage" stroke="none" stroke-width="1" fill="none" fill-rule="evenodd">
        <g id="VehDamage_376px-/-Selected" transform="translate(-114.000000, -126.000000)" fill="#8B1863" fill-rule="nonzero">
            <path d="M219.208199,192.86589 C219.27481,193.012033 219.548236,193.584398 219.583219,193.659089 C219.919527,194.377123 220.127457,194.915142 220.254208,195.48216 C220.730071,197.610921 219.697833,199.240291 216.945886,200.010836 C213.955779,200.848066 211.563778,200.126377 207.411387,197.868897 C203.801578,195.906395 202.680294,195.463999 201.247514,195.713098 C199.467968,196.02243 198.271529,196.102132 197.517987,195.941322 C196.287261,195.678679 195.86061,194.618619 196.488633,193.595714 C197.038806,192.69961 198.260142,191.742006 201.054484,189.808026 C201.183884,189.718508 201.183884,189.718508 201.313241,189.629144 C204.269971,187.587034 205.529201,186.621148 205.584825,186.412255 C206.147946,184.298043 208.150242,182.745189 210.503918,182.293029 C212.211306,181.965026 213.604005,182.090437 216.477696,182.624037 C217.844408,182.877809 218.894074,182.647481 221.302608,181.754305 C223.132599,181.075675 223.976706,180.822708 225.117168,180.71118 L225.847551,180.639754 L226.134742,181.315092 C227.55048,184.644239 231.653741,186.331072 237.492896,186.331072 C241.557514,186.331072 244.525264,185.48172 246.285439,183.747394 L246.66041,183.37793 L247.177237,183.477917 C248.554966,183.744456 249.927742,184.209536 251.251025,184.806977 C252.14232,185.209383 252.91212,185.626869 253.445577,185.95945 C254.887165,186.858842 257.152694,187.751604 260.218245,188.364562 C260.685931,188.458076 261.016401,188.554078 261.264442,188.68447 C261.903039,189.020173 262.240229,189.800504 261.634504,190.46085 C261.304479,190.820635 260.870057,190.960492 259.790773,191.205871 C259.427426,191.288479 257.760749,191.635711 257.340538,191.729311 C255.526295,192.133425 254.354039,192.561648 254.264003,192.732933 C253.322315,194.523149 251.387845,194.938712 248.620033,194.677976 C246.397432,194.46744 245.122951,194.920639 242.444195,196.505765 C239.431092,198.288739 237.813141,198.864064 235.062199,198.603439 C234.065158,198.509242 233.344688,198.05663 229.950471,195.683326 C229.798234,195.576929 229.798234,195.576929 229.646187,195.470953 C227.269222,193.815708 225.821405,193.022044 225.513976,193.109247 C224.612434,193.365654 223.737967,193.307707 221.645287,193.005282 L221.597287,192.998344 C220.379952,192.822352 219.656563,192.742285 219.157181,192.751999 C219.173005,192.788025 219.189998,192.825957 219.208199,192.86589 Z M252.387206,187.656463 C251.926378,187.369161 251.234198,186.993771 250.428047,186.629807 C249.396594,186.164122 248.336601,185.789442 247.284645,185.545271 C245.073275,187.456325 241.763869,188.331072 237.492896,188.331072 C231.312811,188.331072 226.654705,186.560605 224.631251,182.799738 C223.965821,182.928771 223.241793,183.168274 221.999786,183.628858 L221.998008,183.629517 C219.259491,184.645063 217.951984,184.931969 216.112572,184.590426 C213.482439,184.102051 212.260961,183.992058 210.881234,184.257115 C209.223804,184.57552 207.862588,185.631193 207.517464,186.926944 C207.257295,187.904004 206.596873,188.410576 202.449833,191.274792 C202.321119,191.363712 202.321119,191.363712 202.192679,191.452566 C200.499781,192.624231 199.394204,193.442982 198.763731,194.0145 C199.288986,193.98687 200.004966,193.899095 200.904968,193.742651 C202.988466,193.380419 204.279666,193.889854 208.366658,196.11178 C212.083813,198.132642 214.082499,198.735664 216.406626,198.084908 C218.155768,197.595148 218.541188,196.98677 218.30238,195.918472 C218.214763,195.526518 218.051468,195.103992 217.772039,194.507397 C217.743833,194.447176 217.463866,193.861118 217.388322,193.695376 C217.239148,193.368092 217.139381,193.114329 217.073376,192.870991 C216.827051,191.962871 217.126611,191.125268 218.113462,190.877794 C218.991653,190.657998 219.803687,190.718248 221.883454,191.018923 L221.931346,191.025846 C223.685611,191.279364 224.457184,191.330492 224.967528,191.185346 C226.198126,190.836282 227.57209,191.589463 230.789109,193.829694 C230.94306,193.936998 230.94306,193.936998 231.096537,194.044262 C233.850661,195.97 234.806313,196.570358 235.250574,196.61233 C237.472537,196.822839 238.746849,196.369708 241.425048,194.784911 L241.425677,194.784539 C244.4387,193.001612 246.056809,192.426221 248.808124,192.68684 C250.821719,192.876526 252.069668,192.608442 252.493817,191.802103 C253.004671,190.830262 254.296624,190.358313 256.905705,189.777153 C256.985137,189.75946 257.104406,189.733674 257.248539,189.702839 C255.19866,189.113299 253.573782,188.396755 252.387206,187.656463 Z M243.795885,155.118607 L244.830815,161.178311 L231.739378,157.909059 L219.013047,172.264575 L219.032392,160.373521 L207.620814,168.637078 L206.447794,167.017194 L221.038776,156.451311 L221.021641,166.983937 L231.04731,155.674813 L242.343713,158.495801 L241.308188,152.432617 C240.000477,151.229879 238.128654,150.824571 236.404727,151.398364 C236.089931,151.503045 235.7791,151.600634 235.472379,151.690709 C235.484079,151.820299 235.483239,151.952946 235.468745,152.087266 C235.350246,153.185461 234.363921,153.979661 233.265726,153.861161 L187.602517,148.933929 L187.759336,149.186249 L178.316014,166.571942 L182.766531,180.013375 L223.072202,181.686432 C222.724245,180.621006 222.546432,179.458665 222.546432,178.206464 C222.546432,170.271187 228.97849,163.838784 236.914112,163.838784 C244.848294,163.838784 251.280832,170.271667 251.280832,178.206464 C251.280832,179.930669 251.000628,181.473761 250.447615,182.823457 L251.2603,182.857127 C251.532349,182.868359 252.032487,182.468816 252.574543,181.60731 C252.815478,181.224384 253.03137,180.801583 253.21429,180.37774 C253.240584,180.316813 253.264609,180.259708 253.28632,180.206946 L252.665316,173.068108 L252.657792,172.894784 L252.657792,168.764577 L248.513021,160.81859 L248.821316,159.986125 L250.632445,155.095681 L245.469237,156.942902 L244.571759,155.964468 L243.795885,155.118607 Z M178.494254,179.836036 L173.97429,166.184858 L183.133848,149.321591 L182.554367,148.389215 L141.377051,143.946027 L141.519587,140.531283 C141.508764,139.945351 141.553115,139.153914 141.696708,138.222626 C141.92201,136.761402 142.345119,135.307439 143.021338,133.931554 C143.55488,132.845971 144.213272,131.869563 144.998576,131.016955 L138.011425,130.967294 C135.289111,130.853993 132.69052,132.108703 131.085369,134.311351 L118.750959,151.238044 L118.007114,169.16646 C117.820559,173.664588 121.315798,177.462599 125.813587,177.64914 L127.934847,177.737072 C127.798056,176.944121 127.728192,176.13813 127.728192,175.324544 C127.728192,167.389575 134.160903,160.956864 142.095872,160.956864 C150.030841,160.956864 156.463552,167.389575 156.463552,175.324544 C156.463552,176.543465 156.307833,177.742655 156.00625,178.902576 L178.494254,179.836036 Z M175.478651,131.233592 L156.14324,131.096166 C156.101824,131.09715 156.060125,131.096866 156.018175,131.095277 L154.696172,131.085881 C150.482194,131.212937 147.984765,132.90114 146.611198,135.695898 C146.128531,136.677967 145.817169,137.747926 145.649992,138.832172 C145.551828,139.468824 145.517316,140.000966 145.518027,140.369635 L179.874156,144.076791 L176.944231,139.362581 L175.478651,131.233592 Z M179.548355,131.262517 L180.745113,137.900459 L184.922306,144.621505 L223.781554,148.814565 C215.539663,139.885829 204.903104,131.678975 198.083297,131.394254 L179.548355,131.262517 Z M154.664339,127.086742 C155.145804,127.073439 155.640681,127.0768 156.149036,127.097294 L198.180551,127.39603 C206.597558,127.745971 217.803409,136.412602 226.822241,146.211536 C227.515273,146.965308 228.360795,147.589137 229.353475,148.099976 C230.440394,148.658612 232.563651,148.460299 235.142019,147.602897 C238.490492,146.48839 242.170619,147.429026 244.550225,150.0235 L246.622027,152.282186 L250.323872,150.957791 C253.111848,149.962407 255.79489,152.675967 254.765948,155.452083 L252.880643,160.542818 L256.657792,167.784031 L256.657792,172.807958 L257.346605,180.726306 L257.215964,181.118903 C256.987921,181.804206 256.575959,182.758767 255.960136,183.737512 C254.7331,185.687676 253.166428,186.939238 251.095002,186.85371 L241.816911,186.469314 L245.431762,183.191441 C246.642963,182.093148 247.280832,180.499191 247.280832,178.206464 C247.280832,172.480758 242.639107,167.838784 236.914112,167.838784 C231.187677,167.838784 226.546432,172.480278 226.546432,178.206464 C226.546432,180.020671 227.069974,181.398823 228.070217,182.469873 L231.400181,186.035565 L150.023702,182.657689 L151.386062,179.900876 C152.09168,178.473018 152.463552,176.922637 152.463552,175.324544 C152.463552,169.598713 147.821703,164.956864 142.095872,164.956864 C136.370041,164.956864 131.728192,169.598713 131.728192,175.324544 C131.728192,176.625797 131.977156,177.902017 132.455166,179.116576 L133.579952,181.974513 L125.647876,181.645706 C118.942731,181.367618 113.732455,175.706005 114.010551,169.000676 L114.804625,149.861604 L127.852646,131.955614 C130.24527,128.672364 134.119253,126.801841 138.108767,126.969074 L154.664339,127.086742 Z M146.604503,152.43537 C145.50705,152.310187 144.71887,151.319044 144.844054,150.221591 C144.969237,149.124138 145.96038,148.335958 147.057833,148.461142 L154.093673,149.263702 C155.191126,149.388885 155.979306,150.380028 155.854122,151.477481 C155.728939,152.574934 154.737796,153.363114 153.640343,153.23793 L146.604503,152.43537 Z M188.933591,157.439754 C187.836138,157.314571 187.047958,156.323428 187.173142,155.225975 C187.298325,154.128522 188.289468,153.340342 189.386921,153.465526 L196.422761,154.268086 C197.520214,154.393269 198.308394,155.384412 198.18321,156.481865 C198.058027,157.579318 197.066884,158.367498 195.969431,158.242314 L188.933591,157.439754 Z M202.988493,138.832664 L209.079078,139.412961 L208.125493,135.914944 L212.404832,135.914944 L212.404832,137.914944 L210.743691,137.914944 L211.769626,141.678367 L206.349371,141.161938 L208.4383,143.090436 L213.38998,147.381636 L212.080164,148.893052 L207.105126,144.58096 L201.975271,139.845886 L197.805349,144.015808 L191.377158,147.061155 L190.52089,145.253725 L196.636059,142.356672 L199.527653,139.465077 L192.052892,139.139964 L196.148417,134.70298 L187.31001,133.641878 L193.000929,129.503848 L194.177119,131.121432 L192.606598,132.263402 L200.272511,133.18374 L196.446116,137.329156 L204.156635,137.664523 L202.988493,138.832664 Z M131.728384,175.324832 C131.728384,181.050058 136.370589,185.692512 142.096064,185.692512 C147.821539,185.692512 152.463744,181.050058 152.463744,175.324832 C152.463744,169.599001 147.821895,164.957152 142.096064,164.957152 C136.370233,164.957152 131.728384,169.599001 131.728384,175.324832 Z M127.728384,175.324832 C127.728384,167.389863 134.161095,160.957152 142.096064,160.957152 C150.031033,160.957152 156.463744,167.389863 156.463744,175.324832 C156.463744,183.259149 150.030726,189.692512 142.096064,189.692512 C134.161402,189.692512 127.728384,183.259149 127.728384,175.324832 Z M222.54624,178.206752 C222.54624,170.271783 228.978951,163.839072 236.91392,163.839072 C244.848889,163.839072 251.2816,170.271783 251.2816,178.206752 C251.2816,185.797138 246.09809,189.331552 237.4928,189.331552 C228.558684,189.331552 222.54624,185.729899 222.54624,178.206752 Z M226.54624,178.206752 C226.54624,182.975023 230.480128,185.331552 237.4928,185.331552 C244.141783,185.331552 247.2816,183.190645 247.2816,178.206752 C247.2816,172.480921 242.639751,167.839072 236.91392,167.839072 C231.188089,167.839072 226.54624,172.480921 226.54624,178.206752 Z" id="Damage-Icon"></path>
        </g>
    </g>
</svg>