<?xml version="1.0" encoding="UTF-8"?>
<svg width="106px" height="35px" viewBox="0 0 106 35" version="1.1" xmlns="http://www.w3.org/2000/svg" xmlns:xlink="http://www.w3.org/1999/xlink">
    <!-- Generator: sketchtool 52.6 (67491) - http://www.bohemiancoding.com/sketch -->
    <title>613746CA-F694-469C-83D8-EBE04FE04ED7</title>
    <desc>Created with sketchtool.</desc>
    <defs>
        <linearGradient x1="49.6134999%" y1="29.5442203%" x2="78.6537875%" y2="124.354156%" id="linearGradient-1">
            <stop stop-color="#FFA101" offset="0%"></stop>
            <stop stop-color="#FF7F00" offset="100%"></stop>
        </linearGradient>
        <path d="M69.9935241,1.73394495 C69.9935241,3.40366972 68.6525602,4.75229358 66.9923193,4.75229358 C66.800753,4.75229358 66.609506,4.72018349 66.4176205,4.68807339 L66.386012,4.68807339 C66.8646084,5.4262844 67.6305542,5.90825688 68.5567771,6.03669725 C68.6848072,6.03669725 68.7802711,6.06880734 68.9079819,6.06880734 C70.5682229,6.06880734 71.9091867,4.72018349 71.9091867,3.05045872 C71.9091867,1.5412844 70.8555723,0.321100917 69.483,0.0642201835 C69.8022771,0.54587156 69.9935241,1.12385321 69.9935241,1.73394495" id="path-2"></path>
        <radialGradient cx="13.7735159%" cy="54.5382086%" fx="13.7735159%" fy="54.5382086%" r="88.8826719%" gradientTransform="translate(0.137735,0.545382),scale(1.000000,0.614016),rotate(-43.955142),scale(1.000000,0.741741),translate(-0.137735,-0.545382)" id="radialGradient-4">
            <stop stop-color="#FFA101" offset="0%"></stop>
            <stop stop-color="#FF7F00" offset="100%"></stop>
        </radialGradient>
        <path d="M24.177259,3.21100917 L22.6131205,4.36697248 C21.2079819,5.39449541 19.4522771,6.03669725 17.8875,6.03669725 C15.3013554,10.2113303 14.3754518,13.3256881 14.3754518,15.6697248 L14.3754518,15.7018349 C14.3754518,21.7385321 20.760994,22.412844 21.5591867,22.444633 L21.5911145,22.444633 L21.6230422,22.444633 C18.2067771,21.4174312 16.7061747,19.7480275 16.0356928,18.5275229 C14.4712349,15.7018349 16.0037651,12.7155963 16.0037651,12.6834862 C16.259506,12.2018349 16.5146084,11.8165138 16.8019578,11.5275229 C17.1850904,11.1422018 17.6320783,10.9174312 18.0790663,10.9174312 C18.9730422,10.9174312 19.9308735,11.6562844 20.569747,12.1697248 L20.6971386,12.2663761 C20.7290663,12.2981651 21.3995482,12.8440367 21.8465361,13.2293578 C22.3893072,13.646789 23.1555723,13.6146789 23.634488,13.1330275 C24.1453313,12.6192661 24.1453313,11.7522936 23.634488,11.2385321 C23.5064578,11.1100917 23.3471386,11.0137615 23.1875,10.9495413 L21.8784639,10.3073394 C21.2079819,9.95412844 20.5375,9.24770642 20.569747,8.66972477 C20.6013554,8.44495413 20.7290663,8.18807339 20.9525602,7.96330275 C21.2395904,7.67399083 21.6868976,7.385 22.2296687,7.12844037 C22.3573795,7.06422018 25.2628012,5.71559633 25.4224398,5.61926606 C25.4543675,5.58715596 25.5820783,5.55504587 25.614006,5.52293578 C25.7097892,5.4587156 25.8055723,5.39449541 25.9013554,5.33027523 C26.4441265,4.81651376 26.4441265,3.94954128 25.9013554,3.40366972 C25.6459337,3.14678899 25.2947289,3.01834862 24.9432048,3.01834862 C24.8956325,3.01288991 24.8490181,3.0103211 24.8030422,3.0103211 C24.5722048,3.0103211 24.3637169,3.07711009 24.177259,3.21100917" id="path-5"></path>
        <linearGradient x1="50%" y1="85.501832%" x2="34.7897527%" y2="0%" id="linearGradient-7">
            <stop stop-color="#FFA101" offset="0%"></stop>
            <stop stop-color="#FF7F00" offset="100%"></stop>
        </linearGradient>
        <path d="M11.0230422,28.8024312 C10.3525602,36.4770642 5.8188253,29.8944954 5.40376506,29.6376147 C5.08480723,30.1838073 4.9248494,30.761789 4.9248494,31.3712385 C4.9248494,32.2385321 5.24412651,33.0737156 5.88268072,33.7155963 C6.52155422,34.3577982 7.35135542,34.6788991 8.1814759,34.6788991 L8.21340361,34.6788991 C9.0435241,34.6788991 9.87364458,34.3577982 10.5125181,33.7155963 C11.0549699,33.1697248 11.4061747,32.4633028 11.4700301,31.6923394 C11.4700301,31.6605505 11.9808735,26.266055 11.9808735,26.2018349 C12.0124819,25.9125229 12.140512,25.2067431 12.6832831,24.6608716 C13.1941265,24.1464679 13.8965361,23.8895872 14.822759,23.8895872 C15.8760542,23.8895872 17.2170181,24.2110092 18.7495482,24.8856422 L20.7929217,25.8807339 C17.2170181,23.2477064 14.9182229,22.2522936 13.4814759,22.2522936 C10.384488,22.2844037 11.1823614,26.8761468 11.0230422,28.8024312" id="path-8"></path>
        <linearGradient x1="7.11796798%" y1="74.2016455%" x2="88.469206%" y2="13.6334894%" id="linearGradient-10">
            <stop stop-color="#FFA101" offset="0%"></stop>
            <stop stop-color="#FF7F00" offset="100%"></stop>
        </linearGradient>
        <path d="M26.5399096,28.7388532 L29.0941265,29.9908257 L29.1260542,29.9908257 C29.477259,30.1513761 29.8923193,30.2473853 30.2754518,30.2473853 L30.3073795,30.2473853 C30.6585843,30.2473853 30.9778614,30.1838073 31.2968193,30.0550459 L31.3290663,30.0550459 C31.5525602,29.9587156 31.7441265,29.8302752 31.9356928,29.7018349 C31.9995482,29.6376147 32.0637229,29.6055046 32.1269398,29.5416055 C32.1591867,29.5091743 32.1591867,29.5091743 32.1911145,29.4770642 C33.2447289,28.4177523 33.2128012,26.7155963 32.1911145,25.6559633 C32.0637229,25.527844 31.9037651,25.3990826 31.7441265,25.3027523 C32.7335663,30.761789 26.5399096,28.7388532 26.5399096,28.7388532" id="path-11"></path>
        <linearGradient x1="53.7487789%" y1="22.6350656%" x2="50%" y2="68.1182725%" id="linearGradient-13">
            <stop stop-color="#FFA101" offset="0%"></stop>
            <stop stop-color="#FF7F00" offset="100%"></stop>
        </linearGradient>
        <path d="M0.48689759,18.3030734 C0.742319277,18.559633 1.12513253,18.7201835 1.54051205,18.7522936 C2.30677711,18.8486239 6.20227711,19.266055 6.20227711,19.266055 C7.8621988,19.4269266 8.59653614,19.9724771 9.13898795,21.3853211 C9.16644578,21.4399083 9.19390361,21.5182569 9.20124699,21.5799083 C8.94901807,17.9505046 3.38848795,18.1422018 2.05135542,18.1743119 C0.710391566,18.206422 0.135692771,16.6330275 0.135692771,16.6330275 C-0.0878012048,17.2110092 0.0399096386,17.853211 0.48689759,18.3030734" id="path-14"></path>
    </defs>
    <g id="Name/DoB/Sex" stroke="none" stroke-width="1" fill="none" fill-rule="evenodd">
        <g id="Basic_≥1440px-/-Nutral" transform="translate(-136.000000, -18.000000)">
            <g id="Navigation-/-Header-/-Sales-/-≥1200px">
                <g id="Content" transform="translate(136.000000, 8.000000)">
                    <g id="0_Element/Logo/DkBgrnd" transform="translate(0.000000, 10.000000)">
                        <g id="Verti-Logo">
                            <g id="text" transform="translate(30.331325, 2.536697)">
                                <path d="M16.6103277,16.3762752 C15.3012916,20.1328349 13.0982795,25.1098991 10.8952675,28.224578 L9.93743614,28.224578 C8.46876145,28.224578 7.70249639,27.6787064 6.71273735,26.1698532 C4.03080964,21.9313211 0.6784,13.0047156 0.231412048,7.44966972 L2.84948434,7.44966972 C4.54165301,7.44966972 5.59526747,8.79797248 5.78683373,9.8900367 C6.48924337,13.7111376 7.47900241,17.6606789 9.55430361,21.8671009 C11.4061108,18.0138899 13.1302072,12.5872844 13.8645446,7.44966972 L15.9398458,7.44966972 C17.6320145,7.44966972 18.238641,8.22031193 18.238641,9.8900367 C18.2705687,10.4680183 17.791653,12.9404954 16.6103277,16.3762752" id="Fill-1" fill="#76777A"></path>
                                <path d="M28.2639422,11.2385 C25.9016108,11.2385 24.2410506,13.2614358 24.1455867,15.6054725 L24.1133398,16.2797844 L26.3163518,16.2797844 C30.9458699,16.2797844 32.031412,15.7339128 32.031412,14.2889587 C31.9994843,12.2660229 30.5311289,11.2385 28.2639422,11.2385 M27.3383578,19.9082248 L24.1133398,19.9082248 C24.4648639,22.5091422 26.731412,24.1467569 29.6368337,24.1467569 C31.6802072,24.1467569 34.1067133,23.7293257 35.6711711,22.2201514 L35.8627373,22.2201514 L35.8627373,23.825656 C35.8627373,26.4586835 34.138641,28.4816193 28.7428578,28.4816193 C23.8263096,28.4816193 19.0368337,24.4357477 19.0368337,18.1742798 C19.0368337,11.3348303 23.0597253,7.03207798 28.6790024,7.03207798 C32.7660687,7.03207798 36.565147,10.0825367 36.565147,14.9953807 C36.597394,18.6880413 33.8512916,19.9082248 27.3383578,19.9082248" id="Fill-3" fill="#76777A"></path>
                                <path d="M50.0387048,12.3944954 C49.3043675,12.1055046 48.474247,11.7844037 47.1971386,11.7844037 C44.9941265,11.7844037 43.7808735,13.0366972 43.7808735,16.1513761 L43.7808735,27.9678899 L42.4399096,27.9678899 C40.2368976,27.9678899 38.864006,26.8119266 38.864006,24.6926606 L38.864006,15.2522936 C38.864006,11.1422018 40.9393072,7.22477064 46.1435241,7.22477064 C49.1766566,7.22477064 50.2302711,9.02293578 50.2302711,10.5642202 L50.2302711,12.3944954 L50.0387048,12.3944954 Z" id="Fill-5" fill="#76777A"></path>
                                <path d="M53.6146723,4.17427982 C54.2851542,3.37152752 55.1472024,2.76143578 55.9134675,2.76143578 L57.0309373,2.76143578 L57.0309373,7.41739908 L63.8634675,7.41739908 L63.8634675,9.50455505 C63.8634675,10.5641881 62.9375639,11.944922 60.9257988,11.944922 L56.9990096,11.944922 L56.9990096,19.972445 C56.9990096,22.6375826 58.1484072,23.6651055 60.0959976,23.6651055 C61.6604554,23.6651055 62.8737084,23.4403349 63.6396542,22.9265734 L63.8315398,22.9265734 L63.8315398,24.7568486 C63.8315398,26.8440046 62.3625458,28.1926284 59.5212988,28.1926284 C54.5402566,28.1926284 52.1456783,25.3669404 52.1456783,20.5825367 L52.1456783,8.25226147 C52.209853,6.22932569 52.5610578,5.49079358 53.6146723,4.17427982" id="Fill-7" fill="#76777A"></path>
                                <path d="M72.3881024,28.160422 C68.5887048,28.160422 66.5134036,25.9127156 66.5134036,21.7708349 L66.5134036,7.86684404 L67.9182229,7.86684404 C70.1212349,7.86684404 71.4302711,9.08734862 71.4302711,11.687945 L71.4302711,21.2891835 C71.4302711,23.3439083 72.2603916,23.9861101 74.4314759,23.9861101 L75.3573795,23.9861101 L75.3573795,25.0778532 C75.3254518,27.2937706 74.4634036,28.160422 72.3881024,28.160422" id="Fill-9" fill="#76777A"></path>
                                <path d="M71.9091867,3.0182844 C71.9091867,4.68800917 70.5682229,6.03663303 68.9079819,6.03663303 C67.247741,6.03663303 65.9067771,4.68800917 65.9067771,3.0182844 C65.9067771,1.34855963 67.247741,-6.42201835e-05 68.9079819,-6.42201835e-05 C70.5682229,-6.42201835e-05 71.9091867,1.34855963 71.9091867,3.0182844" id="Fill-11" fill="#FFB333"></path>
                                <mask id="mask-3" fill="white">
                                    <use xlink:href="#path-2"></use>
                                </mask>
                                <use id="Clip-15" fill="url(#linearGradient-1)" xlink:href="#path-2"></use>
                            </g>
                            <g id="Neuron" transform="translate(0.000000, 0.288991)">
                                <path d="M7.63876867,13.4862064 C6.71286506,13.4862064 5.91467229,12.9082248 5.62732289,12.0091422 C5.46768434,11.4632706 5.49961205,10.885289 5.75503373,10.3715275 C6.01045542,9.85776606 6.45744337,9.50455505 7.00021446,9.3118945 C7.19178072,9.24767431 7.4152747,9.21556422 7.63876867,9.21556422 C8.56467229,9.21556422 9.36286506,9.79354587 9.65021446,10.6926284 C9.80985301,11.2385 9.7779253,11.8164817 9.52250361,12.3302431 C9.26708193,12.8440046 8.82009398,13.1972156 8.27732289,13.3898761 C8.08575663,13.4540963 7.86226265,13.4862064 7.63876867,13.4862064" id="Fill-17" fill="#FFB333"></path>
                                <path d="M32.1591867,25.6239174 C32.0314759,25.4954771 31.8718373,25.3670367 31.7121988,25.2703853 C31.4567771,25.1098349 31.2013554,24.9817156 30.9459337,24.9174954 L21.9423193,22.5092385 C18.3025602,21.4817156 16.7061747,19.7477706 16.0037651,18.4954771 C14.4393072,15.669789 15.9718373,12.6835505 15.9718373,12.6514404 C16.227259,12.169789 16.4826807,11.7844679 16.7700301,11.4954771 C17.1531627,11.0780459 17.6001506,10.8853853 18.0471386,10.8853853 C18.9411145,10.8853853 19.8989458,11.6560275 20.5375,12.1376789 L20.6652108,12.2340092 C20.6971386,12.2661193 21.3676205,12.8119908 21.8146084,13.1973119 C22.3573795,13.6147431 23.1236446,13.582633 23.6025602,13.1009817 C24.1134036,12.5872202 24.1134036,11.7202477 23.6025602,11.2064862 C23.4748494,11.0780459 23.2832831,10.9817156 23.1555723,10.9174954 L21.8465361,10.2752936 C21.1441265,9.92208257 20.5055723,9.21566055 20.5375,8.6376789 C20.5375,8.41290826 20.6652108,8.18813761 20.9206325,7.93125688 C21.2079819,7.64226606 21.6549699,7.35327523 22.197741,7.0963945 C22.3254518,7.03217431 25.2308735,5.65144037 25.390512,5.58722018 C25.4224398,5.58722018 25.5501506,5.523 25.5820783,5.49088991 C25.7097892,5.42666972 25.8055723,5.36244954 25.8694277,5.29822936 C26.3802711,4.7523578 26.3802711,3.88538532 25.8694277,3.37162385 C25.4224398,2.92208257 24.7200301,2.85786239 24.177259,3.21107339 L22.6447289,4.3670367 C21.2399096,5.39455963 19.4838855,6.03676147 17.9194277,6.03676147 C16.897741,6.03676147 15.1097892,5.77988073 14.4712349,3.9496055 L13.3856928,0.931256881 C13.3218373,0.73859633 13.1941265,0.54593578 13.0664157,0.417495413 C12.5555723,-0.096266055 11.6935241,-0.096266055 11.1826807,0.417495413 C10.8314759,0.770706422 10.7037651,1.28446789 10.8314759,1.70189908 C10.8634036,1.76611927 10.9591867,2.023 11.0230422,2.11933028 L12.3959337,4.81657798 L12.4597892,4.97712844 C13.2899096,6.6789633 13.6730422,8.28446789 13.6091867,9.88997248 L13.6091867,10.0184128 C13.4176205,11.9450183 12.7471386,13.3257523 12.5555723,13.6789633 C12.2362952,14.1606147 11.9170181,14.5780459 11.5338855,14.963367 C10.7995482,15.7018991 9.55436747,16.5688716 7.92605422,16.4725413 C7.79834337,16.4725413 5.59533133,16.1835505 1.89171687,15.669789 C1.79593373,15.6376789 1.73207831,15.6376789 1.73207831,15.6376789 L1.7001506,15.6376789 C1.22123494,15.6055688 0.774246988,15.7661193 0.45496988,16.0872202 C-0.151656627,16.6973119 -0.151656627,17.6927248 0.45496988,18.3028165 C0.742319277,18.5596972 1.0935241,18.7202477 1.50858434,18.7523578 C2.24292169,18.848367 6.17003012,19.2661193 6.17003012,19.2661193 C7.83027108,19.4266697 8.56460843,19.9722202 9.10737952,21.3853853 C9.52243976,22.5092385 9.13930723,24.0184128 7.89412651,25.8486881 L7.51099398,26.4587798 L5.46762048,29.4771284 C5.46762048,29.4771284 5.40376506,29.5734587 5.37183735,29.6376789 C4.57364458,30.9541927 4.76521084,32.6239174 5.85075301,33.7156606 C7.12786145,35.0000642 9.23509036,35.0000642 10.5121988,33.7156606 C11.0549699,33.169789 11.4061747,32.463367 11.4700301,31.6924037 C11.4700301,31.6606147 11.9808735,26.2661193 11.9808735,26.2018991 C12.0128012,25.9450183 12.1085843,25.2385963 12.6832831,24.6606147 C13.1941265,24.1465321 13.8965361,23.8899725 14.8224398,23.8899725 C15.9079819,23.8899725 17.2170181,24.2110734 18.7495482,24.8853853 L26.5399096,28.7385963 L29.0941265,29.9908899 L29.1260542,29.9908899 C29.477259,30.1514404 29.8923193,30.2474495 30.2754518,30.2474495 L30.3073795,30.2474495 C30.6585843,30.2474495 30.9778614,30.1835505 31.2971386,30.0551101 L31.3290663,30.0551101 C31.5525602,29.9587798 31.7441265,29.8303394 31.9356928,29.7018991 C31.9995482,29.6376789 32.0634036,29.6052477 32.127259,29.5413486 C32.1591867,29.5092385 32.1591867,29.5092385 32.1911145,29.4771284 C33.2128012,28.3853853 33.2128012,26.7153394 32.1591867,25.6239174" id="Fill-19" fill="#FFB333"></path>
                                <mask id="mask-6" fill="white">
                                    <use xlink:href="#path-5"></use>
                                </mask>
                                <use id="Clip-32" fill="url(#radialGradient-4)" xlink:href="#path-5"></use>
                                <mask id="mask-9" fill="white">
                                    <use xlink:href="#path-8"></use>
                                </mask>
                                <use id="Clip-35" fill="url(#linearGradient-7)" xlink:href="#path-8"></use>
                                <mask id="mask-12" fill="white">
                                    <use xlink:href="#path-11"></use>
                                </mask>
                                <use id="Clip-38" fill="url(#linearGradient-10)" xlink:href="#path-11"></use>
                                <mask id="mask-15" fill="white">
                                    <use xlink:href="#path-14"></use>
                                </mask>
                                <use id="Clip-41" fill="url(#linearGradient-13)" xlink:href="#path-14"></use>
                            </g>
                        </g>
                    </g>
                </g>
            </g>
        </g>
    </g>
</svg>