<?xml version="1.0" encoding="UTF-8"?>
<svg width="79px" height="80px" viewBox="0 0 79 80" version="1.1" xmlns="http://www.w3.org/2000/svg" xmlns:xlink="http://www.w3.org/1999/xlink">
    <!-- Generator: sketchtool 54.1 (76490) - https://sketchapp.com -->
    <title>CFC730A3-E7A0-4185-806E-F1AAAE35910D</title>
    <desc>Created with sketchtool.</desc>
    <g id="Document-Verifcation" stroke="none" stroke-width="1" fill="none" fill-rule="evenodd">
        <g id="DocReview_376px_Neutral" transform="translate(-149.000000, -128.000000)" fill="#8B1863">
            <g id="Group-10" transform="translate(148.000000, 128.000000)">
                <path d="M33.1328395,37.4232099 C33.1328395,34.1516049 30.4631111,31.4895802 27.1799506,31.4895802 C23.8967901,31.4895802 21.2270617,34.1516049 21.2270617,37.4232099 C21.2270617,40.6948148 23.8967901,43.3568395 27.1799506,43.3568395 C30.4631111,43.3568395 33.1328395,40.6948148 33.1328395,37.4232099 Z M23.6960988,37.4232099 C23.6960988,35.5134815 25.2585679,33.958716 27.1798519,33.958716 C29.1011358,33.958716 30.6636049,35.5134815 30.6636049,37.4232099 C30.6636049,39.3329383 29.1011358,40.8877037 27.1798519,40.8877037 C25.2585679,40.8877037 23.6960988,39.3329383 23.6960988,37.4232099 Z" id="Fill-1"></path>
                <path d="M79.9841975,13.8696296 C79.976484,13.7616 79.9571951,13.657442 79.9224691,13.5532741 C79.9108938,13.5146963 79.8993185,13.4761086 79.8800296,13.4375309 C79.8183012,13.3063605 79.7449975,13.1829037 79.6369778,13.0748741 L66.924879,0.362775309 C66.8168494,0.254745679 66.6933926,0.181451852 66.5622222,0.119723457 C66.5236444,0.10428642 66.4889185,0.0927111111 66.4503407,0.081145679 C66.3461728,0.0464197531 66.2381531,0.0232691358 66.1262716,0.0155555556 C66.0992691,0.0116938272 66.0761185,0.000118518519 66.0529679,0.000118518519 L24.2475358,0.000118518519 C23.5646617,0.000118518519 23.0129679,0.551812346 23.0129679,1.23468642 L23.0129679,24.575921 C14.8030914,25.6368593 7.20259753,29.811279 1.28852346,36.6134519 C0.883430123,37.0764148 0.883430123,37.770884 1.28852346,38.2337975 C7.20289383,45.0354765 14.7996346,49.2096 23.0129679,50.2713284 L23.0129679,77.7794765 C23.0129679,78.4623506 23.5646617,79.0140474 24.2475358,79.0140474 L78.7650765,79.0140474 C79.4479506,79.0140474 79.9996444,78.4623506 79.9996444,77.7794765 L79.9996444,13.9483753 C79.9996444,13.921363 79.9842074,13.8982123 79.9842074,13.8712099 L79.9841975,13.8696296 Z M67.2879012,4.21303704 L75.7833086,12.7084444 L67.2840494,12.7084444 L67.2879012,4.21303704 Z M3.87753086,37.4229136 C8.46854321,32.438321 14.0592593,29.097284 20.1046914,27.6235062 C17.0490864,29.8187654 15.0468148,33.387358 15.0468148,37.4229136 C15.0468148,41.4545185 17.0490864,45.0232099 20.1046914,47.222321 C14.0591605,45.7485432 8.4691358,42.4075062 3.87753086,37.4229136 Z M17.5190123,37.4229136 C17.5190123,32.1219753 21.8515556,27.8086914 27.1794568,27.8086914 C32.507358,27.8086914 36.8399012,32.1219753 36.8399012,37.4229136 C36.8399012,42.7238519 32.507358,47.0371358 27.1794568,47.0371358 C21.8515556,47.0371358 17.5190123,42.7238519 17.5190123,37.4229136 Z M34.2508642,27.6235062 C40.3002469,29.0934321 45.8864198,32.438321 50.4819753,37.4229136 C45.890963,42.4075062 40.3002469,45.7523951 34.2508642,47.222321 C37.3064691,45.0270617 39.3087407,41.4584691 39.3087407,37.4229136 C39.3087407,33.3913086 37.3064691,29.8226173 34.2508642,27.6235062 Z M77.5299654,76.5430123 L25.4814815,76.5430123 L25.4814815,50.4975802 C26.0447506,50.5284444 26.6118519,50.5438716 27.1790617,50.5438716 C36.909037,50.5438716 46.0481975,46.222884 52.9351111,38.3759704 L71.7588148,38.3759704 C72.4416889,38.3759704 72.9933827,37.8242765 72.9933827,37.1414025 C72.9933827,36.4585284 72.4416889,35.9068346 71.7588148,35.9068346 L52.4264691,35.9068346 C45.5977284,28.4184395 36.6743704,24.2979457 27.1830123,24.2979457 C26.6158815,24.2979457 26.0487901,24.3172444 25.4854321,24.3442469 L25.4814815,2.46967901 L64.8178667,2.46967901 L64.8178667,13.9472099 C64.8178667,14.630084 65.3695605,15.1817778 66.0524346,15.1817778 L77.5299654,15.1817778 L77.5299654,76.5430123 Z" id="Fill-2"></path>
                <path d="M31.254321,11.8439506 L55.5871605,11.8439506 C56.2700346,11.8439506 56.8217284,11.2922568 56.8217284,10.6093827 C56.8217284,9.92650864 56.2700346,9.37481481 55.5871605,9.37481481 L31.254321,9.37481481 C30.5714469,9.37481481 30.0197531,9.92650864 30.0197531,10.6093827 C30.0197531,11.2883951 30.5714469,11.8439506 31.254321,11.8439506 Z" id="Fill-3"></path>
                <path d="M56.8167901,19.7797531 C56.8167901,19.096879 56.2650963,18.5451852 55.5822222,18.5451852 L31.2533333,18.5451852 C30.5704593,18.5451852 30.0187654,19.096879 30.0187654,19.7797531 C30.0187654,20.4626272 30.5704593,21.014321 31.2533333,21.014321 L55.5861728,21.014321 C56.2651852,21.014321 56.8168889,20.4626272 56.8168889,19.7797531 L56.8167901,19.7797531 Z" id="Fill-4"></path>
                <path d="M71.762963,53.8271605 L31.2533333,53.8271605 C30.5704593,53.8271605 30.0187654,54.3788543 30.0187654,55.0617284 C30.0187654,55.7446025 30.5704593,56.2962963 31.2533333,56.2962963 L71.762963,56.2962963 C72.445837,56.2962963 72.9975309,55.7446025 72.9975309,55.0617284 C72.9975309,54.382716 72.4419753,53.8271605 71.762963,53.8271605 Z" id="Fill-5"></path>
                <path d="M71.762963,61.3116049 L31.2533333,61.3116049 C30.5704593,61.3116049 30.0187654,61.8632988 30.0187654,62.5461728 C30.0187654,63.2290469 30.5704593,63.7807407 31.2533333,63.7807407 L71.762963,63.7807407 C72.445837,63.7807407 72.9975309,63.2290469 72.9975309,62.5461728 C72.9975309,61.8632988 72.4419753,61.3116049 71.762963,61.3116049 Z" id="Fill-6"></path>
                <path d="M54.537284,68.7920988 L31.254321,68.7920988 C30.5714469,68.7920988 30.0197531,69.3437926 30.0197531,70.0266667 C30.0197531,70.7095407 30.5714469,71.2612346 31.254321,71.2612346 L54.537284,71.2612346 C55.220158,71.2612346 55.7718519,70.7095407 55.7718519,70.0266667 C55.7718519,69.3437926 55.220158,68.7920988 54.537284,68.7920988 Z" id="Fill-7"></path>
                <path d="M44.8345679,27.5466667 C44.8345679,28.2295407 45.3862617,28.7812346 46.0691358,28.7812346 L71.7639506,28.7812346 C72.4468247,28.7812346 72.9985185,28.2295407 72.9985185,27.5466667 C72.9985185,26.8637926 72.4468247,26.3120988 71.7639506,26.3120988 L46.0691358,26.3120988 C45.3862617,26.3120988 44.8345679,26.8637926 44.8345679,27.5466667 Z" id="Fill-8"></path>
                <path d="M71.762963,45.5051852 L46.0681481,45.5051852 C45.3852741,45.5051852 44.8335802,46.056879 44.8335802,46.7397531 C44.8335802,47.4226272 45.3852741,47.974321 46.0681481,47.974321 L71.762963,47.974321 C72.445837,47.974321 72.9975309,47.4226272 72.9975309,46.7397531 C72.9975309,46.056879 72.4419753,45.5051852 71.762963,45.5051852 Z" id="Fill-9"></path>
            </g>
        </g>
    </g>
</svg>