<?xml version="1.0" encoding="UTF-8"?>
<svg width="33px" height="45px" viewBox="0 0 33 45" version="1.1" xmlns="http://www.w3.org/2000/svg" xmlns:xlink="http://www.w3.org/1999/xlink">
    <!-- Generator: sketchtool 54.1 (76490) - https://sketchapp.com -->
    <title>415953A2-9DE0-42C6-87B0-FD25714E0256</title>
    <desc>Created with sketchtool.</desc>
    <defs>
        <path d="M8.91006656,10.25 L12.6702004,10.25 C13.5632057,10.25 14.2870643,9.52614147 14.2870643,8.63313609 L14.2870643,4.95214491 L8.91006656,10.25 Z M15.2534329,4 L15.7870643,4 L15.7870643,8.63313609 C15.7870643,10.3545686 14.3916329,11.75 12.6702004,11.75 L8.78706428,11.75 L8.78706428,42.6137719 C8.78706428,43.5148682 9.53322948,44.25 10.4589393,44.25 L36.6151893,44.25 C37.5410462,44.25 38.2870643,43.5149624 38.2870643,42.6137719 L38.2870643,5.38622806 C38.2870643,4.48518204 37.5409512,3.75 36.6151893,3.75 L15.5071676,3.75 L15.2534329,4 Z M39.7870643,42.6137719 C39.7870643,44.348409 38.3645355,45.75 36.6151893,45.75 L10.4589393,45.75 C8.70976303,45.75 7.28706428,44.3483384 7.28706428,42.6137719 L7.28706428,9.7433471 L14.8923516,2.25 L36.6151893,2.25 C38.3644632,2.25 39.7870643,3.65175897 39.7870643,5.38622806 L39.7870643,42.6137719 Z M34.0370643,36.75 L34.0370643,38.25 L13.0370643,38.25 L13.0370643,36.75 L34.0370643,36.75 Z M34.0370643,32.15 L34.0370643,33.65 L13.0370643,33.65 L13.0370643,32.15 L34.0370643,32.15 Z M34.0370643,27.55 L34.0370643,29.05 L13.0370643,29.05 L13.0370643,27.55 L34.0370643,27.55 Z M34.0370643,22.95 L34.0370643,24.45 L13.0370643,24.45 L13.0370643,22.95 L34.0370643,22.95 Z M34.0370643,18.35 L34.0370643,19.85 L13.0370643,19.85 L13.0370643,18.35 L34.0370643,18.35 Z M34.0370643,13.75 L34.0370643,15.25 L13.0370643,15.25 L13.0370643,13.75 L34.0370643,13.75 Z M34.0370643,7 L34.0370643,10 L24.0370643,10 L24.0370643,7 L34.0370643,7 Z" id="path-1"></path>
    </defs>
    <g id="Document-Verifcation" stroke="none" stroke-width="1" fill="none" fill-rule="evenodd">
        <g id="DocReview_376px_Neutral" transform="translate(-23.000000, -617.000000)">
            <g id="05_Inputs-/-Summary-/-Verification-/-Incomplete-Copy-3" transform="translate(0.000000, 600.000000)">
                <g id="Left-Aligned-Copy" transform="translate(16.000000, 15.666667)">
                    <g id="Icon">
                        <mask id="mask-2" fill="white">
                            <use xlink:href="#path-1"></use>
                        </mask>
                        <use id="Combined-Shape" fill="#8B1863" fill-rule="nonzero" xlink:href="#path-1"></use>
                        <g id="color" mask="url(#mask-2)" fill="#777770">
                            <g transform="translate(-29.000000, -33.000000)" id="Rectangle-2">
                                <rect x="0" y="0" width="101" height="101"></rect>
                            </g>
                        </g>
                    </g>
                </g>
            </g>
        </g>
    </g>
</svg>