<?xml version="1.0" encoding="UTF-8"?>
<svg width="40px" height="48px" viewBox="0 0 40 48" version="1.1" xmlns="http://www.w3.org/2000/svg" xmlns:xlink="http://www.w3.org/1999/xlink">
    <!-- Generator: sketchtool 53 (72520) - https://sketchapp.com -->
    <title>979AAA7C-AF22-4988-A03D-48E6B9FCD40D</title>
    <desc>Created with sketchtool.</desc>
    <g id="Vehicle-Summary" stroke="none" stroke-width="1" fill="none" fill-rule="evenodd">
        <g id="Vehicle-&amp;-User-Icons" transform="translate(-1934.000000, -360.000000)" fill="#4C4C4C" fill-rule="nonzero">
            <g id="noun_533052" transform="translate(1934.000000, 360.000000)">
                <path d="M6.12462006,21.28 L11.4984802,22.88 C12.0121581,23.84 9.68085106,28.08 10.2340426,28.88 C16.1215805,37.72 22.0881459,38.2 28.4103343,38.2 L29.4772036,38.2 L28.6869301,26.32 L34.7325228,28.08 C35.325228,39.88 31.6504559,48 19.9544073,48 C5.96656535,48 1.93617021,35.2 6.12462006,21.28 Z M8.06079027,-3.99929e-11 L12.0121581,-3.99929e-11 L12.0121581,12 L8.06079027,12 L8.06079027,-3.99929e-11 Z M10.0364742,-3.99929e-11 L29.7933131,-3.99929e-11 L27.8176292,12 L19.9148936,4.92 L12.0121581,12 L10.0364742,-3.99929e-11 Z M27.8176292,-3.99929e-11 L31.768997,-3.99929e-11 L31.768997,12 L27.8176292,12 L27.8176292,-3.99929e-11 Z M19.9148936,22 C15.2522796,22 11.6170213,27.44 11.6170213,35.2 C11.6170213,40.4 15.0151976,44 19.9148936,44 C24.8145897,44 28.212766,40.4 28.212766,35.2 C28.212766,27.44 24.5775076,22 19.9148936,22 Z M19.9148936,18 C26.9878419,18 32.1641337,25.24 32.1641337,35.2 C32.1641337,42.6 26.9878419,48 19.9148936,48 C12.8419453,48 7.6656535,42.6 7.6656535,35.2 C7.6656535,25.24 12.8419453,18 19.9148936,18 Z M0.158054711,-3.99929e-11 L4.10942249,-3.99929e-11 C4.10942249,7.08 4.14893617,7.76 7.15197568,9.32 L12.2492401,11.96 C14.9361702,13.36 17.9392097,14.8 17.9392097,18.4 L17.9392097,21.6 L13.9878419,21.6 C13.9878419,19.2 14.343465,17.08 11.2218845,15.6 L5.96656535,13.12 C0.632218845,10.6 0.158054711,8.72 0.158054711,-3.99929e-11 Z M39.6717325,-3.99929e-11 C39.6717325,8.72 39.1975684,10.6 33.8632219,13.12 L28.6079027,15.6 C25.4863222,17.08 25.8419453,19.2 25.8419453,21.6 L21.8905775,21.6 L21.8905775,18.4 C21.8905775,14.8 24.893617,13.36 27.5805471,11.96 L32.6778116,9.32 C35.6808511,7.76 35.7203647,7.04 35.7203647,-3.99929e-11 L39.6717325,-3.99929e-11 Z M19.9544073,27.64 C21.3768997,27.64 22.5227964,27.64 22.5227964,27.64 C22.5227964,27.64 21.3768997,27.64 19.9544073,27.64 C18.5319149,27.64 17.3860182,27.64 17.3860182,27.64 C17.3860182,27.64 18.5319149,27.64 19.9544073,27.64 Z" id="Shape" transform="translate(19.914894, 24.000000) scale(-1, 1) rotate(-180.000000) translate(-19.914894, -24.000000) "></path>
            </g>
        </g>
    </g>
</svg>