<?xml version="1.0" encoding="UTF-8"?>
<svg width="70px" height="75px" viewBox="0 0 70 75" version="1.1" xmlns="http://www.w3.org/2000/svg" xmlns:xlink="http://www.w3.org/1999/xlink">
    <!-- Generator: sketchtool 53.1 (72631) - https://sketchapp.com -->
    <title>38974CEC-CF5E-40C4-A2D9-AF8AFA008FF9</title>
    <desc>Created with sketchtool.</desc>
    <g id="Errors" stroke="none" stroke-width="1" fill="none" fill-rule="evenodd">
        <g id="Error-/-SystemFailure_768px+" transform="translate(-349.000000, -160.000000)" fill="#8B1863">
            <path d="M383.99954,188.125 C385.192769,188.125 386.282548,187.47266 386.827387,186.4297 C387.372287,185.3906 387.280801,184.1367 386.588741,183.1836 L370.679367,161.3086 C370.082763,160.48829 369.116227,160 368.090085,160 C367.063943,160 366.097467,160.48828 365.500802,161.3086 L349.591428,183.1836 C348.899368,184.13672 348.807893,185.3906 349.352783,186.4297 C349.897682,187.4727 350.987503,188.125 352.180629,188.125 L358.544379,188.125 L358.544379,231.875 C358.544379,233.6016 359.96823,235 361.726254,235 L374.453753,235 C376.211777,235 377.635628,233.6016 377.635628,231.875 L377.635628,225.625 C377.635628,221.4414 379.286232,217.5156 382.289107,214.57 C384.528332,212.3708 387.32044,210.9098 390.363127,210.3122 L390.363127,216.2497 C390.363127,217.4216 391.031321,218.4919 392.089281,219.027 C393.147293,219.56216 394.424014,219.47231 395.39446,218.79262 L417.667584,203.16762 C418.502823,202.58168 419,201.63242 419,200.62462 C419,199.61682 418.502833,198.66762 417.667584,198.08162 L395.39446,182.45662 C394.423993,181.77693 393.151264,181.68318 392.089281,182.22224 C391.03127,182.7574 390.363127,183.82774 390.363127,184.99954 L390.363127,191.39014 C385.892618,191.78076 381.593065,193.00344 377.635628,194.99564 L377.635628,188.12454 L383.99954,188.125 Z M373.030472,203.422 C374.11231,203.95325 375.400943,203.83606 376.363448,203.12512 C381.350998,199.44542 387.288733,197.50012 393.545572,197.50012 C395.303596,197.50012 396.727447,196.10172 396.727447,194.37512 L396.727447,191.07042 L410.345871,200.62512 L396.727447,210.17982 L396.727447,206.87512 C396.727447,205.14852 395.303596,203.75012 393.545572,203.75012 C387.587473,203.75012 381.986966,206.02352 377.786891,210.14852 C373.586817,214.27742 371.272041,219.77352 371.272041,225.62552 L371.272041,228.75052 L364.908291,228.75052 L364.908291,185.00052 C364.908291,183.27392 363.484441,181.87552 361.726417,181.87552 L358.365542,181.87552 L368.090166,168.50052 L377.81479,181.87552 L374.453916,181.87552 C372.695892,181.87552 371.272041,183.27392 371.272041,185.00052 L371.272041,200.62552 C371.272041,201.80912 371.956149,202.89112 373.030065,203.42242 L373.030472,203.422 Z" id="Fill-1"></path>
        </g>
    </g>
</svg>