<?xml version="1.0" encoding="UTF-8"?>
<svg width="26px" height="26px" viewBox="0 0 26 26" version="1.1" xmlns="http://www.w3.org/2000/svg" xmlns:xlink="http://www.w3.org/1999/xlink">
    <!-- Generator: sketchtool 53.2 (72643) - https://sketchapp.com -->
    <title>85369D17-6670-4E0C-9FA8-4D20A5B1C3F3</title>
    <desc>Created with sketchtool.</desc>
    <defs>
        <path d="M14.2957924,4.22871141 C14.9981177,4.66803606 15.2106325,5.59342859 14.7712886,6.29579243 C14.3319639,6.99811769 13.405819,7.21063252 12.7042076,6.77128859 C12.0018823,6.33121157 11.7893675,5.40581904 12.2287114,4.70420757 C12.6680361,4.00188231 13.594181,3.78936748 14.2957924,4.22871141 Z M9.75799584,9.79996177 L9.75779698,9.79985445 C9.36594802,9.82613965 9.02772884,9.51990336 9.00160557,9.11558415 C8.97548935,8.7105555 9.27107433,8.36025102 9.66223694,8.33253969 L14.3279585,8 L12.1797055,16.2866612 C11.7068328,18.1106908 13.5092571,17.5372549 14.682041,17.0000726 C14.7796601,16.9545965 14.8951469,16.9865735 14.9577044,17.0768145 C15.0202619,17.1670573 15.0126998,17.290696 14.9398314,17.3716999 C14.1341705,18.2762384 13.1133675,19.1267882 12.3544307,19.523995 C10.2790374,20.6090555 8.70479574,19.6874362 9.06913819,18.2812226 L10.9850906,10.892806 C11.0565917,10.6156745 10.9947135,10.320789 10.8194162,10.0998114 C10.6434309,9.87812251 10.3753172,9.75803823 10.0989674,9.77651246 L10.0996538,9.7772237 L9.75799584,9.79996177 Z" id="path-1"></path>
    </defs>
    <g id="Vehicle-Damage" stroke="none" stroke-width="1" fill="none" fill-rule="evenodd">
        <g id="VehDamage_768-991px-/-Nutral" transform="translate(-602.000000, -175.000000)">
            <g id="Group-Copy" transform="translate(603.000000, 176.000000)">
                <g id="04_Icons-/-24px-/-Information">
                    <mask id="mask-2" fill="white">
                        <use xlink:href="#path-1"></use>
                    </mask>
                    <use id="Combined-Shape" fill="#777770" fill-rule="evenodd" xlink:href="#path-1"></use>
                    <g id="00_Basics-/-Colors-/-Primary-/-800" mask="url(#mask-2)" fill="#FF7F00" fill-rule="evenodd">
                        <rect id="Rectangle-2" x="0" y="0" width="24.24" height="24.24"></rect>
                    </g>
                </g>
                <circle id="Oval" stroke="#FF7F00" cx="12" cy="12" r="12"></circle>
            </g>
        </g>
    </g>
</svg>