<?xml version="1.0" encoding="UTF-8"?>
<svg width="79px" height="34px" viewBox="0 0 79 34" version="1.1" xmlns="http://www.w3.org/2000/svg" xmlns:xlink="http://www.w3.org/1999/xlink">
    <!-- Generator: sketchtool 53.2 (72643) - https://sketchapp.com -->
    <title>6E560BAF-29A4-47BA-BF64-8D9ABEA5662E</title>
    <desc>Created with sketchtool.</desc>
    <defs>
        <path d="M71.229,34.2169444 C74.6305111,34.2169444 77.3899889,36.9765167 77.3899889,40.3779333 C77.3899889,43.7794444 74.6304167,46.5389222 71.229,46.5389222 C67.8274889,46.5389222 65.0680111,43.77935 65.0680111,40.3779333 C65.0680111,36.9727389 67.8275833,34.2169444 71.229,34.2169444 Z M71.229,43.4252778 C72.9112444,43.4252778 74.2763444,42.0602722 74.2763444,40.3779333 C74.2763444,38.6955944 72.9113389,37.3305889 71.229,37.3305889 C69.5429778,37.3305889 68.1816556,38.6955944 68.1816556,40.3779333 C68.1816556,42.0602722 69.5466611,43.4252778 71.229,43.4252778 Z M19.0012222,34.2169444 C22.4064167,34.2169444 25.1622111,36.9765167 25.1622111,40.3779333 C25.1622111,43.7794444 22.4026389,46.5389222 19.0012222,46.5389222 C15.5998056,46.5389222 12.8402333,43.77935 12.8402333,40.3779333 C12.8402333,36.9727389 15.5961222,34.2169444 19.0012222,34.2169444 Z M19.0012222,43.4252778 C20.6834667,43.4252778 22.0485667,42.0602722 22.0485667,40.3779333 C22.0485667,38.6955944 20.6835611,37.3305889 19.0012222,37.3305889 C17.3188833,37.3305889 15.9538778,38.6955944 15.9538778,40.3779333 C15.950185,42.0601778 17.3152,43.4252778 19.0012222,43.4252778 Z M6.68661111,31.343 C6.88213944,30.867085 8.87063889,29.3250056 8.87063889,29.3250056 C8.87063889,29.3250056 9.04034611,26.21495 9.04034611,25.9899833 C9.04034611,25.7649411 9.26538833,25.6247478 9.34655389,25.263205 C9.43140278,24.8979694 11.9253594,21.3968383 12.5156372,20.4155606 C13.1022222,19.4341883 16.7176594,15.7634161 16.7176594,15.7634161 L16.7176594,15.1473172 L17.082895,14.9517889 C17.082895,14.9517889 22.9413783,14.2213178 26.1915894,13.8856056 C29.4418006,13.5498933 36.0053117,13.465035 36.6210894,13.465035 C37.2368672,13.465035 42.9001339,13.6310494 46.4310339,14.0553128 C49.9616506,14.4758833 53.1048561,15.3428739 53.4406061,15.5383739 C53.7763561,15.7338739 59.6348394,18.5081794 59.6348394,18.5081794 C59.6348394,18.5081794 67.1203172,22.6548572 67.6256894,22.8245739 C68.1311183,22.9905883 69.7285894,23.1898094 69.7285894,23.1898094 C69.7285894,23.1898094 71.7171172,23.6362106 71.8868339,23.6362106 C72.0565411,23.6362106 77.0443506,25.1192717 77.4391283,25.3443328 C77.830185,25.569375 82.4269283,27.5025772 82.7663598,28.0632939 C83.1020814,28.6240578 83.2422748,29.7714161 83.2422748,29.7714161 C83.2422748,29.7714161 84.961447,31.5939106 84.961447,33.0216272 C84.961447,35.1429439 84.7290287,38.2344883 84.7548498,38.404205 C84.7806737,38.5739122 85.0057131,38.8506061 84.9503781,38.9944828 C84.8950393,39.1346761 84.3342792,40.1160106 83.9136614,40.5365717 C83.4930909,40.9571422 78.5052078,41.5179439 78.5052078,41.5179439 L78.4793772,41.5179439 C78.5310289,41.16747 78.5679189,40.8133033 78.5679189,40.4480772 C78.5679189,36.3972606 75.2844633,33.1138994 71.2337411,33.1138994 C67.1829244,33.1138994 63.8995633,36.397355 63.8995633,40.4480772 C63.8995633,40.8686478 63.9438389,41.2781589 64.0102428,41.6766106 L63.3056022,41.6839867 L26.4061578,41.4183617 C26.4504333,41.101085 26.4799472,40.7764322 26.4799472,40.4481339 C26.4799472,36.3973172 23.1964917,33.1139561 19.1457694,33.1139561 C15.1060972,33.1139561 11.8300083,36.3825839 11.815275,40.4186672 L10.3322139,40.3116806 C10.3322139,40.3116806 8.76424722,39.5258744 8.28465833,39.0794639 C7.80874333,38.6293794 6.91228611,37.2865306 6.91228611,37.2865306 L6.91228611,35.9695028 C6.91228611,35.5231017 6.54705056,34.4568806 6.54705056,34.4568806 C6.54335778,34.4531972 6.49171556,31.8190472 6.68724389,31.3431417 L6.68661111,31.343 Z M66.4633333,23.7616611 C65.9579044,23.5956467 58.4724833,19.4452667 58.4724833,19.4452667 C58.4724833,19.4452667 52.614,16.6709611 52.27825,16.4754611 C51.9425283,16.2799328 48.7992944,15.4129611 45.2686778,14.9924 C44.0033111,14.8411378 42.4611278,14.7230822 40.9780667,14.6345406 L43.4904778,22.4188406 C55.8202,22.9980494 66.6813111,23.8318239 66.4631444,23.7617461 L66.4633333,23.7616611 Z M42.0588889,22.3486778 L39.5427944,14.5533278 C37.4878722,14.4500244 35.77975,14.4020656 35.4588278,14.4020656 C34.8427289,14.4020656 28.2832222,14.4869239 25.0293278,14.8226361 C24.7304961,14.85215 24.6087572,14.8632189 24.5755506,14.8669117 C25.4056322,14.7673011 24.4648711,14.8742878 24.5755506,14.8669117 C24.494385,14.8779711 24.3984672,14.88904 24.2804117,14.9038017 L21.952545,21.8801294 C27.8922506,21.8100328 35.1454894,22.035075 42.0588889,22.3486778 Z" id="path-1"></path>
    </defs>
    <g id="Vehicle-Summary" stroke="none" stroke-width="1" fill="none" fill-rule="evenodd">
        <g id="Vehicle-Icons" transform="translate(-696.000000, -458.000000)">
            <g id="04_Icons-/-Vehicles-/-Hatchback" transform="translate(690.000000, 445.000000)">
                <mask id="mask-2" fill="white">
                    <use xlink:href="#path-1"></use>
                </mask>
                <use id="Combined-Shape" fill="#4C4C4C" fill-rule="evenodd" xlink:href="#path-1"></use>
                <g id="00_Basics-/-Colors-/-Gray-/-700" mask="url(#mask-2)" fill="#777770" fill-rule="evenodd">
                    <g transform="translate(-5.000000, -26.000000)" id="Rectangle-2">
                        <rect x="0" y="0" width="101" height="101"></rect>
                    </g>
                </g>
            </g>
        </g>
    </g>
</svg>