<?xml version="1.0" encoding="UTF-8"?>
<svg width="62px" height="84px" viewBox="0 0 62 84" version="1.1" xmlns="http://www.w3.org/2000/svg" xmlns:xlink="http://www.w3.org/1999/xlink">
    <!-- Generator: Sketch 53.2 (72643) - https://sketchapp.com -->
    <title>Title icon</title>
    <desc>Created with Sketch.</desc>
    <g id="Vehicle-Title-Holder" stroke="none" stroke-width="1" fill="none" fill-rule="evenodd">
        <g id="VehTitle_376px-/-Neutral" transform="translate(-157.000000, -118.000000)" stroke="#8B1863">
            <g id="Title-icon" transform="translate(159.000000, 120.000000)">
                <path d="M-4.53125e-05,13.3675028 L13.4011266,0.000271186441 L53.4687047,0.000271186441 C55.9713141,0.000271186441 57.9999547,2.02377401 57.9999547,4.5200452 L57.9999547,75.0330395 C57.9999547,77.5288588 55.9713141,79.5528136 53.4687047,79.5528136 L4.53120469,79.5528136 C2.02904844,79.5528136 -4.53125e-05,77.5288588 -4.53125e-05,75.0330395 L-4.53125e-05,13.3675028 Z" id="Stroke-1" stroke-width="4"></path>
                <path d="M0.453532812,13.8199322 L9.32345469,13.8199322 C11.8260641,13.8199322 13.8547047,11.7959774 13.8547047,9.30015819 L13.8547047,0.452700565" id="Stroke-3" stroke-width="4"></path>
                <polyline id="Stroke-5" stroke-width="2" points="29.3261141 49.7472542 31.9157234 69.7684972 38.2816766 60.0130169 48.1910672 64.4582147 40.3637859 45.2948249"></polyline>
                <polyline id="Stroke-7" stroke-width="2" points="17.6359875 45.2950056 9.80915938 64.4579435 19.71855 60.0127458 26.0845031 69.768226 28.6283469 50.1004294"></polyline>
                <path d="M28.9999547,14.2666215 C27.7629234,16.2530621 26.5594234,17.2279774 25.1434078,17.2279774 C24.1293141,17.2279774 23.0055641,16.7271864 21.6824391,15.7400678 C21.2900328,18.756113 20.2174859,20.115661 18.0075953,20.115661 C17.3464859,20.115661 16.5838766,19.9945311 15.7066266,19.7585989 C16.7320484,23.5579209 15.6055797,25.2108023 11.6778922,25.7192768 C14.0490953,28.8817627 13.6190797,30.8998418 10.2007047,33.0182599 C13.6190797,35.136678 14.0490953,37.1547571 11.6778922,40.3172429 C15.6055797,40.8257175 16.7320484,42.4785989 15.7066266,46.2774689 C16.5838766,46.0424407 17.3464859,45.9204068 18.0075953,45.9204068 C20.2179391,45.9204068 21.2900328,47.2804068 21.6824391,50.296452 C23.0055641,49.3093333 24.1293141,48.8089944 25.1434078,48.8089944 C26.5594234,48.8089944 27.7629234,49.7834576 28.9999547,51.7703503 C30.2369859,49.7839096 31.4404859,48.8089944 32.8565016,48.8089944 C33.8705953,48.8089944 34.9943453,49.3088814 36.3174703,50.296452 C36.7098766,47.2808588 37.7824234,45.9204068 39.9923141,45.9204068 C40.6534234,45.9204068 41.4160328,46.0424407 42.2932828,46.2774689 C41.2678609,42.4785989 42.3943297,40.8257175 46.3220172,40.3172429 C43.9508141,37.1547571 44.3808297,35.136678 47.7992047,33.0182599 C44.3808297,30.8998418 43.9508141,28.8817627 46.3220172,25.7192768 C42.3943297,25.2108023 41.2678609,23.5579209 42.2932828,19.7585989 C41.4160328,19.9940791 40.6534234,20.115661 39.9923141,20.115661 C37.7819703,20.115661 36.7098766,18.756113 36.3174703,15.7400678 C34.9943453,16.7271864 33.8705953,17.2279774 32.8565016,17.2279774 C31.4404859,17.2279774 30.2369859,16.2530621 28.9999547,14.2666215 Z" id="Stroke-9" stroke-width="3"></path>
                <polygon id="Stroke-11" stroke-width="2" points="28.9999547 22.8515254 31.6366891 29.6723164 38.9555641 30.0659887 33.2665797 34.6752542 35.1524859 41.739661 28.9999547 37.7672316 22.8474234 41.739661 24.7333297 34.6752542 19.0443453 30.0659887 26.3632203 29.6723164"></polygon>
            </g>
        </g>
    </g>
</svg>