<?xml version="1.0" encoding="UTF-8"?>
<svg width="39px" height="25px" viewBox="0 0 39 25" version="1.1" xmlns="http://www.w3.org/2000/svg" xmlns:xlink="http://www.w3.org/1999/xlink">
    <!-- Generator: sketchtool 54.1 (76490) - https://sketchapp.com -->
    <title>0F2F6A96-A603-43F4-A80C-4725C97669C6</title>
    <desc>Created with sketchtool.</desc>
    <defs>
        <path d="M20.2883155,10.9881022 C22.239347,9.55740215 24.6468202,8.7125 27.2516309,8.7125 C33.7616874,8.7125 39.0391309,13.9899435 39.0391309,20.5 C39.0391309,27.0100565 33.7616874,32.2875 27.2516309,32.2875 C24.6468202,32.2875 22.239347,31.4425978 20.2883155,30.0118978 C18.337284,31.4425978 15.9298107,32.2875 13.325,32.2875 C6.81494351,32.2875 1.5375,27.0100565 1.5375,20.5 C1.5375,13.9899435 6.81494351,8.7125 13.325,8.7125 C15.9298107,8.7125 18.337284,9.55740215 20.2883155,10.9881022 Z M19.4590957,11.6555124 C17.7188432,10.4462874 15.6046947,9.7375 13.325,9.7375 C7.38103538,9.7375 2.5625,14.5560354 2.5625,20.5 C2.5625,26.4439646 7.38103538,31.2625 13.325,31.2625 C15.6046947,31.2625 17.7188432,30.5537126 19.4590957,29.3444876 C17.0094123,27.1844978 15.4641309,24.0227088 15.4641309,20.5 C15.4641309,16.9772912 17.0094123,13.8155022 19.4590957,11.6555124 Z M21.1175352,29.3444876 C22.8577877,30.5537126 24.9719362,31.2625 27.2516309,31.2625 C33.1955955,31.2625 38.0141309,26.4439646 38.0141309,20.5 C38.0141309,14.5560354 33.1955955,9.7375 27.2516309,9.7375 C24.9719362,9.7375 22.8577877,10.4462874 21.1175352,11.6555124 C23.5672186,13.8155022 25.1125,16.9772912 25.1125,20.5 C25.1125,24.0227088 23.5672186,27.1844978 21.1175352,29.3444876 Z M20.2883155,28.7066052 C22.6126457,26.7324598 24.0875,23.7884652 24.0875,20.5 C24.0875,17.2115348 22.6126457,14.2675402 20.2883155,12.2933948 C17.9639852,14.2675402 16.4891309,17.2115348 16.4891309,20.5 C16.4891309,23.7884652 17.9639852,26.7324598 20.2883155,28.7066052 Z" id="path-1"></path>
    </defs>
    <g id="Payment" stroke="none" stroke-width="1" fill="none" fill-rule="evenodd">
        <g id="Credit-Cards" transform="translate(-98.000000, -197.000000)">
            <g id="09_Misc-/-CreditCard-Copy" transform="translate(89.000000, 189.000000)">
                <g id="CC-Icon" transform="translate(8.000000, 0.000000)">
                    <mask id="mask-2" fill="white">
                        <use xlink:href="#path-1"></use>
                    </mask>
                    <use id="Mastercard" fill="#979797" fill-rule="nonzero" xlink:href="#path-1"></use>
                    <g id="00_Basics-/-Colors-/-Gray-/-700" mask="url(#mask-2)" fill="#FFFFFF">
                        <g transform="translate(-5.125000, -5.125000)" id="Rectangle-2">
                            <rect x="0" y="0" width="51.7625" height="51.7625"></rect>
                        </g>
                    </g>
                </g>
            </g>
        </g>
    </g>
</svg>