<?xml version="1.0" encoding="UTF-8"?>
<svg width="83px" height="83px" viewBox="0 0 83 83" version="1.1" xmlns="http://www.w3.org/2000/svg" xmlns:xlink="http://www.w3.org/1999/xlink">
    <!-- Generator: sketchtool 52.6 (67491) - http://www.bohemiancoding.com/sketch -->
    <title>2253BAA5-C524-4BE1-BE5C-412923E43CF2</title>
    <desc>Created with sketchtool.</desc>
    <g id="Major-Violations" stroke="none" stroke-width="1" fill="none" fill-rule="evenodd">
        <g id="MajorViolation_376-599px-/-Nutral" transform="translate(-150.000000, -102.000000)" stroke="#006580">
            <g id="Group-3" transform="translate(16.000000, 104.000000)">
                <g id="Cop-Icon" transform="translate(136.000000, 0.000000)">
                    <g id="Group-31" transform="translate(0.000000, 0.001548)">
                        <path d="M53.8992,23.2071742 L53.8992,31.1328516 L53.8992,33.4802065 C53.8992,41.5839484 47.3293935,48.1537548 39.2256516,48.1537548 C31.1219097,48.1537548 24.5526194,41.5839484 24.5526194,33.4802065 L24.5526194,23.2071742" id="Stroke-3" stroke-width="4" stroke-linejoin="round"></path>
                        <path d="M7.31122581,78.9677935 L71.1403871,78.9677935" id="Stroke-5" stroke-width="4"></path>
                        <path d="M58.4115613,19.0776774 C58.4115613,22.7710968 49.8216258,25.7651613 39.2260129,25.7651613 C28.6298839,25.7651613 20.0399484,22.7710968 20.0399484,19.0776774 C24.1447226,14.9734194 24.0915613,10.7778065 22.498271,9.79664516 C20.0399484,8.28180645 17.6781419,5.12567742 23.1000774,5.87354839 C28.0894968,6.56154839 39.2260129,0.514580645 39.2260129,0.514580645 C39.2260129,0.514580645 50.3620129,6.56154839 55.3514323,5.87354839 C60.7738839,5.12567742 58.4115613,8.28180645 55.9532387,9.79664516 C54.3599484,10.7778065 54.3067871,14.9734194 58.4115613,19.0776774 Z" id="Stroke-7" stroke-width="4" stroke-linejoin="round"></path>
                        <path d="M58.4115613,20.1109161 C58.4115613,18.9269161 49.8216258,17.9674323 39.2260129,17.9674323 C28.6298839,17.9674323 20.0399484,18.9269161 20.0399484,20.1109161" id="Stroke-9" stroke-width="2" stroke-linejoin="round"></path>
                        <path d="M57.7598452,18.0449032 C57.7598452,16.8609032 49.4620387,15.9014194 39.2256516,15.9014194 C28.9897806,15.9014194 20.6919742,16.8609032 20.6919742,18.0449032" id="Stroke-11" stroke-width="2" stroke-linejoin="round"></path>
                        <path d="M39.2258065,3.97734194 L40.8495484,5.63772903 L43.019871,5.69295484 L42.0567742,7.37553548 C42.0567742,7.37553548 43.5855484,8.61218065 43.0234839,10.0748903 C42.4619355,11.5376 39.2258065,13.6563097 39.2258065,13.6563097 C39.2258065,13.6563097 35.9896774,11.5376 35.428129,10.0748903 C34.8660645,8.61218065 36.3948387,7.37553548 36.3948387,7.37553548 L35.4317419,5.69295484 L37.6020645,5.63772903 L39.2258065,3.97734194 Z" id="Stroke-13" stroke-width="4" stroke-linejoin="round"></path>
                        <path d="M56.7716645,52.7777548 L49.4013419,65.2438194 C49.4013419,65.2438194 45.7166968,59.0110452 39.2258581,59.0110452 C32.7350194,59.0110452 29.0503742,65.2438194 29.0503742,65.2438194 L21.6800516,52.7777548" id="Stroke-15" stroke-width="4"></path>
                        <path d="M50.2845419,51.2772645 C50.2845419,54.1557161 45.3333161,56.4891355 39.2259613,56.4891355 C33.1180903,56.4891355 28.1668645,54.1557161 28.1668645,51.2772645 L29.0504774,50.5959742 C26.7454452,50.8488774 26.2153806,51.1539097 24.1828645,51.5208774 C16.5694452,52.8942968 10.5054452,55.1874581 3.32609032,59.3371355 C1.27499355,60.5221677 0.00015483871,62.7022968 0.00015483871,65.0708129 L0.00015483871,73.8062968 C0.00015483871,76.6568774 2.31086452,78.9675871 5.16144516,78.9675871 L73.2904774,78.9675871 C76.1410581,78.9675871 78.4517677,76.6568774 78.4517677,73.8062968 L78.4517677,65.0708129 C78.4517677,62.7022968 77.176929,60.5221677 75.1258323,59.3371355 C67.9464774,55.1874581 61.8819613,52.8942968 54.2685419,51.5208774 C52.2360258,51.1539097 51.7064774,50.8488774 49.4014452,50.5959742 L50.2845419,51.2772645 Z" id="Stroke-17" stroke-width="4" stroke-linecap="round"></path>
                        <path d="M35.3036903,40.1996387 L43.1478194,40.1996387" id="Stroke-19" stroke-width="2"></path>
                        <polygon id="Stroke-21" stroke-width="2" points="16.2512516 58.2576 7.31138065 62.1910194 5.48325161 58.0356645 14.4231226 54.1022452"></polygon>
                        <polygon id="Stroke-23" stroke-width="2" points="62.2003613 58.2576 71.1402323 62.1910194 72.9683613 58.0356645 64.0284903 54.1022452"></polygon>
                        <path d="M37.4405161,64.9234581 C38.5987097,64.5461677 39.8529032,64.5461677 41.0110968,64.9234581 C42.6503226,65.4561032 43.5282581,64.6881032 43.2309677,63.4235871 C42.9156129,62.5157161 42.5734194,61.6512 42.2126452,60.8305548 C41.9700645,60.0192 41.0126452,59.0158452 39.8069677,58.9069419 C39.4203871,58.8682323 39.0312258,58.8682323 38.6446452,58.9069419 C37.4394839,59.0158452 36.4815484,60.0192 36.2389677,60.8305548 C35.8781935,61.6512 35.536,62.5157161 35.2206452,63.4235871 C34.9233548,64.6881032 35.8012903,65.4561032 37.4405161,64.9234581 Z" id="Stroke-25" stroke-width="2"></path>
                        <polygon id="Stroke-27" stroke-width="4" points="41.0813935 65.6018581 37.3704258 65.6018581 36.0460387 78.9675355 42.4057806 78.9675355"></polygon>
                        <path d="M52.1839484,29.3886452 C52.0874323,28.1550968 51.4138839,26.5540645 49.8329806,26.1034839 C48.7826581,25.8036129 47.6249806,25.7458065 46.5354323,25.7282581 C46.2675613,25.7107097 45.9981419,25.7014194 45.7354323,25.7014194 C45.1516903,25.7014194 44.5953032,25.7437419 44.0678194,25.8268387 C44.0626581,25.8258065 44.0574968,25.8252903 44.0518194,25.8252903 L34.3723355,25.8252903 C33.8484645,25.7432258 33.2956903,25.7014194 32.7165935,25.7014194 C32.4533677,25.7014194 32.1839484,25.7107097 31.9217548,25.7277419 C30.8270452,25.7458065 29.6693677,25.8036129 28.6180129,26.1034839 C27.0376258,26.5540645 26.3640774,28.1550968 26.2675613,29.3886452 C26.1849806,30.4415484 26.146271,31.7819355 26.5793032,32.812129 C27.1976258,34.2836129 28.6469161,35.2993548 30.3614968,35.464 C30.5075613,35.4779355 30.6572387,35.4851613 30.8048516,35.4851613 C32.5793032,35.4851613 34.0466581,34.4874839 34.9648516,33.6498065 C36.0864,32.627871 37.0464,31.2477419 37.5996903,29.8629677 C37.8464,29.2467097 37.8876903,28.6268387 37.7524645,28.0740645 L37.9217548,28.0100645 C37.9671742,27.9925161 37.9965935,27.9496774 37.9965935,27.9011613 L37.9965935,27.2245161 C38.0187871,27.1491613 38.4074323,26.9695484 39.2368516,26.9695484 C40.0657548,26.9695484 40.4544,27.1491613 40.4765935,27.2219355 L40.4765935,27.9011613 C40.4765935,27.9496774 40.506529,27.9930323 40.5519484,28.0100645 L40.7005935,28.0658065 C40.5633032,28.6216774 40.6040774,29.2436129 40.8513032,29.8629677 C41.4045935,31.2477419 42.3651097,32.627871 43.4861419,33.6498065 C44.4048516,34.4869677 45.8716903,35.4851613 47.6461419,35.4851613 L47.6466581,35.4851613 C47.7937548,35.4851613 47.9434323,35.4779355 48.0894968,35.464 C49.8040774,35.2993548 51.2533677,34.2836129 51.8722065,32.812129 C52.3052387,31.7819355 52.266529,30.4415484 52.1839484,29.3886452 Z" id="Stroke-29" stroke-width="2"></path>
                        <path d="M29.0504258,52.7777548 L29.0504258,44.0396903" id="Stroke-1" stroke-width="4" stroke-linecap="round"></path>
                        <path d="M49.4011871,44.0398452 L49.4011871,52.7779097" id="Stroke-2" stroke-width="4" stroke-linecap="round"></path>
                    </g>
                </g>
            </g>
        </g>
    </g>
</svg>