<?xml version="1.0" encoding="UTF-8"?>
<svg width="70px" height="80px" viewBox="0 0 70 80" version="1.1" xmlns="http://www.w3.org/2000/svg" xmlns:xlink="http://www.w3.org/1999/xlink">
    <!-- Generator: Sketch 53.2 (72643) - https://sketchapp.com -->
    <title>Group 4</title>
    <desc>Created with Sketch.</desc>
    <g id="Vehicle-Title-Holder" stroke="none" stroke-width="1" fill="none" fill-rule="evenodd">
        <g id="SNI_376px-/-ContactInfo" transform="translate(-154.000000, -120.000000)" fill="#8B1863">
            <g id="Group-4" transform="translate(154.000000, 120.000000)">
                <path d="M69.028,17.3032 C69.02488,17.268824 69.034256,17.237576 69.031128,17.2032 C69.021752,17.146952 68.990504,17.096952 68.97488,17.040704 C68.953,16.959456 68.931128,16.881328 68.890504,16.806328 C68.878,16.7782 68.87488,16.746952 68.859256,16.718832 C68.831128,16.67196 68.781128,16.637584 68.74988,16.59696 C68.696752,16.528208 68.643632,16.459456 68.571752,16.403208 C68.543624,16.381336 68.534248,16.35008 68.50612,16.331336 L68.503,16.331336 C68.503,16.331336 68.503,16.328208 68.499872,16.328208 L47.383872,0.806608 C46.905744,0.459736 46.277632,0.459736 45.799472,0.806608 L24.686672,16.328208 L24.680424,16.334456 C24.677296,16.337584 24.66792,16.337584 24.6648,16.340704 C24.64292,16.359456 24.627296,16.387584 24.605424,16.406336 C24.54292,16.462584 24.4898,16.531336 24.436672,16.600088 C24.402296,16.643832 24.352296,16.681336 24.321048,16.731336 C24.305424,16.759456 24.302296,16.787584 24.286672,16.815712 C24.255424,16.884456 24.236672,16.959464 24.214792,17.034464 C24.199168,17.093832 24.164792,17.150088 24.155424,17.212592 C24.149168,17.24696 24.158544,17.281336 24.158544,17.31572 C24.155424,17.346968 24.14292,17.36884 24.14292,17.400096 L24.14292,41.172096 L1.4989208,41.172096 C1.445796,41.172096 1.4020488,41.193968 1.3520488,41.203344 C1.2301768,41.21584 1.1051768,41.231464 0.9926728,41.275216 C0.8301688,41.34084 0.6832968,41.437712 0.5582968,41.56272 L0.5551712,41.565848 C0.5114216,41.6096 0.4957968,41.66272 0.4582992,41.7096 C0.3895488,41.800224 0.3145472,41.890848 0.2707952,41.997104 C0.2145448,42.134608 0.1895472,42.28148 0.1832912,42.428352 C0.1832912,42.456472 0.1676664,42.478352 0.1676664,42.506472 L0.1676664,42.5096 L0.1676664,42.512728 L0.1676664,78.1191248 C0.1676664,78.1503744 0.1832912,78.1753744 0.1832912,78.2066208 C0.1895408,78.3003728 0.2145408,78.3878688 0.236416,78.4784928 C0.2582912,78.5597408 0.2801656,78.6347408 0.3145408,78.7097408 C0.3520408,78.7816152 0.4020448,78.8472448 0.4520448,78.9128688 C0.5082952,78.984744 0.5614208,79.0566208 0.6332928,79.1191168 C0.6551672,79.1378664 0.667668,79.1659912 0.6895424,79.1847416 C0.7114176,79.2003666 0.742668,79.1941168 0.7707904,79.2128666 C0.9801664,79.3566186 1.2207904,79.4566186 1.4926624,79.4597386 L1.4957872,79.4597386 L43.733392,79.4597386 C44.002144,79.4597386 44.242768,79.3597386 44.452144,79.2191146 C44.474016,79.203489 44.505264,79.2097394 44.530264,79.1909888 C44.552144,79.1722392 44.567768,79.1441144 44.58964,79.125364 C44.661512,79.062864 44.720888,78.990988 44.780264,78.915988 C44.830264,78.853488 44.877136,78.794116 44.91464,78.719116 C44.955264,78.6409904 44.974016,78.562868 44.999016,78.478492 C45.020888,78.390988 45.045888,78.312868 45.052144,78.222244 C45.055264,78.1878688 45.070888,78.159744 45.070888,78.125372 L45.070888,54.356568 L67.711688,54.356568 C68.449192,54.356568 69.046088,53.756568 69.046088,53.022168 L69.042968,17.400568 C69.046088,17.3662 69.030464,17.338072 69.027344,17.303696 L69.028,17.3032 Z M54.4216,37.4624 L66.3744,21.4184 L66.3744,49.8312 L54.4216,37.4624 Z M40.8032,35.31864 L32.8532,24.88424 L32.8532,18.73424 L60.894,18.73424 L60.894,24.32176 L52.55,35.52176 L47.64376,30.44048 C47.39376,30.184232 47.053136,30.037352 46.69688,30.034232 C46.415632,30.102984 45.99688,30.171736 45.74688,30.421736 L40.8032,35.31864 Z M46.59384,3.53464 L65.84104,17.68184 L63.56288,20.73808 L63.56288,17.40056 C63.56288,16.663056 62.96288,16.06616 62.22848,16.06616 L31.52208,16.06616 C30.784576,16.06616 30.18768,16.663032 30.18768,17.40056 L30.18768,21.38808 L27.3564,17.67248 L46.59384,3.53464 Z M26.80664,21.35064 L30.22224,25.83504 C30.287864,26.313168 30.587864,26.7132 31.02224,26.88816 L38.88784,37.21616 L34.89096,41.17552 L26.80696,41.172392 L26.80664,21.35064 Z M42.40344,74.1010432 L30.29064,57.83864 L42.40344,45.73224 L42.40344,74.1010432 Z M15.190648,57.95384 L2.834648,74.1722432 L2.834648,45.70664 L15.190648,57.95384 Z M17.100008,59.8476 L21.768728,64.47576 C22.028104,64.732008 22.368728,64.863264 22.709368,64.863264 C23.05312,64.863264 23.393744,64.732016 23.653128,64.47264 L28.384408,59.74136 L41.084408,76.7885632 L4.194008,76.7885632 L17.100008,59.8476 Z M27.768808,56.582 C27.750056,56.594504 27.728176,56.594504 27.709432,56.610128 C27.593808,56.697632 27.509432,56.807 27.431304,56.919504 L22.703144,61.647664 L4.740744,43.844464 L40.512744,43.844464 L27.768808,56.582 Z M45.068808,42.5068 C45.068808,42.500552 45.06568,42.494304 45.06568,42.488056 C45.062552,42.322432 45.031304,42.15368 44.96568,41.997432 C44.909432,41.859928 44.818808,41.741184 44.721928,41.631808 C44.706304,41.613056 44.700048,41.584928 44.678176,41.566184 C44.662552,41.550552 44.64068,41.547432 44.625048,41.52868 C44.512552,41.425552 44.387544,41.334928 44.2438,41.275552 C44.081296,41.209928 43.906296,41.172424 43.734424,41.172424 L38.684424,41.172424 L46.662592,33.266184 L64.449784,51.682184 L45.071384,51.682184 L45.071384,42.506984 L45.068808,42.5068 Z" id="Fill-1"></path>
                <path d="M55.3624,22.972 C55.3624,22.234496 54.7624,21.6376 54.028,21.6376 L40.6624,21.6376 C39.924896,21.6376 39.328,22.234472 39.328,22.972 C39.328,23.709528 39.928,24.3064 40.6624,24.3064 L54.028,24.3064 C54.765504,24.3064 55.3624,23.7064 55.3624,22.972 Z" id="Fill-2"></path>
                <path d="M55.3624,26.9968 C55.3624,26.259296 54.7624,25.6624 54.028,25.6624 L43.372,25.6624 C42.634496,25.6624 42.0376,26.259272 42.0376,26.9968 C42.0376,27.734328 42.6376,28.3312 43.372,28.3312 L54.028,28.3312 C54.765504,28.3312 55.3624,27.7312 55.3624,26.9968 Z" id="Fill-3"></path>
            </g>
        </g>
    </g>
</svg>