<?xml version="1.0" encoding="UTF-8"?>
<svg width="76px" height="82px" viewBox="0 0 76 82" version="1.1" xmlns="http://www.w3.org/2000/svg" xmlns:xlink="http://www.w3.org/1999/xlink">
    <!-- Generator: Sketch 55.1 (78136) - https://sketchapp.com -->
    <title>Billing Address Icon</title>
    <desc>Created with Sketch.</desc>
    <g id="Address-Verification" stroke="none" stroke-width="1" fill="none" fill-rule="evenodd">
        <g id="AddressVerification_376px_BillingA" transform="translate(-150.000000, -119.000000)" stroke="#8B1863" stroke-width="2">
            <g id="Billing-Address-Icon" transform="translate(151.000000, 120.000000)">
                <path d="M1.71778313,78.2531084 L33.8965783,50.3128675 C35.4816386,48.9369639 37.8373012,48.9369639 39.4218795,50.3128675 L71.6011566,78.2531084" id="Stroke-1"></path>
                <path d="M31.9921446,51.9736867 L1.71792771,27.2291084" id="Stroke-3"></path>
                <path d="M71.6010602,27.229012 L41.2622651,52.0261205" id="Stroke-5"></path>
                <path d="M69.1053012,25.6841446 C71.4320482,25.6841446 73.3187952,27.5708916 73.3187952,29.8976386 L73.3187952,75.4060723 C73.3187952,77.7333012 71.4320482,79.6200482 69.1053012,79.6200482 L4.21373494,79.6200482 C1.88650602,79.6200482 -0.000240963855,77.7333012 -0.000240963855,75.4060723 L-0.000240963855,29.8976386 C-0.000240963855,27.5708916 1.88650602,25.6841446 4.21373494,25.6841446 L7.73277108,25.6841446" id="Stroke-7"></path>
                <path d="M10.9704096,32.4313735 L10.9704096,11.7658313 L22.7361928,4.81927711e-05 L57.9140241,4.81927711e-05 C60.1116145,4.81927711e-05 61.8928193,1.78077108 61.8928193,3.97787952 L61.8928193,5.01643373" id="Stroke-9"></path>
                <path d="M11.3685783,12.1638072 L19.1560482,12.1638072 C21.3536386,12.1638072 23.1343614,10.3826024 23.1343614,8.18549398 L23.1343614,0.398024096" id="Stroke-11"></path>
                <path d="M41.2622169,41.4027952 L18.5292048,41.4027952" id="Stroke-13"></path>
                <path d="M53.6883373,35.7392289 L18.5293012,35.7392289" id="Stroke-15"></path>
                <path d="M44.1471807,29.697012 L18.5293494,29.697012" id="Stroke-17"></path>
                <path d="M39.6126265,23.844 L18.529253,23.844" id="Stroke-19"></path>
                <path d="M38.4181687,17.9911807 L18.529012,17.9911807" id="Stroke-21"></path>
                <path d="M68.8558554,17.8034217 C68.8558554,26.2087229 62.0418795,33.0222169 53.6370602,33.0222169 C45.231759,33.0222169 38.4182651,26.2087229 38.4182651,17.8034217 C38.4182651,9.39860241 45.231759,2.58462651 53.6370602,2.58462651 C62.0418795,2.58462651 68.8558554,9.39860241 68.8558554,17.8034217 Z" id="Stroke-23"></path>
                <path d="M58.7819759,13.5609157 C58.7819759,6.5946506 49.0296867,7.46549398 49.0296867,12.6900723 C49.0296867,18.9594699 58.9559518,16.9565783 58.9559518,22.4423614 C58.9559518,28.6245301 48.4200482,28.8857349 48.4200482,22.0071807" id="Stroke-25"></path>
                <path d="M53.6883373,8.59759036 L53.6883373,5.2886747" id="Stroke-27"></path>
                <path d="M53.6883373,30.3342651 L53.6883373,27.0253494" id="Stroke-29"></path>
            </g>
        </g>
    </g>
</svg>