<?xml version="1.0" encoding="UTF-8"?>
<svg width="37px" height="13px" viewBox="0 0 37 13" version="1.1" xmlns="http://www.w3.org/2000/svg" xmlns:xlink="http://www.w3.org/1999/xlink">
    <!-- Generator: sketchtool 54.1 (76490) - https://sketchapp.com -->
    <title>5CF1724C-8EC8-4BC1-8392-FD7C76214B3D</title>
    <desc>Created with sketchtool.</desc>
    <defs>
        <path d="M14.35,25.625 L16.1243972,14.8625 L18.9625,14.8625 L17.186937,25.625 L14.35,25.625 Z M27.675,15.3211615 L27.2816123,17.6885886 L27.0213418,17.5626096 C26.485533,17.341229 25.7977605,17.1288993 24.8480477,17.1440657 C23.7115413,17.1440657 23.1852749,17.6296353 23.1852749,18.083649 C23.1785952,18.5953929 23.8002861,18.9324785 24.8153648,19.4378623 C26.4903042,20.2174645 27.2639587,21.1629187 27.2529849,22.4055856 C27.2305602,24.6729633 25.2490694,26.1375 22.1969151,26.1375 C20.8948471,26.1238013 19.64073,25.8596123 18.9625,25.5545718 L19.3699628,23.1093557 L19.7442656,23.2830356 C20.6977954,23.6908162 21.3151923,23.8564236 22.4772247,23.8564236 C23.311951,23.8564236 24.2072718,23.5220288 24.2144287,22.7898827 C24.2199156,22.3116517 23.8398873,21.9701629 22.7098221,21.4349356 C21.6081457,20.9121838 20.1493428,20.0366907 20.1653265,18.4672123 C20.1825029,16.3439154 22.2035948,14.8625 25.0727725,14.8625 C26.1985436,14.8625 27.0998285,15.0997809 27.675,15.3211615 Z M31.582528,21.8038856 L33.9518994,21.8038856 C33.8376874,21.2646271 33.2910177,18.6939848 33.2910177,18.6939848 L33.0982409,17.7654762 C32.9540102,18.1699201 32.7028376,18.8220466 32.7197231,18.7933473 C32.7197231,18.7933473 31.8184567,21.1833525 31.582528,21.8038856 Z M35.102228,14.8625 L37.4125,25.625 L34.7638133,25.625 C34.7638133,25.625 34.5018527,24.3882748 34.4167214,24.0113244 C34.0004456,24.0113244 31.0886257,24.006501 30.7609991,24.006501 C30.6500704,24.2978356 30.1601548,25.625 30.1601548,25.625 L27.1625,25.625 L31.401712,15.7555565 C31.7018996,15.054231 32.2131567,14.8625 32.8967871,14.8625 L35.102228,14.8625 Z M11.7750847,14.869014 L14.8625,14.869014 L10.2736425,25.6213811 L7.1902981,25.625 L4.58085385,16.2034095 C4.58085385,16.2034095 3.68645408,15.3865114 1.5375,14.8625 L6.27434653,14.8625 C6.90749057,14.8861432 7.41922612,15.0897646 7.59571143,15.7717998 L8.61750629,20.7226463 L8.92162616,22.2155481 L11.7750847,14.869014 Z" id="path-1"></path>
    </defs>
    <g id="Payment" stroke="none" stroke-width="1" fill="none" fill-rule="evenodd">
        <g id="Credit-Cards" transform="translate(-98.000000, -59.000000)">
            <g id="09_Misc-/-CreditCard-Copy-2" transform="translate(89.000000, 45.000000)">
                <g id="CC-Icon" transform="translate(8.000000, 0.000000)">
                    <mask id="mask-2" fill="white">
                        <use xlink:href="#path-1"></use>
                    </mask>
                    <g id="VISA"></g>
                    <g id="00_Basics-/-Colors-/-Gray-/-700" mask="url(#mask-2)" fill="#FFFFFF">
                        <g transform="translate(-5.125000, -5.125000)" id="Rectangle-2">
                            <rect x="0" y="0" width="51.7625" height="51.7625"></rect>
                        </g>
                    </g>
                </g>
            </g>
        </g>
    </g>
</svg>