<?xml version="1.0" encoding="UTF-8"?>
<svg width="106px" height="80px" viewBox="0 0 106 80" version="1.1" xmlns="http://www.w3.org/2000/svg" xmlns:xlink="http://www.w3.org/1999/xlink">
    <!-- Generator: sketchtool 52.6 (67491) - http://www.bohemiancoding.com/sketch -->
    <title>58F22426-B242-4849-A64B-D53721CFB4B0</title>
    <desc>Created with sketchtool.</desc>
    <g id="Name/DoB/Sex" stroke="none" stroke-width="1" fill="none" fill-rule="evenodd">
        <g id="Basic_376-599px-/-Nutral" transform="translate(-135.000000, -104.000000)" fill="#006580">
            <g id="Group-3" transform="translate(16.000000, 104.000000)">
                <path d="M173.823339,1.81094474 C176.821445,1.81094474 179.458818,3.48796501 180.65806,6.00829238 C181.735507,5.40867129 182.934702,5.16975826 184.133944,5.16975826 C188.331291,5.16975826 191.807175,8.6456418 191.807175,12.8429894 L191.807175,14.6418527 C192.645709,14.2811447 193.484195,14.1640267 194.444548,14.1640267 C198.641896,14.1640267 202.11778,17.6399102 202.11778,21.8372578 L202.11778,25.1960953 C202.239575,27.3556907 203.317022,67.4082209 194.083816,79.0396708 C193.60599,79.6392919 192.884574,80 192.16311,80 C191.563489,80 191.085663,79.761087 190.603136,79.4003789 C189.525689,78.5618448 189.403894,77.0018945 190.242428,75.8026524 C197.077149,67.2861141 197.559724,36.4663095 197.198992,25.1958315 L197.198992,21.836994 C197.198992,20.3988628 195.99975,19.1996206 194.561618,19.1996206 C193.123487,19.1996206 191.924245,20.3988628 191.924245,21.836994 L191.924245,39.708101 C191.924245,41.1462322 190.846798,42.2284284 189.403918,42.2284284 C187.965786,42.2284284 186.88359,41.1509812 186.88359,39.708101 L186.88359,12.7203549 C186.88359,11.2822237 185.684348,10.0829815 184.246217,10.0829815 C182.808086,10.0829815 181.608843,11.2822237 181.608843,12.7203549 L181.608843,19.915808 L181.61821,37.6657916 C181.61821,39.1039228 180.540762,40.1861189 179.097882,40.1861189 C177.659751,40.1861189 176.577555,39.1086718 176.577555,37.6657916 L176.577555,9.60112602 C176.577555,8.1629948 175.378313,6.96375261 173.940181,6.96375261 C172.50205,6.96375261 171.302808,8.1629948 171.302808,9.60112602 L171.302808,41.8583422 C171.302808,43.2964735 170.225361,44.3786696 168.782481,44.3786696 C167.344349,44.3786696 166.262153,43.3012225 166.262153,41.8583422 L166.262153,12.9590041 C166.262153,11.5208729 165.062911,10.3216307 163.62478,10.3216307 C162.186649,10.3216307 160.987406,11.5208729 160.987406,12.9590041 L160.987406,54.5715086 C160.987406,55.7707508 160.26599,56.7311039 159.0667,56.969993 C157.989253,57.208906 156.790059,56.73108 156.190438,55.7707508 L148.634253,42.7014095 C148.273545,41.9799934 147.795718,41.6239623 147.074278,41.3803243 C146.474657,41.2585293 145.875036,41.3803243 145.397258,41.6192373 C144.558724,42.0970634 144.558724,44.0177217 145.158345,46.055474 C145.519053,46.8940081 152.475641,66.4425911 160.148872,74.1153426 C161.109201,75.0756718 161.109201,76.63567 160.148872,77.7130691 C159.671046,78.1908952 159.071425,78.4344853 158.350009,78.4344853 C157.750388,78.4344853 157.028924,78.1955722 156.551146,77.7130691 C147.917561,69.0794848 140.722348,48.5702849 140.361376,47.7320146 C138.923245,43.2957779 139.88355,39.3373193 142.638018,37.416613 C144.315038,36.3391659 146.357587,35.9784818 148.273497,36.4562839 C150.194203,36.9341099 151.871223,38.2551471 152.948622,40.1758534 L155.707839,44.9728222 L155.707839,12.7156059 C155.707839,8.5182583 159.183722,5.04237476 163.38107,5.04237476 C164.702155,5.04237476 165.901397,5.40308282 166.856953,5.88090888 C168.182716,3.60894456 170.824766,1.81008129 173.822872,1.81008129 L173.823339,1.81094474 Z M165.667533,51.5794953 L165.667437,51.5793034 C166.62779,50.6189743 168.183039,50.6189743 169.260487,51.7010985 C169.621219,52.0620704 179.697731,62.1393024 178.376646,76.4078859 C178.254803,77.7241981 177.177404,78.6845273 175.856319,78.6845273 L175.617406,78.6845273 C174.301093,78.5626843 173.218969,77.3634421 173.340764,75.9253109 C174.42296,64.0496952 165.789328,55.2990169 165.667533,55.1772219 C164.707204,54.2168687 164.707204,52.5398245 165.667533,51.5794953 Z M209.678522,22.7976829 L209.678642,22.7980667 C208.840132,16.6800128 205.603137,13.8036904 205.607814,13.6865844 C204.530367,12.7262312 204.408572,11.166305 205.368901,10.0888578 C206.207411,9.12852866 207.767338,9.01141067 208.844785,9.84994479 C208.961831,9.96627128 213.641705,14.0470526 214.719153,22.0810158 C214.958042,23.519147 213.880642,24.7183652 212.559557,24.9572783 L212.198849,24.9572783 C210.877764,24.9572783 209.800317,24.1187681 209.678522,22.7976829 Z M219.87208,25.3133333 L219.8722,25.3128775 C217.834328,11.4050261 210.15642,4.56558005 210.161097,4.44846206 C209.08365,3.48810892 208.961855,1.92818266 209.922184,0.850735514 C210.882537,-0.109593641 212.442463,-0.348506669 213.51991,0.611822486 C213.880642,0.972794383 222.63607,8.64554587 224.912711,24.5966661 C225.1516,26.0347974 224.074201,27.2340156 222.753116,27.4729286 L222.392408,27.4729286 C221.071323,27.4729286 219.993875,26.6344184 219.87208,25.3133333 Z M136.763398,31.7919993 L136.763422,31.7916875 C137.845546,32.6301976 138.084459,34.3072419 137.363043,35.262894 C133.648246,40.1817057 133.887159,44.6179424 133.887159,44.6179424 C134.009002,46.0560736 133.048649,47.2553638 131.610518,47.3771588 L131.371605,47.3771588 C130.05052,47.3771588 128.973073,46.4216027 128.851278,45.1005175 C128.729435,44.8618683 128.368703,38.7438144 133.287514,32.2698254 C134.126025,31.1923782 135.685951,30.9534652 136.763398,31.7919993 Z M131.366808,22.9148489 L131.366904,22.9151367 C132.449028,23.7536468 132.687941,25.3135731 131.849407,26.3910203 C123.454712,37.661978 124.054333,47.8555845 124.054333,47.9773795 C124.176176,49.2936678 123.215823,50.4929579 121.777692,50.6147529 L121.538779,50.6147529 C120.217693,50.6147529 119.140246,49.6591968 119.018451,48.3381116 C119.018451,47.854817 118.175144,36.2233671 127.890925,23.392675 C128.729435,22.3152278 130.289361,22.0763148 131.366808,22.9148489 Z" id="Icon_HandWave"></path>
            </g>
        </g>
    </g>
</svg>