<?xml version="1.0" encoding="UTF-8"?>
<svg width="80px" height="80px" viewBox="0 0 80 80" version="1.1" xmlns="http://www.w3.org/2000/svg" xmlns:xlink="http://www.w3.org/1999/xlink">
    <!-- Generator: sketchtool 52.6 (67491) - http://www.bohemiancoding.com/sketch -->
    <title>297C130C-40AD-4F5C-95DF-36BD0E56EE65</title>
    <desc>Created with sketchtool.</desc>
    <g id="Suspended-Lic" stroke="none" stroke-width="1" fill="none" fill-rule="evenodd">
        <g id="SuspendLic_376-599px-/-Nutral" transform="translate(-148.000000, -104.000000)" fill="#006580">
            <g id="Group-3" transform="translate(16.000000, 104.000000)">
                <path d="M212.000281,53.3341495 C212.000281,51.9403856 210.962758,50.9685429 209.481554,50.9685429 C208.644032,50.9685429 207.212828,51.3997921 205.978424,52.1091861 C204.34714,48.6685364 201.681532,45.6185279 199.772167,44.6685252 C198.509684,44.0372755 194.206551,43.3341215 190.334541,43.3341215 C186.46581,43.3341215 182.162518,44.0372515 180.893714,44.6685252 C178.990589,45.6185279 176.324981,48.6685364 174.690577,52.1091861 C173.453053,51.3998081 172.021849,50.9685429 171.184327,50.9685429 C170.549949,50.9685429 170.006164,51.1310393 169.571842,51.4622963 C168.990593,51.8966735 168.6656,52.5622994 168.6656,53.3341415 C168.6656,55.9341488 170.681206,57.7372739 170.915606,57.9341544 C171.096855,58.0872829 171.303111,58.1841551 171.515608,58.2497793 C170.718734,60.4591455 170.334325,62.9122724 170.334325,64.9997982 C170.334325,67.4904452 170.565573,71.7373371 171.999929,73.9062232 L171.999929,76.6655901 C171.999929,78.5343154 173.462413,80 175.334339,80 L178.668748,80 C180.537473,80 182.003157,78.5375162 182.003157,76.6655901 L182.003157,75.534307 C184.012523,76.0405564 187.153172,76.6655901 190.334381,76.6655901 C193.51567,76.6655901 196.653118,76.0374604 198.668804,75.534307 L198.665676,76.6655901 C198.665676,78.5343154 200.12816,80 202.000085,80 L205.334495,80 C207.20322,80 208.668904,78.5375162 208.668904,76.6655901 L208.668904,73.9062232 C210.106428,71.7374971 210.334509,67.4906052 210.334509,64.9997982 C210.334509,62.9122724 209.947004,60.4591455 209.150105,58.2497793 C209.362602,58.1872751 209.568859,58.0904029 209.750107,57.9341544 C209.984484,57.7372819 212.000113,55.9341488 212.000113,53.3341415 L212.000281,53.3341495 Z M182.378598,47.6528536 C183.000472,47.3653488 186.55677,46.6653308 190.334861,46.6653308 C194.113031,46.6653308 197.669281,47.3653328 198.281763,47.6466136 C199.544246,48.2809914 202.478655,51.6028647 203.644258,55.2279148 C200.509849,55.6654201 193.103428,56.6654389 190.334621,56.6654389 C187.565893,56.6654389 180.152992,55.6654361 177.021783,55.2247948 C178.187387,51.6029447 181.118675,48.2810154 182.378038,47.6529336 L182.378598,47.6528536 Z M172.962572,55.284155 C172.856324,55.1779067 172.693819,55.0029062 172.500075,54.7216574 C172.718827,54.8247857 172.931324,54.94041 173.128204,55.0591624 C173.071956,55.1341626 173.015708,55.2029148 172.96258,55.284163 L172.962572,55.284155 Z M178.665708,76.6658133 L175.331299,76.6658133 L175.331299,75.0002087 L178.665708,75.0002087 L178.665708,76.6658133 Z M205.334583,76.6658133 L202.000173,76.6658133 L202.000173,75.0002087 L205.334583,75.0002087 L205.334583,76.6658133 Z M206.100209,71.6658009 L200.334593,71.6658009 C200.156464,71.6658009 199.981464,71.697049 199.806463,71.7501772 C199.759583,71.7658012 194.98773,73.33458 190.334437,73.33458 C185.681304,73.33458 180.90641,71.7689772 180.86241,71.7532972 C180.806154,71.7376731 180.749914,71.7501692 180.693658,71.7407931 C180.571785,71.7126731 180.459281,71.6657929 180.334281,71.6657929 L174.562424,71.6657929 C174.124919,70.6689101 173.665542,68.3720237 173.665542,65.0032942 C173.665542,64.4720448 173.706166,63.9095312 173.765542,63.3408096 C176.003068,63.4033138 178.665556,64.1595319 178.665556,65.0001742 C178.665556,65.9188968 179.41243,66.6657789 180.331161,66.6657789 C181.249883,66.6657789 181.996765,65.9189048 181.996765,65.0001742 C181.996765,60.9283228 176.49675,60.1783207 174.412344,60.0376803 C174.599849,59.4283026 174.821721,58.853277 175.074842,58.3158355 C175.077962,58.3158355 175.08109,58.3189635 175.084218,58.3189635 C175.556091,58.3877157 186.55945,60.0002482 190.333861,60.0002482 C194.105711,60.0002482 205.112302,58.3877637 205.577903,58.3158435 C205.581023,58.3158435 205.581023,58.3127155 205.584151,58.3127155 C205.83728,58.853341 206.062281,59.4251986 206.246649,60.0345603 C204.162243,60.1783127 198.665348,60.9314428 198.665348,65.0001742 C198.665348,65.9188968 199.412222,66.6657789 200.330953,66.6657789 C201.249675,66.6657789 201.996557,65.9189048 201.996557,65.0001742 C201.996557,64.1439318 204.643445,63.4095298 206.896571,63.3408096 C206.955947,63.9095632 206.996571,64.4752128 206.996571,65.0001742 C206.999699,68.3720237 206.537194,70.6689101 206.099689,71.6657929 L206.100209,71.6658009 Z M207.700213,55.281755 C207.647085,55.2036268 207.593965,55.1317546 207.537717,55.0598824 C207.734589,54.944258 207.947094,54.8223777 208.165847,54.7192574 C208.000222,54.9630101 207.834598,55.1473866 207.700221,55.281755 L207.700213,55.281755 Z M203.665802,0 L140.331224,0 C135.73745,0 132,3.73753048 132,8.33442337 L132,51.6689449 C132,56.2627177 135.73753,60.0001682 140.334424,60.0001682 L164.993694,60.0001682 C165.915536,60.0001682 166.659298,59.2532941 166.659298,58.3345635 C166.659298,57.415841 165.912424,56.6689589 164.993694,56.6689589 L140.334424,56.6658309 C137.578176,56.6658309 135.33441,54.4220646 135.33441,51.6658168 L135.33441,13.3345094 L208.669016,13.3345094 L208.669016,46.0346011 C208.669016,46.9533236 209.41589,47.7002057 210.334621,47.7002057 C211.253343,47.7002057 212.000225,46.9533316 212.000225,46.0346011 L212.000225,8.33449537 C212.000225,3.73760248 208.262695,7.20002019e-05 203.665802,7.20002019e-05 L203.665802,0 Z M208.665896,10.000028 L135.334407,10.000028 L135.334407,8.33442337 C135.334407,5.57817564 137.578174,3.33440935 140.334424,3.33440935 L203.669002,3.33440935 C206.42213,3.33440935 208.665896,5.57817564 208.665896,8.33442337 L208.665896,10.000028 Z M162.693687,34.1504957 C162.549935,35.9473808 161.628084,37.809866 160.28744,39.0129894 C159.831191,39.4223665 159.634311,40.0567523 159.784311,40.656754 L160.465561,43.3786016 C160.615561,43.9754753 161.078059,44.4410846 161.678044,44.591085 L167.646781,46.0817292 C168.468623,46.2848578 169.237425,46.6817309 169.928067,47.2630125 C170.634317,47.8536382 171.684312,47.7630139 172.278074,47.0536359 C172.86558,46.3473859 172.771827,45.297391 172.068697,44.7036293 C170.987414,43.8005068 169.774931,43.175465 168.459327,42.8442641 L163.456193,41.5973806 L163.246817,40.7567383 C164.5437,39.3223342 165.465543,37.4942491 165.846824,35.5942438 C166.737466,35.1348665 167.387468,34.25672 167.515549,33.2067171 L167.874926,30.312949 C167.984302,29.4347865 167.715549,28.547344 167.131172,27.8816622 C166.949923,27.6754136 166.743674,27.4941651 166.521794,27.3441647 L166.609298,25.5754397 L166.912427,25.2691908 C167.771789,24.3598283 168.934273,22.4067028 167.096803,19.5973349 C166.218641,18.2629312 164.421756,16.6660467 160.812386,16.6660467 C159.749903,16.6660467 157.353016,16.6660467 155.02797,18.1316508 C148.16859,18.3722755 147.362348,22.0691819 147.362348,24.8598297 C147.362348,25.4098312 147.462348,26.4411141 147.556101,27.3004765 C147.3061,27.453605 147.084227,27.6473495 146.884227,27.8692301 C146.290473,28.541104 146.015504,29.4348345 146.131097,30.312997 L146.490474,33.2130051 C146.627978,34.3005282 147.315436,35.2005307 148.334239,35.6442919 C148.706112,37.463017 149.581122,39.222462 150.796726,40.6224659 L150.552973,41.6006286 L145.549839,42.8475121 C141.499828,43.859995 138.665417,47.4881651 138.665417,51.6659368 C138.665417,52.5877794 139.412291,53.3346615 140.334144,53.3346615 L163.85581,53.3346615 C164.774533,53.3346615 165.521415,52.5877874 165.521415,51.6690569 C165.521415,50.7472143 164.777661,50.0003322 163.85581,50.0003322 L142.24935,49.9972042 C142.818103,48.0940788 144.355596,46.5816026 146.361841,46.0816012 L152.333698,44.590957 C152.930572,44.4409566 153.396181,43.9784593 153.546181,43.3784736 L154.255559,40.5347056 C154.402432,39.950328 154.218055,39.3315823 153.77431,38.9191011 C152.477426,37.6972577 151.621184,35.9128527 151.477424,34.1472477 C151.411799,33.2785253 150.671181,32.800364 149.802379,32.800364 L149.37113,30.1441165 C149.852379,30.1441165 150.305532,29.9378679 150.621133,29.5816109 C150.939886,29.2159859 151.086759,28.7440886 151.027382,28.2660072 C150.899254,27.2597644 150.696133,25.4441593 150.696133,24.8535177 C150.696133,23.1316729 150.696133,21.5003883 155.567987,21.4503881 C155.908612,21.4472601 156.239861,21.3410118 156.52111,21.1378913 C158.108634,20.0003681 159.936719,20.0003681 160.811762,20.0003681 C163.371129,20.0003681 164.068011,21.0659711 164.311772,21.4222121 C164.989902,22.462855 164.711773,22.7566158 164.524268,22.9566164 L163.802394,23.6816184 C163.508641,23.9753712 163.336769,24.3659963 163.314889,24.7785015 L163.13676,28.4066716 C163.118008,28.8598009 163.171136,29.1722978 163.483633,29.5066747 C163.79301,29.8379237 164.118011,29.9004278 164.571156,29.9066758 L164.352404,32.6129234 C163.483681,32.6129234 162.761759,33.2816773 162.693039,34.1504477 L162.693687,34.1504957 Z M203.665802,26.6660748 C204.587645,26.6660748 205.334527,25.9192007 205.334527,25.0004701 C205.334527,24.0817395 204.587653,23.3348654 203.665802,23.3348654 L197.000183,23.3348654 C196.081461,23.3348654 195.334579,24.0817395 195.334579,25.0004701 C195.334579,25.9192007 196.081453,26.6660748 197.000183,26.6660748 L203.665802,26.6660748 Z M180.334537,36.6661028 L203.669002,36.6661028 C204.587725,36.6661028 205.334607,35.9192287 205.334607,35.0004981 C205.334607,34.0817676 204.587733,33.3348935 203.665882,33.3348935 L180.331417,33.3348935 C179.412694,33.3348935 178.665812,34.0817676 178.665812,35.0004981 C178.665812,35.9192287 179.412686,36.6661028 180.334537,36.6661028 Z M180.334537,26.6660748 L190.334565,26.6660748 C191.253287,26.6660748 192.000169,25.9192007 192.000169,25.0004701 C192.000169,24.0817395 191.253295,23.3348654 190.334565,23.3348654 L180.334537,23.3348654 C179.412694,23.3348654 178.665812,24.0817395 178.665812,25.0004701 C178.665812,25.9192007 179.412686,26.6660748 180.334537,26.6660748 Z M193.665774,63.3349776 L187.000155,63.3349776 C186.081433,63.3349776 185.334551,64.0818517 185.334551,65.0005822 C185.334551,65.9193128 186.081425,66.6661869 187.000155,66.6661869 L193.665774,66.6661869 C194.584497,66.6661869 195.331379,65.9193128 195.331379,65.0005822 C195.334499,64.0818597 194.587625,63.3349776 193.665774,63.3349776 Z" id="Icon_DriverLic"></path>
            </g>
        </g>
    </g>
</svg>