<?xml version="1.0" encoding="UTF-8"?>
<svg width="34px" height="34px" viewBox="0 0 34 34" version="1.1" xmlns="http://www.w3.org/2000/svg" xmlns:xlink="http://www.w3.org/1999/xlink">
    <!-- Generator: sketchtool 64 (101010) - https://sketch.com -->
    <title>B8BEC613-E7DB-4351-9E83-A794C5A819D9</title>
    <desc>Created with sketchtool.</desc>
    <defs>
        <path d="M17,0.693333333 C20.0400152,0.693333333 22.8533204,1.45332573 25.44,2.97333333 C27.9466792,4.41334053 29.9199928,6.38665413 31.36,8.89333333 C32.8800076,11.4800129 33.64,14.2933181 33.64,17.3333333 C33.64,20.3733485 32.8800076,23.1866537 31.36,25.7733333 C29.9199928,28.2800125 27.9466792,30.2533261 25.44,31.6933333 C22.8533204,33.2133409 20.0400152,33.9733333 17,33.9733333 C13.9599848,33.9733333 11.1466796,33.2133409 8.56,31.6933333 C6.0533208,30.2266593 4.0800072,28.2400125 2.64,25.7333333 C1.1199924,23.1466537 0.36,20.3466817 0.36,17.3333333 C0.36,14.3199849 1.1199924,11.5200129 2.64,8.93333333 C4.106674,6.42665413 6.0933208,4.44000733 8.6,2.97333333 C11.1866796,1.45332573 13.9866516,0.693333333 17,0.693333333 Z M17,3.97333333 C14.599988,3.97333333 12.3600104,4.58666053 10.28,5.81333333 C8.2533232,6.98667253 6.6533392,8.58665653 5.48,10.6133333 C4.2533272,12.6933437 3.64,14.9333213 3.64,17.3333333 C3.64,19.7333453 4.2533272,21.9733229 5.48,24.0533333 C6.6533392,26.0800101 8.2533232,27.6799941 10.28,28.8533333 C12.3600104,30.0800061 14.599988,30.6933333 17,30.6933333 C19.400012,30.6933333 21.6399896,30.0800061 23.72,28.8533333 C25.7466768,27.6799941 27.3466608,26.0800101 28.52,24.0533333 C29.7466728,21.9733229 30.36,19.7333453 30.36,17.3333333 C30.36,14.9333213 29.7466728,12.6933437 28.52,10.6133333 C27.3466608,8.58665653 25.7466768,6.98667253 23.72,5.81333333 C21.6399896,4.58666053 19.400012,3.97333333 17,3.97333333 Z M19.9146115,11.9903846 L17.2249918,23.5180806 C16.6329538,26.0555149 18.8895947,25.2577998 20.3579239,24.5105177 C20.4801433,24.4472552 20.6247332,24.4917388 20.7030554,24.6172744 C20.7813776,24.7428126 20.7719099,24.9148082 20.6806783,25.0274939 C19.6719883,26.2858107 18.3939397,27.469023 17.4437484,28.0215831 C14.8453493,29.5310268 12.8743937,28.2489486 13.3305516,26.2927443 L13.3305516,26.2927443 L15.7293301,16.0146095 C15.8188497,15.6290877 15.741378,15.2188683 15.5219053,14.9114631 C15.3015711,14.6030684 14.9658919,14.4360174 14.6199011,14.4617172 L14.6199011,14.4617172 L14.6207604,14.4627066 L14.1930036,14.4943378 C13.7021585,14.5307543 13.278707,14.1047445 13.2460006,13.5422901 C13.213303,12.9788488 13.5833763,12.4915351 14.0731132,12.4529855 L14.0731132,12.4529855 L19.9146115,11.9903846 Z M19.8743395,7.23690284 C20.753653,7.72582361 21.0197222,8.75568531 20.4696622,9.53734022 C19.9196263,10.3189522 18.7600899,10.5554582 17.8816701,10.066516 C17.0023567,9.57675789 16.7362874,8.54689619 17.2863474,7.76607858 C17.8363833,6.9844666 18.9959197,6.7479606 19.8743395,7.23690284 Z" id="path-1"></path>
    </defs>
    <g id="LeadGen-Landing" stroke="none" stroke-width="1" fill="none" fill-rule="evenodd">
        <g id="LG_Landing_376-599px-/-All-options" transform="translate(-19.000000, -527.000000)">
            <g id="Group-3" transform="translate(16.000000, 525.000000)">
                <g id="Driver-Icon" transform="translate(3.000000, 2.000000)">
                    <mask id="mask-2" fill="white">
                        <use xlink:href="#path-1"></use>
                    </mask>
                    <use id="Combined-Shape" fill="#777770" xlink:href="#path-1"></use>
                    <g id="Color" mask="url(#mask-2)" fill="#777770">
                        <g transform="translate(-3.000000, -2.000000)" id="Rectangle-2">
                            <rect x="0" y="0" width="40" height="40"></rect>
                        </g>
                    </g>
                </g>
            </g>
        </g>
    </g>
</svg>