<?xml version="1.0" encoding="UTF-8"?>
<svg width="80px" height="80px" viewBox="0 0 80 80" version="1.1" xmlns="http://www.w3.org/2000/svg" xmlns:xlink="http://www.w3.org/1999/xlink">
    <!-- Generator: sketchtool 52.6 (67491) - http://www.bohemiancoding.com/sketch -->
    <title>04C928CB-DA46-4E83-9196-0EC83A7490C8</title>
    <desc>Created with sketchtool.</desc>
    <g id="KOs" stroke="none" stroke-width="1" fill="none" fill-rule="evenodd">
        <g id="KO_376" transform="translate(-148.000000, -104.000000)" fill="#8B1863" fill-rule="nonzero">
            <g id="Group" transform="translate(16.000000, 104.000000)">
                <path d="M211.9688,57.1058333 C211.9688,48.4466667 210.53128,40.9108333 207.7032,34.5475 C208.57824,29.2415 209.76568,16.5625 204.35944,2.71166667 C203.718816,1.06775 201.9688,0.237666667 200.35944,0.839916667 C198.53128,1.52350833 189.35944,5.25075 182.68744,13.5190833 C176.93744,11.9403333 172.51544,11.9728333 172.00024,11.9728333 C171.484616,11.9565567 167.06272,11.9402808 161.31304,13.5190833 C154.6412,5.25083333 145.46904,1.52325 143.64104,0.839916667 C143.234792,0.693433333 142.82856,0.628325 142.42232,0.644608333 L142.344195,0.644608333 C141.172355,0.725988333 140.094195,1.49094167 139.641075,2.69535833 C134.250435,16.5461917 135.422355,29.2253583 136.297315,34.5311917 C133.453555,40.9113583 132.031715,48.4636917 132.031715,57.1061917 L132.031715,57.1387433 C132.031715,57.5293683 132.187963,57.9037183 132.437963,58.19666 C132.500463,58.2617633 132.969211,58.7988767 133.797323,59.6452433 C133.812948,59.6615192 133.828573,59.677795 133.844198,59.6940708 C133.891073,59.7428992 133.922323,59.7754517 133.969198,59.8242792 C134.031698,59.8893842 134.078574,59.9382125 134.14107,60.0033125 C134.156695,60.0195892 134.172321,60.0195892 134.172321,60.035865 C136.125441,62.0215317 139.641041,65.358115 144.250721,68.7275317 C150.875681,73.5615317 161.063521,79.323365 172.001121,79.323365 C182.704321,79.323365 192.673121,73.8057817 199.297921,69.0366983 C199.313546,69.0204225 199.32917,69.0204225 199.344796,69.0041467 C200.360396,68.2717217 201.344796,67.5230633 202.251036,66.8068967 C202.266661,66.7906208 202.297911,66.7743442 202.313536,66.7580683 C202.469784,66.62786 202.626032,66.4976517 202.797912,66.3837183 C202.860412,66.33489 202.922912,66.28606 202.985416,66.237235 C203.110416,66.1395767 203.219792,66.0419183 203.344792,65.9442683 C203.438544,65.8628883 203.532288,65.78151 203.62604,65.7164017 C203.704165,65.6512975 203.782288,65.5861933 203.860416,65.521085 C203.985416,65.4234267 204.110416,65.3094933 204.235416,65.2118433 C204.28229,65.163015 204.329168,65.1304633 204.37604,65.081635 C204.532288,64.9514267 204.672912,64.8212183 204.813544,64.707285 C204.829169,64.6910083 204.860419,64.6747325 204.876044,64.6584567 C206.641644,63.12854 208.110444,61.74504 209.204204,60.65454 C209.297956,60.5568817 209.391708,60.4755067 209.485452,60.3778483 C209.501077,60.3615725 209.532326,60.32902 209.547952,60.3127442 C209.610452,60.24764 209.672952,60.1825358 209.735456,60.1337108 C209.78233,60.0848825 209.829208,60.0360525 209.860456,60.0035025 L209.938581,59.9221225 C210.907301,58.9292892 211.469861,58.2945392 211.532341,58.2131225 C211.782341,57.9201558 211.922965,57.5458058 211.938589,57.1552058 C211.969839,57.1389292 211.969839,57.1226533 211.969839,57.1063775 L211.9688,57.1058333 Z M146.7968,66.6275 C145.2968,62.2818333 151.67184,57.4641667 157.844,52.7925 C163.96896,48.1700833 169.7504,43.8083333 169.9536,38.6975 C170.047352,36.3863333 168.98488,34.2215833 166.79736,32.2521667 C165.1724,30.7873333 161.07864,28.6551667 151.85976,30.8198333 C147.43792,31.8615 142.95336,33.6681667 139.12536,35.898 C139.203485,35.7189667 139.281608,35.539925 139.359736,35.3771667 C139.375361,35.3283383 139.40661,35.2957867 139.422236,35.2469583 C139.640988,34.77495 139.875364,34.3029583 140.125364,33.8309583 C140.140989,33.8146825 140.156614,33.78213 140.156614,33.7658542 C140.26599,33.5542625 140.375366,33.3589542 140.484742,33.1473625 C140.531616,33.0497042 140.594118,32.9683292 140.64099,32.8706708 C140.734742,32.7079125 140.828494,32.5451542 140.922238,32.3823875 C141.031614,32.2033542 141.14099,32.0243125 141.250366,31.8452792 C141.297241,31.7638992 141.344118,31.6825208 141.406614,31.6011375 C142.172238,30.3804708 143.000374,29.2248042 143.906614,28.1018042 C143.922239,28.0855283 143.937864,28.0529758 143.953489,28.0367 C144.484737,27.3531083 144.406617,26.3440333 143.765985,25.7743667 C143.109737,25.188425 142.125345,25.2698083 141.562865,25.9534 C140.578465,27.1415667 139.672225,28.4110667 138.844145,29.7294 C138.375393,24.0490667 138.531641,15.3735667 141.797265,5.91773333 C144.000385,7.78948333 148.109745,11.7283167 151.515665,17.5552333 C151.109417,17.799375 150.687505,18.0435167 150.281265,18.2876583 C149.859393,18.548075 149.609393,18.97125 149.546889,19.4432417 C149.546889,19.4757942 149.531263,19.5246225 149.531263,19.557175 L149.531263,19.5897267 L149.531263,19.6711075 L149.531263,19.7524875 L149.531263,19.8013158 C149.531263,19.8338675 149.531263,19.8826958 149.546889,19.9152492 L149.546889,19.931525 C149.578138,20.1431167 149.640641,20.338425 149.750017,20.5337417 C149.781266,20.5988458 149.828142,20.647675 149.875017,20.712775 L149.890642,20.7290508 C149.921892,20.7778792 149.968767,20.8267092 150.015642,20.8592592 L150.031266,20.875535 C150.125018,20.9731933 150.234394,21.0545683 150.34377,21.1196767 C150.40627,21.1522283 150.453146,21.1847808 150.515642,21.2010567 C150.703146,21.2824367 150.890642,21.31499 151.09377,21.31499 C151.234394,21.31499 151.359394,21.2987142 151.500018,21.2498858 C151.562518,21.23361 151.625018,21.2010575 151.687522,21.1847817 C151.750022,21.1522292 151.812522,21.1196775 151.875026,21.0871233 C153.078146,20.3384233 154.312546,19.6711233 155.578146,19.0688733 C155.687522,19.0200458 155.796898,18.971215 155.906274,18.92239 C155.968775,18.8898383 156.031274,18.8735625 156.093778,18.84101 C156.109403,18.84101 156.125028,18.8247342 156.140653,18.8247342 C156.312525,18.7433542 156.468781,18.6782508 156.640653,18.5968675 C156.843781,18.5154875 157.031277,18.4341092 157.234405,18.3527258 C157.265654,18.3364492 157.296905,18.3364492 157.31253,18.3201733 C165.01565,15.14634 171.85973,15.2440067 171.93733,15.2440067 L171.99983,15.2440067 C172.077954,15.2440067 178.93735,15.1463483 186.64063,18.3201733 C186.656254,18.3201733 186.67188,18.3364492 186.67188,18.3364492 C186.890632,18.4178292 187.093752,18.5154825 187.312504,18.6131408 C187.468752,18.6782442 187.625,18.7433492 187.781256,18.8247325 C187.812506,18.8410083 187.828131,18.8410083 187.859382,18.8572842 C187.921882,18.8898367 187.984382,18.9061125 188.031254,18.9386642 C188.14063,18.9874925 188.234382,19.0363225 188.343758,19.0851475 C189.609358,19.6873642 190.859358,20.3709808 192.062478,21.1196475 C192.796854,21.5753808 193.765598,21.3312392 194.203118,20.5499892 C194.312494,20.3709558 194.37499,20.1593642 194.406246,19.9640558 L194.406246,19.94778 C194.406246,19.9152283 194.406246,19.8826758 194.421871,19.8501217 L194.421871,19.8012942 L194.421871,19.73619 L194.421871,19.65481 L194.421871,19.6222575 C194.390621,19.1176992 194.124999,18.6294242 193.671871,18.3527575 C193.265623,18.0923408 192.859391,17.8481992 192.437471,17.6203325 C195.843711,11.7934992 199.953071,7.85449917 202.155871,5.9828325 C205.421471,15.4228325 205.577711,24.1144992 205.108991,29.7944992 C204.280831,28.4761658 203.390271,27.2391658 202.421471,26.0509992 C201.858975,25.3674075 200.874591,25.2860242 200.218351,25.8719658 C200.187101,25.8882417 200.171476,25.9207942 200.140226,25.9533458 C199.562098,26.5392792 199.499602,27.5158458 200.046474,28.1668458 C200.952714,29.2899292 201.796474,30.4617625 202.562074,31.6825125 C202.577698,31.715065 202.608949,31.7476167 202.624574,31.7801708 C202.765198,32.0080375 202.905822,32.2359042 203.046446,32.4800375 C203.12457,32.6265208 203.218318,32.7730042 203.296446,32.9194875 C203.358946,33.0334208 203.43707,33.1636292 203.499574,33.2775625 C203.593326,33.4565958 203.702702,33.6356375 203.796446,33.8309458 C203.827695,33.89605 203.87457,33.9774292 203.905822,34.0425375 C204.093326,34.4006125 204.265198,34.7424042 204.43707,35.1004542 C204.49957,35.2306625 204.56207,35.3445958 204.608942,35.4748042 C204.687066,35.6375625 204.76519,35.8003292 204.827694,35.9630875 C200.999534,33.7332542 196.514894,31.9265875 192.093294,30.8849208 C182.874894,28.7201708 178.765294,30.8523692 177.155694,32.3172542 C174.968174,34.2866708 173.905694,36.4513375 173.999454,38.7625875 C174.218206,43.8732542 179.999454,48.2350875 186.109054,52.8575875 C192.280894,57.5125042 198.656254,62.3467542 197.171454,66.6759208 C186.202654,74.4884208 177.437054,76.1484208 171.968254,76.1484208 C162.265054,76.0995925 153.030654,71.0702542 146.796254,66.6267542 L146.7968,66.6275 Z M150.73432,39.9183333 C150.73432,39.0231667 151.437448,38.29075 152.2968,38.29075 C153.15616,38.29075 153.85928,39.023175 153.85928,39.9183333 C153.82803,41.432 154.96864,42.7015 156.43744,42.7340833 C157.89056,42.766635 159.10928,41.5785 159.14056,40.0485 L159.14056,39.9182917 C159.14056,39.023125 159.843688,38.2907083 160.70304,38.2907083 C161.5624,38.2907083 162.26552,39.0231333 162.26552,39.9182917 C162.26552,43.238625 159.68736,45.924125 156.49992,45.924125 C153.31248,45.924125 150.73432,43.2385417 150.73432,39.9182917 L150.73432,39.9183333 Z M193.51592,39.9183333 C193.51592,43.2386667 190.93776,45.9241667 187.75032,45.9241667 C184.56288,45.9241667 181.98472,43.2385833 181.98472,39.9183333 C181.98472,39.0231667 182.687848,38.29075 183.5472,38.29075 C184.40656,38.29075 185.10968,39.023175 185.10968,39.9183333 C185.10968,41.432 186.2972,42.669 187.75032,42.669 C189.20344,42.669 190.39096,41.432 190.39096,39.9183333 C190.39096,39.0231667 191.094088,38.29075 191.95344,38.29075 C192.8128,38.29075 193.51592,39.023175 193.51592,39.9183333 Z M173.6872,57.7575 L173.687312,57.7574833 C180.937552,58.4574 183.453136,63.8447583 183.562512,64.0889 C183.937472,64.9027333 183.59376,65.8793 182.812512,66.25365 C182.031232,66.6442583 181.109352,66.302475 180.734352,65.488675 C180.640752,65.2770917 178.515392,60.947675 172.124752,60.947675 C165.718272,60.947675 163.608904,65.3096417 163.515152,65.488675 C163.249552,66.074625 162.68704,66.416425 162.108912,66.416425 C161.874544,66.416425 161.655792,66.351325 161.43704,66.2536667 C160.65579,65.87925 160.327664,64.9027167 160.68704,64.0889167 C160.79664,63.84475 163.31224,58.4573667 170.56224,57.7575 L170.56224,55.7880833 C170.04664,55.4951667 169.359128,55.07195 168.656,54.5836667 C166.406,53.0211667 165.35912,51.6376667 165.35912,50.2216667 C165.35912,49.2776667 165.70288,47.584975 167.99976,46.8688333 C169.1716,46.4944867 170.6716,46.4456583 172.12472,46.4456583 C173.56216,46.4456583 175.06216,46.4944833 176.24968,46.8688333 C178.546568,47.60125 178.89032,49.2776667 178.89032,50.2216667 C178.89032,51.6376667 177.84344,53.0211667 175.59344,54.5836667 C174.89032,55.0719417 174.202824,55.4951167 173.6872,55.7880833 L173.6872,57.7575 Z" id="Icon_SadRacoon"></path>
            </g>
        </g>
    </g>
</svg>