<svg xmlns="http://www.w3.org/2000/svg" viewBox="0 0 192 192"><defs><style>.cls-1,.cls-2,.cls-3{fill:none;stroke:#a51482;stroke-miterlimit:10;}.cls-1,.cls-3{stroke-width:4px;}.cls-2{stroke-width:2px;}.cls-3{stroke-linecap:round;}</style></defs><title>Calendar_Icon</title><g id="Forward_Icon" data-name="Forward Icon"><line class="cls-1" x1="8" y1="54.93" x2="184" y2="54.93"/><rect class="cls-2" x="118.22" y="65.17" width="22.35" height="17.2"/><rect class="cls-2" x="151.63" y="65.17" width="22.35" height="17.2"/><rect class="cls-2" x="18" y="88.97" width="22.35" height="17.2"/><rect class="cls-2" x="51.41" y="88.97" width="22.35" height="17.2"/><rect class="cls-2" x="84.81" y="88.97" width="22.35" height="17.2"/><rect class="cls-2" x="84.81" y="65.17" width="22.35" height="17.2"/><rect class="cls-2" x="118.22" y="88.97" width="22.35" height="17.2"/><rect class="cls-2" x="151.63" y="88.97" width="22.35" height="17.2"/><rect class="cls-2" x="18" y="112.76" width="22.35" height="17.2"/><rect class="cls-2" x="51.41" y="112.76" width="22.35" height="17.2"/><rect class="cls-2" x="84.81" y="112.76" width="22.35" height="17.2"/><rect class="cls-2" x="118.22" y="112.76" width="22.35" height="17.2"/><rect class="cls-2" x="84.81" y="136.55" width="22.35" height="17.2"/><rect class="cls-2" x="118.22" y="136.55" width="22.35" height="17.2"/><rect class="cls-2" x="151.63" y="112.76" width="22.35" height="17.2"/><rect class="cls-2" x="18" y="136.55" width="22.35" height="17.2"/><rect class="cls-2" x="51.41" y="136.55" width="22.35" height="17.2"/><path class="cls-1" d="M174,34.68H154.5v13h-15v-13h-87v13h-15v-13H18a10,10,0,0,0-10,10v108a10,10,0,0,0,10,10H174a10,10,0,0,0,10-10v-108A10,10,0,0,0,174,34.68Z"/><line class="cls-3" x1="147" y1="19.31" x2="147" y2="41.65"/><line class="cls-3" x1="45" y1="19.31" x2="45" y2="41.65"/></g></svg>