<?xml version="1.0" encoding="UTF-8"?>
<svg width="82px" height="61px" viewBox="0 0 82 61" version="1.1" xmlns="http://www.w3.org/2000/svg" xmlns:xlink="http://www.w3.org/1999/xlink">
    <!-- Generator: sketchtool 53 (72520) - https://sketchapp.com -->
    <title>C47F9BE8-810E-4121-B8ED-351913AE0DA8</title>
    <desc>Created with sketchtool.</desc>
    <g id="Vehicle-Summary" stroke="none" stroke-width="1" fill="none" fill-rule="evenodd">
        <g id="VehicleSum_768-991px-/-Neutral" transform="translate(-343.000000, -124.000000)" stroke="#8B1863" stroke-width="2">
            <g id="Group-7" transform="translate(212.000000, 125.000000)">
                <g id="AddVehicle-Icon" transform="translate(132.000000, 0.000000)">
                    <path d="M7.16886364,50.7872273 C4.6625,50.7872273 2.63113636,48.7558636 2.63113636,46.2495 L0.584772727,32.9285909 L0.584772727,56.0549545 C0.584772727,57.6631364 1.88886364,58.9672273 3.49704545,58.9672273 L8.56386364,58.9672273 C10.1720455,58.9672273 11.4756818,57.6631364 11.4756818,56.0549545 L11.4756818,50.7872273 L7.16886364,50.7872273 Z" id="Stroke-1"></path>
                    <path d="M3.79995455,31.2737273 C3.79995455,29.0546364 6.23768182,27.2555455 9.24495455,27.2555455 C12.2526818,27.2555455 19.2322273,31.3250909 19.2322273,33.5446364 C19.2322273,35.7637273 12.2526818,35.2919091 9.24495455,35.2919091 C6.23768182,35.2919091 3.79995455,33.4928182 3.79995455,31.2737273 Z" id="Stroke-3"></path>
                    <path d="M75.6735909,31.2737273 C75.6735909,29.0546364 73.2354091,27.2555455 70.2281364,27.2555455 C67.2208636,27.2555455 60.2413182,31.3250909 60.2413182,33.5446364 C60.2413182,35.7637273 67.2208636,35.2919091 70.2281364,35.2919091 C73.2354091,35.2919091 75.6735909,33.4928182 75.6735909,31.2737273 Z" id="Stroke-5"></path>
                    <path d="M54.1384091,34.9884545 L25.8443182,34.9884545 C23.6329545,34.9884545 21.8402273,36.7811818 21.8402273,38.9925455 L21.8402273,39.1152727 C21.8402273,41.3266364 23.6329545,43.1189091 25.8443182,43.1189091 L54.1384091,43.1189091 C56.3497727,43.1189091 58.1425,41.3266364 58.1425,39.1152727 L58.1425,38.9925455 C58.1425,36.7811818 56.3497727,34.9884545 54.1384091,34.9884545 Z" id="Stroke-7"></path>
                    <path d="M77.2929091,46.2495455 C77.2929091,48.7559091 75.2610909,50.7872727 72.7551818,50.7872727 L68.2165455,50.7872727 L68.2165455,56.055 C68.2165455,57.6631818 69.5201818,58.9672727 71.1283636,58.9672727 L76.1951818,58.9672727 C77.8033636,58.9672727 79.107,57.6631818 79.107,56.055 L79.107,34.4386364 L77.2929091,46.2495455 Z" id="Stroke-9"></path>
                    <path d="M9.07559091,20.0450455 L70.8483182,20.0450455 C75.8605909,20.0450455 79.9237727,24.1082273 79.9237727,29.1205 L77.2928636,46.2495909 C77.2928636,48.7559545 75.2610455,50.7873182 72.7551364,50.7873182 L7.16877273,50.7873182 C4.66286364,50.7873182 2.63104545,48.7559545 2.63104545,46.2495909 L0.000136363636,29.1205 C0.000136363636,24.1082273 4.06331818,20.0450455 9.07559091,20.0450455 Z" id="Stroke-11"></path>
                    <path d="M13.1436364,11.9384545 L13.1436364,11.3057273 L6.28954545,11.3057273 C3.78318182,11.3057273 1.75136364,13.338 1.75136364,15.8443636 C1.75136364,16.9102727 2.61545455,17.7743636 3.68136364,17.7743636 L9.71409091,17.7743636 C10.7286364,15.9811818 11.9045455,13.9575455 13.1436364,11.9384545 Z" id="Stroke-13"></path>
                    <path d="M73.6929545,11.3059091 L66.8388636,11.3059091 L66.8388636,11.9386364 C68.0779545,13.9572727 69.2543182,15.9809091 70.2688636,17.7740909 L76.3015909,17.7740909 C77.3670455,17.7740909 78.2311364,16.9104545 78.2311364,15.8445455 C78.2311364,13.3377273 76.1993182,11.3059091 73.6929545,11.3059091 Z" id="Stroke-15"></path>
                    <path d="M9.07559091,20.0450455 L70.8483182,20.0450455 C71.0874091,20.0450455 71.3219545,20.0627727 71.5565,20.0809545 C67.9137727,13.4691364 60.3178636,0.419590909 57.1055909,0.419590909 L22.8774091,0.419590909 C19.6655909,0.419590909 12.0710455,13.4650455 8.42786364,20.0777727 C8.64240909,20.0627727 8.85695455,20.0450455 9.07559091,20.0450455 Z" id="Stroke-17"></path>
                </g>
            </g>
        </g>
    </g>
</svg>