<?xml version="1.0" encoding="UTF-8"?>
<svg width="35px" height="36px" viewBox="0 0 35 36" version="1.1" xmlns="http://www.w3.org/2000/svg" xmlns:xlink="http://www.w3.org/1999/xlink">
    <!-- Generator: sketchtool 54.1 (76490) - https://sketchapp.com -->
    <title>8F9CF8D9-DD29-456D-A430-50038F852FFC</title>
    <desc>Created with sketchtool.</desc>
    <defs>
        <path d="M37.6934159,2.5625 L37.6934159,21.728419 L35.8976304,21.728419 C35.3760904,21.728419 34.9708682,21.8752345 34.6809138,22.0808614 L34.6809138,21.728419 L32.0452894,21.728419 C31.6110927,21.728419 31.1185272,21.8456157 30.8577572,22.0808614 L30.8577572,21.7282059 L26.1366028,21.7282059 L26.1366028,22.0806483 C25.7313806,21.7868043 25.1229173,21.7282059 24.8041984,21.7282059 L21.6762185,21.7282059 L21.6762185,22.0806483 C21.386684,21.7868043 20.7202719,21.7282059 20.3150496,21.7282059 L16.8104019,21.7282059 L15.9993275,22.6097381 L15.246202,21.7282059 L10.0326921,21.7282059 L10.0326921,27.4893817 L15.1596985,27.4893817 L15.9995374,26.6074234 L16.752453,27.4893817 L19.9383819,27.4893817 L19.9383819,26.1371451 L20.2281263,26.1371451 C20.6625329,26.1371451 21.1550984,26.1371451 21.5892952,25.9315182 L21.5892952,27.4893817 L24.1961551,27.4893817 L24.1961551,25.9903296 L24.3408173,25.9903296 C24.4858995,25.9903296 24.514664,25.9903296 24.514664,26.1667639 L24.514664,27.4893817 L32.4509316,27.4893817 C32.9430772,27.4893817 33.4646171,27.3719719 33.7541516,27.1365131 L33.7541516,27.4893817 L36.2740882,27.4893817 C36.7954182,27.4893817 37.3169581,27.4011646 37.6934159,27.2247303 L37.6934159,37.7777587 L3.13929442,37.7777587 L3.13929442,20.405162 L4.81939212,20.405162 L5.19584991,19.4646053 L6.03589876,19.4646053 L6.3833821,20.405162 L9.65644423,20.405162 L9.65644423,19.6996379 L9.94597869,20.405162 L11.6548409,20.405162 L11.9443753,19.6702322 L11.9443753,20.405162 L20.0544896,20.405162 L20.0544896,18.8767042 L20.1991518,18.8767042 C20.3150496,18.8767042 20.344024,18.9061099 20.344024,19.0825441 L20.344024,20.405375 L24.5438484,20.405375 L24.5438484,20.0527196 C24.8911218,20.2289408 25.4126617,20.405375 26.1078384,20.405375 L27.8744395,20.405375 L28.2508973,19.4648184 L29.0911561,19.4648184 L29.4676139,20.405375 L32.8565738,20.405375 L32.8565738,19.5236298 L33.3776938,20.405375 L36.1000316,20.405375 L36.1000316,14.6439862 L33.4066682,14.6439862 L33.4066682,15.3201045 L33.001026,14.6439862 L30.2495039,14.6439862 L30.2495039,15.3201045 L29.9018106,14.6439862 L26.1655773,14.6439862 C25.5281396,14.6439862 24.9778351,14.7319903 24.5436384,14.967236 L24.5436384,14.6439862 L21.9659629,14.6439862 L21.9659629,14.967236 C21.6760085,14.7322034 21.2995507,14.6439862 20.865354,14.6439862 L11.4520198,14.6439862 L10.814792,16.1136326 L10.1485898,14.6439862 L7.19424656,14.6439862 L7.19424656,15.3201045 L6.84655325,14.6439862 L4.32682661,14.6439862 L3.13929442,17.3776521 L3.13929442,2.5625 L37.6934159,2.5625 Z M37.9249993,25.3732357 C37.9249993,26.2551939 37.3746948,26.6662346 36.3897738,26.6662346 L34.507485,26.6662346 L34.507485,25.7842764 L36.3897738,25.7842764 C36.5636205,25.7842764 36.7084927,25.7550837 36.7666515,25.6964854 C36.8243904,25.6374609 36.8823393,25.5492438 36.8823393,25.431834 C36.8823393,25.3139981 36.8246004,25.1965883 36.7666515,25.13799 C36.7084927,25.0789655 36.5928049,25.0497728 36.4189582,25.0497728 C35.5213804,25.020154 34.3915872,25.0789655 34.3915872,23.7857534 C34.3915872,23.1976392 34.768045,22.5509267 35.7817305,22.5509267 L37.7221782,22.5509267 L37.7221782,23.4328849 L35.9263927,23.4328849 C35.752966,23.4328849 35.6368583,23.4328849 35.5499349,23.4914833 C35.4630116,23.5797004 35.4052727,23.6679175 35.4052727,23.8149461 C35.4052727,23.9619746 35.492196,24.0501918 35.6078838,24.1092163 C35.7239916,24.1384089 35.8398893,24.1678146 35.9847615,24.1678146 L36.5058815,24.1678146 C37.056186,24.1678146 37.4038792,24.2852244 37.6356748,24.4912774 C37.8091015,24.6969043 37.9249993,24.9617688 37.9249993,25.3732357 Z M33.8410743,24.4912774 C34.0149209,24.6969043 34.1306087,24.9617688 34.1306087,25.3732357 C34.1306087,26.2549808 33.5800943,26.6662346 32.5955932,26.6662346 L30.7128845,26.6662346 L30.7128845,25.7842764 L32.5955932,25.7842764 C32.7694399,25.7842764 32.8851277,25.7550837 32.972051,25.6964854 C33.0299999,25.6374609 33.0881587,25.5492438 33.0881587,25.431834 C33.0881587,25.3139981 33.0297899,25.1965883 32.972051,25.13799 C32.9143121,25.0789655 32.7982044,25.0497728 32.6247776,25.0497728 C31.7267799,25.020154 30.5969867,25.0787524 30.5969867,23.7857534 C30.5969867,23.1976392 30.94468,22.5509267 31.9875499,22.5509267 L33.9279976,22.5509267 L33.9279976,23.4328849 L32.1322121,23.4328849 C31.9583655,23.4328849 31.8426777,23.4328849 31.7557544,23.4914833 C31.6398566,23.5797004 31.6110921,23.6679175 31.6110921,23.8149461 C31.6110921,23.9619746 31.6975955,24.0501918 31.8137033,24.1092163 C31.9293911,24.1381958 32.0454988,24.1678146 32.190161,24.1678146 L32.711281,24.1678146 C33.2615854,24.1678146 33.6092787,24.2852244 33.8410743,24.4912774 Z M13.6242626,15.4669198 L13.6240526,15.4669198 L13.6240526,19.5822277 L12.6393416,19.5822277 L12.6393416,16.348878 L11.2200139,19.5822277 L10.3801751,19.5822277 L8.96105735,16.348878 L8.96105735,19.5822277 L6.99142528,19.5822277 L6.61496751,18.6708637 L4.58759652,18.6708637 L4.21113875,19.5822277 L3.16847882,19.5822277 L4.90631536,15.4669198 L6.35440751,15.4669198 L8.00532074,19.346982 L8.00532074,15.4669198 L9.56931064,15.4669198 L10.8437661,18.2593968 L12.0312982,15.4669198 L13.6242626,15.4669198 Z M35.2312179,19.5822277 L33.8410746,19.5822277 L32.0163147,16.4956935 L32.0163147,19.5822277 L30.0471026,19.5822277 L29.6702249,18.6708637 L27.6428539,18.6708637 L27.2663961,19.5822277 L26.1366029,19.5822277 C25.6732218,19.5822277 25.0649685,19.4646048 24.7176951,19.1117363 C24.3989763,18.7590808 24.2251296,18.2888026 24.2251296,17.5538729 C24.2251296,16.936566 24.312053,16.3780706 24.7462496,15.937198 C25.0357841,15.6137352 25.557324,15.4669198 26.2233162,15.4669198 L27.1500784,15.4669198 L27.1500784,16.348878 L26.2233162,16.348878 C25.8760429,16.348878 25.6730118,16.4076894 25.4704007,16.5841237 C25.2965541,16.7605579 25.2096307,17.0838077 25.2096307,17.5246803 C25.2096307,17.9655528 25.2965541,18.2890156 25.4704007,18.4948556 C25.6150629,18.6416711 25.8760429,18.7004825 26.1363929,18.7004825 L26.5710095,18.7004825 L27.9611528,15.4671328 L29.4094549,15.4671328 L31.0313937,19.3471951 L31.0313937,15.4669198 L32.5376447,15.4669198 L34.2465068,18.3182083 L34.2465068,15.4669198 L35.2310079,15.4669198 L35.2310079,19.5822277 L35.2312179,19.5822277 Z M21.6762174,15.643354 C21.9947263,15.8489809 22.1977573,16.1136323 22.1975473,16.5839106 C22.1975473,17.2306231 21.7627208,17.5538729 21.5023707,17.6714957 C21.7049819,17.7594998 21.8788285,17.9065283 21.9657518,18.0241512 C22.1104141,18.2299911 22.1391785,18.4064254 22.1391785,18.7590808 L22.1391785,19.5822277 L21.1546775,19.5822277 L21.1546775,19.053138 C21.1546775,18.8181054 21.1838619,18.4652368 21.0100152,18.2593968 C20.865353,18.1123683 20.6335575,18.0829626 20.2858642,18.0829626 L19.2432043,18.0829626 L19.2432043,19.5822277 L18.2874677,19.5822277 L18.2874677,15.4669198 L20.5178697,15.4669198 C21.0102252,15.4669198 21.3574985,15.4669198 21.6762174,15.643354 Z M23.7327739,15.4669198 L23.7327739,19.5822277 L22.7482728,19.5822277 L22.7482728,15.4669198 L23.7327739,15.4669198 Z M17.5922914,18.7298882 L17.5922914,19.5824408 L14.3484137,19.5824408 L14.3484137,15.4671329 L17.5922914,15.4671329 L17.5922914,16.3194723 L15.3331248,16.3194723 L15.3331248,17.054402 L17.5633169,17.054402 L17.5633169,17.9067414 L15.3331248,17.9067414 L15.3331248,18.7298882 L17.5922914,18.7298882 Z M30.1336042,25.8141086 L30.1336042,26.6664482 L26.8899365,26.6664482 L26.8899365,22.5513529 L30.1336042,22.5513529 L30.1336042,23.4036924 L27.8458831,23.4036924 L27.8458831,24.168241 L30.0758653,24.168241 L30.0758653,24.9909617 L27.8458831,24.9909617 L27.8458831,25.8141086 L30.1336042,25.8141086 Z M25.8470679,22.7571929 C26.1657868,22.933201 26.3396334,23.1978524 26.3398434,23.6679177 C26.3398434,24.3148434 25.9050168,24.6677119 25.6446668,24.7555029 C25.8764623,24.8437201 26.049889,24.9905355 26.1368124,25.1083715 C26.2527101,25.3139984 26.2814746,25.4904327 26.2814746,25.8724939 L26.2814746,26.6662351 L25.3259479,26.6662351 L25.3259479,26.1667641 C25.3259479,25.9021127 25.3259479,25.5492441 25.1521013,25.3436172 C25.0072291,25.1968017 24.804198,25.1671829 24.4569247,25.1671829 L23.4140547,25.1671829 L23.4140547,26.6662351 L22.4295536,26.6662351 L22.4295536,22.5511398 L24.6595358,22.5511398 C25.1518913,22.5511398 25.5283491,22.5807586 25.8470679,22.7571929 Z M20.3440233,22.5511398 C21.0971488,22.5511398 21.9661721,22.7863855 21.966382,23.9033765 C21.966382,25.0497731 21.1261233,25.2850189 20.2862844,25.2850189 L19.0697778,25.2850189 L19.0697778,26.6662351 L17.1870691,26.6662351 L15.999537,25.3139984 L14.754056,26.6662351 L10.9017152,26.6662351 L10.9017152,22.5511398 L14.8117949,22.5511398 L15.999327,23.9033765 L17.244808,22.5511398 L20.3440233,22.5511398 Z M25.0649684,24.2562448 C25.1810761,24.1680277 25.2675795,24.0209991 25.2675795,23.8445648 C25.2675795,23.6681306 25.1810761,23.5507208 25.0649684,23.4916963 C24.9492806,23.4034791 24.7754339,23.4034791 24.6015873,23.4034791 L23.4140551,23.4034791 L23.4140551,24.3444619 L24.6015873,24.3148431 C24.7754339,24.3148431 24.9203061,24.3148431 25.0649684,24.2562448 Z M20.344023,24.4618717 C20.6915064,24.4618717 20.9233019,24.2562448 20.9233019,23.9033763 C20.9233019,23.5507208 20.6917163,23.4034791 20.344023,23.4034791 L19.0695676,23.4034791 L19.0695676,24.4618717 L20.344023,24.4618717 Z M16.6075807,24.6086862 L18.1136218,26.3137914 L18.1136218,22.9922244 L16.6075807,24.6086862 Z M14.2614901,25.8141083 L15.362099,24.6089003 L14.2904646,23.4036922 L11.8574513,23.4036922 L11.8574513,24.1682408 L14.0007201,24.1682408 L14.0007201,24.9909615 L11.8574513,24.9909615 L11.8574513,25.8141083 L14.2614901,25.8141083 Z M29.3229498,17.7891189 L28.6565376,16.172444 L27.9905454,17.7891189 L29.3229498,17.7891189 Z M20.9233024,17.1426191 C21.0389902,17.0835946 21.0969391,16.9367791 21.0969391,16.7605579 C21.0969391,16.5843367 21.0387802,16.4667139 20.9230924,16.3784967 C20.8069847,16.3196853 20.6045835,16.3196853 20.4307369,16.3196853 L19.2432048,16.3196853 L19.2432048,17.2308362 L20.4309469,17.2308362 C20.6337679,17.2308362 20.7786401,17.2308362 20.9233024,17.1426191 Z M4.93507985,17.7891189 L6.26748425,17.7891189 L5.60128205,16.172444 L4.93507985,17.7891189 Z" id="path-1"></path>
    </defs>
    <g id="Payment" stroke="none" stroke-width="1" fill="none" fill-rule="evenodd">
        <g id="Credit-Cards" transform="translate(-100.000000, -479.000000)">
            <g id="09_Misc-/-CreditCard" transform="translate(89.000000, 477.000000)">
                <g id="CC-Icon" transform="translate(8.000000, 0.000000)">
                    <mask id="mask-2" fill="white">
                        <use xlink:href="#path-1"></use>
                    </mask>
                    <use id="Shape" fill="#0077A6" fill-rule="nonzero" xlink:href="#path-1"></use>
                    <g id="00_Basics-/-Colors-/-Gray-/-700" mask="url(#mask-2)" fill="#FFFFFF">
                        <g transform="translate(-5.125000, -5.125000)" id="Rectangle-2">
                            <rect x="0" y="0" width="51.7625" height="51.7625"></rect>
                        </g>
                    </g>
                </g>
            </g>
        </g>
    </g>
</svg>