<?xml version="1.0" encoding="UTF-8"?>
<svg width="24px" height="24px" viewBox="0 0 24 24" version="1.1" xmlns="http://www.w3.org/2000/svg" xmlns:xlink="http://www.w3.org/1999/xlink">
    <!-- Generator: sketchtool 59.1 (101010) - https://sketch.com -->
    <title>C38987D0-1E42-442F-BAE6-4A740136A593</title>
    <desc>Created with sketchtool.</desc>
    <defs>
        <path d="M14.06,9.02 L14.98,9.94 L5.92,19 L5,19 L5,18.08 L14.06,9.02 L14.06,9.02 Z M17.66,3 C17.41,3 17.15,3.1 16.96,3.29 L15.13,5.12 L18.88,8.87 L20.71,7.04 C21.1,6.65 21.1,6.02 20.71,5.63 L18.37,3.29 C18.17,3.09 17.92,3 17.66,3 Z M14.06,6.19 L3,17.25 L3,21 L6.75,21 L17.81,9.94 L14.06,6.19 Z" id="path-1"></path>
    </defs>
    <g id="Asset-Artboard-Page" stroke="none" stroke-width="1" fill="none" fill-rule="evenodd">
        <g id="TRAILING-ICON-04_Icons-/-24px-/-Edit-/-Outline">
            <polygon id="Path" points="0 0 24 0 24 24 0 24"></polygon>
            <mask id="mask-2" fill="white">
                <use xlink:href="#path-1"></use>
            </mask>
            <use id="Shape" fill="#FF7F00" fill-rule="nonzero" xlink:href="#path-1"></use>
            <g id="00_Atoms-/-Color-/gray-Md-00_Basics-/-Colors-/-Primary-/-800" mask="url(#mask-2)" fill="#FF7F00">
                <rect id="Rectangle-2" x="0" y="0" width="24" height="24"></rect>
            </g>
        </g>
    </g>
</svg>