<?xml version="1.0" encoding="UTF-8"?>
<svg width="64px" height="80px" viewBox="0 0 64 80" version="1.1" xmlns="http://www.w3.org/2000/svg" xmlns:xlink="http://www.w3.org/1999/xlink">
    <!-- Generator: sketchtool 54.1 (76490) - https://sketchapp.com -->
    <title>2E0DCE2F-AD27-42D7-8121-5C8E7AF19A2A</title>
    <desc>Created with sketchtool.</desc>
    <g id="Address-Verification" stroke="none" stroke-width="1" fill="none" fill-rule="evenodd">
        <g id="AddressVerification_376px_MailingA" transform="translate(-156.000000, -120.000000)" fill="#8B1863">
            <g id="Mailing-Address-Icon" transform="translate(156.000000, 120.000000)">
                <path d="M34.0425532,80 L34.0425532,44.2553191 L43.4042553,44.2553191 L43.4042553,41.7021277 L14.4680851,41.7021277 L14.4680851,44.2553191 L24.6808511,44.2553191 L24.6808511,80 L34.0425532,80 Z M31.4893617,44.2553191 L31.4893617,77.4468085 L27.2340426,77.4468085 L27.2340426,44.2553191 L31.4893617,44.2553191 Z" id="Fill-1"></path>
                <path d="M22.0578723,40 L57.8723404,40.0003404 L57.8723404,20.3293617 C57.8723404,13.9364255 52.4202553,8.73702128 45.9174468,8.73702128 L45.7944426,4.05285106 C45.7944426,2.28757447 44.2751234,0.848085106 42.5098468,0.848085106 L42.3469447,0.848085106 C40.5816681,0.851404255 39.148817,2.28757447 39.148817,4.05617021 L39.148817,8.51097872 L11.4994553,8.51097872 C5.00013617,8.51097872 -0.000119148936,13.9365106 -0.000119148936,20.3297021 L-0.000119148936,40.0003404 L22.0578723,40 Z M10.212766,37.4468085 L10.212766,26.7217021 C10.212766,25.4949787 12.0611915,24.6805106 13.5804255,24.6805106 L16.1502128,24.6805106 C17.6661277,24.6805106 19.574383,25.4750553 19.574383,26.7217021 L19.574383,37.4468085 L10.212766,37.4468085 Z M41.7021277,4.05617021 C41.7021277,3.73702128 42.0312511,3.40457872 42.3470723,3.40457872 L42.5099745,3.40457872 C42.8291234,3.40457872 43.4042723,3.73702128 43.4042723,4.05617021 L43.4042723,18.6774468 C43.4042723,18.9965957 42.8291404,19.5750638 42.5132936,19.5750638 L42.3503915,19.5750638 C42.0312426,19.5750638 41.7021191,18.9966043 41.7021191,18.6774468 L41.7021277,4.05617021 Z M25.6944681,11.0641702 L39.1489362,11.0641702 L39.1489362,18.6771915 C39.1489362,18.8733362 39.1655574,18.7237362 39.2021277,19.5748085 L34.893617,19.5748085 L34.893617,22.128 L49.3617021,22.128 L49.3617021,19.5748085 L45.6582128,19.5748085 C45.6914553,18.7237447 45.9574128,18.8733447 45.9574128,18.6771915 L45.9574128,11.0641702 L45.7579404,11.0641702 C50.7213447,11.0641702 55.3187915,15.4691064 55.3187915,20.3297021 L55.3187915,37.4471489 L29.7868766,37.4471489 L29.7868766,20.3297021 C29.7868766,19.9008426 29.8400681,19.481966 29.7935234,19.066383 C29.7769021,18.9300766 29.7902043,18.7970979 29.7702553,18.6608 C29.7303574,18.3848681 29.710417,18.1122638 29.6472511,17.8429787 C29.6140085,17.6834043 29.5807574,17.5304766 29.5375404,17.3742298 C29.4743745,17.1348681 29.4112085,16.8955064 29.3347489,16.6594723 C29.2815574,16.4998979 29.2250383,16.3436511 29.1652,16.1873957 C29.078766,15.9646553 28.9890043,15.7452426 28.8925957,15.5291489 C28.822783,15.3762213 28.7496426,15.2266213 28.673183,15.0736936 C28.5668,14.8642553 28.4504426,14.6581362 28.330766,14.452017 C28.2443319,14.3123915 28.1645447,14.1694383 28.074783,14.0298128 C27.9418043,13.8236936 27.7988511,13.6275489 27.6525787,13.4314128 C27.562817,13.3084085 27.4730553,13.1820766 27.3766468,13.0624 C27.2037787,12.8463064 27.0142809,12.6401957 26.8281106,12.4373957 C26.7449957,12.3509617 26.6718638,12.2578723 26.5887489,12.174766 C26.3094894,11.8921872 26.0169362,11.4699745 25.7111319,11.2173191 C25.7011574,11.223966 25.6978298,11.0643915 25.6944681,11.0641702 L25.6944681,11.0641702 Z M2.55319149,37.4471489 L2.55319149,20.3297021 C2.55319149,15.4693617 6.53591489,11.0641702 11.5029787,11.0641702 L18.1153191,11.0641702 C20.7981277,11.0641702 23.0954043,12.2643404 24.7443404,13.9497872 C26.3068085,15.5621277 27.234383,17.9091915 27.234383,20.3294468 L27.234383,37.4471489 L22.128,37.4468936 L22.128,26.7217872 C22.128,23.8262128 19.0029787,22.1274043 16.1506383,22.1274043 L13.5808511,22.1274043 C10.6919149,22.1274043 7.66,23.8262128 7.66,26.7217872 L7.66,37.4468936 L2.55319149,37.4471489 Z" id="Fill-2"></path>
                <polygon id="Fill-3" points="61.2765957 36.5957447 63.8297872 36.5957447 63.8297872 40 61.2765957 40"></polygon>
                <path d="M50.1957447,3.08510638 L49.6771234,5.66825532 C49.7934809,5.68820426 61.2762723,7.9787234 61.2762723,18.596766 L61.2762723,34.0418723 L63.8294638,34.0418723 L63.8294638,18.596766 C63.8294638,5.824 50.3358468,3.10825532 50.1954213,3.08442553 L50.1957447,3.08510638 Z" id="Fill-4"></path>
            </g>
        </g>
    </g>
</svg>