<?xml version="1.0" encoding="UTF-8"?>
<svg width="79px" height="80px" viewBox="0 0 79 80" version="1.1" xmlns="http://www.w3.org/2000/svg" xmlns:xlink="http://www.w3.org/1999/xlink">
    <!-- Generator: sketchtool 52.6 (67491) - http://www.bohemiancoding.com/sketch -->
    <title>F781B493-A19D-4FEE-A62B-E08E38D730D0</title>
    <desc>Created with sketchtool.</desc>
    <g id="Address1" stroke="none" stroke-width="1" fill="none" fill-rule="evenodd">
        <g id="Addres1_376-599px-/-Nutral" transform="translate(-149.000000, -104.000000)" fill="#006580">
            <g id="Group-3" transform="translate(24.000000, 104.000000)">
                <g id="Group-8" transform="translate(124.501333, 0.000000)">
                    <polygon id="Fill-1" points="10.0516667 41.3293617 33.4891667 41.3293617 33.4891667 43.9889362 10.0516667 43.9889362"></polygon>
                    <polygon id="Fill-2" points="10.0516667 46.6485106 21.77 46.6485106 21.77 49.3080851 10.0516667 49.3080851"></polygon>
                    <polygon id="Fill-3" points="24.375 46.6485106 33.49 46.6485106 33.49 49.3080851 24.375 49.3080851"></polygon>
                    <polygon id="Fill-4" points="46.51 59.947234 69.9475 59.947234 69.9475 62.6068085 46.51 62.6068085"></polygon>
                    <polygon id="Fill-5" points="58.2291667 65.266383 69.9475 65.266383 69.9475 67.9259574 58.2291667 67.9259574"></polygon>
                    <polygon id="Fill-6" points="46.51 65.266383 55.625 65.266383 55.625 67.9259574 46.51 67.9259574"></polygon>
                    <path d="M79.3233333,63.9361702 L73.33375,53.2978723 L43.9070833,53.2978723 L43.9070833,32.0212766 L51.7195833,32.0212766 L51.7195833,18.7234043 L52.8914167,19.5212766 L57.44875,13.0053617 L40.0004167,0.50493617 L22.5520833,13.0053617 L26.9791667,19.5212766 L28.28125,18.7234043 L28.28125,32.0212766 L36.09375,32.0212766 L36.09375,34.6808511 L6.66708333,34.6808511 L0.677503333,45.3191489 L6.66708333,55.9574468 L36.09375,55.9574468 L36.09375,79.893617 L43.90625,79.893617 L43.90625,74.5744681 L73.3329167,74.5744681 L79.3233333,63.9361702 Z M42.605,29.3617021 L37.3966667,29.3617021 L37.3966667,21.3829787 L42.605,21.3829787 L42.605,29.3617021 Z M27.7616667,15.7974468 L26.3293333,13.6697872 L40.001,3.82978723 L53.8026667,13.6697872 L52.3703333,15.7974468 L40.0003333,7.0212766 L27.7616667,15.7974468 Z M34.7929167,29.3617021 L30.8866667,29.3617021 L30.8866667,16.8612766 L40.0016667,10.3453617 L49.1166667,16.8612766 L49.1166667,29.3617021 L45.2104167,29.3617021 L45.2104167,18.7234043 L34.79375,18.7234043 L34.7929167,29.3617021 Z M8.23041667,53.2978723 L3.80333583,45.3191489 L8.23041667,37.3404255 L36.0954167,37.3404255 L36.0954167,53.2978723 L8.23041667,53.2978723 Z M41.30375,77.2340426 L38.6995833,77.2340426 L38.6995833,32.0212766 L41.30375,32.0212766 L41.30375,77.2340426 Z M43.9079167,71.9148936 L43.9079167,55.9574468 L71.7729167,55.9574468 L76.2,63.9361702 L71.7729167,71.9148936 L43.9079167,71.9148936 Z" id="Fill-7"></path>
                </g>
            </g>
        </g>
    </g>
</svg>