<?xml version="1.0" encoding="UTF-8"?>
<svg width="191px" height="20px" viewBox="0 0 191 20" version="1.1" xmlns="http://www.w3.org/2000/svg" xmlns:xlink="http://www.w3.org/1999/xlink">
    <title>AF02EB98-1A33-44E6-83FF-791C2A47E337@3x</title>
    <defs>
        <polygon id="path-1" points="0.0185714286 0.311435185 0.0185714286 11.606713 10.7875238 11.606713 10.7875238 0.311435185 0.0185714286 0.311435185"></polygon>
    </defs>
    <g id="Templates-(WIP)" stroke="none" stroke-width="1" fill="none" fill-rule="evenodd">
        <g id="375_template" transform="translate(-16.000000, -18.000000)">
            <g id="MAPFRE-INS-Horiz-White" transform="translate(16.000000, 18.000000)">
                <polygon id="Fill-1" fill="#FFFFFE" points="105 15 107.5 15 107.5 4.16666667 105 4.16666667"></polygon>
                <polyline id="Fill-2" fill="#FFFFFE" points="116.207573 10.8001559 111.896025 4.16666667 110 4.16666667 110 15 112.125446 15 112.125446 8.35055961 116.436994 15 118.333333 15 118.333333 4.16666667 116.207573 4.16666667 116.207573 10.8001559"></polyline>
                <path d="M125.296106,8.68529771 L123.959739,8.50596742 C123.498156,8.44629319 123.133009,8.28142007 122.910717,8.08701742 C122.67208,7.87723483 122.576625,7.59332084 122.576625,7.32355641 C122.576625,6.59024012 123.1487,5.97657988 124.32554,5.97657988 C125.07316,5.97657988 125.931926,6.06670642 126.647837,6.71020377 L128.046642,5.40844431 C127.077384,4.52563484 125.947291,4.16666667 124.389286,4.16666667 C121.940151,4.16666667 120.444911,5.49826325 120.444911,7.3992258 C120.444911,8.29680002 120.715584,8.98520685 121.256276,9.49397579 C121.76526,9.95752766 122.480517,10.2417492 123.45141,10.3767853 L124.819159,10.5561155 C125.34318,10.6311697 125.598162,10.7354458 125.820127,10.9295409 C126.05909,11.1393235 126.170236,11.4539974 126.170236,11.8274227 C126.170236,12.6807027 125.470344,13.1451773 124.16732,13.1451773 C123.117645,13.1451773 122.147079,12.92063 121.431168,12.2472955 L120,13.594272 C121.113421,14.6557966 122.417098,15 124.135284,15 C126.504655,15 128.333333,13.8335841 128.333333,11.7683637 C128.333333,10.8252648 128.063314,10.0476542 127.458549,9.50843295 C126.981602,9.09009815 126.329764,8.82033372 125.296106,8.68529771" id="Fill-3" fill="#FFFFFE"></path>
                <path d="M135.304867,11.1528422 C135.304867,12.3901487 134.525864,13.1296169 133.333987,13.1296169 C132.140802,13.1296169 131.377818,12.3901487 131.377818,11.1528422 L131.377818,4.16666667 L129.166667,4.16666667 L129.166667,11.2282158 C129.166667,13.5058648 131.01169,15 133.333987,15 C135.654977,15 137.5,13.5058648 137.5,11.2282158 L137.5,4.16666667 L135.304867,4.16666667 L135.304867,11.1528422" id="Fill-4" fill="#FFFFFE"></path>
                <path d="M144.173499,8.91322863 L142.149513,8.91322863 L142.149513,6.05296841 L144.173499,6.05296841 C145.117645,6.05296841 145.735741,6.64628865 145.735741,7.48356767 C145.735741,8.31959562 145.117645,8.91322863 144.173499,8.91322863 Z M147.885253,7.48356767 C147.885253,5.67264293 146.554361,4.16666667 144.313325,4.16666667 L140,4.16666667 L140,15 L142.149513,15 L142.149513,10.6784893 L143.694912,10.6784893 L145.843789,15 L148.333333,15 L145.875567,10.3278767 C146.941108,9.94786404 147.885253,9.00455678 147.885253,7.48356767 L147.885253,7.48356767 Z" id="Fill-5" fill="#FFFFFE"></path>
                <path d="M151.947945,11.3015225 L153.381286,7.36190105 L154.766511,11.3015225 L151.947945,11.3015225 Z M152.457585,4.16666667 L148.333333,15 L150.641932,15 L151.327016,13.0824215 L155.354707,13.0824215 L156.024735,15 L158.333333,15 L154.193698,4.16666667 L152.457585,4.16666667 L152.457585,4.16666667 Z" id="Fill-6" fill="#FFFFFE"></path>
                <polyline id="Fill-7" fill="#FFFFFE" points="166.207252 10.8001559 161.895054 4.16666667 160 4.16666667 160 15 162.124195 15 162.124195 8.35055961 166.436394 15 168.333333 15 168.333333 4.16666667 166.207252 4.16666667 166.207252 10.8001559"></polyline>
                <path d="M174.18306,6.02179695 C175.295902,6.02179695 175.869323,6.68036666 176.090323,7.53333901 L178.333333,7.53333901 C177.935796,5.30355301 176.281899,4.16666667 174.167041,4.16666667 C172.927027,4.16666667 171.909319,4.58530907 171.112284,5.33400532 C169.967403,6.41121743 170.000095,7.74312161 170.000095,9.58317953 C170.000095,11.4238527 169.967403,12.7560644 171.112284,13.8335841 C171.909319,14.5813576 172.927027,15 174.167041,15 C176.26588,15 177.935796,13.8634213 178.333333,11.6336353 L176.090323,11.6336353 C175.869323,12.4866076 175.295902,13.1451773 174.18306,13.1451773 C173.577928,13.1451773 173.08493,12.9350871 172.767489,12.5911913 C172.337587,12.1427118 172.210741,11.6336353 172.210741,9.58317953 C172.210741,7.53333901 172.337587,7.02518527 172.767489,6.57547536 C173.08493,6.23157955 173.577928,6.02179695 174.18306,6.02179695" id="Fill-8" fill="#FFFFFE"></path>
                <polyline id="Fill-9" fill="#FFFFFE" points="180 15 187.5 15 187.5 13.11276 182.223342 13.11276 182.223342 10.4801946 186.716045 10.4801946 186.716045 8.59389285 182.223342 8.59389285 182.223342 6.05296841 187.5 6.05296841 187.5 4.16666667 180 4.16666667 180 15"></polyline>
                <g id="Group-13" transform="translate(0.000000, 4.166667)">
                    <mask id="mask-2" fill="white">
                        <use xlink:href="#path-1"></use>
                    </mask>
                    <g id="Clip-11"></g>
                    <path d="M8.29492857,6.46236111 C8.24571429,6.49217593 8.19092857,6.50351852 8.13830952,6.49865741 L6.35235714,6.49347222 C6.30252381,6.49865741 6.253,6.47305556 6.2257619,6.42476852 C6.19945238,6.37680556 6.20254762,6.32074074 6.22978571,6.27699074 L7.11842857,4.655 C7.14102381,4.60314815 7.17816667,4.55777778 7.22985714,4.52731481 C7.32642857,4.46865741 7.4425,4.48064815 7.52669048,4.54675926 L7.53535714,4.55324074 C7.7622381,4.75287037 7.96033333,4.99689815 8.11695238,5.28046296 C8.2732619,5.5637037 8.37478571,5.86347222 8.42895238,6.19532407 C8.43730952,6.3 8.38809524,6.40532407 8.29492857,6.46236111 Z M5.54140476,6.40467593 C5.51447619,6.46171296 5.45845238,6.50060185 5.39438095,6.50060185 C5.32814286,6.50060185 5.27119048,6.45944444 5.24457143,6.40046296 L4.14204762,4.41291667 C4.10521429,4.35652778 4.08292857,4.28912037 4.08292857,4.21555556 C4.08292857,4.07652778 4.16030952,3.95791667 4.27359524,3.90185185 C4.64285714,3.75796296 5.01057143,3.68763889 5.39438095,3.68763889 C5.77942857,3.68763889 6.14869048,3.75828704 6.49133333,3.88888889 L6.50402381,3.89439815 C6.62288095,3.94657407 6.70645238,4.07037037 6.70645238,4.21425926 C6.70645238,4.28912037 6.68354762,4.35912037 6.64392857,4.41648148 L5.54140476,6.40467593 Z M4.56207143,6.42476852 C4.53545238,6.47305556 4.48438095,6.49865741 4.43454762,6.49347222 L2.64952381,6.49865741 C2.59752381,6.50351852 2.5427381,6.49217593 2.49259524,6.46236111 C2.39942857,6.40532407 2.35052381,6.3 2.35857143,6.19532407 C2.4127381,5.86347222 2.51457143,5.5637037 2.67057143,5.28046296 C2.82688095,4.99689815 3.02528571,4.75287037 3.25216667,4.55324074 L3.26114286,4.54675926 C3.34502381,4.48064815 3.46109524,4.46865741 3.55828571,4.52731481 C3.6087381,4.55777778 3.64680952,4.60314815 3.66878571,4.655 L4.5577381,6.27699074 C4.58497619,6.32074074 4.58807143,6.37680556 4.56207143,6.42476852 Z M7.83590476,4.09759259 C7.65204762,3.95143519 7.41928571,3.89893519 7.19240476,3.95337963 C7.10728571,3.69217593 6.9017619,3.47277778 6.67240476,3.36875 C6.27280952,3.21578704 5.84195238,3.13314815 5.39438095,3.13314815 C4.94835714,3.13314815 4.51966667,3.21513889 4.12192857,3.36615741 C4.09159524,3.3775 4.05569048,3.39337963 4.01669048,3.41671296 C3.81271429,3.52787037 3.65578571,3.72296296 3.5892381,3.95953704 C3.35245238,3.91611111 3.0952381,3.98740741 2.912,4.1287037 C2.63869048,4.36949074 2.40035714,4.66277778 2.21216667,5.00435185 C2.02552381,5.34300926 1.90233333,5.70435185 1.83980952,6.07087963 C1.83454762,6.10069444 1.82959524,6.13925926 1.82959524,6.18365741 C1.81783333,6.48342593 1.96145238,6.78092593 2.2282619,6.94166667 C2.36569048,7.02527778 2.51859524,7.06060185 2.66685714,7.05314815 L4.42216667,7.04763889 C4.54628571,7.05314815 4.87685714,7.05444444 5.12911905,7.05444444 L5.12911905,8.78402778 L5.65871429,8.78402778 L5.65871429,7.05444444 C5.91097619,7.05444444 6.2412381,7.05314815 6.36597619,7.04763889 L8.12035714,7.05314815 C8.26954762,7.06060185 8.42183333,7.02527778 8.5592619,6.94166667 C8.82669048,6.78092593 8.97,6.48342593 8.95792857,6.18365741 C8.95792857,6.13925926 8.95328571,6.10069444 8.94771429,6.07087963 C8.8855,5.70435185 8.76230952,5.34300926 8.57504762,5.00435185 C8.38716667,4.66277778 8.10952381,4.33805556 7.83590476,4.09759259 L7.83590476,4.09759259 Z" id="Fill-10" fill="#FFFFFE" mask="url(#mask-2)"></path>
                    <path d="M5.39438095,11.06875 C2.69811905,11.06875 0.513190476,8.78111111 0.513190476,5.95875 C0.513190476,3.13703704 2.69811905,0.849398148 5.39438095,0.849398148 C8.08940476,0.849398148 10.2743333,3.13703704 10.2743333,5.95875 C10.2743333,8.78111111 8.08940476,11.06875 5.39438095,11.06875 Z M5.39438095,0.311435185 C2.41490476,0.311435185 0,2.83986111 0,5.95875 C0,9.07861111 2.41490476,11.606713 5.39438095,11.606713 C8.37261905,11.606713 10.7875238,9.07861111 10.7875238,5.95875 C10.7875238,2.83986111 8.37261905,0.311435185 5.39438095,0.311435185 L5.39438095,0.311435185 Z" id="Fill-12" fill="#FFFFFE" mask="url(#mask-2)"></path>
                </g>
                <polyline id="Fill-14" fill="#FFFFFE" points="23.3330204 9.58380132 20.6793108 4.16666667 16.6666667 4.16666667 16.6666667 15 20.6793108 15 20.6793108 9.58380132 23.3330204 15 25.9867299 9.58380132 25.9867299 15 30 15 30 4.16666667 25.9867299 4.16666667 23.3330204 9.58380132"></polyline>
                <path d="M35.8709685,11.4439037 L37.499687,5.78871833 L39.1293445,11.4439037 L35.8709685,11.4439037 Z M33.9546265,4.16666667 L30.8333333,15 L34.8459775,15 L35.3583165,13.2216398 L39.6416835,13.2216398 L40.1533966,15 L44.1666667,15 L41.0456864,4.16666667 L33.9546265,4.16666667 L33.9546265,4.16666667 Z" id="Fill-15" fill="#FFFFFE"></path>
                <path d="M50.8560981,8.65051238 L49.9739866,8.65051238 L49.9739866,5.40803488 L50.8560981,5.40803488 C51.7740911,5.40803488 52.6647761,5.8902863 52.6647761,6.87289308 C52.6647761,7.85456344 51.8782425,8.65051238 50.8560981,8.65051238 Z M53.4528974,4.16666667 L45.8333333,4.16666667 L45.8333333,15 L49.9031763,15 L49.9031763,10.4852527 L53.4528974,10.4852527 C55.2279167,10.4852527 56.6666667,9.07158498 56.6666667,7.32580363 C56.6666667,5.58158297 55.2279167,4.16666667 53.4528974,4.16666667 L53.4528974,4.16666667 Z" id="Fill-16" fill="#FFFFFE"></path>
                <polyline id="Fill-17" fill="#FFFFFE" points="58.3333333 15 62.4081082 15 62.4081082 10.4776613 69.1666667 10.4776613 69.1666667 8.69961313 62.4081082 8.69961313 62.4081082 5.94471484 69.1666667 5.94471484 69.1666667 4.16666667 58.3333333 4.16666667 58.3333333 15"></polyline>
                <polyline id="Fill-18" fill="#FFFFFE" points="82.5 15 93.3333333 15 93.3333333 13.221691 86.5741393 13.221691 86.5741393 10.4771676 93.3333333 10.4771676 93.3333333 8.69979457 86.5741393 8.69979457 86.5741393 5.94435165 93.3333333 5.94435165 93.3333333 4.16666667 82.5 4.16666667 82.5 15"></polyline>
                <path d="M75.0222047,8.6528582 L74.1393891,8.6528582 L74.1393891,5.41094115 L75.0222047,5.41094115 C75.916135,5.41094115 76.8310241,5.89404546 76.8310241,6.87554615 C76.8310241,7.85735891 76.0215647,8.6528582 75.0222047,8.6528582 Z M80.8329099,6.87554615 C80.8329099,5.37973286 79.5998261,4.16666667 78.0771279,4.16666667 L70,4.16666667 L70,15 L74.1393891,15 L74.1393891,10.5138085 L75.0222047,10.5138085 C76.0199769,10.5138085 76.8310241,11.3099319 76.8310241,12.2917447 C76.8310241,12.3207684 76.830389,12.3497921 76.8288012,12.3788158 L76.8288012,15 L80.8329099,15 L80.8329099,12.2917447 C80.8329099,12.2620968 80.8338626,12.2318248 80.8329099,12.2021769 C80.7855935,10.7488069 79.5699755,9.58348937 78.077763,9.58348937 C79.5998261,9.58348937 80.8329099,8.37135943 80.8329099,6.87554615 L80.8329099,6.87554615 Z" id="Fill-19" fill="#FFFFFE"></path>
                <polygon id="Fill-20" fill="#FFFFFE" points="98.3333333 20 99.1666667 20 99.1666667 0 98.3333333 0"></polygon>
                <path d="M189.593984,5.56781788 C189.045848,5.56781788 188.645237,5.12767247 188.645237,4.57586774 C188.645237,4.03023024 189.045848,3.58326842 189.58699,3.58326842 C190.12845,3.58326842 190.521429,4.03023024 190.521429,4.58300874 C190.521429,5.12767247 190.12845,5.56781788 189.593984,5.56781788 Z M189.58699,3.33333333 C188.889737,3.33333333 188.333333,3.88676101 188.333333,4.57586774 C188.333333,5.27990565 188.889737,5.83333333 189.58699,5.83333333 C190.291237,5.83333333 190.833333,5.27990565 190.833333,4.57586774 C190.833333,3.88676101 190.291237,3.33333333 189.58699,3.33333333 L189.58699,3.33333333 Z" id="Fill-21" fill="#FFFFFE"></path>
                <path d="M189.496476,4.70785805 L189.391999,4.70785805 L189.391999,4.47613012 C189.414334,4.47148289 189.455777,4.46641318 189.513848,4.46641318 C189.652819,4.46641318 189.716845,4.51584284 189.716845,4.58956485 C189.716845,4.67321504 189.617332,4.70785805 189.496476,4.70785805 Z M189.757048,4.76721589 L189.757048,4.75686523 C189.87294,4.72771441 189.953345,4.65885087 189.953345,4.57034221 C189.953345,4.49070553 189.912895,4.42712294 189.861277,4.39269117 C189.791543,4.3582594 189.710641,4.33333333 189.531467,4.33333333 C189.37438,4.33333333 189.253276,4.34326151 189.166667,4.3582594 L189.166667,5.16666667 L189.387036,5.16666667 L189.387036,4.8409379 L189.490272,4.8409379 C189.612617,4.8409379 189.670191,4.88043937 189.688058,4.96937051 C189.716845,5.06273764 189.734465,5.13667089 189.762756,5.16666667 L190,5.16666667 C189.977417,5.13667089 189.959549,5.08745247 189.930762,4.9643008 C189.901479,4.85593578 189.849117,4.79657795 189.757048,4.76721589 L189.757048,4.76721589 Z" id="Fill-22" fill="#FFFFFE"></path>
            </g>
        </g>
    </g>
</svg>