<?xml version="1.0" encoding="UTF-8"?>
<svg width="40px" height="48px" viewBox="0 0 40 48" version="1.1" xmlns="http://www.w3.org/2000/svg" xmlns:xlink="http://www.w3.org/1999/xlink">
    <!-- Generator: sketchtool 53 (72520) - https://sketchapp.com -->
    <title>47FB3940-1AC7-4383-827A-74A2AB5722B4</title>
    <desc>Created with sketchtool.</desc>
    <g id="Vehicle-Summary" stroke="none" stroke-width="1" fill="none" fill-rule="evenodd">
        <g id="Vehicle-&amp;-User-Icons" transform="translate(-1577.000000, -449.000000)" fill="#4C4C4C" fill-rule="nonzero">
            <g id="noun_533026" transform="translate(1577.000000, 449.000000)">
                <path d="M10.009587,22.2300885 C9.53982301,14.7964602 14.7072271,11.0442478 19.8746313,11.0442478 C25.0058997,11.0442478 30.1733038,14.7964602 29.7396755,22.2300885 C22.0427729,17.2389381 17.4535398,17.4867257 10.009587,22.2300885 Z M3.55271368e-15,2.84217094e-14 L3.61356932,2.84217094e-14 C3.61356932,6.26548673 3.61356932,6.2300885 7.69690265,8.14159292 L13.0088496,10.6548673 C15.3576696,11.7522124 18.0678466,13.0973451 18.0678466,16.2831858 L18.0678466,19.1150442 L14.4542773,19.1150442 C14.4542773,16.9911504 14.8156342,15.079646 12.0693215,13.8761062 L6.61283186,11.4690265 C0.433628319,8.74336283 3.55271368e-15,7.71681416 3.55271368e-15,2.84217094e-14 Z M3.55271368e-15,2.84217094e-14 L39.7492625,2.84217094e-14 L35.2323009,8.84955752 L27.1017699,12.2123894 L24.3915929,14.8672566 L19.8746313,3.32743363 L15.3576696,14.8672566 L12.719764,12.2831858 L4.51696165,8.84955752 L3.55271368e-15,2.84217094e-14 Z M36.1356932,2.13162821e-14 L39.7492625,2.13162821e-14 C39.7492625,7.71681416 39.3156342,8.74336283 33.1364307,11.4690265 L27.679941,13.8761062 C24.9336283,15.079646 25.2949853,16.9911504 25.2949853,19.1150442 L21.6814159,19.1150442 L21.6814159,16.2831858 C21.6814159,13.0973451 24.3915929,11.7522124 26.740413,10.6548673 L32.0523599,8.14159292 C36.1356932,6.2300885 36.1356932,6.2300885 36.1356932,2.13162821e-14 Z M19.8746313,19.7876106 C16.1887906,19.7876106 12.2861357,23.6460177 12.2861357,30.7964602 C12.2861357,32.3539823 12.2861357,34.4778761 19.8746313,34.4778761 C27.4631268,34.4778761 27.4631268,32.1061947 27.4631268,30.7964602 C27.4631268,23.6106195 23.5243363,19.7876106 19.8746313,19.7876106 Z M19.8746313,16.1415929 C28.9085546,16.1415929 36.2441003,23.2920354 36.2441003,32.0707965 C36.2441003,40.8495575 28.9085546,48 19.8746313,48 C10.840708,48 3.50516224,40.8495575 3.50516224,32.0707965 C3.50516224,23.3274336 10.9129794,16.1415929 19.8746313,16.1415929 Z M25.2949853,19.4690265 L26.1983776,20.3539823 C27.1017699,21.2389381 27.1017699,22.1238938 26.1983776,23.0088496 C26.1983776,23.0088496 23.4882006,25.6637168 19.8746313,25.6637168 C16.2610619,25.6637168 13.550885,23.0088496 13.550885,23.0088496 C12.6474926,22.1238938 12.6474926,21.2389381 13.550885,20.3539823 C13.550885,19.4690265 15.3576696,19.4690265 15.3576696,20.3539823 C16.2610619,21.2389381 18.0678466,22.1238938 19.8746313,22.1238938 C21.6814159,22.1238938 23.4882006,21.2389381 24.3915929,20.3539823 C24.3915929,20.3539823 24.3915929,19.4690265 25.2949853,19.4690265 Z M16.2971976,24.460177 C17.5980826,24.460177 18.6460177,24.460177 18.6460177,24.460177 C18.6460177,24.460177 17.5980826,24.460177 16.2971976,24.460177 C14.9963127,24.460177 13.9483776,24.460177 13.9483776,24.460177 C13.9483776,24.460177 14.9963127,24.460177 16.2971976,24.460177 Z" id="Shape" transform="translate(19.874631, 24.000000) scale(-1, 1) rotate(-180.000000) translate(-19.874631, -24.000000) "></path>
            </g>
        </g>
    </g>
</svg>