<?xml version="1.0" encoding="UTF-8"?>
<svg width="40px" height="48px" viewBox="0 0 40 48" version="1.1" xmlns="http://www.w3.org/2000/svg" xmlns:xlink="http://www.w3.org/1999/xlink">
    <!-- Generator: sketchtool 53 (72520) - https://sketchapp.com -->
    <title>7F1FE631-C782-430F-9F12-EFC887F414EE</title>
    <desc>Created with sketchtool.</desc>
    <g id="Vehicle-Summary" stroke="none" stroke-width="1" fill="none" fill-rule="evenodd">
        <g id="Vehicle-&amp;-User-Icons" transform="translate(-1577.000000, -270.000000)" fill="#4C4C4C" fill-rule="nonzero">
            <g id="noun_533023" transform="translate(1577.000000, 270.000000)">
                <path d="M8.76811594,34.7941176 C8.76811594,13.2647059 31.2318841,13.2647059 31.2318841,34.7941176 C31.2318841,52.4019608 8.76811594,52.4019608 8.76811594,34.7941176 Z M36.3043478,9.81372549 L25.7246377,15.3431373 C22.5724638,11.8137255 17.6086957,11.8137255 14.3115942,15.3431373 L3.69565217,9.81372549 L3.65942029,0.833333333 L36.3043478,0.833333333 L36.3043478,9.81372549 Z M0.0724637681,0.833333333 L3.69565217,0.833333333 C3.69565217,7.7745098 3.69565217,7.73529412 7.78985507,9.85294118 L13.115942,12.6372549 C15.4710145,13.8529412 18.1884058,15.3431373 18.1884058,18.872549 L18.1884058,22.0098039 L14.5652174,22.0098039 C14.5652174,19.6568627 14.9275362,17.5392157 12.173913,16.2058824 L6.70289855,13.5392157 C0.507246377,10.5196078 0.0724637681,9.38235294 0.0724637681,0.833333333 Z M39.9275362,0.833333333 C39.9275362,9.38235294 39.4927536,10.5196078 33.2971014,13.5392157 L27.826087,16.2058824 C25.0724638,17.5392157 25.4347826,19.6568627 25.4347826,22.0098039 L21.8115942,22.0098039 L21.8115942,18.872549 C21.8115942,15.3431373 24.5289855,13.8529412 26.884058,12.6372549 L32.2101449,9.85294118 C36.3043478,7.73529412 36.3043478,7.73529412 36.3043478,0.833333333 L39.9275362,0.833333333 Z M25.4347826,22.4019608 L26.3405797,23.3823529 C27.2463768,24.3627451 27.2463768,25.3431373 26.3405797,26.3235294 C26.3405797,26.3235294 23.6231884,29.2647059 20,29.2647059 C16.3768116,29.2647059 13.6594203,26.3235294 13.6594203,26.3235294 C12.7536232,25.3431373 12.7536232,24.3627451 13.6594203,23.3823529 C13.6594203,22.4019608 15.4710145,22.4019608 15.4710145,23.3823529 C16.3768116,24.3627451 18.1884058,25.3431373 20,25.3431373 C21.8115942,25.3431373 23.6231884,24.3627451 24.5289855,23.3823529 C24.5289855,23.3823529 24.5289855,22.4019608 25.4347826,22.4019608 Z M31.2318841,34.7941176 C22.9347826,18.872549 16.9202899,18.9901961 8.76811594,34.7941176 C8.76811594,8.6372549 31.2318841,8.6372549 31.2318841,34.7941176 Z M27.6086957,34.7941176 C27.6086957,18.9117647 12.3913043,18.9117647 12.3913043,34.7941176 C12.3913043,42.6764706 20.2536232,35.1862745 23.6231884,42.2058824 C24.5652174,38.6764706 27.6086957,38.872549 27.6086957,34.7941176 Z" id="Shape" transform="translate(20.000000, 24.416667) scale(-1, 1) rotate(-180.000000) translate(-20.000000, -24.416667) "></path>
            </g>
        </g>
    </g>
</svg>