<?xml version="1.0" encoding="UTF-8"?>
<svg width="40px" height="47px" viewBox="0 0 40 47" version="1.1" xmlns="http://www.w3.org/2000/svg" xmlns:xlink="http://www.w3.org/1999/xlink">
    <!-- Generator: sketchtool 53.1 (72631) - https://sketchapp.com -->
    <title>328DE2E5-0DA4-497F-B5EE-5EC0704E4F1A</title>
    <desc>Created with sketchtool.</desc>
    <defs>
        <path d="M19.6097561,16.6666667 L8.59110473,10.7916667 L4,1 L18.6915352,1 L19.6097561,16.6666667 Z M28.3902439,16.6666667 L29.3084648,1 L44,1 L39.4088953,10.7916667 L28.3902439,16.6666667 Z M12.7804878,34.7841934 C12.7804878,13.2386022 35.2195122,13.2386022 35.2195122,34.7841934 C35.2195122,52.4052689 12.7804878,52.4052689 12.7804878,34.7841934 Z M15.7073171,34.0885277 C15.7073171,46.1093796 31.3170732,46.1093796 31.3170732,34.0885277 C31.3170732,18.6548157 15.7073171,18.730657 15.7073171,34.0885277 Z M4,1 L7.70731707,1 C7.70731707,7.73993056 7.70731707,7.70185185 11.8965854,9.75810185 L17.3463415,12.4616898 C19.7560976,13.6421296 22.5365854,15.0891204 22.5365854,18.5162037 L22.5365854,21.5625 L18.8292683,21.5625 C18.8292683,19.2777778 19.2,17.2215278 16.382439,15.9268519 L10.7843902,13.3375 C4.44487805,10.4054398 4,9.30115741 4,1 Z M44,1 C44,9.30115741 43.555122,10.4054398 37.2156098,13.3375 L31.617561,15.9268519 C28.8,17.2215278 29.1707317,19.2777778 29.1707317,21.5625 L25.4634146,21.5625 L25.4634146,18.5162037 C25.4634146,15.0891204 28.2439024,13.6421296 30.6536585,12.4616898 L36.1034146,9.75810185 C40.2926829,7.70185185 40.2926829,7.70185185 40.2926829,1 L44,1 Z M32.1931707,36.25 L15.5102439,36.25 C16.5853659,36.25 14.7317073,35.2592712 14.7317073,31.4548728 C14.7317073,28.9978655 23.0731707,27.8882493 23.0731707,33.079668 L24.9268293,33.079668 C24.9268293,28.0071367 33.2682927,28.9186072 33.2682927,31.4548728 C33.2682927,35.2592712 31.4146341,36.25 32.1931707,36.25 Z M27.7804878,17.6458333 C25.2195122,14.599537 21.804878,14.599537 19.2439024,17.6458333 L16.6829268,14.599537 C20.9512195,9.52237654 26.0731707,9.52237654 30.3414634,14.599537 L27.7804878,17.6458333 Z M23.1430455,46.0416667 C21.0863546,46.0416667 20.0580092,45.6543216 17.6585366,43.3302513 C22.4574819,37.1327306 25.8852999,38.2947657 30.3414634,38.2947657 C28.9703362,45.4606491 27.2564272,46.0416667 23.1430455,46.0416667 Z" id="path-1"></path>
    </defs>
    <g id="Driver-Summary" stroke="none" stroke-width="1" fill="none" fill-rule="evenodd">
        <g id="User-Icons" transform="translate(-129.000000, -183.000000)">
            <g id="04_Icons-/-48px-/-Drivers-/-Male-1" transform="translate(125.000000, 182.000000)">
                <mask id="mask-2" fill="white">
                    <use xlink:href="#path-1"></use>
                </mask>
                <use id="Shape" fill="#4C4C4C" fill-rule="nonzero" transform="translate(24.000000, 24.500000) scale(-1, 1) rotate(-180.000000) translate(-24.000000, -24.500000) " xlink:href="#path-1"></use>
            </g>
        </g>
    </g>
</svg>