<?xml version="1.0" encoding="UTF-8"?>
<svg width="40px" height="28px" viewBox="0 0 40 28" version="1.1" xmlns="http://www.w3.org/2000/svg" xmlns:xlink="http://www.w3.org/1999/xlink">
    <!-- Generator: sketchtool 54.1 (76490) - https://sketchapp.com -->
    <title>140605D4-9A5B-44F5-BD18-7468C406683E</title>
    <desc>Created with sketchtool.</desc>
    <defs>
        <path d="M35.6248,11.8752 L35.6246,11.8748 C34.59024,11.8748 33.7496,11.03416 33.7496,9.9998 L24.9996,9.9998 L24.9996,8.7498 L34.3748,8.7498 C34.720112,8.7498 34.9998,9.029488 34.9998,9.3748 L34.9998,9.9998 C34.9998,10.343552 35.281048,10.6248 35.6248,10.6248 L36.8748,10.6248 C37.220112,10.6248 37.4998,10.904488 37.4998,11.2498 L37.4998,20.625 C37.4998,20.970312 37.220112,21.25 36.8748,21.25 L35.6248,21.25 C35.281048,21.25 34.9998,21.531248 34.9998,21.875 L34.9998,22.5 C34.9998,22.845312 34.720112,23.125 34.3748,23.125 L31.2498,23.125 L31.2498,21.875 L33.7498,21.875 C33.7498,20.84064 34.59044,20 35.6248,20 L36.2498,20 L36.2498,11.8752 L35.6248,11.8752 Z M28.75,15 L30,15 L30,17.5 L28.75,17.5 L28.75,15 Z M32.5,15 L33.75,15 L33.75,17.5 L32.5,17.5 L32.5,15 Z M4.3752,20 L4.3752,20.0004 C5.40956,20.0004 6.2502,20.84104 6.2502,21.8754 L15.0002,21.8754 L15.0002,23.1254 L5.625,23.1254 C5.279688,23.1254 5,22.845712 5,22.5004 L5,21.8754 C5,21.531648 4.718752,21.2504 4.375,21.2504 L3.125,21.2504 C2.779688,21.2504 2.5,20.970712 2.5,20.6254 L2.5,11.2502 C2.5,10.904888 2.779688,10.6252 3.125,10.6252 L4.375,10.6252 C4.718752,10.6252 5,10.343952 5,10.0002 L5,9.3752 C5,9.029888 5.279688,8.7502 5.625,8.7502 L15.0002,8.7502 L15.0002,10.0002 L6.2502,10.0002 C6.2502,11.03456 5.40956,11.8752 4.3752,11.8752 L3.7502,11.8752 L3.7502,20 L4.3752,20 Z M10,15 L11.25,15 L11.25,17.5 L10,17.5 L10,15 Z M6.25,15 L7.5,15 L7.5,17.5 L6.25,17.5 L6.25,15 Z M40,6.8752 L40,32.5 C40,32.845312 39.720312,33.125 39.375,33.125 L23.125,33.125 C23.125,33.470312 22.845312,33.75 22.5,33.75 L17.5,33.75 C17.154688,33.75 16.875,33.470312 16.875,33.125 L0.625,33.125 C0.279688,33.125 0,32.845312 0,32.5 L0,6.8752 C0,6.529888 0.279688,6.2502 0.625,6.2502 L39.375,6.2502 C39.720312,6.2502 40,6.529888 40,6.8752 Z M38.75,25.6252 L23.1252,25.6252 L23.1252,26.8752 L38.75,26.8752 L38.75,25.6252 Z M23.1252,28.1252 L23.1252,29.3752 L38.75,29.3752 L38.75,28.1252 L23.1252,28.1252 Z M1.25,7.5004 L1.25,24.3756 L38.75,24.3756 L38.75,7.5004 L1.25,7.5004 Z M16.8748,26.8756 L16.8748,25.6256 L1.25,25.6256 L1.25,26.8756 L16.8748,26.8756 Z M1.25,28.1256 L1.25,29.3756 L16.8748,29.3756 L16.8748,28.1256 L1.25,28.1256 Z M1.25,31.8756 L16.8748,31.8756 L16.8748,30.6256 L1.25,30.6256 L1.25,31.8756 Z M18.1252,32.5006 L21.8752,32.5006 L21.8752,25.6254 L18.1252,25.6254 L18.1252,32.5006 Z M38.75,31.8756 L38.75,30.6256 L23.1252,30.6256 L23.1252,31.8756 L38.75,31.8756 Z M20.0592,22.8656 L20.059164,22.8656 L20.013852,22.8656 C16.287412,22.8656 13.242088,19.86868 13.218652,16.164 C13.207692,14.36084 13.904572,12.6624 15.181132,11.3796 C16.456292,10.09836 18.157852,9.38742 19.971932,9.37492 L20.01568,9.37492 C23.74372,9.37492 26.78748,12.37184 26.81248,16.07652 C26.82344,17.87968 26.12656,19.57968 24.85,20.86092 C23.57484,22.14216 21.87328,22.8531 20.0592,22.8656 Z M14.4684,16.1564 C14.4884,19.1734 16.97292,21.6156 20.012,21.6156 L20.047936,21.6156 C21.530776,21.60624 22.921376,21.025 23.962016,19.97968 C25.001096,18.93592 25.568272,17.55312 25.558896,16.08592 C25.540096,13.06892 23.055896,10.62672 20.013696,10.62672 L19.97776,10.62672 C18.49652,10.63608 17.10592,11.21732 16.06528,12.26264 C15.0262,13.3064 14.459024,14.6892 14.4684,16.1564 Z M20.6328,19.9968 L19.381124,20.004656 L19.378,19.387456 L18.128,19.395268 L18.120188,18.145268 L21.257708,18.124956 L21.249896,16.859316 L18.763976,16.876504 C18.092096,16.876504 17.510864,16.323384 17.506176,15.634304 L17.498364,14.404624 C17.493684,13.715584 18.051484,13.151512 18.740564,13.146824 L19.37808,13.142136 L19.374956,12.504616 L20.624956,12.496804 L20.62808,13.132724 L21.87028,13.124912 L21.878096,14.374912 L18.749976,14.395224 L18.757788,15.624904 L21.242148,15.607716 L21.24996,15.607716 C21.93588,15.607716 22.495272,16.163996 22.49996,16.849916 L22.507772,18.117116 C22.509336,18.449916 22.381212,18.765536 22.146836,19.003036 C21.912476,19.240536 21.599972,19.373352 21.265596,19.374912 L20.629676,19.3796 L20.6328,19.9968 Z M25,21.8752 L30,21.8752 L30,23.1252 L25,23.1252 L25,21.8752 Z" id="path-1"></path>
    </defs>
    <g id="Payment-Frequency" stroke="none" stroke-width="1" fill="none" fill-rule="evenodd">
        <g id="PaymentFreq_768-991px-/-Neutral" transform="translate(-236.000000, -414.000000)">
            <g id="Payment-Style-/-Monthly-Copy-3" transform="translate(220.000000, 396.000000)">
                <g id="Payment-Style-Btn">
                    <g id="Icon" transform="translate(16.000000, 12.000000)">
                        <mask id="mask-2" fill="white">
                            <use xlink:href="#path-1"></use>
                        </mask>
                        <use id="Combined-Shape" fill="#FF7F00" xlink:href="#path-1"></use>
                        <g id="00_Basics-/-Colors-/-Secondary-/-700" mask="url(#mask-2)" fill="#FF7F00">
                            <g transform="translate(-29.000000, -33.000000)" id="Rectangle-2">
                                <rect x="0" y="0" width="101" height="101"></rect>
                            </g>
                        </g>
                    </g>
                </g>
            </g>
        </g>
    </g>
</svg>