<?xml version="1.0" encoding="UTF-8"?>
<svg width="63px" height="80px" viewBox="0 0 63 80" version="1.1" xmlns="http://www.w3.org/2000/svg" xmlns:xlink="http://www.w3.org/1999/xlink">
    <!-- Generator: Sketch 54.1 (76490) - https://sketchapp.com -->
    <title>PriceChange_Icon</title>
    <desc>Created with Sketch.</desc>
    <g id="Price-Change" stroke="none" stroke-width="1" fill="none" fill-rule="evenodd">
        <g id="PriceChange_320-375px-/-Nutral" transform="translate(-128.000000, -128.000000)" fill="#8B1863">
            <g id="PriceChange_Icon" transform="translate(128.000000, 128.000000)">
                <path d="M33.265,10.2275 C33.248725,10.1721583 33.2357,10.116825 33.2129167,10.0614833 C33.1901333,10.0028917 33.157575,9.95080833 33.125025,9.898725 C33.1022417,9.85640833 33.0827083,9.81409167 33.0599167,9.775025 C32.998075,9.680625 32.92645,9.59924167 32.8515833,9.51786667 L24.4790833,1.14536667 C23.8247833,0.491066667 22.7635833,0.491066667 22.1125833,1.14536667 C21.4582833,1.79966667 21.4582833,2.86086667 22.1125833,3.51186667 L27.8645,9.26378333 C12.5745,11.1485333 0.693666667,24.2087833 0.693666667,39.9996167 C0.693666667,52.8346167 8.76983333,64.4921167 20.791175,69.0037833 C20.9864917,69.0754 21.1850583,69.1112083 21.3771083,69.1112083 C22.0541917,69.1112083 22.6921917,68.6945417 22.9461083,68.0239583 C23.271625,67.1580417 22.832175,66.1945417 21.966275,65.8690417 C11.2471083,61.845625 4.04294167,51.4515417 4.04294167,39.999875 C4.04294167,26.2632083 14.1246083,14.8407083 27.2721083,12.727375 L22.1126083,17.886875 C21.4583083,18.541175 21.4583083,19.599125 22.1126083,20.253375 C22.438125,20.5788917 22.871075,20.7416583 23.297525,20.7416583 C23.723975,20.7416583 24.1536083,20.5789 24.4824417,20.253375 L32.8549417,11.880875 C32.9363167,11.7994917 33.0046833,11.7181167 33.063275,11.6237167 C33.0925667,11.58465 33.1088417,11.5390833 33.128375,11.5000167 C33.160925,11.444675 33.190225,11.3925917 33.2162667,11.3372583 C33.2358,11.2819167 33.252075,11.2265833 33.26835,11.1712417 C33.281375,11.1224083 33.3041583,11.0768417 33.3106667,11.0247583 C33.3529833,10.8099167 33.3529833,10.5885583 33.3106667,10.3672083 C33.29765,10.3216333 33.2781167,10.2760583 33.2650917,10.2272333 L33.265,10.2275 Z" id="Fill-1"></path>
                <path d="M62.64,40 C62.64,27.165 54.5638333,15.5075 42.5425,10.9958333 C41.6765833,10.6735667 40.7130833,11.1097667 40.3875833,11.9756667 C40.0620667,12.8415833 40.5015167,13.8050833 41.3674167,14.1305833 C52.0899167,18.154 59.29075,28.5514167 59.29075,40.0030833 C59.29075,53.73975 49.2090833,65.16225 36.0615833,67.2755833 L41.2210833,62.1160833 C41.8753833,61.4617833 41.8753833,60.4038333 41.2210833,59.7495833 C40.5667833,59.0952833 39.5055833,59.0952833 38.8545833,59.7495833 L30.4820833,68.1220833 C30.4007,68.1969583 30.3323417,68.2848417 30.27375,68.3792417 C30.24445,68.4183083 30.228175,68.463875 30.2086417,68.5029417 C30.1760917,68.5582833 30.1467917,68.6103667 30.12075,68.6657 C30.0979667,68.7210417 30.0849417,68.776375 30.0686667,68.8317167 C30.05565,68.88055 30.0328583,68.9261167 30.02635,68.9782 C29.9840333,69.1930417 29.9840333,69.4144 30.02635,69.63575 C30.0361167,69.6845833 30.05565,69.7334083 30.0686667,69.7822333 C30.0849417,69.837575 30.0979667,69.8929083 30.12075,69.94825 C30.1435417,70.0068417 30.1760917,70.058925 30.2086417,70.1110083 C30.2314333,70.153325 30.2509583,70.1956417 30.27375,70.2347083 C30.3356,70.3291083 30.4072167,70.4104917 30.4820833,70.4918667 L38.8545833,78.8643683 C39.1801,79.189885 39.61305,79.3526517 40.0395,79.3526517 C40.46595,79.3526517 40.8955833,79.1898933 41.2244167,78.8643683 C41.8787167,78.2100683 41.8787167,77.1521183 41.2244167,76.4978683 L35.4725,70.74595 C50.7591667,68.85145 62.6408333,55.7917833 62.6408333,40.0001167 L62.64,40 Z" id="Fill-2"></path>
                <path d="M38.6594967,45.0224865 C38.6594967,41.2394234 35.5963131,39.6170811 32.8006532,38.3572613 L32.8006532,29.8902342 C34.6033743,30.2491892 35.7758641,31.1500541 36.1349661,31.692036 C36.5856464,32.321964 37.3954287,32.4134595 38.0292654,32.050991 C38.6595148,31.6005405 38.7510569,30.7911712 38.3884035,30.1576577 C37.487043,28.8978378 35.5927437,27.5464865 32.8006892,27.183964 L32.8006892,23.8513514 C32.8006892,23.1299279 32.1704399,22.5 31.4486484,22.5 C30.7268569,22.5 30.0966076,23.1299279 30.0966076,23.8513514 L30.0966076,27.096036 C26.7622947,27.6344685 24.2377641,30.1576577 24.2377641,33.3108108 C24.2377641,37.1854054 27.3009477,38.8956757 30.0966076,40.0675676 L30.0966076,48.4466667 C28.2023083,48.0877117 27.1213967,47.1868468 26.6707165,46.6448649 C26.2200362,46.0149369 25.4102539,45.8354595 24.7764171,46.2859099 C24.1461678,46.7363604 23.9665988,47.5457297 24.417279,48.1792432 C25.2270974,49.4390631 27.2129389,50.8819459 30.0049933,51.2408649 L30.0049933,54.482036 C30.0049933,55.2034595 30.6352426,55.8333874 31.3570341,55.8333874 C32.0788256,55.8333874 32.709075,55.2034595 32.709075,54.482036 L32.709075,51.2373514 C36.1349661,50.6989189 38.6594967,48.1757297 38.6594967,45.0225766 L38.6594967,45.0224865 Z M26.9418097,33.3107748 C26.9418097,31.8678919 28.1142994,30.3370811 30.0965716,29.8866306 L30.0965716,37.0938378 C28.1142994,36.1049189 26.9418097,35.1125766 26.9418097,33.3107748 Z M32.8006532,48.4468108 L32.8006532,41.3311351 C34.7829253,42.3235676 35.9554151,43.2244685 35.9554151,45.0262703 C35.9554151,46.4656396 34.7829253,47.9964505 32.8006532,48.4469009 L32.8006532,48.4468108 Z" id="Fill-1"></path>
            </g>
        </g>
    </g>
</svg>