<?xml version="1.0" encoding="UTF-8"?>
<svg width="26px" height="26px" viewBox="0 0 26 26" version="1.1" xmlns="http://www.w3.org/2000/svg" xmlns:xlink="http://www.w3.org/1999/xlink">
    <!-- Generator: sketchtool 53.1 (72631) - https://sketchapp.com -->
    <title>D0B2FA96-576E-4CE5-9B98-FACCFADA245A</title>
    <desc>Created with sketchtool.</desc>
    <defs>
        <path d="M13.1132614,15.9253438 C13.1053094,16.0127142 13.0942237,16.0978214 13.082909,16.1781427 C12.2593426,16.3304587 11.2870357,16.4490054 10.125,16.5 C10.3362877,16.2794606 10.4633848,16.0086014 10.4633848,15.7032914 C10.4633848,15.4489794 10.3783703,15.22844 10.2306396,15.025126 L12.1742435,13.5 C12.4670718,13.8017966 12.7029061,14.1370225 12.8664465,14.4993254 C12.9699093,14.3035766 13.1286934,14.1409063 13.3193449,14.0262006 C12.6847944,12.2363581 10.986827,10.9453581 8.99654446,10.9453581 C6.98945033,10.9453581 5.29081397,12.2189726 4.69107023,14.0088151 C5.03416324,14.1984372 5.27405387,14.5769929 5.27405387,15.0073262 L5.27405387,15.0591005 C5.27405387,15.5587003 4.9477038,15.9890262 4.48466547,16.1436777 L4.4672432,16.1436777 C4.45048997,16.1611596 4.45048997,16.1611596 4.43306771,16.1611596 C3.67853755,16.4025559 2.9749224,16.5746893 2.54605613,16.4368483 C1.82569753,16.1953454 1.73992427,14.9904468 2.0314161,13.5790911 C2.59769163,10.2049334 6.52583217,9.12035907 7.05790081,9 C8.17295311,9.87815545 9.75100943,9.87815545 10.8660617,9 C11.398199,9.12049334 15.4120785,10.222491 15.9783192,13.5790911 L15.9782471,13.579098 C16.269739,14.9904193 16.1497936,16.2296411 15.4120064,16.453552 C15.0006379,16.5907078 14.3144519,16.4017743 13.5424926,16.1778632 C13.3818798,16.1242221 13.2356985,16.0374111 13.1132614,15.9253438 Z M13.125,5.25 C13.125,7.32063287 11.4462525,9 9.37534561,9 C7.3044733,9 5.625,7.32063287 5.625,5.25 C5.625,3.17870927 7.30443874,1.5 9.37534561,1.5 C11.4462179,1.5 13.125,3.17870927 13.125,5.25 Z M8.52020129,15.0170142 L8.52018438,15.016946 C8.37162129,15.2047486 8.28744132,15.4431502 8.28661522,15.6988727 C8.28661522,15.988555 8.41372079,16.2782376 8.625,16.5 C7.46296434,16.4487193 6.49074192,16.3461643 5.66709104,16.1929968 C5.64645752,16.0398359 5.625,15.8693542 5.625,15.6988727 C5.625,14.8638534 5.98485075,14.0966859 6.59722242,13.5 L8.52020129,15.0170142 Z M9,15 C9.206175,15 9.375,15.168825 9.375,15.375 C9.375,15.581175 9.206175,15.75 9,15.75 C8.793825,15.75 8.625,15.581175 8.625,15.375 C8.625,15.168825 8.793825,15 9,15 Z M9.36680874,12.0000162 L9.36684245,12 C10.2266042,12 11.0015206,12.3080481 11.625,12.8090413 L10.0745266,14.25 C9.87240816,14.1203293 9.6195916,14.0558081 9.36677503,14.0558081 C9.11395847,14.0558081 8.87759184,14.1209673 8.67547342,14.2341952 L7.125,12.7932365 C7.73206313,12.291628 8.50696276,12.0000162 9.36680874,12.0000162 Z" id="path-1"></path>
    </defs>
    <g id="Components" stroke="none" stroke-width="1" fill="none" fill-rule="evenodd">
        <g id="Navigation" transform="translate(-239.000000, -384.000000)">
            <g id="06_Navigation-/-Progress-/-QQ-/-Basic-Info" transform="translate(80.000000, 373.000000)">
                <g id="Progress-Stepper">
                    <g id="Steps" transform="translate(76.000000, 12.000000)">
                        <g id="Driver" transform="translate(84.000000, 0.000000)">
                            <g>
                                <circle id="Driver-Oval" stroke="#006580" fill-opacity="1" fill="#FFFFFF" cx="12" cy="12" r="12"></circle>
                                <g id="Driver-Icon" transform="translate(3.000000, 3.000000)">
                                    <mask id="mask-2" fill="white">
                                        <use xlink:href="#path-1"></use>
                                    </mask>
                                    <use id="Driver" fill="#777770" xlink:href="#path-1"></use>
                                    <g id="Color" mask="url(#mask-2)" fill="#006580">
                                        <rect id="Rectangle-2" x="0" y="0" width="18.18" height="18.18"></rect>
                                    </g>
                                </g>
                            </g>
                        </g>
                    </g>
                </g>
            </g>
        </g>
    </g>
</svg>