<?xml version="1.0" encoding="UTF-8"?>
<svg width="114px" height="82px" viewBox="0 0 114 82" version="1.1" xmlns="http://www.w3.org/2000/svg" xmlns:xlink="http://www.w3.org/1999/xlink">
    <!-- Generator: Sketch 54.1 (76490) - https://sketchapp.com -->
    <title>Savings Icon</title>
    <desc>Created with Sketch.</desc>
    <g id="Payment-Frequency" stroke="none" stroke-width="1" fill="none" fill-rule="evenodd" stroke-linecap="round">
        <g id="Discounts_376px-/-Modal" transform="translate(-131.000000, -89.000000)">
            <g id="Savings-Icon" transform="translate(132.000000, 90.000000)">
                <path d="M56.7997212,7.04709672 C56.3195952,8.47832987 51.2457641,8.27386799 45.467373,6.59157197 C39.6883568,4.90869342 35.3928549,2.38408436 35.8729808,0.952851207 C36.3531068,-0.478381944 41.426938,-0.273920065 47.205329,1.40895847 C52.98372,3.09183702 57.2798472,5.61586357 56.7997212,7.04709672 Z" id="Stroke-1" stroke="#8B1863" stroke-width="2"></path>
                <path d="M35.7476173,1 L34.8731727,3.95228211 C34.3899601,5.58741266 38.718713,8.46984582 44.5418338,10.3910244 C50.3655845,12.3135335 55.4780615,12.5456981 55.9625341,10.911898 L56.8363487,7.95961591" id="Stroke-3" stroke="#8B1863" stroke-width="2"></path>
                <path d="M52.8363487,8 L51.8363487,11" id="Stroke-5"></path>
                <path d="M49.8363487,8 L48.8363487,11" id="Stroke-7"></path>
                <path d="M44.8363487,7 L43.8363487,10" id="Stroke-9"></path>
                <path d="M41.8363487,5 L40.8363487,8" id="Stroke-11"></path>
                <path d="M38.8363487,4 L37.8363487,7" id="Stroke-13"></path>
                <path d="M26.085525,57 C34.9161966,50.5234434 51.4489619,49.7224603 57.1223541,47.6831359 C62.7969913,45.6431812 60.2802561,37 60.2802561,37 C60.2802561,37 27.444425,38.2036804 24.3830093,38.2036804 C21.3215936,38.2036804 1.83634868,47.6831359 1.83634868,47.6831359" id="Stroke-15" stroke="#8B1863" stroke-width="2"></path>
                <path d="M0.836348684,73.891356 L35.8984737,79.7827661 C38.4407521,80.2102579 41.0467294,80.00399 43.4805305,79.188889 C44.0002123,79.0150258 44.5268316,78.8611038 45.0685873,78.7694984 L71.7180475,74.5095366 C71.9476157,74.4939574 72.1784453,74.4914648 72.4080135,74.5014354 L75.7544112,74.6553574 C76.7729623,74.7020948 77.7870987,74.4852331 78.6946498,74.026583 L80.6857123,73.019547 C80.9764566,72.8718567 81.2798146,72.749093 81.5907407,72.651256 L111.836349,59.3366941 C111.836349,59.3366941 110.891587,49.3542001 101.326036,52.6775437 C91.7611157,56.0008872 81.3498203,58.7141514 77.6742066,60.9999238 C72.418735,60.2726892 57.6147407,58.5066372 45.6317862,60.9980543 C45.6317862,60.9980543 34.7827975,59.7180716 31.6293885,53.8684137" id="Stroke-17" stroke="#8B1863" stroke-width="2"></path>
                <path d="M55.7826788,19.2731407 C56.4294283,21.3145999 51.1561214,25.084815 44.0063215,27.6950651 C36.8559086,30.3059736 30.5355419,30.7674579 29.8900185,28.7266571 C29.2432691,26.6858562 34.516576,22.9149828 41.6663759,20.3047327 C48.8167888,17.6944825 55.1365424,17.2323399 55.7826788,19.2731407 Z" id="Stroke-19" stroke="#8B1863" stroke-width="2"></path>
                <path d="M29.8363487,29.1824599 L30.998046,32.7633634 C31.6414663,34.7456493 37.9358755,34.2967575 45.0556209,31.7613499 C52.1759768,29.2253028 57.4258962,25.5631895 56.7830863,23.5809036 L55.6201681,20" id="Stroke-21" stroke="#8B1863" stroke-width="2"></path>
                <path d="M51.8363487,24 L52.8363487,27" id="Stroke-23"></path>
                <path d="M47.8363487,26 L48.8363487,29" id="Stroke-25"></path>
                <path d="M42.8363487,27 L43.8363487,30" id="Stroke-27"></path>
                <path d="M38.8363487,30 L39.8363487,33" id="Stroke-29"></path>
                <path d="M33.8363487,30 L34.8363487,33" id="Stroke-31"></path>
                <path d="M60.9559949,43 C61.7599685,43.0526189 62.5879224,43.1273617 63.432915,43.2248264 C70.5083869,44.0398219 76.0585809,46.1457752 75.8295052,47.9276437 C75.6004296,49.7095122 69.6791708,50.4928169 62.60433,49.6772234 C59.1549428,49.2795916 56.0677854,48.5752154 53.8363487,47.7512507" id="Stroke-33" stroke="#8B1863" stroke-width="2"></path>
                <path d="M50.8363487,49.4802904 C51.0963424,51.1115828 56.2495508,52.9592884 62.7384844,53.6949804 C69.5334712,54.4657053 75.2193939,53.725493 75.4393886,52.0416512 L75.8363487,49" id="Stroke-35" stroke="#8B1863" stroke-width="2"></path>
                <path d="M71.6608487,51 L71.0118487,54" id="Stroke-37"></path>
                <path d="M67.6603487,51 L67.0123487,54" id="Stroke-39"></path>
                <path d="M61.6603487,51 L61.0123487,54" id="Stroke-41"></path>
                <path d="M57.6608487,50 L57.0118487,53" id="Stroke-43"></path>
                <path d="M53.6603487,48 L53.0123487,51" id="Stroke-45"></path>
            </g>
        </g>
    </g>
</svg>