<?xml version="1.0" encoding="UTF-8"?>
<svg width="92px" height="33px" viewBox="0 0 92 33" version="1.1" xmlns="http://www.w3.org/2000/svg" xmlns:xlink="http://www.w3.org/1999/xlink">
    <!-- Generator: sketchtool 53 (72520) - https://sketchapp.com -->
    <title>B2F1D086-3A47-492F-88A0-D0FA0907A541</title>
    <desc>Created with sketchtool.</desc>
    <defs>
        <path d="M39.1990374,25.6897478 L62.9058257,26.0617829 L62.90658,26.0617074 C62.90658,26.0617074 68.1033257,26.1538246 62.90658,23.1521446 C62.90658,23.1521446 52.0750371,17.8780091 40.2704657,17.5133874 C39.5807987,17.4920788 38.9031587,17.4912754 38.2384956,17.5086533 C39.002724,19.8977959 39.3229046,22.6248274 39.1990374,25.6897478 Z M39.1287329,25.6886445 L38.1247436,17.5118081 C27.478433,17.8239992 20.1904371,22.7875417 20.1904371,22.7875417 C20.1904371,22.7875417 16.84254,24.9716043 22.3045114,25.4246189 L39.1287329,25.6886445 Z M79.6902857,33.5642857 C83.3954314,33.5642857 86.4044563,36.5659657 86.4081429,40.2747886 C86.4081429,43.9872886 83.3954314,46.9889686 79.6902857,46.9889686 C75.98514,46.9889686 72.9761057,43.9872886 72.9761057,40.2747886 C72.9761057,36.5659657 75.98514,33.5642857 79.6902857,33.5642857 Z M79.6902857,43.9168571 C81.6975343,43.9168571 83.325462,42.28892 83.3291486,40.2743171 C83.3291486,38.2633914 81.6975343,36.6354543 79.6902857,36.6354543 C77.6830371,36.6354543 76.0514229,38.2633914 76.0514229,40.2743171 C76.0514229,42.28892 77.6830371,43.9168571 79.6902857,43.9168571 Z M19.9734857,33.5642857 C23.6823086,33.5642857 26.6913429,36.5659657 26.6913429,40.2747886 C26.6913429,43.9872886 23.6786314,46.9889686 19.9734857,46.9889686 C16.26834,46.9889686 13.2593057,43.9872886 13.2593057,40.2747886 C13.2593057,36.5659657 16.26834,33.5642857 19.9734857,33.5642857 Z M19.9734857,43.9168571 C21.9807343,43.9168571 23.6123486,42.28892 23.6123486,40.2743171 C23.6123486,38.2633914 21.9807343,36.6354543 19.9734857,36.6354543 C17.9662371,36.6354543 16.3346229,38.2633914 16.3346229,40.2743171 C16.3346229,42.28892 17.9662371,43.9168571 19.9734857,43.9168571 Z M69.9515143,23.6972857 L69.951486,23.69672 C91.9721409,26.9713571 91.7069623,35.0666343 91.7069623,35.0666343 L91.7032851,38.1641086 C91.6148451,40.7754457 89.2172537,41.7587891 86.8158909,42.0865829 C86.9963537,41.4420457 87.0994834,40.7717591 87.0994834,40.07198 C87.0994834,35.9249171 83.7405549,32.5659886 79.593492,32.5659886 C75.4464291,32.5659886 72.0875006,35.9249171 72.0875006,40.07198 C72.0875006,40.7091629 72.1758934,41.3278657 72.3269014,41.9171514 L27.4016443,41.1842309 C27.4568863,40.8195997 27.4937237,40.4512914 27.4937237,40.0719423 C27.4937237,35.9248794 24.1347951,32.5659509 19.9877323,32.5659509 C15.8406694,32.5659509 12.4817409,35.9248794 12.4817409,40.0719423 C12.4817409,40.3665851 12.503832,40.6575509 12.5369829,40.9411434 L3.98498666,40.8011857 C0.813921429,38.6171514 0.902314286,33.79604 0.902314286,33.79604 C0.725528571,26.7910829 3.80820094,24.3344686 3.80820094,24.3344686 C10.5000343,23.9698657 16.8422571,20.42312 16.8422571,20.42312 C31.2868286,13.3258571 40.9624286,14.6002229 40.9624286,14.6002229 C56.3574,14.8727086 69.9515143,23.6972857 69.9515143,23.6972857 Z" id="path-1"></path>
    </defs>
    <g id="Vehicle-Summary" stroke="none" stroke-width="1" fill="none" fill-rule="evenodd">
        <g id="Vehicle-Icons" transform="translate(-690.000000, -550.000000)">
            <g id="04_Icons-/-Vehicles-/-Sedan" transform="translate(690.000000, 536.000000)">
                <mask id="mask-2" fill="white">
                    <use xlink:href="#path-1"></use>
                </mask>
                <use id="Combined-Shape" fill="#4C4C4C" fill-rule="evenodd" xlink:href="#path-1"></use>
                <g id="00_Basics-/-Colors-/-Gray-/-700" mask="url(#mask-2)" fill="#777770" fill-rule="evenodd">
                    <g transform="translate(-5.000000, -26.000000)" id="Rectangle-2">
                        <rect x="0" y="0" width="101" height="101"></rect>
                    </g>
                </g>
            </g>
        </g>
    </g>
</svg>