<?xml version="1.0" encoding="UTF-8"?>
<svg width="80px" height="80px" viewBox="0 0 80 80" version="1.1" xmlns="http://www.w3.org/2000/svg" xmlns:xlink="http://www.w3.org/1999/xlink">
    <!-- Generator: sketchtool 53.2 (72643) - https://sketchapp.com -->
    <title>81CA4F55-61CA-4C09-A9D1-829C3BF43EB4</title>
    <desc>Created with sketchtool.</desc>
    <g id="Quick-Quote-w/-Save" stroke="none" stroke-width="1" fill="none" fill-rule="evenodd">
        <g id="QuickQuote_v2_376px-/-Confirmation" transform="translate(-148.000000, -152.000000)" fill="#8B1863">
            <g id="Group" transform="translate(8.000000, 64.000000)">
                <g id="Sent_Icon" transform="translate(140.000000, 88.000000)">
                    <path d="M2.63578947,31.5578947 L35.8021053,44.3 L50.1357895,77.4863158 C50.6579895,78.6951579 51.8504211,79.4723158 53.158,79.4723158 C53.2114526,79.4723158 53.2690211,79.4723158 53.3224737,79.4682 C54.6917368,79.3983053 55.8800526,78.4895789 56.2953158,77.1819895 L79.3216316,4.81356842 C79.3257368,4.79712632 79.3298526,4.78067368 79.3339684,4.76423158 C79.3627474,4.67376842 79.3750842,4.58330526 79.3956421,4.48873684 C79.4120947,4.39827368 79.4367579,4.31192632 79.4490947,4.22557895 C79.4573158,4.14333684 79.4573158,4.05698947 79.4614316,3.97064211 C79.4655474,3.87195789 79.4737684,3.77738947 79.4696526,3.67870526 C79.4655474,3.59646316 79.4532105,3.51834737 79.4449895,3.44022105 C79.4326526,3.34153684 79.4244211,3.24285263 79.4038632,3.14416842 C79.3874211,3.07015789 79.3627474,2.99614737 79.3380737,2.92212632 C79.3092947,2.81932632 79.2805158,2.72064211 79.2435053,2.62195789 C79.2188316,2.55616842 79.1859368,2.49449474 79.1530421,2.43281053 C79.1037053,2.32590526 79.0543579,2.22310526 78.9967895,2.12442105 C78.9885684,2.11208421 78.9844526,2.09564211 78.9762316,2.08330526 C78.9474526,2.03807368 78.9104421,1.99695789 78.8775474,1.95172632 C78.8117579,1.85714737 78.7459684,1.76257895 78.6719579,1.67623158 C78.6185053,1.61454737 78.5609368,1.56109474 78.5033684,1.50353684 C78.4334632,1.43363158 78.3635684,1.35962105 78.2854421,1.29794737 C78.2114316,1.23626316 78.1333053,1.18281053 78.0551789,1.12935789 C78.0017263,1.09234737 77.9523789,1.04711579 77.8948211,1.01011579 C77.8824842,1.00188421 77.8701474,1.00188421 77.8578105,0.993663158 C77.5617579,0.820968421 77.2451474,0.693494737 76.9120842,0.619484211 C76.8874211,0.615368421 76.8627474,0.603042105 76.8380737,0.598926316 C76.5132421,0.533136842 76.1801789,0.5208 75.8471158,0.553694737 C75.8183368,0.557810526 75.7895474,0.557810526 75.7607684,0.561915789 C75.5469579,0.590705263 75.3331368,0.631821053 75.1234316,0.705831579 L2.75501053,25.3774105 C1.44332632,25.8173789 0.555221053,27.0385684 0.526378947,28.4242526 C0.501705263,29.8058316 1.34463158,31.0599368 2.63574737,31.5575158 L2.63578947,31.5578947 Z M52.6894737,66.8042105 L42.1795789,42.4705263 L68.948,15.6978947 L52.6894737,66.8042105 Z M63.8526316,11.4957895 L37.4589474,37.8894737 L13.4663158,28.6707368 L63.8526316,11.4957895 Z" id="Fill-1"></path>
                    <path d="M3.81578947,79.4736842 C4.65871579,79.4736842 5.49757895,79.1529579 6.14305263,78.5115158 L29.1693684,55.4852 C30.4523158,54.2022526 30.4523158,52.1176211 29.1693684,50.8346737 C27.8864211,49.5517263 25.8017895,49.5517263 24.5188421,50.8346737 L1.49252632,73.8609895 C0.209578947,75.1439368 0.209578947,77.2285684 1.49252632,78.5115158 C2.13397895,79.1529579 2.97273684,79.4736842 3.81568421,79.4736842 L3.81578947,79.4736842 Z" id="Fill-2"></path>
                    <path d="M31.0936842,62.3442105 L19.58,73.8578947 C18.2970526,75.1408421 18.2970526,77.2254737 19.58,78.5084211 C20.2255579,79.1539789 21.0644211,79.4747053 21.9072632,79.4747053 C22.7501053,79.4747053 23.5890526,79.1539789 24.2345263,78.5125368 L35.7482105,66.9988526 C37.0311579,65.7159053 37.0311579,63.6312737 35.7482105,62.3483263 C34.4611579,61.0612737 32.3806316,61.0612737 31.0935789,62.3442105 L31.0936842,62.3442105 Z" id="Fill-3"></path>
                    <path d="M3.81578947,61.3810526 C4.65871579,61.3810526 5.49757895,61.0603263 6.14305263,60.4188842 L17.6567368,48.9052 C18.9396842,47.6222526 18.9396842,45.5376211 17.6567368,44.2546737 C16.3737895,42.9717263 14.2891579,42.9717263 13.0062105,44.2546737 L1.49252632,55.7683579 C0.209578947,57.0513053 0.209578947,59.1359368 1.49252632,60.4188842 C2.13397895,61.0603263 2.97273684,61.3810526 3.81568421,61.3810526 L3.81578947,61.3810526 Z" id="Fill-4"></path>
                </g>
            </g>
        </g>
    </g>
</svg>