<?xml version="1.0" encoding="UTF-8"?>
<svg width="110px" height="80px" viewBox="0 0 110 80" version="1.1" xmlns="http://www.w3.org/2000/svg" xmlns:xlink="http://www.w3.org/1999/xlink">
    <!-- Generator: sketchtool 54.1 (76490) - https://sketchapp.com -->
    <title>7EE93B8F-0676-45C7-9C4E-B8B731ECE1FB</title>
    <desc>Created with sketchtool.</desc>
    <g id="Document-Verifcation" stroke="none" stroke-width="1" fill="none" fill-rule="evenodd">
        <g id="DocReview_376px-/-SentModal" transform="translate(-133.000000, -210.000000)" fill="#8B1863">
            <path d="M242.992025,211.552306 C243.010112,211.389462 242.996541,211.226607 242.960356,211.072807 C242.951313,211.036618 242.933215,211.004957 242.924172,210.968768 L242.919656,210.968768 C242.878944,210.842101 242.815618,210.719974 242.738733,210.606879 C242.720635,210.584263 242.716108,210.55259 242.702549,210.529974 C242.684451,210.507357 242.67088,210.507357 242.657309,210.493785 C242.643739,210.480212 242.625652,210.444023 242.603038,210.421407 C242.503528,210.321885 242.394974,210.240462 242.27285,210.172613 C242.259279,210.168085 242.250236,210.163568 242.236665,210.15904 C242.10097,210.086663 241.951716,210.041429 241.797923,210.018813 C241.757211,210.018813 241.721026,210.009769 241.680326,210.005241 L241.684842,210.005241 C241.544631,209.991668 241.404408,210.005241 241.268713,210.036913 C241.237056,210.045957 241.209915,210.045957 241.178258,210.055002 L241.142073,210.055002 L133.990592,244.348163 C133.398068,244.538152 132.99551,245.090029 133.000038,245.714308 C133.000038,246.334046 133.407111,246.885901 134.004162,247.071419 L178.714396,261.04438 L178.714396,282.8573 C178.714396,283.45441 179.089812,283.988199 179.650667,284.19623 C179.808976,284.255036 179.976328,284.286708 180.14368,284.286708 C180.559809,284.286708 180.957827,284.101236 181.229217,283.784592 L191.740805,271.516272 L213.519863,289.669772 C213.777682,289.882377 214.098816,290 214.43352,290 C214.560172,290 214.691339,289.9819 214.813452,289.945711 C215.265754,289.823572 215.623083,289.4843 215.781392,289.045517 L242.923871,211.890826 C242.946485,211.813932 242.964571,211.737026 242.973626,211.655604 C242.978142,211.619415 242.991713,211.583226 242.991713,211.551565 L242.992025,211.552306 Z M234.52032,215.175711 L179.849781,258.407815 L139.164427,245.69249 L234.52032,215.175711 Z M181.572745,278.994365 L181.572745,263.044623 L189.546897,269.689828 L181.572745,278.994365 Z M213.768326,286.155247 L182.409911,260.022823 L238.591519,215.596776 L213.768326,286.155247 Z" id="Fill-1"></path>
        </g>
    </g>
</svg>