<?xml version="1.0" encoding="UTF-8"?>
<svg width="81px" height="82px" viewBox="0 0 81 82" version="1.1" xmlns="http://www.w3.org/2000/svg" xmlns:xlink="http://www.w3.org/1999/xlink">
    <!-- Generator: Sketch 55.1 (78136) - https://sketchapp.com -->
    <title>SignForms_Icon</title>
    <desc>Created with Sketch.</desc>
    <g id="Sign-Forms" stroke="none" stroke-width="1" fill="none" fill-rule="evenodd">
        <g id="SignForms_376px_Neutral" transform="translate(-148.000000, -119.000000)" stroke="#8B1863" stroke-width="2">
            <g id="SignForms_Icon" transform="translate(149.000000, 120.000000)">
                <path d="M54.273427,58.8774933 L54.273427,75.4012267 C54.273427,77.74096 52.3747581,79.6380267 50.0335824,79.6380267 L4.24027162,79.6380267 C1.89856216,79.6380267 -0.000106756757,77.74096 -0.000106756757,75.4012267 L-0.000106756757,17.60016 L12.5400757,5.07056 L50.0335824,5.07056 C52.3747581,5.07056 54.273427,6.96762667 54.273427,9.30736 L54.273427,35.71696" id="Stroke-1"></path>
                <path d="M0.424358108,18.0243733 L8.72469595,18.0243733 C11.0664054,18.0243733 12.9645405,16.1273067 12.9645405,13.7881067 L12.9645405,5.49477333" id="Stroke-3"></path>
                <path d="M32.6478709,47.0415467 L8.05645203,47.0415467" id="Stroke-5"></path>
                <path d="M45.5290878,40.8082133 L8.05639865,40.8082133" id="Stroke-7"></path>
                <path d="M45.5290878,34.5754133 L8.05639865,34.5754133" id="Stroke-9"></path>
                <path d="M45.5290878,28.3426133 L8.05639865,28.3426133" id="Stroke-11"></path>
                <path d="M45.5290878,22.10976 L8.05639865,22.10976" id="Stroke-13"></path>
                <path d="M16.1146655,62.7946667 C13.9955439,68.6858667 10.1896655,70.0933333 6.88234122,71.7914667 C5.11391554,72.6997333 14.8810912,72.0496 18.0523007,67.5781333 C19.6851453,65.2752 22.248375,62.9664 22.248375,56.2101333 C22.248375,54.4752 21.9590642,46.9893333 16.1760507,54.1376 C10.1111993,61.6346667 13.4211926,65.7984 15.2782264,68.3754667 C17.0733412,70.8677333 19.8319358,71.256 20.7879426,69.4661333 C24.973875,61.6309333 22.6385709,72.8170667 23.978902,70.5392 C28.5384831,62.7946667 23.6959966,74.2026667 30.2487264,68.0368 C34.4650845,64.0688 36.7229899,71.9349333 32.6480845,74.2906667 C26.8469223,77.6437333 31.7427872,68.0933333 37.8850372,67.1226667 C39.8290777,66.8154667 34.8077736,71.1082667 43.2420912,69.4661333" id="Stroke-15"></path>
                <path d="M60.3744155,23.2540267 C60.1251385,23.8092267 59.8742601,24.3676267 59.6084358,24.9388267 C53.722402,37.6204267 46.3770034,49.2524267 43.7625304,54.1654933 C43.0953007,55.41936 43.6189426,56.9750933 44.9085642,57.5724267 L47.7488277,58.88816 L50.5880236,60.2038933 C51.8776453,60.8012267 53.4048007,60.19696 53.9321791,58.8780267 C55.9968547,53.7094933 60.1390169,40.59376 66.0250507,27.91216 C66.2903412,27.3404267 66.5540304,26.78896 66.8177196,26.2396267 L60.3744155,23.2540267 Z" id="Stroke-17"></path>
                <path d="M78.2483791,6.24416 C78.9641831,4.98656 78.4474804,3.38816 77.1338385,2.77909333 L74.384852,1.50496 L71.6353318,0.23136 C70.3211561,-0.377706667 68.7667777,0.260693333 68.2676899,1.61909333 C67.072548,4.87349333 65.3831223,11.5684267 61.4518047,20.7966933 L67.9991966,23.8308267 C72.5102034,14.87136 76.5338655,9.25696 78.2483791,6.24416 Z" id="Stroke-19"></path>
                <path d="M67.0941662,17.4186133 L66.9350986,17.3450133 C66.4349432,17.1130133 72.8942608,3.19674667 73.39495,3.42874667 L73.5545514,3.50234667 C74.054173,3.73434667 67.5943216,17.6506133 67.0941662,17.4186133 Z" id="Stroke-21"></path>
                <path d="M42.6407304,68.97072 L44.0216291,59.21392 C44.0595277,58.94512 44.3461696,58.7888533 44.5933115,58.90352 L49.7747507,61.3045867 C50.0218926,61.4192533 50.0880818,61.73872 49.9071291,61.9413867 L43.3442574,69.29712 C43.0773655,69.59632 42.5846831,69.36752 42.6407304,68.97072 Z" id="Stroke-23"></path>
            </g>
        </g>
    </g>
</svg>