<?xml version="1.0" encoding="UTF-8"?>
<svg width="26px" height="26px" viewBox="0 0 26 26" version="1.1" xmlns="http://www.w3.org/2000/svg" xmlns:xlink="http://www.w3.org/1999/xlink">
    <!-- Generator: sketchtool 54.1 (76490) - https://sketchapp.com -->
    <title>782D80ED-0676-4AE4-87FB-4431C6EBB8CA</title>
    <desc>Created with sketchtool.</desc>
    <defs>
        <path d="M12.0250124,15.243853 L12.0250351,15.2438273 C12.2025775,15.0433444 12.4836873,15.0433444 12.6168432,15.2438273 C12.7943856,15.4275873 12.7943856,15.7450239 12.6168432,15.9455068 C12.2913582,16.3297668 11.8327022,16.4968295 11.3740462,16.4133003 C10.9153902,16.3297711 10.5307244,16.029036 10.3087917,15.5612426 L9.86492614,14.6089541 C9.80574533,14.5087131 9.73176837,14.5087131 9.68738371,14.5087131 C9.64299905,14.5087131 9.5690221,14.5254189 9.53943169,14.6423679 L9.22873719,15.7617362 C9.12516604,16.1794036 8.79968106,16.463437 8.41499634,16.4968401 C8.03031162,16.5302432 7.67522677,16.2963573 7.49768435,15.912093 L7.36452848,15.6280809 C7.34973422,15.5946671 7.33493807,15.5946671 7.33493807,15.5946671 C7.32014382,15.5946671 7.29055341,15.6113729 7.26096301,15.6614947 C7.24616686,15.6782006 7.2313726,15.7116155 7.21657645,15.7283224 L6.77271093,16.3130695 C6.68393024,16.430019 6.55077816,16.4968465 6.43241654,16.4968465 C6.34363586,16.4968465 6.24007418,16.4634306 6.15130297,16.3798972 C5.97376055,16.2128388 5.94416825,15.8954021 6.10691642,15.6782177 L6.53597254,15.1101935 C6.72830543,14.776051 7.05379041,14.575551 7.39408479,14.5922739 C7.73437917,14.6089969 8.030287,14.8261814 8.19303517,15.1770211 L8.32619104,15.4610332 C8.32619104,15.4777401 8.3409853,15.494447 8.37057759,15.494447 C8.400168,15.494447 8.41496415,15.4777401 8.41496415,15.4610332 L8.72565865,14.3416654 C8.85882968,13.8738933 9.21389559,13.5564353 9.64297065,13.5063306 C10.0720457,13.4562259 10.471502,13.7068349 10.6786443,14.1412039 L11.1225098,15.0934919 C11.2112715,15.277269 11.359233,15.3942163 11.5367754,15.4276301 C11.7291083,15.4610375 11.8918565,15.3942141 12.0250124,15.243853 Z M5.25,16.125 C5.25,16.625 4.5,16.625 4.5,16.125 C4.5,15.625 5.25,15.625 5.25,16.125 Z M11.4352957,0.883556596 L15.533935,4.96453857 C15.8500208,5.2625885 15.7270655,5.60792542 15.533935,5.77455139 C15.3408045,5.94117737 15.0040278,5.87356647 14.7926325,5.67694531 L13.9416957,4.87591553 C13.7334195,5.35078342 13.7117903,5.75115197 13.6671567,6.28537835 C13.5779009,7.33901524 13.7861866,8.74870807 13.8754519,9.28293446 C13.9349621,9.57972689 13.9498406,9.72811741 13.7861866,9.8913542 C13.741553,9.93587401 13.6820428,9.98039383 13.6225326,9.9952325 L3.59511152,13.4676565 C3.55047983,13.4824971 3.50584622,13.4973357 3.44633602,13.4973357 C3.20829522,13.5270055 3,13.3044064 3,13.0521376 C3,12.9037509 3.0595102,12.7701952 3.1785306,12.6663169 L8.81705065,7.04217152 C8.98068942,6.86409606 9.37499972,6.74634255 9.67158479,7.04217152 C9.91746484,7.26696734 9.77228031,7.68483958 9.59374971,7.86291504 L5.7320708,11.4799347 L12.7499996,9 C12.6458615,8.36177755 12.5309571,7.24235718 12.6351009,6.17390442 C12.6946111,5.43185685 12.7880754,4.77473901 13.1302638,4.12179565 L12.3862606,3.3380127 C11.6274055,3.69416362 10.9496272,3.8720919 10.1759946,3.94628906 C9.1791749,4.0353173 8.04982445,3.86632721 7.43984966,3.76244891 L5.38046254,9.53686523 C5.27690969,9.84673181 4.87956218,9.96556655 4.64151757,9.8913542 C4.40347296,9.81714184 4.27915166,9.49062838 4.35353845,9.25319443 L6.54049509,2.90173186 C6.55537359,2.84237337 6.60000529,2.78301488 6.64463889,2.73849507 C6.8082967,2.57526018 6.97195451,2.60493752 7.2248681,2.64945734 C7.71599388,2.73850077 9.02514211,2.96109414 10.0219427,2.87205641 C10.7360651,2.81269792 11.1631966,2.67887705 11.5648953,2.51564026 L10.6364132,1.59494019 C10.4578826,1.43171859 10.4578826,1.06163206 10.6364132,0.883556596 C10.800052,0.705481135 11.2567651,0.705481135 11.4352957,0.883556596 Z" id="path-1"></path>
    </defs>
    <g id="Advanced-Quick-Quote" stroke="none" stroke-width="1" fill="none" fill-rule="evenodd">
        <g id="AdvancedQuote_376px-/-Enchelada" transform="translate(-191.000000, -75.000000)">
            <g id="06_Navigation-/-Progress-/-Refinement-/-Coverage" transform="translate(0.000000, 64.000000)">
                <g id="Progress-Stepper">
                    <g id="Steps" transform="translate(16.000000, 0.000000)">
                        <g id="Sign" transform="translate(176.000000, 12.000000)">
                            <g>
                                <circle id="Sign-Oval" stroke="#8B1863" fill-opacity="1" fill="#FFFFFF" cx="12" cy="12" r="12"></circle>
                                <g id="Sign-Icon" transform="translate(3.000000, 3.000000)">
                                    <mask id="mask-2" fill="white">
                                        <use xlink:href="#path-1"></use>
                                    </mask>
                                    <use id="Signature-Icon" fill="#000000" xlink:href="#path-1"></use>
                                    <g id="↳-Icon-Color" mask="url(#mask-2)" fill="#8B1863">
                                        <rect id="Rectangle-2" x="0" y="0" width="18.18" height="18.18"></rect>
                                    </g>
                                </g>
                            </g>
                        </g>
                    </g>
                </g>
            </g>
        </g>
    </g>
</svg>