<?xml version="1.0" encoding="UTF-8"?>
<svg width="78px" height="44px" viewBox="0 0 78 44" version="1.1" xmlns="http://www.w3.org/2000/svg" xmlns:xlink="http://www.w3.org/1999/xlink">
    <!-- Generator: sketchtool 53.2 (72643) - https://sketchapp.com -->
    <title>CA499E7E-4357-49E2-A3E7-1E099043504F</title>
    <desc>Created with sketchtool.</desc>
    <defs>
        <path d="M6,41.9230769 L6,4 L60.2307692,4 L69.5384615,17.3846154 L83.0769231,22.4615385 L83.0769231,41.9230769 L75.4086538,41.9230769 C75.4450131,41.6454369 75.4615385,41.36448 75.4615385,41.0769231 C75.4615385,37.3386154 72.4306154,34.3076923 68.6923077,34.3076923 C64.954,34.3076923 61.9230769,37.3386154 61.9230769,41.0769231 C61.9230769,41.36448 61.9429108,41.6454369 61.9759615,41.9230769 L34.300042,41.9230769 C34.3364012,41.6454369 33.8212247,34.9171569 27.9827163,34.9171569 C24.2444086,34.9171569 21.3076923,37.3386154 21.3076923,41.0769231 C21.3076923,41.36448 21.3275262,41.6454369 21.3605769,41.9230769 L6,41.9230769 Z M51.8459225,17.802632 C51.8459225,24.470369 51.8601409,31.1382002 51.8885776,37.8061254 L60.314137,37.8094749 C60.314137,36.198383 61.3724623,34.5939302 63.4891131,32.9961166 L63.4891131,17.8062514 C63.6730467,17.7966549 61.5263156,14.2974353 57.0489201,7.30859273 L51.8885776,7.30859273 C51.8601409,10.8065117 51.8459225,14.3045248 51.8459225,17.802632 Z M47.6222198,23.512 C47.8329443,23.512 48.0039117,23.34403 47.9999319,23.14091 C47.9999319,22.93388 47.8329443,22.76591 47.6222198,22.76591 L9.3777121,22.76591 C9.17096742,22.76591 9,22.93388 9,23.14091 C9,23.34403 9.16698765,23.512 9.3777121,23.512 L47.6222198,23.512 Z M68.5308512,36 C71.5843756,36 74.0617025,38.516048 74.0617025,41.625 C74.0617025,44.7305029 71.5844604,47.25 68.5308512,47.25 C65.4773269,47.25 63,44.7305891 63,41.625 C63,38.5194971 65.4772421,36 68.5308512,36 Z M68.5308512,44.407234 C70.0411228,44.407234 71.2665174,43.1609801 71.2665174,41.625 C71.2665174,40.0890199 70.0444294,38.842766 68.5308512,38.842766 C67.0205797,38.842766 65.7951851,40.0890199 65.7951851,41.625 C65.7951851,43.1609801 67.0206645,44.407234 68.5308512,44.407234 Z M27.5308512,36 C30.5876822,36 33.0617025,38.516048 33.0617025,41.625 C33.0617025,44.7305029 30.5843756,47.25 27.5308512,47.25 C24.4773269,47.25 22,44.7305891 22,41.625 C22,38.5194971 24.4739355,36 27.5308512,36 Z M27.5308512,44.407234 C29.0444294,44.407234 30.2698325,43.1608939 30.2665174,41.625 C30.2665174,40.0890199 29.0411228,38.842766 27.5308512,38.842766 C26.0205797,38.842766 24.7951851,40.0890199 24.7951851,41.625 C24.7951851,43.1609801 26.0206645,44.407234 27.5308512,44.407234 Z" id="path-1"></path>
    </defs>
    <g id="Vehicle-Summary" stroke="none" stroke-width="1" fill="none" fill-rule="evenodd">
        <g id="Vehicle-Icons" transform="translate(-35.000000, -630.000000)">
            <g id="04_Icons-/-Vehicles-/-Step-Van" transform="translate(29.000000, 626.000000)">
                <mask id="mask-2" fill="white">
                    <use xlink:href="#path-1"></use>
                </mask>
                <use id="Combined-Shape" fill="#4C4C4C" fill-rule="evenodd" xlink:href="#path-1"></use>
                <g id="00_Basics-/-Colors-/-Gray-/-700" mask="url(#mask-2)" fill="#777770" fill-rule="evenodd">
                    <g transform="translate(-5.000000, -26.000000)" id="Rectangle-2">
                        <rect x="0" y="0" width="101" height="101"></rect>
                    </g>
                </g>
            </g>
        </g>
    </g>
</svg>