<?xml version="1.0" encoding="UTF-8"?>
<svg width="40px" height="49px" viewBox="0 0 40 49" version="1.1" xmlns="http://www.w3.org/2000/svg" xmlns:xlink="http://www.w3.org/1999/xlink">
    <!-- Generator: sketchtool 53 (72520) - https://sketchapp.com -->
    <title>1BA8F3AF-CC0C-4326-8548-6338013CB80A</title>
    <desc>Created with sketchtool.</desc>
    <g id="Vehicle-Summary" stroke="none" stroke-width="1" fill="none" fill-rule="evenodd">
        <g id="Vehicle-&amp;-User-Icons" transform="translate(-1753.000000, -670.000000)" fill="#4C4C4C" fill-rule="nonzero">
            <g id="noun_533068" transform="translate(1753.000000, 670.000000)">
                <path d="M0.158730159,0.950776144 L39.8412698,0.950776144 C39.8412698,9.67790033 39.3650794,11.5594363 34.0079365,14.0814951 L28.7301587,16.5635212 C25.5952381,18.0447304 25.952381,20.1664624 25.952381,22.5684232 L14.047619,22.5684232 C14.047619,20.1664624 14.4047619,18.0447304 11.2698413,16.5635212 L5.99206349,14.0814951 C0.634920635,11.5594363 0.158730159,9.67790033 0.158730159,0.950776144 Z M14.047619,20.8069853 C15.6746032,20.5667892 24.3253968,20.5667892 25.952381,20.8069853 C30.2380952,23.849469 32.3015873,30.1746324 32.3015873,36.1795343 C32.3015873,53.2734886 7.6984127,53.2734886 7.6984127,36.1795343 C7.6984127,30.1746324 9.72222222,23.849469 14.047619,20.8069853 Z M11.6666667,36.1795343 C11.6666667,47.588848 28.3333333,48.349469 28.3333333,36.1795343 C28.3333333,19.0855801 11.6666667,19.0855801 11.6666667,36.1795343 Z" id="Shape" transform="translate(20.000000, 24.975388) scale(-1, 1) rotate(-180.000000) translate(-20.000000, -24.975388) "></path>
            </g>
        </g>
    </g>
</svg>