<?xml version="1.0" encoding="UTF-8"?>
<svg width="92px" height="37px" viewBox="0 0 92 37" version="1.1" xmlns="http://www.w3.org/2000/svg" xmlns:xlink="http://www.w3.org/1999/xlink">
    <!-- Generator: sketchtool 53.1 (72631) - https://sketchapp.com -->
    <title>66AADD2A-2A62-406A-AF68-A73F7209CA6D</title>
    <desc>Created with sketchtool.</desc>
    <defs>
        <path d="M67.4998367,22.9480936 C56.0186122,14.7746649 49.4575102,13.5023859 49.4575102,13.5023859 C39.2520816,11.1410526 6.44656861,13.8679182 6.44656861,13.8679182 C4.44068698,13.8679182 7.35600739,15.6846307 7.35600739,15.6846307 C3.71092984,21.1347685 2.06807269,25.1303384 2.06807269,25.1303384 C1.88472045,27.308915 2.6144682,30.0358554 2.6144682,30.0358554 C1.88472045,30.9423869 0.975272286,32.3971887 0.975272286,32.3971887 C-0.484242282,35.6651004 1.5216678,38.3919472 1.5216678,38.3919472 C3.16086371,39.6640391 10.27134,40.2086598 10.27134,40.2086598 C10.27134,40.2086598 10.1822795,29.7747258 19.7777241,29.7747258 C26.1746871,29.7747258 29.3731686,33.5281023 29.3731686,41.0348551 C47.1216584,41.4917751 65.1777401,41.6635833 69.30774,41.6635833 C69.2301155,38.3919472 70.0896627,30.0358554 78.9644247,30.0358554 C84.8809327,30.0358554 88.0378787,33.4256267 88.4352629,40.2051694 L89.9240669,39.8469455 C93.7451837,37.3027619 90.8298351,28.0365358 90.8298351,28.0365358 C89.9208469,25.1303197 67.4998367,22.9480936 67.4998367,22.9480936 Z M23.1502041,22.216973 C14.5875388,21.7125344 8.09317992,21.3250676 8.09317992,21.3250676 C10.2787469,18.1923754 13.1500857,16.1491118 13.1500857,16.1491118 C14.2429143,15.1950897 17.9320204,15.0597767 17.9320204,15.0597767 C20.6677061,14.9025947 23.2272776,14.800249 25.6036,14.7381042 L23.1502041,22.216973 Z M25.7722041,22.3704961 L27.7303959,14.6905949 C34.4815061,14.577282 39.6040286,14.79295 42.9563959,15.0268936 L43.3414441,23.390378 C37.5694767,23.0613972 31.3532808,22.6958556 25.7722604,22.370571 L25.7722041,22.3704961 Z M47.1293469,23.6059992 L45.5745469,15.140141 C47.5657837,15.3082903 47.5987347,15.4545051 47.5987347,15.4618135 C57.9872245,17.3699512 63.1805306,24.4540448 63.1805306,24.4540448 C60.9105714,24.3699748 54.6509102,24.0336762 47.1293469,23.6059992 Z M24.4106046,39.5544867 C24.4106046,37.0110089 22.3393597,34.9455963 19.7805196,34.9455963 C17.2249498,34.9455963 15.1541016,37.0114027 15.1541016,39.5544867 C15.1541016,42.0997919 17.2235135,44.163377 19.7805196,44.163377 C22.3407964,44.163377 24.4106046,42.1001855 24.4106046,39.5544867 Z M28.4106046,39.5544867 C28.4106046,44.3121966 24.5470734,48.163377 19.7805196,48.163377 C15.0168954,48.163377 11.1541016,44.3114597 11.1541016,39.5544867 C11.1541016,34.8000781 15.0179906,30.9455963 19.7805196,30.9455963 C24.5459777,30.9455963 28.4106046,34.799341 28.4106046,39.5544867 Z M83.6449874,39.5544867 C83.6449874,37.0110089 81.5737425,34.9455963 79.0149024,34.9455963 C76.4582926,34.9455963 74.3848173,37.0124432 74.3848173,39.5544867 C74.3848173,42.0987516 76.4568555,44.163377 79.0149024,44.163377 C81.5751792,44.163377 83.6449874,42.1001855 83.6449874,39.5544867 Z M87.6449874,39.5544867 C87.6449874,44.3121966 83.7814562,48.163377 79.0149024,48.163377 C74.2509192,48.163377 70.3848173,44.3111061 70.3848173,39.5544867 C70.3848173,34.8004321 74.2520156,30.9455963 79.0149024,30.9455963 C83.7803605,30.9455963 87.6449874,34.799341 87.6449874,39.5544867 Z" id="path-1"></path>
    </defs>
    <g id="Vehicle-Summary" stroke="none" stroke-width="1" fill="none" fill-rule="evenodd">
        <g id="Vehicle-Icons" transform="translate(-29.000000, -550.000000)">
            <g id="04_Icons-/-Vehicles-/-SUV" transform="translate(29.000000, 538.000000)">
                <mask id="mask-2" fill="white">
                    <use xlink:href="#path-1"></use>
                </mask>
                <use id="Fill-1" fill="#4C4C4C" fill-rule="evenodd" xlink:href="#path-1"></use>
                <g id="00_Basics-/-Colors-/-Gray-/-700" mask="url(#mask-2)" fill="#777770" fill-rule="evenodd">
                    <g transform="translate(-5.000000, -26.000000)" id="Rectangle-2">
                        <rect x="0" y="0" width="101" height="101"></rect>
                    </g>
                </g>
            </g>
        </g>
    </g>
</svg>