<svg xmlns="http://www.w3.org/2000/svg" viewBox="0 0 192 192"><defs><style>.cls-1,.cls-2{fill:none;stroke:#a51482;stroke-miterlimit:10;stroke-width:4px;}.cls-2{stroke-linecap:round;}</style></defs><title>VehiclePassangerSide_Icon</title><g id="eMail_icon" data-name="eMail icon"><path class="cls-1" d="M137.14,88.6a12,12,0,0,1-3.42-2.34c-4.47-4.48-19.65-18.26-30-18.26,0,0-34.55.9-46.15,1.22s-16.29,16-23.45,18.37c-2.55.86-10.24,1.48-16.16,2.47a8.9,8.9,0,0,0-7.43,8.79v15.33A10.88,10.88,0,0,0,21.4,125.06H30a13.26,13.26,0,1,1,25.39-5.36,13.14,13.14,0,0,1-1.14,5.36h85.31a13.27,13.27,0,1,1,24.25,0h7.3A10.89,10.89,0,0,0,182,114.18v-7.74C181.08,94.48,141.29,90.52,137.14,88.6Z"/><path class="cls-2" d="M69.05,68.91c-14,0-16,12-16,12l1.28,6.39s69.69-2,95.25,3.92"/><path class="cls-1" d="M91.42,125.06S95,104.7,93.53,91.8a156.88,156.88,0,0,0-4.41-23.18"/><line class="cls-2" x1="57.18" y1="95.45" x2="64.77" y2="95.73"/><line class="cls-2" x1="101.77" y1="95.76" x2="109.36" y2="96.04"/><circle class="cls-1" cx="151.64" cy="119.7" r="13.26"/><circle class="cls-1" cx="42.08" cy="119.7" r="13.26"/></g></svg>