<?xml version="1.0" encoding="utf-8"?>
<!-- Generator: Adobe Illustrator 22.0.0, SVG Export Plug-In . SVG Version: 6.00 Build 0)  -->
<svg version="1.1" id="Layer_1" xmlns="http://www.w3.org/2000/svg" xmlns:xlink="http://www.w3.org/1999/xlink" x="0px" y="0px"
	 viewBox="0 0 378 195" style="enable-background:new 0 0 378 195;" xml:space="preserve">
<style type="text/css">
	.st0{fill:#76777A;}
	.st1{fill:#FFB333;}
	.st2{clip-path:url(#SVGID_2_);fill:url(#SVGID_3_);}
	.st3{clip-path:url(#SVGID_5_);fill:url(#SVGID_6_);}
	.st4{clip-path:url(#SVGID_8_);fill:url(#SVGID_9_);}
	.st5{clip-path:url(#SVGID_11_);fill:url(#SVGID_12_);}
</style>
<g>
	<path class="st0" d="M182.7,94c-3.9,11.1-10.4,25.7-16.9,34.9H163c-4.3,0-6.6-1.6-9.5-6.1c-7.9-12.5-17.9-38.8-19.2-55.2h7.8
		c5,0,8.1,3.9,8.7,7.2c2.1,11.2,5,22.9,11.2,35.3c5.5-11.3,10.6-27.4,12.8-42.5h6.2c5,0,6.8,2.2,6.8,7.2
		C187.7,76.7,186.3,83.9,182.7,94"/>
	<path class="st0" d="M214.6,104.5h-9.5c1.1,7.6,7.8,12.5,16.4,12.5c6.1,0,13.2-1.2,17.9-5.7h0.5v4.7c0,7.7-5.1,13.7-21.1,13.7
		c-14.5,0-28.7-11.9-28.7-30.4c0-20.2,11.9-32.9,28.6-32.9c12.1,0,23.4,9,23.4,23.4C242.1,100.9,233.9,104.5,214.6,104.5
		 M217.3,78.9c-7,0-11.9,5.9-12.3,12.9l-0.1,2h6.5c13.8,0,16.9-1.6,16.9-5.8C228.4,81.9,224.1,78.9,217.3,78.9"/>
	<path class="st0" d="M281.8,82.4c-2.2-0.9-4.7-1.8-8.5-1.8c-6.5,0-10.1,3.7-10.1,12.9v34.8h-4c-6.5,0-10.6-3.4-10.6-9.6V90.8
		c0-12.1,6.2-23.7,21.6-23.7c9,0,12.1,5.3,12.1,9.9v5.4H281.8z"/>
	<path class="st0" d="M292.5,58.1c2-2.4,4.6-4.1,6.8-4.1h3.4v13.7H323v6.2c0,3.1-2.7,7.2-8.7,7.2h-11.6v23.7
		c0,7.9,3.4,10.9,9.2,10.9c4.7,0,8.2-0.7,10.5-2.1h0.5v5.4c0,6.2-4.3,10.1-12.8,10.1c-14.7,0-21.9-8.3-21.9-22.4V70.1
		C288.3,64.2,289.3,62,292.5,58.1"/>
	<path class="st0" d="M348.1,128.8c-11.3,0-17.5-6.6-17.5-18.8V69h4.1c6.5,0,10.4,3.6,10.4,11.2v28.3c0,6.1,2.5,8,8.9,8h2.7v3.3
		C356.8,126.2,354.3,128.8,348.1,128.8"/>
	<path class="st1" d="M346.7,54.7c0,4.9-4,8.9-8.9,8.9c-4.9,0-8.9-4-8.9-8.9c0-4.9,4-8.9,8.9-8.9C342.7,45.8,346.7,49.8,346.7,54.7"
		/>
	<g>
		<path class="st1" d="M171.7,160.3c-4.2,4.2-10.7,5.3-16,2.8l-0.1-0.1l-54.1-26.6c-8.1-3.5-15-5.3-20.6-5.2c-4.8,0-8.6,1.4-11.3,4
			c-2.9,2.9-3.6,6.6-3.7,8.1c0,0.3-2.6,28.5-2.6,28.7c-0.4,4-2.2,7.8-5,10.6c-6.8,6.8-17.8,6.8-24.5,0c-5.7-5.7-6.7-14.4-2.5-21.3h0
			c0.2-0.3,0.6-0.9,0.6-0.9l10.7-15.8l2.1-3.1c6.5-9.5,8.6-17.4,6.3-23.3c-2.8-7.4-6.7-10.2-15.4-11.1c0,0-20.5-2.2-24.5-2.6
			c-2.1-0.1-4-0.9-5.5-2.4c-3.2-3.2-3.2-8.3,0-11.5c1.7-1.7,4.1-2.6,6.5-2.3h0l0.2,0c0,0,0.3,0,0.8,0.1c19.5,2.6,31,4.1,31.6,4.2
			c8.6,0.5,15.1-4,18.9-7.9c2-2,3.8-4.2,5.3-6.7c1-1.9,4.5-9,5.6-19.1l0-0.6c0.4-8.4-1.6-16.7-6-25.7l-0.4-0.8l-7.4-14.1
			c-0.3-0.5-0.9-1.9-1-2.2c-0.7-2.2,0-4.8,1.8-6.7c2.7-2.7,7.2-2.7,9.9,0c0.7,0.7,1.3,1.6,1.7,2.7l5.6,15.7
			c3.4,9.5,12.8,10.9,18.1,10.9c8.2,0,17.4-3.3,24.8-8.7l8.1-6c2.8-1.9,6.6-1.6,9,0.9c2.8,2.8,2.8,7.3,0,10
			c-0.4,0.4-0.9,0.7-1.4,1.1c-0.2,0.1-0.8,0.4-1.1,0.5c-0.9,0.4-16.1,7.5-16.8,7.8c-2.8,1.3-5.1,2.8-6.7,4.3c-1.3,1.3-2,2.6-2.1,3.7
			c-0.2,3.1,3.2,6.6,6.8,8.6l6.9,3.4c0.7,0.4,1.6,0.8,2.3,1.5c2.7,2.7,2.7,7.2,0,9.9c-2.5,2.5-6.5,2.7-9.3,0.5c-2.3-1.9-5.8-4.9-6-5
			l-0.7-0.6c-3.3-2.6-8.3-6.5-13-6.5c-2.4,0-4.7,1.1-6.7,3.1c-1.5,1.5-2.9,3.5-4.2,6c-0.1,0.2-8,15.8,0.1,30.5
			c3.7,6.6,12,15.6,31.1,20.9l47.2,12.6l0,0c2.4,0.6,4.6,1.9,6.3,3.6C177.2,145.8,177.2,154.8,171.7,160.3"/>
		<g>
			<g>
				<defs>
					<path id="SVGID_1_" d="M129.8,23.2l-8.1,6c-7.4,5.4-16.7,8.7-24.8,8.7C83.3,59.7,78.3,76,78.3,88.2v0.2
						c0.1,31.5,33.6,35.1,37.7,35.2h0.2c0.2,0,0.2,0,0.2,0c-17.9-5.3-25.8-14-29.4-20.4c-8.1-14.7-0.2-30.3-0.1-30.5
						c1.3-2.5,2.7-4.6,4.2-6c2.1-2.1,4.3-3.1,6.7-3.1c4.7,0,9.7,3.9,13,6.5l0.7,0.6c0.2,0.1,3.7,3,6,5c2.8,2.2,6.8,2,9.3-0.5
						c2.7-2.7,2.7-7.2,0-9.9c-0.7-0.7-1.6-1.2-2.3-1.5l-7-3.4c-3.6-1.9-7-5.5-6.8-8.6c0.1-1.2,0.8-2.5,2.1-3.7
						c1.5-1.5,3.8-3,6.7-4.3c0.7-0.3,15.9-7.4,16.8-7.8c0.2-0.1,0.9-0.4,1.1-0.5c0.6-0.3,1-0.7,1.4-1.1c2.8-2.8,2.8-7.3,0-10
						c-1.4-1.4-3.2-2.1-5-2.1C132.4,22,131,22.4,129.8,23.2"/>
				</defs>
				<clipPath id="SVGID_2_">
					<use xlink:href="#SVGID_1_"  style="overflow:visible;"/>
				</clipPath>
				
					<linearGradient id="SVGID_3_" gradientUnits="userSpaceOnUse" x1="-296.8755" y1="422.2852" x2="-295.8472" y2="422.2852" gradientTransform="matrix(-80.4556 82.6723 82.6723 80.4556 -58624.0977 -9423.4082)">
					<stop  offset="0" style="stop-color:#FFFFFF"/>
					<stop  offset="1" style="stop-color:#FFA100"/>
				</linearGradient>
				<polygon class="st2" points="192.2,71.4 110.8,155.1 27.6,74.1 109,-9.6 				"/>
			</g>
		</g>
		<path class="st1" d="M43,76.9L43,76.9c-4.9,0-9.1-3.1-10.6-7.7c-0.9-2.8-0.7-5.8,0.7-8.5c1.4-2.6,3.6-4.6,6.5-5.5
			c1.1-0.4,2.2-0.5,3.4-0.5c4.9,0,9.1,3.1,10.6,7.7c0.9,2.8,0.7,5.8-0.7,8.5c-1.3,2.6-3.6,4.6-6.5,5.5C45.3,76.7,44.1,76.9,43,76.9"
			/>
		<g>
			<g>
				<defs>
					<path id="SVGID_4_" d="M112.1,141.7l36.3,17.8L112.1,141.7L112.1,141.7z M60.7,156.8c-3.6,40-27.4,5.6-29.5,4.4l0,0
						c-1.7,2.8-2.6,5.9-2.6,9.1v0c0,4.5,1.7,8.9,5.1,12.2c3.4,3.4,7.7,5,12.1,5.1h0.2c4.4,0,8.8-1.7,12.1-5.1
						c2.8-2.8,4.6-6.6,5-10.6c0-0.2,2.6-28.4,2.6-28.7c0.1-1.4,0.8-5.1,3.7-8.1c2.7-2.6,6.4-4,11.3-4c5.6,0,12.5,1.7,20.6,5.2
						l10.7,5.2c-18.8-13.8-30.8-18.9-38.3-18.9C57.4,122.8,61.6,146.6,60.7,156.8"/>
				</defs>
				<clipPath id="SVGID_5_">
					<use xlink:href="#SVGID_4_"  style="overflow:visible;"/>
				</clipPath>
				
					<linearGradient id="SVGID_6_" gradientUnits="userSpaceOnUse" x1="-285.8516" y1="420.5498" x2="-284.8233" y2="420.5498" gradientTransform="matrix(16.2891 -16.2891 -16.2891 -16.2891 11556.7266 2392.3818)">
					<stop  offset="0" style="stop-color:#FFFFFF"/>
					<stop  offset="1" style="stop-color:#FFA100"/>
				</linearGradient>
				<polygon class="st3" points="-8.4,159.8 88.5,62.9 185.4,159.8 88.5,256.7 				"/>
			</g>
		</g>
		<g>
			<g>
				<defs>
					<path id="SVGID_7_" d="M142.1,156.4l13.3,6.5l0.1,0.1l0,0c1.9,0.9,4,1.4,6,1.4h0.1c3.6,0,7.2-1.4,9.9-4.1
						c2.8-2.8,4.1-6.4,4.1-10c0-3.6-1.4-7.2-4.1-10c-0.8-0.8-1.6-1.5-2.6-2C175,167.1,142.2,156.4,142.1,156.4"/>
				</defs>
				<clipPath id="SVGID_8_">
					<use xlink:href="#SVGID_7_"  style="overflow:visible;"/>
				</clipPath>
				
					<linearGradient id="SVGID_9_" gradientUnits="userSpaceOnUse" x1="-288.1971" y1="420.9439" x2="-287.1688" y2="420.9439" gradientTransform="matrix(22.1762 -22.1762 -22.1762 -22.1762 15874.7002 3106.7656)">
					<stop  offset="0" style="stop-color:#FFFFFF"/>
					<stop  offset="1" style="stop-color:#FFA100"/>
				</linearGradient>
				<polygon class="st4" points="127.7,152.7 158.9,121.5 190.2,152.7 158.9,183.9 				"/>
			</g>
		</g>
		<g>
			<g>
				<defs>
					<path id="SVGID_10_" d="M5.4,102c1.4,1.4,3.3,2.2,5.5,2.4c4,0.4,24.5,2.6,24.5,2.6c8.7,0.9,12.6,3.7,15.4,11.1
						c0.1,0.4,0.3,0.8,0.4,1.2c-1.2-19.1-30.5-18-37.6-17.9c-7.1,0.2-10-8-10-8.1C2.4,96.3,3,99.7,5.4,102"/>
				</defs>
				<clipPath id="SVGID_11_">
					<use xlink:href="#SVGID_10_"  style="overflow:visible;"/>
				</clipPath>
				
					<linearGradient id="SVGID_12_" gradientUnits="userSpaceOnUse" x1="-285.9763" y1="420.6481" x2="-284.948" y2="420.6481" gradientTransform="matrix(16.5927 -16.5927 -16.5927 -16.5927 11743.0566 2349.4529)">
					<stop  offset="0" style="stop-color:#FFFFFF"/>
					<stop  offset="1" style="stop-color:#FFA100"/>
				</linearGradient>
				<polygon class="st5" points="-10.5,106.3 26.8,69 64.1,106.3 26.8,143.6 				"/>
			</g>
		</g>
	</g>
	<g>
		<path class="st0" d="M361.4,54.7c0-2.3,0.7-4.2,2.2-5.7c1.5-1.6,3.3-2.3,5.4-2.3c2.1,0,3.9,0.8,5.4,2.3c1.5,1.6,2.2,3.5,2.2,5.7
			c0,2.3-0.7,4.2-2.2,5.7c-1.5,1.6-3.3,2.3-5.4,2.3c-2.1,0-3.9-0.8-5.4-2.3C362.1,58.8,361.4,56.9,361.4,54.7z M362.3,54.6
			c0,2,0.7,3.7,2,5.1c1.3,1.4,2.9,2.1,4.8,2.1c1.9,0,3.4-0.7,4.8-2.1c1.3-1.4,2-3.1,2-5.1c0-2-0.7-3.7-2-5c-1.3-1.4-2.9-2.1-4.8-2.1
			c-1.9,0-3.4,0.7-4.8,2.1C362.9,51,362.3,52.7,362.3,54.6z M367.3,55.3v3.8h-1.1v-9.2h2.8c1.1,0,1.9,0.2,2.4,0.7
			c0.6,0.5,0.9,1.1,0.9,2c0,0.5-0.1,0.9-0.4,1.3c-0.3,0.4-0.6,0.6-1.1,0.9c0.5,0.2,0.8,0.5,1.1,0.8c0.2,0.4,0.3,0.8,0.3,1.4v0.6
			c0,0.3,0,0.5,0,0.8c0,0.2,0.1,0.4,0.1,0.6v0.2h-1.1c-0.1-0.2-0.1-0.4-0.1-0.7c0-0.3,0-0.6,0-0.9V57c0-0.6-0.1-1-0.4-1.3
			c-0.3-0.3-0.7-0.4-1.4-0.4H367.3z M367.3,54.3h1.9c0.6,0,1-0.1,1.4-0.4c0.4-0.3,0.6-0.7,0.6-1.2c0-0.6-0.2-1-0.5-1.3
			c-0.3-0.3-0.9-0.4-1.7-0.4h-1.7V54.3z"/>
	</g>
</g>
</svg>
