<?xml version="1.0" encoding="UTF-8"?>
<svg width="88px" height="82px" viewBox="0 0 88 82" version="1.1" xmlns="http://www.w3.org/2000/svg" xmlns:xlink="http://www.w3.org/1999/xlink">
    <!-- Generator: sketchtool 55.2 (78181) - https://sketchapp.com -->
    <title>EB423E29-72FC-4EA3-BAA6-B94D24F23236</title>
    <desc>Created with sketchtool.</desc>
    <g id="Payment" stroke="none" stroke-width="1" fill="none" fill-rule="evenodd">
        <g id="PayConfirm_768-991px-/-PaySuccess" transform="translate(-340.000000, -135.000000)" stroke="#8B1863" stroke-width="2">
            <g id="Welcome-Icon" transform="translate(341.000000, 136.000000)">
                <path d="M49.8209014,4.14783099 L49.8209014,0.563042254" id="Stroke-1" stroke-linecap="round"></path>
                <path d="M57.743662,12.0708732 L61.3284507,12.0708732" id="Stroke-3" stroke-linecap="round"></path>
                <path d="M55.4230423,6.4684507 L57.9576901,3.93380282" id="Stroke-4" stroke-linecap="round"></path>
                <path d="M44.2184225,6.4684507 L41.6837746,3.93380282" id="Stroke-5" stroke-linecap="round"></path>
                <path d="M55.4230423,17.6730704 L57.9576901,20.2077183" id="Stroke-6" stroke-linecap="round"></path>
                <g id="Group-39" transform="translate(0.000000, 5.984225)">
                    <path d="M15.3020282,7.32923944 C16.0575211,4.41374648 18.7059718,2.26107042 21.8580845,2.26107042 C23.980338,2.26107042 25.8744225,3.23684507 27.1161127,4.76473239" id="Stroke-7" stroke-linecap="round"></path>
                    <path d="M49.8209014,0.725239437 C46.8597746,0.725239437 44.4592113,3.12580282 44.4592113,6.0863662 C44.4592113,6.51397183 44.5149859,6.92749296 44.6096338,7.32580282 C46.0563944,8.19115493 47.2062535,9.5004507 47.8597746,11.0722817 C48.467662,11.3117183 49.1279437,11.4480563 49.8209014,11.4480563 C52.7814648,11.4480563 55.1820282,9.04749296 55.1820282,6.0863662 C55.1820282,3.12580282 52.7814648,0.725239437 49.8209014,0.725239437 Z" id="Stroke-9" stroke-linecap="round"></path>
                    <path d="M40.3187606,6.27042254 C39.4387606,2.87323944 36.3514366,0.363943662 32.6787606,0.363943662 C30.2060845,0.363943662 27.9987606,1.50140845 26.552,3.28169014" id="Stroke-11" stroke-linecap="round"></path>
                    <path d="M79.5364507,40.4138028 C81.4784225,41.5428169 83.363493,42.7580282 85.1882817,44.0532394" id="Stroke-13" stroke-linecap="round"></path>
                    <path d="M37.4886761,30.5813521 C39.1016338,30.476 40.7286761,30.4230423 42.3686761,30.4230423 C52.2898028,30.4230423 61.7551549,32.3745915 70.4019155,35.9143099" id="Stroke-15" stroke-linecap="round"></path>
                    <path d="M21.5277746,33.396338 C24.0866479,32.6470423 26.7029859,32.0323944 29.368338,31.5602817" id="Stroke-17" stroke-linecap="round"></path>
                    <path d="M-5.63380282e-05,43.735493 C3.49121127,41.2949296 7.20276056,39.1484507 11.0985352,37.3304225" id="Stroke-19" stroke-linecap="round"></path>
                    <path d="M26.552,73.8029296 C26.552,73.8029296 52.9215775,54.316169 42.368338,30.4226479 C45.7181972,30.2851831 49.3210141,30.6739155 52.9796056,31.1787042 C61.8336901,33.3629296 72.3243944,49.1741972 66.1700282,73.8029296" id="Stroke-21" stroke-linecap="round"></path>
                    <path d="M47.868,73.8029296 C57.4572958,62.076169 59.5356056,41.1347606 48.4308169,30.8891268" id="Stroke-23" stroke-dasharray="10,5"></path>
                    <path d="M16.9935211,56.3466479 L16.9935211,49.5945352" id="Stroke-25"></path>
                    <path d="M18.7667606,25.0701972 C17.7915493,22.1293521 16.195493,22.1293521 15.2202817,25.0701972 L8.86084507,44.2470986 C7.8856338,47.1879437 9.62309859,49.5947042 12.7216901,49.5947042 L21.2659155,49.5947042 C24.364507,49.5947042 26.1014085,47.1879437 25.1261972,44.2470986 L18.7667606,25.0701972 Z" id="Stroke-27" stroke-linecap="round"></path>
                    <path d="M33.3895775,38.3033239 L33.3895775,34.4830423" id="Stroke-29"></path>
                    <path d="M35.1628169,22.9281127 C34.1876056,19.9867042 32.5915493,19.9867042 31.616338,22.9281127 L29.5577465,29.1354366 C28.5825352,32.0768451 30.3064789,34.4830423 33.3898592,34.4830423 C36.4721127,34.4830423 38.1966197,32.0768451 37.2214085,29.1354366 L35.1628169,22.9281127 Z" id="Stroke-31" stroke-linecap="round"></path>
                    <path d="M75.4962254,48.7385352 L75.4962254,43.0934648" id="Stroke-33"></path>
                    <path d="M79.6368451,28.8710986 C77.359662,21.0485634 73.6329014,21.0485634 71.3551549,28.8710986 C69.0779718,36.6936338 70.9410704,43.0936338 75.496,43.0936338 C80.0509296,43.0936338 81.9140282,36.6936338 79.6368451,28.8710986 Z" id="Stroke-35" stroke-linecap="round"></path>
                    <path d="M35.7102535,7.87915493 C37.0499718,6.83014085 38.7372958,6.20535211 40.5705352,6.20535211 C44.9288451,6.20535211 48.4623662,9.73830986 48.4623662,14.0966197 L11.1310986,14.0966197" id="Stroke-37" stroke-linecap="round"></path>
                </g>
            </g>
        </g>
    </g>
</svg>