<?xml version="1.0" encoding="UTF-8"?>
<svg width="91px" height="31px" viewBox="0 0 91 31" version="1.1" xmlns="http://www.w3.org/2000/svg" xmlns:xlink="http://www.w3.org/1999/xlink">
    <!-- Generator: sketchtool 53.2 (72643) - https://sketchapp.com -->
    <title>900A5E8D-4558-4F8B-909D-A83184834B92</title>
    <desc>Created with sketchtool.</desc>
    <defs>
        <path d="M6.94344,18.9135933 C7.52064967,17.70263 9.02219667,16.75 10.3663567,16.75 L52.08719,16.75 C53.3424833,16.75 55.1145467,17.3352903 56.1235967,18.07804 L67.6514633,26.59901 C68.478936,27.2125517 70.0450767,27.7251367 71.07438,27.7251367 L86.3160467,28.0696033 C87.6843867,28.0696033 89.093131,28.7463697 89.5250644,30.042087 L90.800611,33.8686237 C91.2042517,35.083617 91.1961814,36.6820803 90.780428,37.5135003 L89.4887613,40.0968337 C89.0447483,40.9808193 87.652219,41.6750437 86.316119,41.6750437 L83.216119,41.6750437 C82.9295343,41.6750437 82.6994523,41.4449617 82.6994523,41.158377 C82.6994523,37.1703303 79.4541657,33.9250437 75.466119,33.9250437 C71.4780723,33.9250437 68.2327857,37.1703303 68.2327857,41.158377 C68.2327857,42.1553783 67.4214537,42.9667103 66.4244523,42.9667103 L34.1327857,42.9707403 C33.1357843,42.9707403 32.3244523,42.1594083 32.3244523,41.162407 C32.3244523,37.1743603 29.0791657,33.9290737 25.091119,33.9290737 C21.1030723,33.9290737 17.8577857,37.1743603 17.8577857,41.162407 C17.8577857,42.1594083 17.0464537,42.9707403 16.0494523,42.9707403 L9.07445233,42.9707403 C7.80696567,42.9707403 6.06321567,42.324907 5.10252567,41.5014437 L3.71806567,40.3187937 C2.870412,39.5922363 1.97028567,38.280337 1.97028567,37.287407 L1.97028567,31.6040737 C1.97028567,30.4011703 2.39007733,28.5363137 2.90270367,27.4505903 L6.94344,18.9135933 Z M44.5958333,28.2458643 C44.5958333,28.532449 44.8259153,28.762531 45.1125,28.762531 L63.8416667,28.762531 C63.9183607,28.762531 63.9910143,28.74235 64.0555977,28.7140883 C64.0757787,28.706018 64.0878893,28.6898773 64.1080703,28.6817967 C64.156513,28.6535453 64.196875,28.6212537 64.2331967,28.5808917 C64.241267,28.5728213 64.2493477,28.568781 64.257418,28.5607107 C64.2695287,28.5445597 64.2735587,28.5243787 64.2856693,28.5041977 C64.3058503,28.471906 64.317961,28.4436547 64.3300717,28.4073227 C64.3421823,28.375031 64.3462227,28.338699 64.3502527,28.3023773 C64.354293,28.2821963 64.3623633,28.2660453 64.3623633,28.2418343 C64.3623633,28.2297237 64.354293,28.221643 64.354293,28.2095427 C64.3502527,28.1732107 64.3421823,28.140919 64.334112,28.1045973 C64.3260417,28.0723057 64.317961,28.044044 64.3058503,28.0157927 C64.29375,27.987531 64.2735587,27.96332 64.2533777,27.9390987 C64.2331967,27.9108473 64.2130157,27.8825857 64.1847643,27.8583643 C64.1766837,27.850294 64.1726537,27.8381833 64.164573,27.8341533 L54.00485,20.0640033 C53.4680023,19.652282 52.5154033,19.3293653 51.8372267,19.3293653 L45.12056,19.3293653 C44.8339753,19.3293653 44.6038933,19.5594473 44.6038933,19.846032 L44.5958333,28.2458643 Z M30.5001333,28.568781 C30.5970083,28.6898773 30.746356,28.762531 30.903774,28.762531 L42.528774,28.762531 C42.8153587,28.762531 43.0454407,28.532449 43.0454407,28.2458643 L43.0454407,19.850031 C43.0454407,19.5634463 42.8153587,19.3333643 42.528774,19.3333643 L32.841274,19.3333643 C32.6031217,19.3333643 32.393231,19.498863 32.336718,19.732975 L30.399218,28.1288083 C30.3669263,28.2821963 30.4032583,28.4436547 30.5001333,28.568781 Z M18.6126667,28.762531 L18.6328477,28.762531 L28.3203477,28.762531 C28.5585,28.762531 28.7683907,28.5970323 28.8249037,28.3629203 L30.7624037,19.967087 C30.7987357,19.813699 30.7624037,19.6522407 30.6614987,19.5271143 C30.5646237,19.406018 30.415276,19.3333643 30.257858,19.3333643 L21.2161913,19.3333643 C20.9901497,19.3333643 20.7883293,19.482712 20.723746,19.696643 L18.180816,27.9633097 C18.128333,28.044044 18.1000817,28.140919 18.1000817,28.2458643 C18.0960413,28.532449 18.3261233,28.762531 18.612708,28.762531 L18.6126667,28.762531 Z M5.86133333,28.3225583 C5.86537367,28.3588903 5.86940367,28.3992523 5.88151433,28.431544 C5.893625,28.4638357 5.913806,28.492087 5.933987,28.5203487 C5.950138,28.5445597 5.96224867,28.5768513 5.98645967,28.5970427 C6.01472133,28.625294 6.047013,28.645475 6.07930467,28.665656 C6.09948567,28.681807 6.11562633,28.6979477 6.13984767,28.7100583 C6.143888,28.7100583 6.143888,28.7100583 6.147918,28.7140987 C6.21250133,28.74235 6.281125,28.758501 6.35780867,28.758501 L16.0493387,28.762531 C16.2753803,28.762531 16.4772007,28.6131833 16.541784,28.3992523 L19.1251173,20.003419 C19.133198,19.9791977 19.1291577,19.9549867 19.133198,19.9307653 C19.137228,19.9025037 19.1493387,19.8782927 19.1493387,19.850031 C19.1493387,19.8419607 19.1453087,19.8338903 19.1453087,19.82582 C19.1412683,19.789488 19.133198,19.753156 19.1251173,19.7168343 C19.117047,19.6885727 19.1089767,19.656281 19.096866,19.6280297 C19.0807253,19.599768 19.060534,19.5715167 19.040353,19.5472953 C19.020172,19.519044 19.0040313,19.4948227 18.97981,19.4706013 C18.9555887,19.4504203 18.9273373,19.4383097 18.903116,19.4181287 C18.8708243,19.3979477 18.842573,19.3777667 18.806241,19.365656 C18.7981707,19.361626 18.7901003,19.3575857 18.78606,19.3535453 C18.7618387,19.345475 18.7335873,19.3495153 18.709366,19.345475 C18.6851447,19.3414347 18.6609337,19.3293343 18.632672,19.3293343 L11.270172,19.3293343 C10.5072827,19.3293343 9.65558867,19.8742523 9.336702,20.5685077 L5.89363533,28.023801 C5.89363533,28.027831 5.89363533,28.0318713 5.88960533,28.0318713 C5.87749467,28.0601227 5.87345433,28.0964547 5.865384,28.1287463 C5.85731367,28.161038 5.845203,28.1973597 5.845203,28.2296513 C5.845203,28.2336917 5.84116267,28.2336917 5.84116267,28.237732 C5.845203,28.2740537 5.85731367,28.298275 5.86134367,28.3224963 L5.86133333,28.3225583 Z M75.1024821,35.60885 C78.1560912,35.60885 80.6333333,38.1283471 80.6333333,41.23385 C80.6333333,44.3394391 78.1560064,46.85885 75.1024821,46.85885 C72.048873,46.85885 69.5716309,44.3393529 69.5716309,41.23385 C69.5716309,38.124898 72.0489577,35.60885 75.1024821,35.60885 Z M75.1024821,44.016084 C76.6126688,44.016084 77.8381482,42.7698301 77.8381482,41.23385 C77.8381482,39.6978699 76.6127536,38.451616 75.1024821,38.451616 C73.588904,38.451616 72.3668159,39.6978699 72.3668159,41.23385 C72.3668159,42.7698301 73.5922106,44.016084 75.1024821,44.016084 Z M25.1687916,35.7375979 C28.2257073,35.7375979 30.6996428,38.257095 30.6996428,41.3625979 C30.6996428,44.468187 28.2223159,46.9875979 25.1687916,46.9875979 C22.1152672,46.9875979 19.6379403,44.4681008 19.6379403,41.3625979 C19.6379403,38.2536459 22.1119606,35.7375979 25.1687916,35.7375979 Z M25.1687916,44.1448319 C26.6789783,44.1448319 27.9044577,42.898578 27.9044577,41.3625979 C27.9044577,39.8266178 26.6790631,38.580364 25.1687916,38.580364 C23.65852,38.580364 22.4331254,39.8266178 22.4331254,41.3625979 C22.4298103,42.8984918 23.6552134,44.1448319 25.1687916,44.1448319 Z" id="path-1"></path>
    </defs>
    <g id="Vehicle-Summary" stroke="none" stroke-width="1" fill="none" fill-rule="evenodd">
        <g id="Vehicle-Icons" transform="translate(-691.000000, -642.000000)">
            <g id="04_Icons-/-Vehicles-/-Waggon" transform="translate(690.000000, 626.000000)">
                <mask id="mask-2" fill="white">
                    <use xlink:href="#path-1"></use>
                </mask>
                <use id="Combined-Shape" fill="#4C4C4C" fill-rule="evenodd" xlink:href="#path-1"></use>
                <g id="00_Basics-/-Colors-/-Gray-/-700" mask="url(#mask-2)" fill="#777770" fill-rule="evenodd">
                    <g transform="translate(-5.000000, -26.000000)" id="Rectangle-2">
                        <rect x="0" y="0" width="101" height="101"></rect>
                    </g>
                </g>
            </g>
        </g>
    </g>
</svg>